<svg width="16" height="16" viewBox="0 0 16 16" fill="none" xmlns="http://www.w3.org/2000/svg">
<g clip-path="url(#clip0_2011_9024)">
<path opacity="0.4" d="M1.60003 10.4081L1.62503 13.5831C1.62753 14.0256 1.99003 14.3806 2.43253 14.3756C2.87503 14.3706 3.23003 14.0106 3.22503 13.5681L3.21503 12.2806L3.48253 12.5331C4.64003 13.6856 6.23753 14.4006 8.00003 14.4006C11.225 14.4006 13.8925 12.0156 14.335 8.91312C14.3975 8.47562 14.0925 8.07062 13.6575 8.00812C13.2225 7.94562 12.815 8.25062 12.7525 8.68562C12.42 11.0106 10.4175 12.7981 8.00003 12.7981C6.67503 12.7981 5.47503 12.2606 4.60503 11.3931C4.60003 11.3881 4.59503 11.3831 4.59003 11.3781L4.40003 11.1981H5.59753C6.04003 11.1981 6.39753 10.8406 6.39753 10.3981C6.39753 9.95562 6.04003 9.59812 5.59753 9.59812L2.40003 9.60062C2.18753 9.60062 1.98253 9.68562 1.83253 9.83812C1.68253 9.99062 1.59753 10.1931 1.60003 10.4081Z" fill="currentColor"/>
<path d="M7.99979 3.19961C5.58229 3.19961 3.58229 4.98711 3.24729 7.31211C3.18479 7.74961 2.77979 8.05211 2.34229 7.98961C1.90479 7.92711 1.60229 7.52461 1.66479 7.08711C2.10729 3.98461 4.77479 1.59961 7.99979 1.59961C9.76229 1.59961 11.3623 2.31461 12.5173 3.46711L12.7998 3.73461V2.39961C12.7998 1.95711 13.1573 1.59961 13.5998 1.59961C14.0423 1.59961 14.3998 1.95711 14.3998 2.39961V5.59961C14.3998 6.04211 14.0423 6.39961 13.5998 6.39961H10.3998C9.95729 6.39961 9.59979 6.04211 9.59979 5.59961C9.59979 5.15711 9.95729 4.79961 10.3998 4.79961H11.5973L11.4073 4.61961C11.4023 4.61461 11.3973 4.60961 11.3923 4.60461C10.5223 3.73461 9.32479 3.19961 7.99729 3.19961H7.99979Z" fill="currentColor"/>
</g>
<defs>
<clipPath id="clip0_2011_9024">
<rect width="16" height="16" fill="currentColor"/>
</clipPath>
</defs>
</svg>