<svg width="16" height="16" viewBox="0 0 16 16" fill="none" xmlns="http://www.w3.org/2000/svg">
<g clip-path="url(#clip0_2011_4857)">
<path opacity="0.4" d="M8 3.40039V14.5329C8.105 14.5329 8.21 14.5129 8.3075 14.4704L8.6275 14.3379C9.7975 13.8504 11.0525 13.6004 12.32 13.6004H13.2C13.8625 13.6004 14.4 13.0629 14.4 12.4004V3.60039C14.4 2.93789 13.8625 2.40039 13.2 2.40039H12.32C11.0525 2.40039 9.7975 2.65039 8.6275 3.13789L8 3.40039Z" fill="currentColor"/>
<path d="M7.99998 3.40039L7.37248 3.13789C6.20248 2.65039 4.94748 2.40039 3.67998 2.40039H2.79998C2.13748 2.40039 1.59998 2.93789 1.59998 3.60039V12.4004C1.59998 13.0629 2.13748 13.6004 2.79998 13.6004H3.67998C4.94748 13.6004 6.20248 13.8504 7.37248 14.3379L7.69248 14.4704C7.78998 14.5104 7.89498 14.5329 7.99998 14.5329V3.40039Z" fill="currentColor"/>
</g>
<defs>
<clipPath id="clip0_2011_4857">
<rect width="16" height="16" fill="currentColor"/>
</clipPath>
</defs>
</svg>