<svg width="16" height="16" viewBox="0 0 16 16" fill="none" xmlns="http://www.w3.org/2000/svg">
<g clip-path="url(#clip0_2011_10952)">
<path opacity="0.4" d="M4.39999 8.00039C4.39999 9.98789 6.01249 11.6004 7.99999 11.6004C9.98749 11.6004 11.6 9.98789 11.6 8.00039C11.6 6.01289 9.98749 4.40039 7.99999 4.40039C6.01249 4.40039 4.39999 6.01289 4.39999 8.00039ZM9.99999 8.00039C9.99999 9.10539 9.10499 10.0004 7.99999 10.0004C6.89499 10.0004 5.99999 9.10539 5.99999 8.00039C5.99999 6.89539 6.89499 6.00039 7.99999 6.00039C9.10499 6.00039 9.99999 6.89539 9.99999 8.00039Z" fill="currentColor"/>
<path d="M12.8 7.99961C12.8 5.34961 10.65 3.19961 8.00001 3.19961C5.35001 3.19961 3.20001 5.34961 3.20001 7.99961C3.20001 10.6496 5.35001 12.7996 8.00001 12.7996C10.65 12.7996 12.8 10.6496 12.8 7.99961ZM1.60001 7.99961C1.60001 4.46461 4.46501 1.59961 8.00001 1.59961C11.535 1.59961 14.4 4.46461 14.4 7.99961C14.4 11.5346 11.535 14.3996 8.00001 14.3996C4.46501 14.3996 1.60001 11.5346 1.60001 7.99961ZM8.00001 7.19961C8.44251 7.19961 8.80001 7.55711 8.80001 7.99961C8.80001 8.44211 8.44251 8.79961 8.00001 8.79961C7.55751 8.79961 7.20001 8.44211 7.20001 7.99961C7.20001 7.55711 7.55751 7.19961 8.00001 7.19961Z" fill="currentColor"/>
</g>
<defs>
<clipPath id="clip0_2011_10952">
<rect width="16" height="16" fill="currentColor"/>
</clipPath>
</defs>
</svg>