<svg width="16" height="16" viewBox="0 0 16 16" fill="none" xmlns="http://www.w3.org/2000/svg">
<g clip-path="url(#clip0_2011_1338)">
<path opacity="0.4" d="M1.59998 3.20039V11.6004C1.59998 12.7054 2.49498 13.6004 3.59998 13.6004H13.6C14.0425 13.6004 14.4 13.2429 14.4 12.8004C14.4 12.3579 14.0425 12.0004 13.6 12.0004H3.59998C3.37998 12.0004 3.19998 11.8204 3.19998 11.6004V3.20039C3.19998 2.75789 2.84248 2.40039 2.39998 2.40039C1.95748 2.40039 1.59998 2.75789 1.59998 3.20039Z" fill="currentColor"/>
<path d="M5.59999 3.2002C5.15749 3.2002 4.79999 3.5577 4.79999 4.0002C4.79999 4.4427 5.15749 4.8002 5.59999 4.8002H10.4C10.8425 4.8002 11.2 4.4427 11.2 4.0002C11.2 3.5577 10.8425 3.2002 10.4 3.2002H5.59999ZM5.59999 6.0002C5.15749 6.0002 4.79999 6.3577 4.79999 6.8002C4.79999 7.24269 5.15749 7.60019 5.59999 7.60019H8.79999C9.24249 7.60019 9.59999 7.24269 9.59999 6.8002C9.59999 6.3577 9.24249 6.0002 8.79999 6.0002H5.59999ZM5.59999 8.80019C5.15749 8.80019 4.79999 9.15769 4.79999 9.60019C4.79999 10.0427 5.15749 10.4002 5.59999 10.4002H12C12.4425 10.4002 12.8 10.0427 12.8 9.60019C12.8 9.15769 12.4425 8.80019 12 8.80019H5.59999Z" fill="currentColor"/>
</g>
<defs>
<clipPath id="clip0_2011_1338">
<rect width="16" height="16" fill="currentColor"/>
</clipPath>
</defs>
</svg>