<svg width="16" height="16" viewBox="0 0 16 16" fill="none" xmlns="http://www.w3.org/2000/svg">
<g clip-path="url(#clip0_2011_4316)">
<path opacity="0.4" d="M1.59998 7.99961C1.59998 11.5346 4.46498 14.3996 7.99998 14.3996C11.535 14.3996 14.4 11.5346 14.4 7.99961C14.4 4.46461 11.535 1.59961 7.99998 1.59961C4.46498 1.59961 1.59998 4.46461 1.59998 7.99961ZM4.97748 8.17711C5.21248 7.94211 5.59248 7.94211 5.82498 8.17711L7.12748 9.47961L10.1125 5.37461C10.3075 5.10711 10.6825 5.04711 10.95 5.24211C11.2175 5.43711 11.2775 5.81211 11.0825 6.07961L7.68498 10.7521C7.58248 10.8946 7.42248 10.9846 7.24748 10.9971C7.07248 11.0096 6.89998 10.9471 6.77748 10.8221L4.97748 9.02211C4.74248 8.78711 4.74248 8.40711 4.97748 8.17461V8.17711Z" fill="currentColor"/>
<path d="M10.1128 5.37508C10.3078 5.10758 10.6828 5.04758 10.9503 5.24258C11.2178 5.43758 11.2778 5.81258 11.0828 6.08008L7.68532 10.7526C7.58282 10.8951 7.42282 10.9851 7.24782 10.9976C7.07282 11.0101 6.90032 10.9476 6.77782 10.8226L4.97782 9.02258C4.74282 8.78758 4.74282 8.40758 4.97782 8.17508C5.21282 7.94258 5.59282 7.94008 5.82532 8.17508L7.12782 9.48008L10.1128 5.37508Z" fill="currentColor"/>
</g>
<defs>
<clipPath id="clip0_2011_4316">
<rect width="16" height="16" fill="currentColor"/>
</clipPath>
</defs>
</svg>