<svg width="16" height="16" viewBox="0 0 16 16" fill="none" xmlns="http://www.w3.org/2000/svg">
<g clip-path="url(#clip0_2011_4336)">
<path opacity="0.4" d="M1.60001 7.99961C1.60001 11.5346 4.46501 14.3996 8.00001 14.3996C11.535 14.3996 14.4 11.5346 14.4 7.99961C14.4 4.46461 11.535 1.59961 8.00001 1.59961C4.46501 1.59961 1.60001 4.46461 1.60001 7.99961ZM7.20001 10.3996C7.20001 9.95711 7.55751 9.59961 8.00001 9.59961C8.22001 9.59961 8.42001 9.68961 8.56501 9.83461C8.63751 9.90711 8.69501 9.99461 8.73751 10.0896C8.76251 10.1496 8.78001 10.2121 8.78501 10.2396C8.79501 10.3021 8.79751 10.3296 8.79751 10.3171C8.80001 10.3571 8.80001 10.3571 8.80251 10.4071C8.80001 10.4746 8.79751 10.4996 8.79751 10.4871C8.79001 10.5396 8.78751 10.5521 8.78501 10.5646C8.77501 10.6146 8.75751 10.6646 8.73751 10.7146C8.69751 10.8096 8.63751 10.8946 8.56751 10.9671C8.42251 11.1121 8.22251 11.2021 8.00251 11.2021C7.56001 11.2021 7.20251 10.8446 7.20251 10.4021L7.20001 10.3996ZM7.21751 5.51211C7.22251 5.47211 7.22251 5.47211 7.22751 5.43461C7.22501 5.44461 7.23001 5.41711 7.24751 5.35711C7.26001 5.32211 7.26001 5.31961 7.26001 5.31961C7.29751 5.21961 7.35251 5.12711 7.42501 5.05211C7.56751 4.89711 7.77251 4.80211 8.00001 4.80211C8.45501 4.80211 8.81751 5.18961 8.78501 5.64461C8.72251 6.51461 8.66001 7.37961 8.60001 8.24461C8.60001 8.24961 8.60001 8.25211 8.60001 8.25961C8.59751 8.27211 8.59751 8.28461 8.59501 8.30211C8.59501 8.30461 8.59251 8.30961 8.59251 8.31461C8.59001 8.32961 8.58501 8.34461 8.58251 8.36211C8.57251 8.39711 8.56001 8.43211 8.54251 8.46711C8.51001 8.53461 8.46501 8.59461 8.41251 8.64211C8.30501 8.74211 8.16001 8.80211 8.00251 8.80211C7.68751 8.80211 7.42751 8.55961 7.40501 8.24461C7.34251 7.37461 7.28001 6.50961 7.22001 5.64461C7.22001 5.64211 7.22001 5.63961 7.21751 5.59961C7.21751 5.55961 7.21751 5.55711 7.22001 5.51711L7.21751 5.51211Z" fill="currentColor"/>
<path d="M8.00001 11.1998C7.55751 11.1998 7.20001 10.8423 7.20001 10.3998C7.20001 9.9573 7.55751 9.5998 8.00001 9.5998C8.44251 9.5998 8.80001 9.9573 8.80001 10.3998C8.80001 10.8423 8.44251 11.1998 8.00001 11.1998ZM8.00001 4.7998C8.45751 4.7998 8.81751 5.1873 8.78501 5.6423L8.60001 8.24231C8.57501 8.55731 8.31501 8.7998 8.00001 8.7998C7.68501 8.7998 7.42501 8.55731 7.40251 8.24231L7.21751 5.6423C7.18251 5.1873 7.54251 4.7998 8.00001 4.7998Z" fill="currentColor"/>
</g>
<defs>
<clipPath id="clip0_2011_4336">
<rect width="16" height="16" fill="currentColor"/>
</clipPath>
</defs>
</svg>