<svg width="16" height="16" viewBox="0 0 16 16" fill="none" xmlns="http://www.w3.org/2000/svg">
<g clip-path="url(#clip0_2011_4344)">
<path opacity="0.4" d="M1.59998 7.99961C1.59998 11.5346 4.46498 14.3996 7.99998 14.3996C11.535 14.3996 14.4 11.5346 14.4 7.99961C14.4 4.46461 11.535 1.59961 7.99998 1.59961C4.46498 1.59961 1.59998 4.46461 1.59998 7.99961ZM6.06998 6.92961C6.06998 5.86461 6.93498 4.99961 7.99998 4.99961C9.06498 4.99961 9.92998 5.86461 9.92998 6.92961C9.92998 8.06711 9.06748 8.54711 8.58748 8.72461C8.52998 8.99461 8.28998 9.19961 7.99998 9.19961C7.66748 9.19961 7.39998 8.93211 7.39998 8.59961C7.39998 8.09461 7.76498 7.73461 8.13748 7.61211C8.28748 7.56211 8.44498 7.48461 8.55748 7.37461C8.65498 7.27961 8.72998 7.14961 8.72998 6.93211C8.72998 6.52961 8.40248 6.20211 7.99998 6.20211C7.59748 6.20211 7.26998 6.52961 7.26998 6.93211C7.26998 7.26461 7.00248 7.53211 6.66998 7.53211C6.33748 7.53211 6.06998 7.26461 6.06998 6.93211V6.92961ZM8.69998 10.3996C8.69998 10.7871 8.38748 11.0996 7.99998 11.0996C7.61248 11.0996 7.29998 10.7871 7.29998 10.3996C7.29998 10.0121 7.61248 9.69961 7.99998 9.69961C8.38748 9.69961 8.69998 10.0121 8.69998 10.3996Z" fill="currentColor"/>
<path d="M7.27031 6.92957C7.27031 6.52707 7.59781 6.19957 8.00031 6.19957C8.40281 6.19957 8.73031 6.52707 8.73031 6.92957C8.73031 7.14707 8.65281 7.27707 8.55781 7.37207C8.44531 7.48207 8.29031 7.55957 8.13781 7.60957C7.76531 7.73457 7.40031 8.09207 7.40031 8.59707C7.40031 8.92957 7.66781 9.19707 8.00031 9.19707C8.28781 9.19707 8.53031 8.99457 8.58781 8.72207C9.06781 8.54457 9.93031 8.06457 9.93031 6.92707C9.93031 5.86207 9.06531 4.99707 8.00031 4.99707C6.93531 4.99707 6.07031 5.86207 6.07031 6.92707C6.07031 7.25957 6.33781 7.52707 6.67031 7.52707C7.00281 7.52707 7.27031 7.25957 7.27031 6.92707V6.92957ZM8.00031 11.0996C8.38781 11.0996 8.70031 10.7871 8.70031 10.3996C8.70031 10.0121 8.38781 9.69957 8.00031 9.69957C7.61281 9.69957 7.30031 10.0121 7.30031 10.3996C7.30031 10.7871 7.61281 11.0996 8.00031 11.0996Z" fill="currentColor"/>
</g>
<defs>
<clipPath id="clip0_2011_4344">
<rect width="16" height="16" fill="currentColor"/>
</clipPath>
</defs>
</svg>