<svg width="16" height="16" viewBox="0 0 16 16" fill="none" xmlns="http://www.w3.org/2000/svg">
<g clip-path="url(#clip0_2011_11658)">
<path opacity="0.4" d="M1.59998 7.99961C1.59998 11.5346 4.46498 14.3996 7.99998 14.3996C11.535 14.3996 14.4 11.5346 14.4 7.99961C14.4 4.46461 11.535 1.59961 7.99998 1.59961C4.46498 1.59961 1.59998 4.46461 1.59998 7.99961ZM6.39998 7.79961C6.39998 7.46711 6.66748 7.19961 6.99998 7.19961H8.19998C8.53248 7.19961 8.79998 7.46711 8.79998 7.79961V9.99961H8.99998C9.33248 9.99961 9.59998 10.2671 9.59998 10.5996C9.59998 10.9321 9.33248 11.1996 8.99998 11.1996H6.99998C6.66748 11.1996 6.39998 10.9321 6.39998 10.5996C6.39998 10.2671 6.66748 9.99961 6.99998 9.99961H7.59998V8.39961H6.99998C6.66748 8.39961 6.39998 8.13211 6.39998 7.79961ZM8.79998 5.59961C8.79998 6.04211 8.44248 6.39961 7.99998 6.39961C7.55748 6.39961 7.19998 6.04211 7.19998 5.59961C7.19998 5.15711 7.55748 4.79961 7.99998 4.79961C8.44248 4.79961 8.79998 5.15711 8.79998 5.59961Z" fill="currentColor"/>
<path d="M8.00002 4.80078C8.44252 4.80078 8.80002 5.15828 8.80002 5.60078C8.80002 6.04328 8.44252 6.40078 8.00002 6.40078C7.55752 6.40078 7.20002 6.04328 7.20002 5.60078C7.20002 5.15828 7.55752 4.80078 8.00002 4.80078ZM6.40002 7.80078C6.40002 7.46828 6.66752 7.20078 7.00002 7.20078H8.20002C8.53252 7.20078 8.80002 7.46828 8.80002 7.80078V10.0008H9.00002C9.33252 10.0008 9.60002 10.2683 9.60002 10.6008C9.60002 10.9333 9.33252 11.2008 9.00002 11.2008H7.00002C6.66752 11.2008 6.40002 10.9333 6.40002 10.6008C6.40002 10.2683 6.66752 10.0008 7.00002 10.0008H7.60002V8.40078H7.00002C6.66752 8.40078 6.40002 8.13328 6.40002 7.80078Z" fill="currentColor"/>
</g>
<defs>
<clipPath id="clip0_2011_11658">
<rect width="16" height="16" fill="currentColor"/>
</clipPath>
</defs>
</svg>