<svg width="16" height="16" viewBox="0 0 16 16" fill="none" xmlns="http://www.w3.org/2000/svg">
<g clip-path="url(#clip0_2011_4965)">
<path opacity="0.4" d="M3.19995 3.99961V12.7996C3.19995 13.6821 3.91745 14.3996 4.79995 14.3996H11.2C12.0825 14.3996 12.8 13.6821 12.8 12.7996V3.99961C12.8 3.11711 12.0825 2.39961 11.2 2.39961H10.985C10.71 1.92211 10.1925 1.59961 9.59995 1.59961H6.39995C5.80745 1.59961 5.28995 1.92211 5.01495 2.39961H4.79995C3.91745 2.39961 3.19995 3.11711 3.19995 3.99961ZM6.39995 7.99961C6.39995 8.44211 6.04245 8.79961 5.59995 8.79961C5.15745 8.79961 4.79995 8.44211 4.79995 7.99961C4.79995 7.55711 5.15745 7.19961 5.59995 7.19961C6.04245 7.19961 6.39995 7.55711 6.39995 7.99961ZM6.39995 11.1996C6.39995 11.6421 6.04245 11.9996 5.59995 11.9996C5.15745 11.9996 4.79995 11.6421 4.79995 11.1996C4.79995 10.7571 5.15745 10.3996 5.59995 10.3996C6.04245 10.3996 6.39995 10.7571 6.39995 11.1996ZM5.99995 3.79961C5.99995 3.46711 6.26745 3.19961 6.59995 3.19961H9.39995C9.73245 3.19961 9.99995 3.46711 9.99995 3.79961C9.99995 4.13211 9.73245 4.39961 9.39995 4.39961H6.59995C6.26745 4.39961 5.99995 4.13211 5.99995 3.79961ZM7.19995 7.99961C7.19995 7.66711 7.46745 7.39961 7.79995 7.39961H10.6C10.9325 7.39961 11.2 7.66711 11.2 7.99961C11.2 8.33211 10.9325 8.59961 10.6 8.59961H7.79995C7.46745 8.59961 7.19995 8.33211 7.19995 7.99961ZM7.19995 11.1996C7.19995 10.8671 7.46745 10.5996 7.79995 10.5996H10.6C10.9325 10.5996 11.2 10.8671 11.2 11.1996C11.2 11.5321 10.9325 11.7996 10.6 11.7996H7.79995C7.46745 11.7996 7.19995 11.5321 7.19995 11.1996Z" fill="currentColor"/>
<path d="M5.60005 8.8002C6.04255 8.8002 6.40005 8.4427 6.40005 8.0002C6.40005 7.5577 6.04255 7.2002 5.60005 7.2002C5.15755 7.2002 4.80005 7.5577 4.80005 8.0002C4.80005 8.4427 5.15755 8.8002 5.60005 8.8002ZM7.80005 7.4002C7.46755 7.4002 7.20005 7.6677 7.20005 8.0002C7.20005 8.3327 7.46755 8.6002 7.80005 8.6002H10.6C10.9325 8.6002 11.2 8.3327 11.2 8.0002C11.2 7.6677 10.9325 7.4002 10.6 7.4002H7.80005ZM7.80005 10.6002C7.46755 10.6002 7.20005 10.8677 7.20005 11.2002C7.20005 11.5327 7.46755 11.8002 7.80005 11.8002H10.6C10.9325 11.8002 11.2 11.5327 11.2 11.2002C11.2 10.8677 10.9325 10.6002 10.6 10.6002H7.80005ZM6.40005 11.2002C6.40005 10.7577 6.04255 10.4002 5.60005 10.4002C5.15755 10.4002 4.80005 10.7577 4.80005 11.2002C4.80005 11.6427 5.15755 12.0002 5.60005 12.0002C6.04255 12.0002 6.40005 11.6427 6.40005 11.2002Z" fill="currentColor"/>
</g>
<defs>
<clipPath id="clip0_2011_4965">
<rect width="16" height="16" fill="currentColor"/>
</clipPath>
</defs>
</svg>