<svg width="16" height="16" viewBox="0 0 16 16" fill="none" xmlns="http://www.w3.org/2000/svg">
<g clip-path="url(#clip0_2011_11928)">
<path opacity="0.4" d="M1.59998 7.99961C1.59998 11.5346 4.46498 14.3996 7.99998 14.3996C11.535 14.3996 14.4 11.5346 14.4 7.99961C14.4 4.46461 11.535 1.59961 7.99998 1.59961C4.46498 1.59961 1.59998 4.46461 1.59998 7.99961ZM7.40248 4.53711C7.40498 4.51711 7.40748 4.49711 7.41248 4.47711C7.41998 4.43711 7.43248 4.39961 7.44748 4.36461C7.47748 4.29211 7.52248 4.22711 7.57498 4.17461C7.68248 4.06711 7.83248 3.99961 7.99998 3.99961C8.33248 3.99961 8.59998 4.26711 8.59998 4.59961V7.67961C9.30998 8.15461 10.0225 8.62711 10.7325 9.10211C11.0075 9.28711 11.0825 9.65711 10.9 9.93461C10.7175 10.2121 10.3425 10.2846 10.0675 10.1021C9.26748 9.56961 8.46748 9.03461 7.66748 8.50211C7.58498 8.44711 7.51748 8.37211 7.47248 8.28711C7.44998 8.24461 7.43248 8.19961 7.41998 8.15211C7.41498 8.12711 7.40998 8.10461 7.40748 8.07961C7.40498 8.06711 7.40498 8.05461 7.40498 8.04211C7.40498 8.02961 7.40498 8.01961 7.40498 8.00461C7.40498 6.87211 7.40498 5.73711 7.40498 4.59711C7.40498 4.58211 7.40498 4.56211 7.40748 4.54211L7.40248 4.53711Z" fill="currentColor"/>
<path d="M8.00002 4C7.66752 4 7.40002 4.2675 7.40002 4.6V8C7.40002 8.2 7.50002 8.3875 7.66752 8.5L10.0675 10.1C10.3425 10.285 10.715 10.21 10.9 9.9325C11.085 9.655 11.01 9.285 10.7325 9.1L8.60002 7.68V4.6C8.60002 4.2675 8.33252 4 8.00002 4Z" fill="currentColor"/>
</g>
<defs>
<clipPath id="clip0_2011_11928">
<rect width="16" height="16" fill="currentColor"/>
</clipPath>
</defs>
</svg>