<svg width="16" height="16" viewBox="0 0 16 16" fill="none" xmlns="http://www.w3.org/2000/svg">
<g clip-path="url(#clip0_2011_12116)">
<path opacity="0.4" d="M0.800049 5.20078C0.800049 6.19078 1.15755 7.10578 1.76005 7.84078L0.870049 9.52078C0.747549 9.75328 0.790049 10.0383 0.975049 10.2258C1.16005 10.4133 1.44755 10.4558 1.68005 10.3308L3.72005 9.25078C4.29755 9.47578 4.93255 9.60078 5.60005 9.60078C8.25005 9.60078 10.4 7.63078 10.4 5.20078C10.4 2.77078 8.25005 0.800781 5.60005 0.800781C2.95005 0.800781 0.800049 2.77078 0.800049 5.20078Z" fill="currentColor"/>
<path d="M5.67969 10.7999C6.08969 12.8474 8.04719 14.3999 10.3997 14.3999C11.0672 14.3999 11.7022 14.2749 12.2797 14.0499L14.3197 15.1299C14.5522 15.2524 14.8372 15.2099 15.0247 15.0249C15.2122 14.8399 15.2547 14.5524 15.1297 14.3199L14.2397 12.6399C14.8422 11.9049 15.1997 10.9899 15.1997 9.99992C15.1997 7.93992 13.6572 6.21242 11.5747 5.73242C11.2872 8.62742 8.67969 10.7624 5.67969 10.7999Z" fill="currentColor"/>
</g>
<defs>
<clipPath id="clip0_2011_12116">
<rect width="16" height="16" fill="currentColor"/>
</clipPath>
</defs>
</svg>