<svg width="16" height="16" viewBox="0 0 16 16" fill="none" xmlns="http://www.w3.org/2000/svg">
<g clip-path="url(#clip0_2011_13940)">
<path opacity="0.4" d="M0.799988 5.6C0.799988 5.3325 0.974988 5.1075 1.21499 5.03C1.27249 5.0125 1.33499 5 1.39999 5H7.99999C8.33249 5 8.59999 5.2675 8.59999 5.6C8.59999 5.9325 8.33249 6.2 7.99999 6.2H1.99999V13C1.99999 13.3325 1.73249 13.6 1.39999 13.6C1.06749 13.6 0.799988 13.3325 0.799988 13V5.6Z" fill="currentColor"/>
<path d="M1.21564 5.03039C1.27314 5.01289 1.33564 5.00039 1.40064 5.00039H8.00064C8.33314 5.00039 8.60064 5.26789 8.60064 5.60039C8.60064 5.93289 8.33314 6.20039 8.00064 6.20039H2.00064V6.49539L7.23064 8.64789C7.47564 8.74789 7.73564 8.80039 8.00064 8.80039C8.26564 8.80039 8.52564 8.74789 8.77064 8.64789L14.8306 6.15289C15.0556 6.06039 15.2006 5.84289 15.2006 5.60039C15.2006 5.35789 15.0556 5.14039 14.8306 5.04789L8.77064 2.55289C8.52564 2.45289 8.26564 2.40039 8.00064 2.40039C7.73564 2.40039 7.47564 2.45289 7.23064 2.55289L1.21564 5.03039ZM3.20064 8.28539V11.2004C3.20064 12.5254 5.35064 13.6004 8.00064 13.6004C10.6506 13.6004 12.8006 12.5254 12.8006 11.2004V8.28539L9.22814 9.75789C8.83814 9.91789 8.42314 10.0004 8.00064 10.0004C7.57814 10.0004 7.16314 9.91789 6.77314 9.75789L3.20064 8.28539Z" fill="currentColor"/>
</g>
<defs>
<clipPath id="clip0_2011_13940">
<rect width="16" height="16" fill="currentColor"/>
</clipPath>
</defs>
</svg>