<svg width="16" height="16" viewBox="0 0 16 16" fill="none" xmlns="http://www.w3.org/2000/svg">
<g clip-path="url(#clip0_2011_14676)">
<path opacity="0.4" d="M2.40002 4.00039V12.0004C2.40002 12.8829 3.11752 13.6004 4.00002 13.6004H12C12.8825 13.6004 13.6 12.8829 13.6 12.0004V4.00039C13.6 3.11789 12.8825 2.40039 12 2.40039H4.00002C3.11752 2.40039 2.40002 3.11789 2.40002 4.00039ZM4.06752 11.6779C3.96502 11.4804 3.98002 11.2404 4.10752 11.0579L5.50752 9.05789C5.62002 8.89789 5.80252 8.80289 6.00002 8.80289C6.19752 8.80289 6.38002 8.89789 6.49252 9.05789L7.15252 10.0029L8.68752 7.49039C8.79752 7.31289 8.99002 7.20289 9.20002 7.20289C9.41002 7.20289 9.60252 7.31289 9.71252 7.49039L11.9125 11.0904C12.025 11.2754 12.03 11.5079 11.925 11.6979C11.82 11.8879 11.6175 12.0004 11.4 12.0004H4.60002C4.37752 12.0004 4.17002 11.8754 4.06752 11.6779ZM6.80002 5.60039C6.80002 6.26289 6.26252 6.80039 5.60002 6.80039C4.93752 6.80039 4.40002 6.26289 4.40002 5.60039C4.40002 4.93789 4.93752 4.40039 5.60002 4.40039C6.26252 4.40039 6.80002 4.93789 6.80002 5.60039Z" fill="currentColor"/>
<path d="M9.71352 7.48672C9.60352 7.30922 9.41102 7.19922 9.20102 7.19922C8.99102 7.19922 8.79852 7.30922 8.68852 7.48672L7.15352 9.99922L6.49352 9.05422C6.38102 8.89422 6.19852 8.79922 6.00102 8.79922C5.80352 8.79922 5.62102 8.89422 5.50852 9.05422L4.10852 11.0542C3.98102 11.2367 3.96352 11.4767 4.06852 11.6742C4.17352 11.8717 4.37852 11.9992 4.60102 11.9992H11.401C11.6185 11.9992 11.8185 11.8817 11.9235 11.6917C12.0285 11.5017 12.026 11.2717 11.911 11.0842L9.71102 7.48422L9.71352 7.48672Z" fill="currentColor"/>
</g>
<defs>
<clipPath id="clip0_2011_14676">
<rect width="16" height="16" fill="currentColor"/>
</clipPath>
</defs>
</svg>