<svg width="16" height="16" viewBox="0 0 16 16" fill="none" xmlns="http://www.w3.org/2000/svg">
<g clip-path="url(#clip0_2011_15109)">
<path opacity="0.4" d="M3.20001 6.39961C3.20001 7.67961 3.70001 8.84211 4.51751 9.70211C5.10751 10.3246 5.60001 11.0846 5.60001 11.9421V11.9996H10.4V11.9421C10.4 11.0846 10.8925 10.3246 11.4825 9.70211C12.3 8.84211 12.8 7.67961 12.8 6.39961C12.8 3.74961 10.65 1.59961 8.00001 1.59961C5.35001 1.59961 3.20001 3.74961 3.20001 6.39961ZM4.80001 6.19961C4.80001 4.54211 6.14251 3.19961 7.80001 3.19961C8.13251 3.19961 8.40001 3.46711 8.40001 3.79961C8.40001 4.13211 8.13251 4.39961 7.80001 4.39961C6.80501 4.39961 6.00001 5.20461 6.00001 6.19961C6.00001 6.53211 5.73251 6.79961 5.40001 6.79961C5.06751 6.79961 4.80001 6.53211 4.80001 6.19961Z" fill="currentColor"/>
<path d="M5.59998 12H10.4V12.8C10.4 13.905 9.50498 14.8 8.39998 14.8H7.59998C6.49498 14.8 5.59998 13.905 5.59998 12.8V12Z" fill="currentColor"/>
</g>
<defs>
<clipPath id="clip0_2011_15109">
<rect width="16" height="16" fill="currentColor"/>
</clipPath>
</defs>
</svg>