<svg width="16" height="16" viewBox="0 0 16 16" fill="none" xmlns="http://www.w3.org/2000/svg">
<g clip-path="url(#clip0_2011_3423)">
<path opacity="0.4" d="M8.875 3.67461C9.29 4.08961 10.1575 4.95711 11.475 6.27461L12.325 7.12461C12.84 6.60961 13.355 6.09461 13.8725 5.57711C14.2125 5.23711 14.4025 4.77961 14.4025 4.29961C14.4025 3.81961 14.2125 3.35961 13.8725 3.02211L12.9775 2.12961C12.64 1.78961 12.18 1.59961 11.7 1.59961C11.22 1.59961 10.76 1.78961 10.4225 2.12961C9.9075 2.64461 9.39 3.15961 8.875 3.67461Z" fill="currentColor"/>
<path d="M3.66646 10.7648L3.06396 12.9373L5.23646 12.3348C5.39896 12.2898 5.54896 12.2023 5.66896 12.0848L3.90646 10.3448C3.79396 10.4648 3.71146 10.6098 3.66646 10.7673V10.7648ZM8.02896 4.5248L8.87646 3.6748C9.29146 4.0898 10.159 4.9573 11.4765 6.2748L12.3265 7.1248L11.4765 7.9723L6.52396 12.9273C6.25646 13.1948 5.92146 13.3898 5.55646 13.4923L2.36146 14.3773C2.15396 14.4348 1.92896 14.3773 1.77646 14.2223C1.62396 14.0673 1.56396 13.8448 1.62146 13.6373L2.51146 10.4448C2.61396 10.0798 2.80646 9.7473 3.07646 9.4773L8.02896 4.5248Z" fill="currentColor"/>
</g>
<defs>
<clipPath id="clip0_2011_3423">
<rect width="16" height="16" fill="currentColor"/>
</clipPath>
</defs>
</svg>