<svg width="16" height="16" viewBox="0 0 16 16" fill="none" xmlns="http://www.w3.org/2000/svg">
<g clip-path="url(#clip0_2011_951)">
<path opacity="0.4" d="M8.79999 7V10.4C8.79999 11.2825 9.51749 12 10.4 12H12C12.8825 12 13.6 11.2825 13.6 10.4V8.8C13.6 7.9175 12.8825 7.2 12 7.2H10.4V7C10.4 6.2275 11.0275 5.6 11.8 5.6H12C12.4425 5.6 12.8 5.2425 12.8 4.8C12.8 4.3575 12.4425 4 12 4H11.8C10.1425 4 8.79999 5.3425 8.79999 7Z" fill="currentColor"/>
<path d="M5.40002 4C3.74252 4 2.40002 5.3425 2.40002 7V10.4C2.40002 11.2825 3.11752 12 4.00002 12H5.60002C6.48252 12 7.20002 11.2825 7.20002 10.4V8.8C7.20002 7.9175 6.48252 7.2 5.60002 7.2H4.00002V7C4.00002 6.2275 4.62752 5.6 5.40002 5.6H5.60002C6.04252 5.6 6.40002 5.2425 6.40002 4.8C6.40002 4.3575 6.04252 4 5.60002 4H5.40002Z" fill="currentColor"/>
</g>
<defs>
<clipPath id="clip0_2011_951">
<rect width="16" height="16" fill="currentColor"/>
</clipPath>
</defs>
</svg>