<svg width="16" height="16" viewBox="0 0 16 16" fill="none" xmlns="http://www.w3.org/2000/svg">
<g clip-path="url(#clip0_2011_4679)">
<path opacity="0.4" d="M2.00001 5.09961C2.01251 7.57961 3.03251 12.1171 7.34001 14.1796C7.75751 14.3796 8.24251 14.3796 8.65751 14.1796C12.9675 12.1171 13.9875 7.58211 14 5.09961C14.0025 4.44461 13.5925 3.90211 13.0425 3.66961L8.33501 1.67211C8.23251 1.62461 8.11751 1.59961 8.00251 1.59961C7.88751 1.59961 7.77251 1.62461 7.66751 1.67211L2.95751 3.66961C2.40751 3.90211 1.99751 4.44461 2.00001 5.09961ZM5.77001 8.93711C5.54001 8.69961 5.54501 8.31961 5.78501 8.08961C6.02251 7.85961 6.40251 7.86461 6.63251 8.10461C6.85251 8.33211 7.07501 8.56211 7.29501 8.78961C8.00751 7.80961 8.72251 6.82711 9.43501 5.84711C9.63001 5.57961 10.005 5.51961 10.2725 5.71461C10.54 5.90961 10.6 6.28461 10.405 6.55211C9.55251 7.72461 8.69751 8.89961 7.84501 10.0721C7.74001 10.2146 7.57751 10.3071 7.40001 10.3171C7.22251 10.3271 7.05001 10.2621 6.92751 10.1346C6.54001 9.73461 6.15501 9.33461 5.76751 8.93461L5.77001 8.93711Z" fill="currentColor"/>
<path d="M9.43634 5.84773C9.63134 5.58023 10.0063 5.52023 10.2738 5.71523C10.5413 5.91023 10.6013 6.28523 10.4063 6.55273L7.84634 10.0727C7.74134 10.2152 7.57884 10.3077 7.40134 10.3177C7.22384 10.3277 7.05134 10.2627 6.92884 10.1352L5.76884 8.93523C5.53884 8.69773 5.54384 8.31773 5.78384 8.08773C6.02384 7.85773 6.40134 7.86523 6.63134 8.10273L7.29384 8.78773L9.43384 5.84523L9.43634 5.84773Z" fill="currentColor"/>
</g>
<defs>
<clipPath id="clip0_2011_4679">
<rect width="16" height="16" fill="currentColor"/>
</clipPath>
</defs>
</svg>