<svg width="16" height="16" viewBox="0 0 16 16" fill="none" xmlns="http://www.w3.org/2000/svg">
<g clip-path="url(#clip0_2011_5902)">
<path opacity="0.4" d="M8.53942 1.1273C8.43692 0.927305 8.22942 0.799805 8.00442 0.799805C7.77942 0.799805 7.57192 0.927305 7.46942 1.1273L5.62942 4.7323L1.63192 5.3673C1.40942 5.4023 1.22442 5.5598 1.15442 5.7748C1.08442 5.9898 1.14192 6.2248 1.29942 6.3848L4.15942 9.2473L3.52942 13.2448C3.49442 13.4673 3.58692 13.6923 3.76942 13.8248C3.95192 13.9573 4.19192 13.9773 4.39442 13.8748L8.00442 12.0398L11.6119 13.8748C11.8119 13.9773 12.0544 13.9573 12.2369 13.8248C12.4194 13.6923 12.5119 13.4698 12.4769 13.2448L11.8444 9.2473L14.7044 6.3848C14.8644 6.2248 14.9194 5.9898 14.8494 5.7748C14.7794 5.5598 14.5969 5.4023 14.3719 5.3673L10.3769 4.7323L8.53942 1.1273Z" fill="currentColor"/>
</g>
<defs>
<clipPath id="clip0_2011_5902">
<rect width="16" height="16" fill="currentColor"/>
</clipPath>
</defs>
</svg>