<svg width="16" height="16" viewBox="0 0 16 16" fill="none" xmlns="http://www.w3.org/2000/svg">
<g clip-path="url(#clip0_2011_4743)">
<path opacity="0.4" d="M1.72049 12.1246C1.55299 12.4346 1.56049 12.8096 1.74049 13.1121C1.92049 13.4146 2.24799 13.5996 2.60049 13.5996H13.4005C13.753 13.5996 14.078 13.4146 14.2605 13.1121C14.443 12.8096 14.448 12.4346 14.2805 12.1246L8.88049 2.12461C8.70549 1.80211 8.36799 1.59961 8.00049 1.59961C7.63299 1.59961 7.29549 1.80211 7.12049 2.12461L1.72049 12.1246ZM8.80049 11.1996C8.80049 11.6421 8.44299 11.9996 8.00049 11.9996C7.55799 11.9996 7.20049 11.6421 7.20049 11.1996C7.20049 10.7571 7.55799 10.3996 8.00049 10.3996C8.44299 10.3996 8.80049 10.7571 8.80049 11.1996ZM7.21549 6.44211C7.18299 5.98711 7.54299 5.59961 8.00049 5.59961C8.45799 5.59961 8.81799 5.98711 8.78549 6.44211L8.60049 9.04211C8.57549 9.35711 8.31549 9.59961 8.00049 9.59961C7.68549 9.59961 7.42549 9.35711 7.40299 9.04211L7.21799 6.44211H7.21549Z" fill="currentColor"/>
<path d="M8.00001 11.9996C7.55751 11.9996 7.20001 11.6421 7.20001 11.1996C7.20001 10.7571 7.55751 10.3996 8.00001 10.3996C8.44251 10.3996 8.80001 10.7571 8.80001 11.1996C8.80001 11.6421 8.44251 11.9996 8.00001 11.9996ZM8.00001 5.59961C8.45751 5.59961 8.81751 5.98711 8.78501 6.44211L8.60001 9.04211C8.57501 9.35711 8.31501 9.59961 8.00001 9.59961C7.68501 9.59961 7.42501 9.35711 7.40251 9.04211L7.21751 6.44211C7.18251 5.98711 7.54251 5.59961 8.00001 5.59961Z" fill="currentColor"/>
</g>
<defs>
<clipPath id="clip0_2011_4743">
<rect width="16" height="16" fill="currentColor"/>
</clipPath>
</defs>
</svg>