<svg width="889" height="88" viewBox="0 0 889 88" fill="none" xmlns="http://www.w3.org/2000/svg">
<path d="M413.021 66.9032C418.413 49.7983 420.688 37.2434 420.688 26.3737C420.688 19.5486 419.425 16.431 417.402 16.431C412.936 16.431 407.122 24.6043 407.122 30.7553C407.122 35.7267 409.229 39.2657 414.79 43.3944L407.544 50.3038C399.96 44.9111 396 38.1703 396 30.8396C396 19.9699 407.965 6.74097 418.75 6.74097C427.429 6.74097 431.474 13.8189 431.474 26.5423C431.474 36.6536 428.777 50.3881 423.975 66.9032H413.021Z" fill="white"/>
<path d="M436.474 66.9033V23.3404H446.669L445.49 35.9795H445.658C448.018 27.2164 454.674 22.1608 463.774 22.1608C475.15 22.1608 481.806 29.8285 481.806 42.8047V66.9033H471.611V44.0686C471.611 35.9795 467.061 31.0082 459.561 31.0082C451.809 31.0082 446.669 36.4009 446.669 44.4899V66.9033H436.474Z" fill="white"/>
<path d="M510.905 66.9032C498.856 66.9032 493.547 61.342 493.547 48.5343V31.0923H486.806V23.8459H487.48C492.957 23.5089 496.412 19.8014 497.423 13.9031L497.592 13.1448H503.743V22.1607H522.701V31.0923H503.743V47.4389C503.743 54.9382 506.27 57.803 512.759 57.803C515.792 57.803 519.415 57.1289 523.544 55.865V64.9652C519.499 66.2291 515.118 66.9032 510.905 66.9032Z" fill="white"/>
<path d="M554.581 66.9032C538.15 66.9032 528.544 57.3818 528.544 43.9C528.544 30.2498 538.15 20.9811 552.727 20.9811C567.641 20.9811 575.898 29.997 575.898 44.3213L539.751 49.2927C541.604 55.0225 546.576 58.2244 555.255 58.2244C561.069 58.2244 566.883 56.9605 572.697 54.8539V63.6171C567.22 65.7236 561.911 66.9032 554.581 66.9032ZM538.992 43.4787L565.787 39.7713C565.029 33.1146 560.732 29.6599 552.98 29.6599C543.795 29.6599 539.077 34.5471 538.992 43.4787Z" fill="white"/>
<path d="M602.553 66.9033C597.414 66.9033 593.285 63.8699 590.757 58.9827C588.566 60.1624 586.291 61.2578 583.932 62.2689L580.898 54.3484C583.426 53.253 585.87 52.0734 588.145 50.7252C587.892 48.9557 587.724 47.102 587.724 45.164C587.724 24.4358 593.622 4.71875 607.862 4.71875C615.361 4.71875 621.344 9.01606 621.344 17.2736C621.344 29.7442 612.833 43.6473 599.099 53.7586C600.026 56.6234 601.374 58.3929 603.228 58.3929C606.345 58.3929 609.463 55.6966 612.665 49.8826L618.9 55.191C614.266 63.1958 609.042 66.9033 602.553 66.9033ZM598.003 43.3102C606.429 35.3054 610.98 25.6997 610.98 17.5264C610.98 14.493 609.547 13.2291 607.525 13.2291C602.132 13.2291 598.172 27.8062 598.003 43.3102Z" fill="white"/>
<path d="M627.776 66.9032V23.3403H637.972V66.9032H627.776ZM632.832 17.8634C629.124 17.8634 626.344 15.3356 626.344 11.9651C626.344 8.67895 629.124 6.15112 632.832 6.15112C636.539 6.15112 639.404 8.67895 639.404 11.9651C639.404 15.3356 636.539 17.8634 632.832 17.8634Z" fill="white"/>
<path d="M667.66 87.9032C652.325 87.9032 644.404 83.4374 644.404 75.1798C644.404 70.6298 647.269 67.5964 650.977 65.6584L655.948 72.2307C655.274 72.7363 654.768 73.4946 654.768 74.59C654.768 77.9604 658.897 79.3929 667.744 79.3929C677.771 79.3929 681.563 78.2975 681.563 75.4326C681.563 72.9048 679.035 71.8937 668.84 71.2196C659.571 70.6298 656.201 68.439 656.201 64.8158C656.201 62.3722 657.97 60.4342 661.088 59.4231C652.746 57.8221 647.438 53.1878 647.438 46.6997C647.438 43.3292 648.701 40.6329 651.145 38.1893L658.223 43.245C657.802 44.0033 657.549 44.7617 657.549 45.6043C657.549 49.396 661.172 51.6711 667.407 51.6711C675.159 51.6711 679.204 48.6377 679.204 42.8237C679.204 41.8125 679.12 40.8857 678.867 39.9588C676.002 41.644 672.632 42.6552 668.756 42.6552C661.425 42.6552 656.369 39.2005 656.369 34.1448C656.369 28.7521 661.509 25.1289 669.261 25.1289C672.295 25.1289 675.159 25.7187 677.771 26.8141C677.519 24.9604 676.76 22.9381 675.496 20.9158L683.838 17.5454C687.377 22.3483 687.63 27.8252 685.608 32.4596C688.051 35.4087 689.568 38.9477 689.568 42.7394C689.568 52.0924 682.406 58.5805 671.115 59.7601C667.66 60.0129 666.565 60.5185 666.565 61.6981C666.565 62.8778 668.166 63.3833 672.463 63.5518C685.776 64.1417 691.927 67.9334 691.927 75.5169C691.927 83.3531 682.911 87.9032 667.66 87.9032ZM665.891 34.3133C665.891 35.5772 666.902 36.3356 668.587 36.3356C671.283 36.3356 673.39 35.5772 674.991 34.2291C673.306 33.0494 671.283 32.3753 669.008 32.3753C667.07 32.3753 665.891 33.0494 665.891 34.3133Z" fill="white"/>
<path d="M722.964 66.9032C706.533 66.9032 696.927 57.3818 696.927 43.9C696.927 30.2498 706.533 20.9811 721.11 20.9811C736.024 20.9811 744.282 29.997 744.282 44.3213L708.134 49.2927C709.988 55.0225 714.959 58.2244 723.638 58.2244C729.452 58.2244 735.266 56.9605 741.08 54.8539V63.6171C735.603 65.7236 730.294 66.9032 722.964 66.9032ZM707.376 43.4787L734.171 39.7713C733.412 33.1146 729.115 29.6599 721.363 29.6599C712.178 29.6599 707.46 34.5471 707.376 43.4787Z" fill="white"/>
<path d="M749.282 66.9033V23.3404H759.477L758.298 35.9795H758.466C760.826 27.2164 767.482 22.1608 776.582 22.1608C787.958 22.1608 794.614 29.8285 794.614 42.8047V66.9033H784.419V44.0686C784.419 35.9795 779.869 31.0082 772.369 31.0082C764.617 31.0082 759.477 36.4009 759.477 44.4899V66.9033H749.282Z" fill="white"/>
<path d="M823.713 66.9032C811.664 66.9032 806.355 61.342 806.355 48.5343V31.0923H799.614V23.8459H800.288C805.765 23.5089 809.22 19.8014 810.231 13.9031L810.4 13.1448H816.551V22.1607H835.509V31.0923H816.551V47.4389C816.551 54.9382 819.079 57.803 825.567 57.803C828.6 57.803 832.223 57.1289 836.352 55.865V64.9652C832.307 66.2291 827.926 66.9032 823.713 66.9032Z" fill="white"/>
<path d="M867.388 66.9032C850.958 66.9032 841.352 57.3818 841.352 43.9C841.352 30.2498 850.958 20.9811 865.535 20.9811C880.449 20.9811 888.706 29.997 888.706 44.3213L852.559 49.2927C854.412 55.0225 859.384 58.2244 868.063 58.2244C873.877 58.2244 879.691 56.9605 885.505 54.8539V63.6171C880.028 65.7236 874.719 66.9032 867.388 66.9032ZM851.8 43.4787L878.595 39.7713C877.837 33.1146 873.54 29.6599 865.788 29.6599C856.603 29.6599 851.884 34.5471 851.8 43.4787Z" fill="white"/>
<path d="M24.5199 63.7013C9.43722 63.7013 0 52.4103 0 34.4628C0 13.9874 12.2178 2.35938 33.7043 2.35938C39.6869 2.35938 45.7536 3.20198 54.4325 5.56129V15.6726C45.0796 12.892 39.1813 12.0494 33.6201 12.0494C18.4531 12.0494 11.2067 19.2958 11.2067 34.1257C11.2067 47.1862 16.7679 54.0113 27.132 54.0113C38.0859 54.0113 44.6583 46.2593 45.4166 32.272H55.9492V62.5216H47.3546L46.512 43.3102H46.3435C44.7425 55.9493 36.5692 63.7013 24.5199 63.7013Z" fill="white"/>
<path d="M88.9858 63.7012C72.555 63.7012 62.9492 54.1797 62.9492 40.698C62.9492 27.0477 72.555 17.7791 87.1321 17.7791C102.046 17.7791 110.304 26.795 110.304 41.1193L74.1559 46.0907C76.0097 51.8204 80.981 55.0224 89.6599 55.0224C95.4739 55.0224 101.288 53.7584 107.102 51.6519V60.4151C101.625 62.5216 96.3165 63.7012 88.9858 63.7012ZM73.3976 40.2767L100.193 36.5692C99.4342 29.9126 95.1369 26.4579 87.3849 26.4579C78.2004 26.4579 73.4818 31.3451 73.3976 40.2767Z" fill="white"/>
<path d="M128.258 63.7012C121.685 63.7012 117.304 59.741 117.304 51.8204C117.304 45.2481 120.759 37.5804 125.983 31.2608C124.129 27.4691 121.938 23.3403 119.41 18.9587H129.943L132.639 24.6884C137.863 20.4754 143.93 17.7791 149.829 17.7791C156.569 17.7791 160.698 21.7393 160.698 27.8904C160.698 34.6312 156.654 39.2656 150.587 44.237L144.52 37.8331C148.396 34.884 150.334 32.0191 150.334 29.2385C150.334 27.3005 149.323 26.2894 147.216 26.2894C143.846 26.2894 139.717 28.5644 135.925 32.1034C138.622 38.5915 140.56 44.9111 140.56 50.2195C140.56 58.8141 136.684 63.7012 128.258 63.7012ZM126.235 51.3991C126.235 53.6742 126.825 55.1909 128.595 55.1909C130.617 55.1909 131.628 53.5899 131.628 50.3037C131.628 47.2704 130.954 43.8999 129.606 40.0239C127.584 43.6471 126.235 47.6074 126.235 51.3991Z" fill="white"/>
<path d="M183.286 63.7012C173.681 63.7012 167.698 58.5613 167.698 50.1352C167.698 41.4564 174.186 36.485 185.561 36.485H200.981C200.897 29.9126 196.684 26.3737 188.763 26.3737C183.371 26.3737 177.304 27.9746 170.732 30.9237V21.6551C177.894 19.043 184.55 17.7791 190.449 17.7791C203.593 17.7791 211.177 24.5199 211.177 36.9905V62.5216H200.981L202.077 49.8824H201.908C199.296 58.7298 192.555 63.7012 183.286 63.7012ZM186.067 55.1909C193.988 55.1909 200.981 49.8824 200.981 43.4786V42.299H186.488C180.843 42.299 177.809 44.4897 177.809 48.7871C177.809 53.0001 180.759 55.1909 186.067 55.1909Z" fill="white"/>
<path d="M237.894 87.7013C231.659 87.7013 226.856 84.3308 226.182 78.0955L233.259 76.6631C234.018 78.9381 235.029 79.7807 237.388 79.7807C240.843 79.7807 242.36 78.1798 242.36 76.4946C242.36 75.1464 241.433 74.3881 239.411 74.3881C237.473 74.3881 235.787 75.1464 234.271 76.0733L228.794 73.4612C231.153 71.0176 233.259 67.5629 234.018 64.5295C223.907 63.2656 218.177 56.0192 218.177 46.3292C218.177 29.6455 230.9 18.7759 243.876 18.7759C252.724 18.7759 257.021 23.4102 257.021 29.0557C257.021 35.7123 252.05 40.5994 246.741 43.1273L241.77 36.3021C244.382 34.954 246.573 32.6789 246.573 30.3196C246.573 28.4659 245.562 27.2862 242.949 27.2862C236.04 27.2862 228.541 34.5327 228.541 45.9079C228.541 51.5534 231.49 56.1877 237.725 56.1877C243.624 56.1877 248.848 53.1543 253.819 45.8236L260.054 50.8793C255.336 58.7998 249.522 63.3499 241.18 64.4453C240.253 66.299 238.652 68.1527 236.967 70.0907C238.484 69.2481 240.422 68.574 243.287 68.574C247.5 68.574 250.954 71.1861 250.954 76.5788C250.954 84.078 244.045 87.7013 237.894 87.7013Z" fill="white"/>
<path d="M282.643 63.7012C273.037 63.7012 267.054 58.5613 267.054 50.1352C267.054 41.4564 273.543 36.485 284.918 36.485H300.337C300.253 29.9126 296.04 26.3737 288.12 26.3737C282.727 26.3737 276.66 27.9746 270.088 30.9237V21.655C277.25 19.043 283.907 17.779 289.805 17.779C302.95 17.779 310.533 24.5199 310.533 36.9905V62.5216H300.337L301.433 49.8824H301.264C298.652 58.7298 291.911 63.7012 282.643 63.7012ZM285.423 55.1909C293.344 55.1909 300.337 49.8824 300.337 43.4786V42.299H285.845C280.199 42.299 277.166 44.4897 277.166 48.787C277.166 53.0001 280.115 55.1909 285.423 55.1909ZM275.228 12.8919C274.301 11.291 273.627 9.10018 273.627 6.65661C273.627 2.94913 276.66 0 281.295 0C288.035 0 290.985 5.22418 294.355 5.22418C295.787 5.22418 296.461 4.2973 296.461 3.11765C296.461 1.85374 296.124 0.758348 295.703 0H302.95C303.708 1.43244 304.466 3.62321 304.466 6.15104C304.466 9.85852 301.517 12.8919 296.799 12.8919C290.058 12.8919 287.193 7.58348 283.738 7.58348C282.306 7.58348 281.632 8.51035 281.632 9.77426C281.632 11.0382 282.053 12.1336 282.39 12.8919H275.228Z" fill="white"/>
<path d="M342.98 63.7012C328.234 63.7012 317.533 54.264 317.533 40.7823C317.533 27.3005 328.234 17.7791 342.98 17.7791C357.641 17.7791 368.258 27.3005 368.258 40.7823C368.258 54.264 357.641 63.7012 342.98 63.7012ZM342.98 54.8538C352.164 54.8538 357.894 49.0398 357.894 40.698C357.894 32.4404 352.164 26.6264 342.98 26.6264C333.711 26.6264 327.981 32.4404 327.981 40.698C327.981 49.0398 333.711 54.8538 342.98 54.8538Z" fill="white"/>
</svg>
