<svg width="357" height="44" viewBox="0 0 357 44" fill="none" xmlns="http://www.w3.org/2000/svg">
<g clip-path="url(#clip0_256_120)">
<mask id="mask0_256_120" style="mask-type:luminance" maskUnits="userSpaceOnUse" x="0" y="0" width="37" height="37">
<path d="M37 0H0V37H37V0Z" fill="white"/>
</mask>
<g mask="url(#mask0_256_120)">
<path opacity="0.4" d="M5.55005 9.2491V27.7491C5.55005 30.8131 8.03599 33.2991 11.1 33.2991H29.6C30.6233 33.2991 31.45 32.4724 31.45 31.4491C31.45 30.4258 30.6233 29.5991 29.6 29.5991V25.743C30.6753 25.3614 31.45 24.3324 31.45 23.1241V6.4741C31.45 4.94207 30.207 3.6991 28.675 3.6991H11.1C8.03599 3.6991 5.55005 6.18503 5.55005 9.2491ZM9.25005 27.7491C9.25005 26.7258 10.0768 25.8991 11.1 25.8991H25.9V29.5991H11.1C10.0768 29.5991 9.25005 28.7724 9.25005 27.7491ZM12.2043 10.5499L13.5686 9.86769L14.2508 8.50332C14.4763 8.0466 15.1296 8.0466 15.355 8.50332L16.0372 9.86769L17.4016 10.5499C17.8583 10.7753 17.8583 11.4286 17.4016 11.6541L16.0372 12.3363L15.355 13.7007C15.1296 14.1574 14.4763 14.1574 14.2508 13.7007L13.5686 12.3363L12.2043 11.6541C11.7475 11.4286 11.7475 10.7753 12.2043 10.5499ZM17.841 16.1403L20.535 14.9841L21.6913 12.29C21.8821 11.8391 22.518 11.8391 22.7088 12.29L23.865 14.9841L26.5591 16.1403C27.01 16.3311 27.01 16.9671 26.5591 17.1578L23.865 18.3141L22.7088 21.0082C22.518 21.4591 21.8821 21.4591 21.6913 21.0082L20.535 18.3141L17.841 17.1578C17.3901 16.9671 17.3901 16.3311 17.841 16.1403Z" fill="white"/>
<path d="M14.2515 8.50404L13.5693 9.86841L12.205 10.5506C11.7482 10.7761 11.7482 11.4294 12.205 11.6548L13.5693 12.337L14.2515 13.7014C14.477 14.1581 15.1303 14.1581 15.3557 13.7014L16.0379 12.337L17.4023 11.6548C17.859 11.4294 17.859 10.7761 17.4023 10.5506L16.0379 9.86841L15.3557 8.50404C15.1303 8.04732 14.477 8.04732 14.2515 8.50404ZM21.692 12.2908L20.5358 14.9848L17.8417 16.1411C17.3907 16.3319 17.3907 16.9678 17.8417 17.1586L20.5358 18.3148L21.692 21.0089C21.8828 21.4598 22.5187 21.4598 22.7095 21.0089L23.8657 18.3148L26.5598 17.1586C27.0107 16.9678 27.0107 16.3319 26.5598 16.1411L23.8657 14.9848L22.7095 12.2908C22.5187 11.8398 21.8828 11.8398 21.692 12.2908Z" fill="white"/>
</g>
</g>
<path d="M61.0067 30.4177L52.5337 15.1126H52.4741L52.6829 20.5425V30H48.8641L48.8343 9.11589H53.1304L61.0962 24.1226L69.0322 9.11589H73.3284L73.2985 30H69.4797V20.5425L69.6886 15.1126H69.6289L61.1559 30.4177H61.0067ZM82.9038 30.4177C79.5027 30.4177 77.3844 28.5978 77.3844 25.6143C77.3844 22.5414 79.6817 20.6021 84.0077 20.6021H89.169C89.1392 18.4242 87.6475 17.201 84.843 17.201C82.9336 17.201 80.7856 17.7679 78.4585 18.8121V15.5303C80.9944 14.6054 83.3513 14.1579 85.4397 14.1579C90.0939 14.1579 92.779 16.5447 92.779 20.9602V30H89.169L89.5569 25.5248H89.4972C88.5724 28.6574 86.1856 30.4177 82.9038 30.4177ZM83.8883 27.4044C86.6928 27.4044 89.169 25.5248 89.169 23.2872V23.0187H84.0674C82.1281 23.0187 80.9646 23.6154 80.9646 25.137C80.9646 26.6287 82.0088 27.4044 83.8883 27.4044ZM104.265 30.4177C99.9982 30.4177 98.1187 28.4486 98.1187 23.9138V17.738H95.7319V14.5756H98.1187V11.3833H101.729V14.5756H108.441V17.738H101.729V23.5259C101.729 26.1812 102.624 27.1956 104.921 27.1956C105.995 27.1956 107.278 26.9569 108.74 26.5094V29.7315C107.308 30.179 105.756 30.4177 104.265 30.4177ZM119.21 30.4177C114.735 30.4177 112.05 27.8818 112.05 23.2574V22.9292L110.141 22.5116L110.678 19.5878L112.676 20.0353C114.019 16.6342 117.45 14.1579 121.716 14.1579C125.595 14.1579 128.071 15.948 128.071 18.7226C128.071 21.9447 124.7 23.8839 119.151 23.8839C117.987 23.8839 116.943 23.7944 115.72 23.6154C115.839 26.0917 117.241 27.4044 119.479 27.4044C121.806 27.4044 123.775 26.3602 125.565 24.5701L127.534 26.6585C125.595 29.0155 122.85 30.4177 119.21 30.4177ZM116.227 20.6618C117.211 20.811 118.196 20.8707 119.151 20.8707C122.432 20.8707 124.401 20.1248 124.401 18.7524C124.401 17.6485 123.477 17.1712 121.686 17.1712C119.091 17.1712 117.092 18.5436 116.227 20.6618ZM131.306 30V14.5756H134.916L134.498 19.0508H134.557C135.423 15.8883 137.72 14.1579 141.032 14.1579C141.569 14.1579 142.106 14.2176 142.464 14.2772V17.8574C141.658 17.4994 140.554 17.2905 139.659 17.2905C136.825 17.2905 134.916 19.1701 134.916 21.9447V30H131.306ZM145.99 30V14.5756H149.6V30H145.99ZM147.78 12.6364C146.467 12.6364 145.482 11.7413 145.482 10.5479C145.482 9.3844 146.467 8.48936 147.78 8.48936C149.092 8.48936 150.107 9.3844 150.107 10.5479C150.107 11.7413 149.092 12.6364 147.78 12.6364ZM159.005 30.4177C155.604 30.4177 153.486 28.5978 153.486 25.6143C153.486 22.5414 155.783 20.6021 160.109 20.6021H165.27C165.24 18.4242 163.749 17.201 160.944 17.201C159.035 17.201 156.887 17.7679 154.56 18.8121V15.5303C157.096 14.6054 159.452 14.1579 161.541 14.1579C166.195 14.1579 168.88 16.5447 168.88 20.9602V30H165.27L165.658 25.5248H165.598C164.673 28.6574 162.287 30.4177 159.005 30.4177ZM159.989 27.4044C162.794 27.4044 165.27 25.5248 165.27 23.2872V23.0187H160.168C158.229 23.0187 157.066 23.6154 157.066 25.137C157.066 26.6287 158.11 27.4044 159.989 27.4044ZM179.342 30.4177C177.522 30.4177 176.06 29.3436 175.165 27.6132C174.389 28.0309 173.584 28.4188 172.748 28.7768L171.674 25.9723C172.569 25.5845 173.434 25.1668 174.24 24.6895C174.15 24.0629 174.091 23.4066 174.091 22.7204C174.091 15.3811 176.179 8.39986 181.221 8.39986C183.876 8.39986 185.995 9.92142 185.995 12.8452C185.995 17.2607 182.981 22.1834 178.118 25.7635C178.447 26.7779 178.924 27.4044 179.58 27.4044C180.684 27.4044 181.788 26.4497 182.922 24.3911L185.129 26.2707C183.489 29.105 181.639 30.4177 179.342 30.4177ZM177.73 22.064C180.714 19.2298 182.325 15.8286 182.325 12.9347C182.325 11.8607 181.818 11.4131 181.102 11.4131C179.192 11.4131 177.79 16.5745 177.73 22.064ZM208.732 30.4177C202.318 30.4177 197.514 26.1215 197.514 19.5579C197.514 13.0242 202.288 8.6982 208.732 8.6982C210.552 8.6982 212.82 8.96671 215.057 9.59324V13.2032C212.909 12.4872 210.552 12.1292 208.792 12.1292C204.436 12.1292 201.482 14.7546 201.482 19.5579C201.482 24.3315 204.406 26.9867 208.792 26.9867C210.612 26.9867 212.999 26.6585 215.296 25.9425V29.5525C213.267 30.1193 210.642 30.4177 208.732 30.4177ZM226.797 30.4177C221.576 30.4177 217.787 27.0762 217.787 22.3027C217.787 17.5292 221.576 14.1579 226.797 14.1579C231.988 14.1579 235.747 17.5292 235.747 22.3027C235.747 27.0762 231.988 30.4177 226.797 30.4177ZM226.797 27.2851C230.049 27.2851 232.078 25.2265 232.078 22.2729C232.078 19.3491 230.049 17.2905 226.797 17.2905C223.515 17.2905 221.486 19.3491 221.486 22.2729C221.486 25.2265 223.515 27.2851 226.797 27.2851ZM242.584 30.3878C240.048 30.3878 238.735 28.8066 238.735 26.211C238.735 23.7646 239.929 20.9303 241.719 18.6032C241.152 17.38 240.466 16.0375 239.66 14.5756H243.389L244.135 16.1568C245.687 14.9336 247.387 14.1579 249.088 14.1579C251.594 14.1579 253.891 15.8883 253.652 20.811C254.816 16.3955 257.501 14.1877 260.305 14.2176C266.571 14.2772 265.706 23.1977 265.019 30H261.439C262.155 23.1381 262.603 17.2309 259.619 17.2309C257.113 17.2309 254.637 22.6011 254.726 30H251.116V24.4508C251.116 19.3193 250.729 17.1712 248.551 17.1712C247.507 17.1712 246.343 17.7679 245.269 18.7524C246.373 21.4673 246.969 23.8243 246.969 25.7635C246.969 28.747 245.358 30.3878 242.584 30.3878ZM241.898 26.1514C241.898 26.9569 242.196 27.3746 242.822 27.3746C243.449 27.3746 243.807 26.8674 243.807 25.7038C243.807 24.6298 243.539 23.3171 243.031 21.7955C242.345 23.1679 241.898 24.6895 241.898 26.1514ZM270.135 35.9669V14.5756H273.745L273.327 19.0508H273.387C274.312 16.0076 276.877 14.1579 280.249 14.1579C284.694 14.1579 287.797 17.4397 287.797 22.1834C287.797 27.0762 284.306 30.4177 279.264 30.4177C277.146 30.4177 275.415 29.821 273.745 28.5083V35.9669H270.135ZM278.936 27.2851C282.188 27.2851 284.097 25.4353 284.097 22.2729C284.097 19.1403 282.188 17.2905 278.936 17.2905C275.654 17.2905 273.745 19.1403 273.745 22.2729C273.745 25.4353 275.654 27.2851 278.936 27.2851ZM291.666 30V9.11589L295.276 8.42969V30H291.666ZM308.38 30.4177C302.563 30.4177 299.162 27.0464 299.162 22.2729C299.162 17.4397 302.563 14.1579 307.724 14.1579C313.005 14.1579 315.929 17.4099 315.929 22.5414L303.189 24.3016C303.846 26.2409 305.606 27.3447 308.619 27.3447C310.678 27.3447 312.736 26.8972 314.795 26.1514V29.2541C312.856 30 310.976 30.4177 308.38 30.4177ZM302.861 21.7359L312.289 20.4231C312.02 18.6331 310.708 17.2309 307.843 17.2309C304.681 17.2309 303.01 18.8419 302.861 21.7359ZM328.243 30.4177C324.036 30.4177 321.441 28.4188 321.441 21.4077V17.917L318.159 17.738V14.5756L321.441 14.7546V11.3833H325.051V14.8143C327.646 14.8441 330.212 14.7546 333.106 14.5756V17.738C330.212 17.917 327.646 18.0066 325.051 17.9767V21.4375C325.051 25.8232 326.155 27.4044 328.392 27.4044C330.123 27.4044 331.018 26.3602 331.018 24.8386C331.018 23.2574 330.182 21.9745 328.661 20.8707L331.107 18.8718C333.345 20.5126 334.687 22.6309 334.687 24.8685C334.687 28.2398 332.271 30.4177 328.243 30.4177ZM346.106 30.4177C340.885 30.4177 337.096 27.0762 337.096 22.3027C337.096 17.5292 340.885 14.1579 346.106 14.1579C351.297 14.1579 355.056 17.5292 355.056 22.3027C355.056 27.0762 351.297 30.4177 346.106 30.4177ZM346.106 27.2851C349.358 27.2851 351.386 25.2265 351.386 22.2729C351.386 19.3491 349.358 17.2905 346.106 17.2905C342.824 17.2905 340.795 19.3491 340.795 22.2729C340.795 25.2265 342.824 27.2851 346.106 27.2851Z" fill="white"/>
<defs>
<clipPath id="clip0_256_120">
<rect width="37" height="37" fill="white"/>
</clipPath>
</defs>
</svg>
