<svg width="178" height="44" viewBox="0 0 178 44" fill="none" xmlns="http://www.w3.org/2000/svg">
<g clip-path="url(#clip0_256_121)">
<mask id="mask0_256_121" style="mask-type:luminance" maskUnits="userSpaceOnUse" x="0" y="0" width="36" height="36">
<path d="M36 0H0V36H36V0Z" fill="white"/>
</mask>
<g mask="url(#mask0_256_121)">
<path opacity="0.4" d="M14.4 3.59912H27.9C29.3906 3.59912 30.6 4.8085 30.6 6.29912V29.6991C30.6 31.1897 29.3906 32.3991 27.9 32.3991H14.4V3.59912Z" fill="white"/>
<path d="M9.90004 3.59912C8.40941 3.59912 7.20004 4.8085 7.20004 6.29912V9.44912H4.95004C4.20191 9.44912 3.60004 10.051 3.60004 10.7991C3.60004 11.5472 4.20191 12.1491 4.95004 12.1491H7.20004V16.6491H4.95004C4.20191 16.6491 3.60004 17.251 3.60004 17.9991C3.60004 18.7472 4.20191 19.3491 4.95004 19.3491H7.20004V23.8491H4.95004C4.20191 23.8491 3.60004 24.451 3.60004 25.1991C3.60004 25.9472 4.20191 26.5491 4.95004 26.5491H7.20004V29.6991C7.20004 31.1897 8.40941 32.3991 9.90004 32.3991H14.4V3.59912H9.90004Z" fill="white"/>
</g>
</g>
<path d="M47.8343 30V9.11589H55.9791C62.3338 9.11589 65.0189 11.3535 65.0189 15.5303C65.0189 18.8419 61.9161 20.811 59.052 21.0497V21.1093C61.7073 21.3778 62.7515 22.6011 63.6167 24.5403L66.0631 30H61.7371L59.9172 25.4652C59.1117 23.4364 57.7393 22.5116 55.2929 22.5116H51.6531V30H47.8343ZM55.3526 19.6176C59.4399 19.6176 61.1404 18.5436 61.1404 15.8883C61.1404 13.3524 59.6785 12.338 55.5912 12.338H51.6531V19.6176H55.3526ZM77.4454 30.4177C71.6277 30.4177 68.2266 27.0464 68.2266 22.2729C68.2266 17.4397 71.6277 14.1579 76.7891 14.1579C82.0698 14.1579 84.9935 17.4099 84.9935 22.5414L72.2542 24.3016C72.9106 26.2409 74.6708 27.3447 77.6841 27.3447C79.7427 27.3447 81.8013 26.8972 83.8598 26.1514V29.2541C81.9206 30 80.041 30.4177 77.4454 30.4177ZM71.9261 21.7359L81.3537 20.4231C81.0852 18.6331 79.7725 17.2309 76.9084 17.2309C73.746 17.2309 72.0752 18.8419 71.9261 21.7359ZM94.9303 30.4177C92.7822 30.4177 90.664 30.0298 88.2474 29.1646V26.0917C90.5148 27.0166 92.6629 27.4641 94.8408 27.4641C97.1977 27.4641 98.3314 26.9569 98.3314 25.9723C98.3314 24.8983 97.1679 24.3016 94.2739 23.5558C89.8286 22.5116 88.0385 21.0497 88.0385 18.4839C88.0385 15.6795 90.3059 14.1579 94.4828 14.1579C96.243 14.1579 97.8541 14.3966 100.927 15.1723V18.2751C98.1226 17.4397 96.243 17.1115 94.7513 17.1115C92.7524 17.1115 91.7082 17.6187 91.7082 18.6331C91.7082 19.6176 92.7822 20.1546 95.5568 20.8408C100.092 21.8552 101.971 23.3469 101.971 25.853C101.971 28.747 99.3756 30.4177 94.9303 30.4177ZM112.096 30.4177C109.65 30.4177 108.963 28.3591 108.963 26.1514C108.963 23.4663 109.769 20.9005 109.769 18.8419C109.769 17.4994 109.56 17.1712 108.934 17.1712C107.919 17.1712 107.144 18.7822 107.144 20.7812C107.144 22.5712 107.621 24.5403 108.486 26.569L105.294 27.5536C104.25 25.316 103.742 22.7801 103.742 20.8408C103.742 16.8728 105.801 14.1579 109.351 14.1579C111.768 14.1579 113.379 15.3811 113.379 18.4541C113.379 20.7513 112.573 24.1524 112.573 25.853C112.573 26.9569 112.663 27.4044 113.26 27.4044C115.109 27.4044 119.077 20.5425 120.032 14.5756H123.642C122.956 17.2309 122.508 21.169 122.508 23.6453C122.508 26.0917 122.747 28.4486 123.165 30H119.555C119.167 28.1801 118.928 26.6287 118.898 24.7193C117.108 28.1503 114.751 30.4177 112.096 30.4177ZM127.101 30V14.5756H130.711L130.293 19.0508H130.353C131.158 15.948 133.605 14.1579 136.439 14.1579C139.422 14.1579 141.451 15.9181 142.078 19.0508H142.137C142.973 15.948 145.389 14.1579 148.223 14.1579C151.923 14.1579 154.28 16.843 154.28 21.4673V30H150.67V21.9149C150.67 18.9613 149.148 17.2905 146.732 17.2905C144.434 17.2905 142.495 19.1999 142.495 22.064V30H138.885V21.9149C138.885 18.9613 137.364 17.2905 134.947 17.2905C132.65 17.2905 130.711 19.1999 130.711 22.064V30H127.101ZM167.06 30.4177C161.839 30.4177 158.05 27.0762 158.05 22.3027C158.05 17.5292 161.839 14.1579 167.06 14.1579C172.252 14.1579 176.011 17.5292 176.011 22.3027C176.011 27.0762 172.252 30.4177 167.06 30.4177ZM167.06 27.2851C170.312 27.2851 172.341 25.2265 172.341 22.2729C172.341 19.3491 170.312 17.2905 167.06 17.2905C163.779 17.2905 161.75 19.3491 161.75 22.2729C161.75 25.2265 163.779 27.2851 167.06 27.2851Z" fill="white"/>
<defs>
<clipPath id="clip0_256_121">
<rect width="36" height="36" fill="white"/>
</clipPath>
</defs>
</svg>
