<svg width="185" height="54" viewBox="0 0 185 54" fill="none" xmlns="http://www.w3.org/2000/svg">
<g clip-path="url(#clip0_258_238)">
<path d="M17.1703 7.06891H20.7772V16.0882C20.7772 17.7516 22.1234 19.1007 23.7831 19.1007H26.1548C27.8146 19.1007 29.1607 17.7516 29.1607 16.0882V7.06891H32.7676V16.0882C32.7676 19.7504 29.8051 22.7185 26.1518 22.7185H23.7831C20.1369 22.7185 17.1703 19.7454 17.1703 16.0882V7.06891Z" fill="white"/>
<path d="M0.759249 7.06891V10.2704H9.19219L1.93803 14.831C-0.06055 16.1195 -0.666576 18.9895 0.845968 21.0389C1.64459 22.1212 2.94235 22.7185 4.28549 22.7185H8.09711V19.2826H4.21491C3.60888 19.2826 3.40923 18.8308 3.35377 18.6338C3.2973 18.4377 3.21965 17.9506 3.72989 17.6202L11.8462 12.5017V22.7144H15.439V7.06891H0.759249Z" fill="white"/>
<path d="M96.4283 7.04053V10.242H104.86L97.6071 14.8016C95.6096 16.0891 95.0025 18.9591 96.5151 21.0075C97.3137 22.0898 98.6104 22.6871 99.9536 22.6871H103.765V19.2522H99.884C99.278 19.2522 99.0783 18.8004 99.0229 18.6034C98.9664 18.4073 98.8888 17.9212 99.399 17.5908L107.513 12.4723V22.683H111.105V7.04053H96.4283Z" fill="white"/>
<path d="M44.2003 10.2906V7.09414H38.1652V0H34.6087V16.7208C34.6087 17.7818 34.7267 18.6944 34.9657 19.4563C35.2046 20.2163 35.5616 20.8418 36.0406 21.3299C36.5185 21.819 37.1125 22.1738 37.8173 22.391C38.5252 22.6093 39.3359 22.7174 40.2495 22.7174H45.9861V19.2876H40.3735C39.8956 19.2876 39.5104 19.2007 39.221 19.0228C38.9295 18.845 38.7057 18.6115 38.5504 18.3195C38.3951 18.0264 38.2892 17.6909 38.2398 17.3049C38.1864 16.9188 38.1622 16.5298 38.1622 16.1316V10.2895H44.2003V10.2906Z" fill="white"/>
<path d="M59.2803 7.06891H53.0103C50.1214 7.06891 47.7789 9.16582 47.7789 11.7508V18.0345C47.7789 20.6195 50.1204 22.7164 53.0103 22.7164H59.2773C62.1663 22.7164 64.5087 20.6205 64.5087 18.0345V11.7508C64.5087 9.16582 62.1673 7.06891 59.2773 7.06891H59.2803ZM61.0056 18.0315C61.0056 18.5832 60.2675 19.2007 59.2773 19.2007H53.0103C52.0221 19.2007 51.282 18.5832 51.282 18.0315V11.7478C51.282 11.193 51.9899 10.5786 53.0103 10.5786H59.2803C60.2978 10.5786 61.0087 11.196 61.0087 11.7478V18.0315H61.0056Z" fill="white"/>
<path d="M142.833 6.98596H136.552C133.658 6.98596 131.312 9.08591 131.312 11.676V17.9698C131.312 20.5598 133.657 22.6598 136.552 22.6598H142.83C145.724 22.6598 148.071 20.5598 148.071 17.9698V11.676C148.071 9.08591 145.725 6.98596 142.83 6.98596H142.833ZM144.562 17.9667C144.562 18.5195 143.822 19.138 142.83 19.138H136.552C135.563 19.138 134.821 18.5195 134.821 17.9667V11.6729C134.821 11.1171 135.53 10.5017 136.552 10.5017H142.833C143.853 10.5017 144.565 11.1202 144.565 11.6729V17.9667H144.562Z" fill="white"/>
<path d="M143.056 3.58644C142.783 3.7734 142.529 3.88557 142.297 3.92195C141.867 3.98966 141.409 3.94115 140.925 3.77643C140.441 3.61171 139.939 3.42576 139.421 3.2186C138.903 3.01143 138.369 2.83054 137.823 2.67593C137.275 2.52131 136.723 2.48695 136.169 2.57386C135.237 2.71938 134.45 3.257 133.805 4.1847L135.476 5.19223C135.773 4.74152 136.109 4.48685 136.485 4.42824C136.754 4.3858 137.109 4.45148 137.548 4.62227C137.988 4.79406 138.48 4.97698 139.024 5.16999C139.567 5.36402 140.14 5.5338 140.741 5.68033C141.342 5.82686 141.947 5.85212 142.556 5.75612C143.774 5.56512 144.782 4.84965 145.579 3.60867L143.934 2.5971C143.623 3.06903 143.33 3.39848 143.056 3.58543V3.58644Z" fill="white"/>
<path d="M166.042 9.85096C165.761 9.28 165.37 8.78078 164.867 8.35331C164.363 7.92584 163.776 7.58528 163.104 7.33163C162.671 7.16792 162.212 7.06282 161.733 7.00522C161.469 6.97288 161.201 6.95166 160.922 6.95166H155.382C155.125 6.95166 154.873 6.97086 154.625 7.00522C154.189 7.06686 153.769 7.18207 153.364 7.35083C151.294 7.96829 149.801 9.71454 149.801 11.7741V18.0315C149.801 20.6064 152.133 22.6942 155.011 22.6942H161.253C161.837 22.6942 162.398 22.6073 162.922 22.4486C163.687 22.2849 164.357 22.0161 164.932 21.6412C165.952 20.9752 166.463 20.1041 166.463 19.0259V17.8637H162.978V18.0274H162.975C162.975 18.4165 162.606 18.8369 162.042 19.0501C161.727 19.0976 161.354 19.1208 160.923 19.1208H155.383C154.796 19.1208 154.277 18.9238 153.83 18.5266C153.827 18.5246 153.824 18.5226 153.822 18.5196C153.469 18.2033 153.291 17.7344 153.291 17.2584V16.6005H166.464V11.7033C166.464 11.0384 166.323 10.4199 166.044 9.84894L166.042 9.85096ZM153.289 12.2672C153.289 11.8074 153.486 11.3688 153.828 11.0636C153.883 11.0161 153.937 10.9707 153.994 10.9292C154.284 10.713 154.642 10.6079 155.004 10.6079H155.011H161.256C162.269 10.6079 162.977 11.2223 162.977 11.772V13.1323H153.29V12.2672H153.289Z" fill="white"/>
<path d="M119.74 24.4272C119.74 24.7718 119.705 25.0427 119.634 25.2407C119.564 25.4378 119.505 25.5853 119.458 25.6844H118.118V28.3826H119.634C120.48 28.3826 121.18 28.0127 121.733 27.274C122.285 26.5343 122.561 25.5853 122.561 24.4282V24.2787H119.741V24.4282L119.74 24.4272Z" fill="white"/>
<path d="M129.579 18.0435V16.5095H126.074V18.0435C126.074 18.5953 125.335 19.2138 124.343 19.2138H118.071C117.083 19.2138 116.341 18.5963 116.341 18.0435V11.7548C116.341 11.2 117.05 10.5846 118.071 10.5846H124.346C125.365 10.5846 126.077 11.202 126.077 11.7548V13.5132H129.582V11.7548C129.582 9.13443 127.176 7.01427 124.233 7.06986C122.209 7.06986 120.189 7.06986 118.165 7.06986C115.231 7.02438 112.836 9.13746 112.836 11.7558V18.0446C112.836 20.3587 114.711 22.2808 117.177 22.6608H125.238C127.703 22.2808 129.579 20.3587 129.579 18.0446V18.0435Z" fill="white"/>
<path d="M117.177 22.6598C117.346 22.6861 117.518 22.7043 117.692 22.7154H124.723C124.897 22.7043 125.068 22.6851 125.238 22.6598H117.177Z" fill="white"/>
<path d="M15.3944 31.7256H11.8076V47.3489H15.3944V31.7256Z" fill="white"/>
<path d="M15.447 26.2655H11.8602V28.0795H15.447V26.2655Z" fill="white"/>
<path d="M75.1065 31.7256H71.5198V47.3489H75.1065V31.7256Z" fill="white"/>
<path d="M75.1068 26.2655H71.52V28.0795H75.1068V26.2655Z" fill="white"/>
<path d="M39.2512 43.6573C38.9598 43.4795 38.7359 43.246 38.5806 42.954C38.4253 42.6619 38.3194 42.3254 38.27 41.9394C38.2166 41.5533 38.1924 41.1643 38.1924 40.7661V34.924H44.2305V31.7276H38.1954V24.6335H34.6389V41.3542C34.6389 42.4153 34.7569 43.3279 34.9959 44.0898C35.2349 44.8498 35.5918 45.4753 36.0708 45.9634C36.5488 46.4525 37.1427 46.8072 37.8475 47.0245C38.5564 47.2428 39.3661 47.3509 40.2797 47.3509H46.0163V43.9211H40.4037C39.9258 43.9211 39.5406 43.8342 39.2512 43.6563V43.6573Z" fill="white"/>
<path d="M135.717 43.6573C135.426 43.4795 135.202 43.246 135.047 42.954C134.891 42.6619 134.785 42.3254 134.736 41.9394C134.683 41.5533 134.658 41.1643 134.658 40.7661V34.924H140.696V31.7276H134.661V24.6335H131.105V41.3542C131.105 42.4153 131.223 43.3279 131.462 44.0898C131.701 44.8498 132.058 45.4753 132.537 45.9634C133.015 46.4525 133.609 46.8072 134.314 47.0245C135.021 47.2428 135.832 47.3509 136.746 47.3509H142.482V43.9211H136.87C136.392 43.9211 136.007 43.8342 135.717 43.6563V43.6573Z" fill="white"/>
<path d="M30.8718 33.7406C29.6779 32.4704 27.9858 31.675 26.1113 31.675H23.7588C23.6327 31.675 23.5077 31.6791 23.3827 31.6862C23.3585 31.6872 23.3353 31.6902 23.3111 31.6912C23.2062 31.6983 23.1023 31.7074 22.9995 31.7195C22.9783 31.7215 22.9571 31.7246 22.935 31.7276C22.823 31.7417 22.7111 31.7589 22.6012 31.7791C22.5931 31.7801 22.5861 31.7822 22.578 31.7832C22.4247 31.8115 22.2735 31.8458 22.1242 31.8852C22.1162 31.8873 22.1091 31.8893 22.101 31.8913C19.2927 32.629 17.2135 35.1918 17.2135 38.2366V47.3913H20.7831V38.2366C20.7831 38.1881 20.7881 38.1396 20.7902 38.0911V38.1831C20.8194 36.5621 22.1383 35.2545 23.7628 35.2545H26.1052C27.7398 35.2545 29.0718 36.5854 29.0809 38.2205V47.3903H32.6556V38.2356C32.6556 38.2235 32.6556 38.2114 32.6556 38.1992C32.6465 36.4752 31.9689 34.9068 30.8718 33.7396V33.7406Z" fill="white"/>
<path d="M127.688 33.7679C126.494 32.4976 124.802 31.7023 122.927 31.7023H120.575C120.449 31.7023 120.324 31.7064 120.199 31.7134C120.175 31.7145 120.151 31.7175 120.127 31.7185C120.022 31.7256 119.918 31.7347 119.816 31.7468C119.794 31.7488 119.773 31.7519 119.751 31.7549C119.639 31.769 119.527 31.7862 119.417 31.8064C119.409 31.8074 119.402 31.8095 119.394 31.8105C119.241 31.8388 119.09 31.8731 118.94 31.9125C118.932 31.9146 118.925 31.9166 118.917 31.9186C116.109 32.6563 114.03 35.2191 114.03 38.2639V47.4186H117.599V38.2639C117.599 38.2154 117.604 38.1669 117.606 38.1184V38.2103C117.635 36.5894 118.954 35.2817 120.579 35.2817H122.921C124.556 35.2817 125.888 36.6127 125.897 38.2477V47.4176H129.472V38.2629C129.472 38.2508 129.472 38.2386 129.472 38.2265C129.463 36.5025 128.785 34.9341 127.688 33.7669V33.7679Z" fill="white"/>
<path d="M64.0529 34.5683C63.7726 33.9973 63.3814 33.4981 62.8782 33.0707C62.375 32.6432 61.7872 32.3026 61.1156 32.049C60.682 31.8853 60.2232 31.7812 59.7442 31.7226C59.48 31.6902 59.2118 31.669 58.9335 31.669H53.3935C53.1364 31.669 52.8843 31.6882 52.6363 31.7226C52.2007 31.7842 51.7802 31.8994 51.3748 32.0682C49.3056 32.6856 47.8123 34.4319 47.8123 36.4914V42.7488C47.8123 43.6603 48.1087 44.5082 48.6139 45.2257C49.5355 46.5374 51.163 47.4115 53.0225 47.4115H59.2642C59.8481 47.4115 60.4087 47.3246 60.9331 47.166C61.6984 47.0023 62.368 46.7335 62.9427 46.3585C63.4449 46.0311 63.822 45.6532 64.0782 45.2257C64.3413 44.7841 64.4755 44.2909 64.4755 43.7432V42.6063H60.8443C60.566 43.3026 59.9035 43.8028 59.116 43.8352C59.0555 43.8362 58.998 43.8382 58.9345 43.8382H53.3946C52.8359 43.8382 52.3418 43.6583 51.9102 43.2996C51.5422 42.9499 51.3103 42.4578 51.3022 41.9111V41.3179H64.4755V36.4207C64.4755 35.7557 64.3343 35.1373 64.055 34.5663L64.0529 34.5683ZM51.3002 37.2807C51.3002 36.1994 52.1744 35.3232 53.2534 35.3232H59.0353C60.1133 35.3232 60.9875 36.1994 60.9885 37.2796V37.8476H51.3012V37.2796L51.3002 37.2807Z" fill="white"/>
<path d="M111.911 34.5875C111.63 34.0166 111.239 33.5173 110.736 33.0899C110.233 32.6624 109.645 32.3219 108.973 32.0682C108.54 31.9045 108.081 31.8004 107.602 31.7418C107.338 31.7095 107.07 31.6882 106.791 31.6882H101.251C100.994 31.6882 100.742 31.7074 100.494 31.7418C100.058 31.8034 99.638 31.9186 99.2326 32.0874C97.1635 32.7049 95.6701 34.4511 95.6701 36.5106V42.768C95.6701 43.6796 95.9666 44.5274 96.4717 45.2449C97.3934 46.5566 99.0209 47.4308 100.88 47.4308H107.122C107.706 47.4308 108.267 47.3439 108.791 47.1852C109.556 47.0215 110.226 46.7527 110.801 46.3778C111.303 46.0503 111.68 45.6724 111.936 45.2449C112.199 44.8033 112.333 44.3102 112.333 43.7624V42.6255H108.702C108.424 43.3218 107.761 43.822 106.974 43.8544C106.913 43.8554 106.856 43.8574 106.792 43.8574H101.252C100.694 43.8574 100.2 43.6775 99.7681 43.3188C99.4 42.9691 99.1681 42.477 99.16 41.9303V41.3371H112.333V36.4399C112.333 35.7749 112.192 35.1565 111.913 34.5855L111.911 34.5875ZM99.158 37.3009C99.158 36.2196 100.032 35.3434 101.111 35.3434H106.893C107.971 35.3434 108.845 36.2196 108.846 37.2999V37.8678H99.159V37.2999L99.158 37.3009Z" fill="white"/>
<path d="M160.453 34.5683C160.173 33.9973 159.782 33.4981 159.279 33.0707C158.775 32.6432 158.188 32.3026 157.516 32.049C157.082 31.8853 156.624 31.7812 156.145 31.7226C155.88 31.6902 155.612 31.669 155.334 31.669H149.794C149.537 31.669 149.285 31.6882 149.037 31.7226C148.601 31.7842 148.181 31.8994 147.775 32.0682C145.706 32.6856 144.213 34.4319 144.213 36.4914V42.7488C144.213 43.6603 144.509 44.5082 145.014 45.2257C145.936 46.5374 147.563 47.4115 149.423 47.4115H155.665C156.249 47.4115 156.809 47.3246 157.334 47.166C158.099 47.0023 158.768 46.7335 159.343 46.3585C159.845 46.0311 160.222 45.6532 160.479 45.2257C160.742 44.7841 160.876 44.2909 160.876 43.7432V42.6063H157.245C156.966 43.3026 156.304 43.8028 155.516 43.8352C155.456 43.8362 155.398 43.8382 155.335 43.8382H149.795C149.236 43.8382 148.742 43.6583 148.311 43.2996C147.943 42.9499 147.711 42.4578 147.703 41.9111V41.3179H160.876V36.4207C160.876 35.7557 160.735 35.1373 160.455 34.5663L160.453 34.5683ZM147.701 37.2807C147.701 36.1994 148.575 35.3232 149.654 35.3232H155.436C156.514 35.3232 157.388 36.1994 157.389 37.2796V37.8476H147.702V37.2796L147.701 37.2807Z" fill="white"/>
<path d="M175.781 37.7607H166.093V37.1675C166.101 36.6208 166.333 36.1297 166.701 35.779C167.133 35.4213 167.628 35.2404 168.186 35.2404H173.726C173.789 35.2404 173.847 35.2424 173.907 35.2434C174.694 35.2758 175.357 35.776 175.635 36.4723H179.266C179.256 34.4208 177.768 32.6827 175.704 32.0662C175.299 31.8975 174.878 31.7823 174.443 31.7206C174.194 31.6852 173.942 31.6671 173.685 31.6671H167.815C165.955 31.6671 164.329 32.5412 163.406 33.8529C162.901 34.5714 162.604 35.4193 162.604 36.3298V39.5858C162.604 40.5418 163.378 41.3179 164.333 41.3179H175.778V41.9111C175.77 42.4578 175.538 42.949 175.17 43.2996C174.738 43.6574 174.243 43.8383 173.685 43.8383H168.145C168.082 43.8383 168.024 43.8362 167.964 43.8352C167.176 43.8029 166.514 43.3027 166.235 42.6064H162.605C162.614 44.6578 164.103 46.396 166.167 47.0124C166.572 47.1812 166.993 47.2964 167.428 47.358C167.676 47.3934 167.929 47.4116 168.186 47.4116H174.056C175.916 47.4116 177.542 46.5375 178.465 45.2258C178.97 44.5073 179.267 43.6594 179.267 42.7489V39.4928C179.267 38.5369 178.493 37.7607 177.538 37.7607H175.781Z" fill="white"/>
<path d="M181.369 13.0403H171.682V12.4471C171.69 11.9004 171.922 11.4093 172.29 11.0586C172.721 10.7009 173.216 10.52 173.774 10.52H179.314C179.377 10.52 179.435 10.522 179.495 10.523C180.282 10.5554 180.945 11.0556 181.224 11.7519H184.854C184.845 9.70044 183.356 7.96227 181.292 7.34583C180.887 7.17706 180.466 7.06186 180.031 7.00021C179.783 6.96485 179.531 6.94666 179.274 6.94666H173.403C171.543 6.94666 169.917 7.82079 168.994 9.1325C168.489 9.85101 168.193 10.6989 168.193 11.6094V14.8654C168.193 15.8214 168.966 16.5975 169.921 16.5975H181.366V17.1907C181.358 17.7374 181.126 18.2286 180.758 18.5792C180.326 18.937 179.831 19.1179 179.274 19.1179H173.734C173.67 19.1179 173.613 19.1158 173.552 19.1148C172.765 19.0825 172.102 18.5823 171.824 17.886H168.194C168.203 19.9374 169.691 21.6756 171.755 22.292C172.161 22.4608 172.581 22.576 173.017 22.6376C173.265 22.673 173.517 22.6912 173.774 22.6912H179.645C181.504 22.6912 183.131 21.8171 184.053 20.5054C184.558 19.7869 184.855 18.939 184.855 18.0285V14.7724C184.855 13.8165 184.081 13.0403 183.127 13.0403H181.369Z" fill="white"/>
<path d="M88.5694 31.7256H82.2076C79.2743 31.7256 76.8966 33.8367 76.8966 36.4409V42.8216C76.8966 42.8216 76.8966 42.8276 76.8966 42.8307C76.9026 45.4298 79.2773 47.5348 82.2066 47.5348H90.1293V48.6586C90.1293 49.7389 89.2561 50.614 88.1781 50.614H82.368C81.3465 50.614 80.5126 49.8157 80.448 48.8081H76.8956V49.1628C76.8956 49.272 76.9057 49.3781 76.9137 49.4852H76.9157C76.9157 49.4852 76.9157 49.4872 76.9157 49.4882H76.9137C76.9137 49.4993 76.9167 49.5095 76.9177 49.5206C76.9248 49.5994 76.9369 49.6762 76.949 49.754C76.9571 49.8076 76.9672 49.8601 76.9762 49.9137C76.9803 49.9379 76.9843 49.9632 76.9893 49.9875C76.9954 50.0147 77.0025 50.042 77.0085 50.0683C77.0156 50.0986 77.0226 50.1299 77.0307 50.1603C77.0418 50.2047 77.0498 50.2502 77.063 50.2947C77.0831 50.3634 77.1073 50.4311 77.1295 50.4988C77.1325 50.5059 77.1345 50.514 77.1366 50.522C77.1517 50.5665 77.1638 50.611 77.1799 50.6544C77.2445 50.8252 77.3171 50.993 77.4028 51.1547C77.4713 51.282 77.545 51.4073 77.6256 51.5286C77.787 51.7711 77.9715 51.9995 78.1782 52.2107C78.5906 52.6341 79.0877 52.9919 79.6464 53.2637C79.9257 53.3991 80.2201 53.5133 80.5277 53.6043C80.681 53.6497 80.8383 53.6881 80.9976 53.7215C81.3172 53.7872 81.647 53.8266 81.9858 53.8397C82.0594 53.8427 82.131 53.8498 82.2056 53.8498H88.5674C91.5007 53.8498 93.8784 51.7529 93.8784 49.1679V36.4429C93.8784 33.8387 91.5007 31.7276 88.5674 31.7276L88.5694 31.7256ZM90.2241 38.275V42.1101C90.2241 43.1773 89.361 44.0433 88.2951 44.0433H82.4567C81.3919 44.0433 80.5277 43.1783 80.5277 42.1101V37.22C80.5277 36.1529 81.3908 35.2868 82.4567 35.2868H88.2951C88.3284 35.2868 88.3607 35.2898 88.3939 35.2919C88.4161 35.2929 88.4383 35.2929 88.4605 35.2949C89.4477 35.3788 90.2241 36.2074 90.2241 37.219V38.274V38.275Z" fill="white"/>
<path d="M69.842 13.6022C69.842 11.963 71.1871 10.6341 72.8469 10.6341H75.2176C76.8693 10.6341 78.2134 11.959 78.2235 13.587V22.7164H81.8324V13.587C81.8415 11.956 83.1836 10.6341 84.8374 10.6341H87.209C88.8688 10.6341 90.215 11.963 90.215 13.6032V22.7174H93.8209V13.6032C93.8209 9.99546 90.8593 7.06989 87.207 7.06989H84.8384C82.9426 7.06989 81.2355 7.86621 80.0285 9.13042C78.8215 7.8652 77.1153 7.06989 75.2186 7.06989H72.8469C69.2017 7.06989 66.2361 9.99849 66.2361 13.6032V47.3499H69.842V13.6022Z" fill="white"/>
<path d="M69.842 47.3489H66.2361V47.4115H69.842V47.3489Z" fill="white"/>
</g>
<defs>
<clipPath id="clip0_258_238">
<rect width="184.854" height="53.8488" fill="white"/>
</clipPath>
</defs>
</svg>
