<svg viewBox="0 0 246 82" fill="none" xmlns="http://www.w3.org/2000/svg" preserveAspectRatio="xMidYMid meet">
<g clip-path="url(#clip0_447_540)">
<path d="M62.6828 36.8208H66.3053V45.5237C66.3053 47.1268 67.6595 48.4307 69.3246 48.4307H71.7071C73.3722 48.4307 74.7265 47.1268 74.7265 45.5237V36.8208H78.349V45.5237C78.349 49.0502 75.3691 51.9215 71.7071 51.9215H69.3246C65.6618 51.9215 62.6828 49.0534 62.6828 45.5237V36.8208Z" fill="white"/>
<path d="M133.873 36.8208H131.526C129.649 36.8208 127.96 37.5884 126.765 38.8089C125.57 37.5884 123.881 36.8208 122.003 36.8208H119.656C116.047 36.8208 113.112 39.6468 113.112 43.1248V51.9191H116.681V43.1248C116.681 41.5451 118.015 40.2607 119.656 40.2607H122.003C123.638 40.2607 124.97 41.5395 124.979 43.1102V51.9191H128.551V43.1102C128.56 41.5362 129.888 40.2607 131.526 40.2607H133.873C135.514 40.2607 136.849 41.5451 136.849 43.1248V51.9191H140.418V43.1248C140.418 39.6501 137.483 36.8208 133.874 36.8208H133.873Z" fill="white"/>
<path d="M43.7628 36.8208V39.9105H52.2336L44.9474 44.3113C43.3537 45.2981 42.6413 47.2473 43.1756 48.9984C43.7099 50.7495 45.3405 51.9223 47.2341 51.9223H51.1339V48.607H47.2341C46.625 48.607 46.4251 48.171 46.3688 47.9809C46.3125 47.7917 46.2344 47.3218 46.7469 47.0031L54.8984 42.0636V51.9183H58.5074V36.8208H43.7628Z" fill="white"/>
<path d="M143.818 36.8208V39.9097H152.287L145.003 44.3097C143.41 45.2965 142.697 47.2449 143.232 48.9952C143.766 50.7455 145.397 51.9183 147.289 51.9183H151.188V48.6037H147.289C146.68 48.6037 146.48 48.1678 146.424 47.9785C146.368 47.7893 146.29 47.3201 146.802 47.0007L154.953 42.062V51.9151H158.561V36.8208H143.819H143.818Z" fill="white"/>
<path d="M90.3658 39.9291V36.8443H84.3045V30H80.7324V46.1344C80.7324 47.1584 80.8508 48.0384 81.0911 48.7744C81.3314 49.5072 81.6901 50.1106 82.1706 50.5821C82.6512 51.0537 83.2468 51.3958 83.955 51.6061C84.6666 51.8164 85.4806 51.9215 86.398 51.9215H92.1594V48.6118H86.5223C86.0418 48.6118 85.6554 48.5277 85.3647 48.3563C85.0715 48.1848 84.8472 47.9599 84.6909 47.6776C84.5347 47.3954 84.4288 47.071 84.3792 46.6982C84.3263 46.3261 84.3011 45.95 84.3011 45.5658V39.9283H90.3658V39.9291Z" fill="white"/>
<path d="M105.51 36.8208H99.2121C96.3104 36.8208 93.9581 38.8437 93.9581 41.3381V47.401C93.9581 49.8954 96.3104 51.9183 99.2121 51.9183H105.506C108.408 51.9183 110.76 49.8954 110.76 47.401V41.3381C110.76 38.8437 108.408 36.8208 105.506 36.8208H105.51ZM107.243 47.3986C107.243 47.9308 106.502 48.5269 105.506 48.5269H99.2121C98.22 48.5269 97.4756 47.9316 97.4756 47.3986V41.3357C97.4756 40.8002 98.1863 40.2073 99.2121 40.2073H105.51C106.532 40.2073 107.246 40.8026 107.246 41.3357V47.3986H107.243Z" fill="white"/>
<path d="M170.311 36.8839H166.708V51.9588H170.311V36.8839Z" fill="white"/>
<path d="M170.311 30.0404H166.708V34.5634H170.311V30.0404Z" fill="white"/>
<path d="M201.206 39.9696V36.8847H195.145V30.0404H191.573V46.1748C191.573 47.1988 191.691 48.0788 191.932 48.8148C192.172 49.5476 192.531 50.151 193.011 50.6226C193.492 51.0941 194.087 51.4362 194.796 51.6465C195.507 51.8568 196.321 51.962 197.239 51.962H203V48.6523H197.363C196.882 48.6523 196.496 48.5682 196.205 48.3967C195.912 48.2252 195.688 48.0004 195.531 47.7181C195.375 47.4358 195.269 47.1115 195.22 46.7386C195.167 46.3665 195.142 45.9904 195.142 45.6062V39.9687H201.206V39.9696Z" fill="white"/>
<path d="M188.981 43.1313C188.972 41.4675 188.291 39.955 187.19 38.8283C185.99 37.6021 184.292 36.8346 182.409 36.8346H180.046C179.919 36.8346 179.793 36.8386 179.669 36.8459C179.644 36.8475 179.621 36.8499 179.596 36.8515C179.491 36.8588 179.387 36.8669 179.283 36.879C179.261 36.8815 179.24 36.8847 179.218 36.8871C179.106 36.9009 178.993 36.9171 178.882 36.9365C178.875 36.9381 178.867 36.9389 178.86 36.9405C178.706 36.968 178.554 37.0012 178.404 37.0384C178.397 37.04 178.389 37.0424 178.382 37.044C175.561 37.7558 173.473 40.2284 173.473 43.1668V52.0008H177.058V43.1668C177.058 43.1199 177.064 43.0738 177.066 43.0269V43.1151C177.096 41.5516 178.42 40.2899 180.052 40.2899H182.404C184.046 40.2899 185.383 41.5743 185.392 43.1523V52.0008H188.983V43.1668C188.983 43.1547 188.982 43.1434 188.982 43.1313H188.981Z" fill="white"/>
<path d="M162.756 52C163.752 52 164.559 51.2225 164.559 50.2635C164.559 49.3044 163.752 48.5269 162.756 48.5269C161.76 48.5269 160.952 49.3044 160.952 50.2635C160.952 51.2225 161.76 52 162.756 52Z" fill="white"/>
</g>
<defs>
<clipPath id="clip0_447_540">
<rect width="160" height="22" fill="white" transform="translate(43 30)"/>
</clipPath>
</defs>
</svg>
