<svg viewBox="0 0 245 80" fill="none" xmlns="http://www.w3.org/2000/svg" preserveAspectRatio="xMidYMid meet">
<path d="M43.3097 33.2358H45.9813C46.1517 33.2358 46.291 33.3684 46.291 33.5305V43.92C46.291 44.0821 46.4304 44.2147 46.6008 44.2147H53.1132C53.2835 44.2147 53.4229 44.3474 53.4229 44.5095V46.4695C53.4229 46.6316 53.2835 46.7642 53.1132 46.7642H43.3097C43.1394 46.7642 43 46.6316 43 46.4695V33.5305C43 33.3684 43.1394 33.2358 43.3097 33.2358Z" fill="white"/>
<path d="M59.6411 33.2358H62.3127C62.483 33.2358 62.6224 33.3684 62.6224 33.5305V46.4695C62.6224 46.6316 62.483 46.7642 62.3127 46.7642H59.6411C59.4708 46.7642 59.3314 46.6316 59.3314 46.4695V33.5305C59.3314 33.3684 59.4708 33.2358 59.6411 33.2358Z" fill="white"/>
<path d="M79.9759 39.7863H82.3609C82.5312 39.7863 82.6706 39.9189 82.6706 40.0811V45.1284C82.6706 45.2242 82.6242 45.3126 82.5467 45.3716C80.9903 46.4326 78.8995 47 76.9249 47C72.4568 47 69.1657 44.0821 69.1657 40C69.1657 35.9179 72.4568 33 76.9868 33C79.3641 33 81.3542 33.7368 82.7326 35.1221C82.8487 35.24 82.841 35.4316 82.7171 35.5347L81.0522 37.0011C80.9283 37.1116 80.7425 37.1042 80.6186 36.9937C79.6274 36.0874 78.4968 35.6674 77.1494 35.6674C74.3849 35.6674 72.4955 37.4284 72.4955 40C72.4955 42.5716 74.3849 44.3326 77.1107 44.3326C77.947 44.3326 78.7214 44.2 79.4957 43.8389C79.6042 43.7874 79.6661 43.6842 79.6661 43.5737V40.0884C79.6661 39.9263 79.8055 39.7937 79.9759 39.7937" fill="white"/>
<path d="M102.827 33.5305V46.4695C102.827 46.6316 102.688 46.7642 102.518 46.7642H99.846C99.6756 46.7642 99.5362 46.6316 99.5362 46.4695V41.5105C99.5362 41.3484 99.3969 41.2158 99.2265 41.2158H93.3878C93.2174 41.2158 93.078 41.3484 93.078 41.5105V46.4695C93.078 46.6316 92.9387 46.7642 92.7683 46.7642H90.0967C89.9264 46.7642 89.787 46.6316 89.787 46.4695V33.5305C89.787 33.3684 89.9264 33.2358 90.0967 33.2358H92.7683C92.9387 33.2358 93.078 33.3684 93.078 33.5305V38.2758C93.078 38.4379 93.2174 38.5705 93.3878 38.5705H99.2265C99.3969 38.5705 99.5362 38.4379 99.5362 38.2758V33.5305C99.5362 33.3684 99.6756 33.2358 99.846 33.2358H102.518C102.688 33.2358 102.827 33.3684 102.827 33.5305Z" fill="white"/>
<path d="M112.894 35.7853H108.96C108.79 35.7853 108.651 35.6527 108.651 35.4906V33.5232C108.651 33.3611 108.79 33.2285 108.96 33.2285H120.731C120.901 33.2285 121.04 33.3611 121.04 33.5232V35.4832C121.04 35.6453 120.901 35.778 120.731 35.778H116.797C116.626 35.778 116.487 35.9106 116.487 36.0727V46.4622C116.487 46.6243 116.348 46.7569 116.177 46.7569H113.506C113.335 46.7569 113.196 46.6243 113.196 46.4622V36.0801C113.196 35.918 113.057 35.7853 112.886 35.7853" fill="white"/>
<path d="M136.133 44.62C135.281 45.2168 134.235 45.5189 132.989 45.5189C132.09 45.5189 131.301 45.3642 130.627 45.0621C129.953 44.76 129.396 44.3474 128.946 43.8168C128.497 43.2863 128.164 42.6895 127.948 42.0263C127.731 41.3632 127.622 40.6705 127.622 39.941C127.622 39.2116 127.738 38.4674 127.963 37.7968C128.188 37.1263 128.521 36.5295 128.954 36.0137C129.388 35.4979 129.938 35.0926 130.588 34.8053C131.246 34.5105 132.005 34.3705 132.865 34.3705C133.662 34.3705 134.39 34.5032 135.048 34.761C135.707 35.0189 136.241 35.4095 136.667 35.9253C137.046 36.3821 137.294 36.9495 137.418 37.6053C137.441 37.7453 137.565 37.8558 137.72 37.8558H138.541C138.734 37.8558 138.882 37.6937 138.851 37.5095C138.711 36.6916 138.417 35.9695 137.968 35.3505C137.457 34.6432 136.775 34.0979 135.916 33.7074C135.064 33.3168 134.05 33.1179 132.873 33.1179C131.695 33.1179 130.712 33.3095 129.86 33.6926C129.008 34.0758 128.319 34.5916 127.777 35.2326C127.235 35.8737 126.832 36.5884 126.577 37.3768C126.321 38.1653 126.197 38.961 126.197 39.7568V40.0958C126.197 40.8326 126.321 41.5916 126.569 42.3653C126.817 43.1389 127.212 43.861 127.762 44.5316C128.304 45.1947 129.008 45.7326 129.876 46.1453C130.743 46.5579 131.788 46.7568 133.012 46.7568C134.235 46.7568 135.258 46.5505 136.125 46.1379C136.992 45.7253 137.681 45.1579 138.192 44.4358C138.634 43.8168 138.936 43.1242 139.098 42.3726C139.137 42.1958 138.982 42.0189 138.789 42.0189H137.968C137.821 42.0189 137.705 42.1221 137.674 42.2547C137.449 43.2716 136.938 44.0526 136.148 44.6126" fill="white"/>
<path d="M160.719 35.2474C160.13 34.6063 159.402 34.0905 158.535 33.7074C157.668 33.3242 156.653 33.1253 155.492 33.1253C154.33 33.1253 153.331 33.3169 152.464 33.7074C151.589 34.0905 150.861 34.6063 150.273 35.2474C149.684 35.8884 149.25 36.6032 148.956 37.3916C148.662 38.18 148.515 38.9758 148.515 39.7716V40.0958C148.515 40.84 148.662 41.6063 148.948 42.3947C149.235 43.1758 149.669 43.9053 150.242 44.5684C150.815 45.2316 151.543 45.7695 152.41 46.1674C153.285 46.5726 154.315 46.7716 155.5 46.7716C156.684 46.7716 157.714 46.5726 158.589 46.1674C159.464 45.7621 160.192 45.2316 160.773 44.5684C161.354 43.9053 161.787 43.1832 162.066 42.4095C162.345 41.6284 162.484 40.8695 162.484 40.1179V39.779C162.484 38.9832 162.337 38.1947 162.043 37.399C161.749 36.6105 161.307 35.8958 160.727 35.2547M160.672 42.0411C160.425 42.7042 160.061 43.3011 159.588 43.8316C159.116 44.3621 158.535 44.7747 157.846 45.0769C157.157 45.379 156.382 45.5337 155.507 45.5337C154.632 45.5337 153.873 45.379 153.176 45.0769C152.487 44.7747 151.899 44.3621 151.426 43.8316C150.954 43.3011 150.59 42.7116 150.342 42.0411C150.095 41.3779 149.971 40.6853 149.971 39.9558C149.971 39.2263 150.095 38.4821 150.35 37.819C150.606 37.1558 150.977 36.5663 151.457 36.0432C151.937 35.5274 152.518 35.1221 153.207 34.8274C153.897 34.5326 154.663 34.3853 155.507 34.3853C156.351 34.3853 157.141 34.5326 157.83 34.8274C158.52 35.1221 159.1 35.5274 159.58 36.0432C160.061 36.559 160.425 37.1484 160.672 37.819C160.92 38.4821 161.044 39.1969 161.044 39.9558C161.044 40.7147 160.92 41.3705 160.672 42.0411Z" fill="white"/>
<path d="M179.923 33.9284C179.203 33.5821 178.297 33.4127 177.197 33.4127H173.209V46.1674C173.209 46.3295 173.348 46.4621 173.519 46.4621H174.324C174.494 46.4621 174.634 46.3295 174.634 46.1674V42.0042C174.634 41.8421 174.773 41.7095 174.944 41.7095H177.197C178.297 41.7095 179.203 41.54 179.923 41.1937C180.643 40.8474 181.177 40.3758 181.533 39.7642C181.89 39.1527 182.068 38.46 182.068 37.6863V37.4358C182.068 36.6548 181.89 35.9548 181.533 35.3506C181.177 34.7463 180.643 34.2674 179.923 33.9284ZM180.271 39.0495C180.047 39.4916 179.706 39.8527 179.241 40.1179C178.777 40.3832 178.18 40.5158 177.445 40.5158H174.951C174.781 40.5158 174.642 40.3832 174.642 40.2211V34.9011C174.642 34.739 174.781 34.6063 174.951 34.6063H177.445C178.18 34.6063 178.777 34.739 179.241 34.9969C179.706 35.2548 180.047 35.6084 180.271 36.0579C180.496 36.5 180.604 37.0011 180.604 37.5611C180.604 38.1211 180.488 38.6 180.271 39.0495Z" fill="white"/>
<path d="M201.992 33.4642H200.784C200.668 33.4642 200.56 33.5305 200.505 33.6263L197.129 40.1327C197.075 40.2358 196.967 40.2948 196.85 40.2948H196.123C196.006 40.2948 195.898 40.2358 195.852 40.1327L192.282 33.6116C192.228 33.5158 192.119 33.4495 192.011 33.4495H190.702L195.1 41.3558H195.774V46.1526C195.774 46.3148 195.914 46.4474 196.084 46.4474H196.866C197.036 46.4474 197.176 46.3148 197.176 46.1526V41.3558H197.865L202 33.4495L201.992 33.4642Z" fill="white"/>
</svg>
