<svg width="199" height="19" viewBox="0 0 199 19" fill="none" xmlns="http://www.w3.org/2000/svg">
<path d="M0.386301 0.316162H3.71815C3.93062 0.316162 4.10445 0.494019 4.10445 0.7114V14.6435C4.10445 14.8609 4.27829 15.0388 4.49075 15.0388H12.6127C12.8252 15.0388 12.999 15.2166 12.999 15.434V18.0623C12.999 18.2797 12.8252 18.4576 12.6127 18.4576H0.386301C0.173836 18.4576 0 18.2797 0 18.0623V0.7114C0 0.494019 0.173836 0.316162 0.386301 0.316162Z" fill="white"/>
<path d="M20.7541 0.316162H24.086C24.2984 0.316162 24.4723 0.494019 24.4723 0.7114V18.0623C24.4723 18.2797 24.2984 18.4576 24.086 18.4576H20.7541C20.5417 18.4576 20.3678 18.2797 20.3678 18.0623V0.7114C20.3678 0.494019 20.5417 0.316162 20.7541 0.316162Z" fill="white"/>
<path d="M46.1148 9.10035H49.0893C49.3018 9.10035 49.4756 9.27821 49.4756 9.49559V16.264C49.4756 16.3925 49.4176 16.5111 49.3211 16.5901C47.3799 18.013 44.7724 18.7738 42.3097 18.7738C36.7373 18.7738 32.6328 14.8609 32.6328 9.3869C32.6328 3.91285 36.7373 0 42.387 0C45.3518 0 47.8338 0.988095 49.5528 2.84571C49.6977 3.00381 49.6881 3.26071 49.5335 3.39905L47.4572 5.36535C47.3026 5.51357 47.0709 5.50369 46.9163 5.35547C45.6802 4.14012 44.2702 3.5769 42.5898 3.5769C39.142 3.5769 36.7856 5.93845 36.7856 9.3869C36.7856 12.8353 39.142 15.1969 42.5415 15.1969C43.5845 15.1969 44.5502 15.019 45.516 14.5349C45.6512 14.4657 45.7285 14.3274 45.7285 14.1792V9.50547C45.7285 9.28809 45.9023 9.11023 46.1148 9.11023" fill="white"/>
<path d="M74.6141 0.7114V18.0623C74.6141 18.2797 74.4403 18.4576 74.2278 18.4576H70.8959C70.6835 18.4576 70.5096 18.2797 70.5096 18.0623V11.4125C70.5096 11.1951 70.3358 11.0172 70.1233 11.0172H62.8416C62.6291 11.0172 62.4553 11.1951 62.4553 11.4125V18.0623C62.4553 18.2797 62.2814 18.4576 62.0689 18.4576H58.7371C58.5246 18.4576 58.3508 18.2797 58.3508 18.0623V0.7114C58.3508 0.494019 58.5246 0.316162 58.7371 0.316162H62.0689C62.2814 0.316162 62.4553 0.494019 62.4553 0.7114V7.07473C62.4553 7.29211 62.6291 7.46997 62.8416 7.46997H70.1233C70.3358 7.46997 70.5096 7.29211 70.5096 7.07473V0.7114C70.5096 0.494019 70.6835 0.316162 70.8959 0.316162H74.2278C74.4403 0.316162 74.6141 0.494019 74.6141 0.7114Z" fill="white"/>
<path d="M87.1689 3.73508H82.2629C82.0504 3.73508 81.8766 3.55723 81.8766 3.33985V0.701634C81.8766 0.484253 82.0504 0.306396 82.2629 0.306396H96.9423C97.1548 0.306396 97.3286 0.484253 97.3286 0.701634V3.32997C97.3286 3.54735 97.1548 3.7252 96.9423 3.7252H92.0363C91.8239 3.7252 91.65 3.90306 91.65 4.12044V18.0526C91.65 18.27 91.4762 18.4478 91.2637 18.4478H87.9319C87.7194 18.4478 87.5456 18.27 87.5456 18.0526V4.13032C87.5456 3.91294 87.3717 3.73508 87.1593 3.73508" fill="white"/>
<path d="M116.151 15.5822C115.089 16.3826 113.785 16.7877 112.23 16.7877C111.11 16.7877 110.125 16.5802 109.285 16.1751C108.444 15.77 107.749 15.2166 107.189 14.5052C106.629 13.7938 106.213 12.9934 105.943 12.1041C105.673 11.2149 105.537 10.2861 105.537 9.30784C105.537 8.32962 105.682 7.33165 105.962 6.43248C106.242 5.53332 106.658 4.73296 107.199 4.04129C107.739 3.34963 108.425 2.80617 109.236 2.42082C110.057 2.02558 111.004 1.83784 112.076 1.83784C113.07 1.83784 113.978 2.0157 114.799 2.36153C115.62 2.70737 116.286 3.23106 116.817 3.92272C117.291 4.53534 117.6 5.29617 117.754 6.17558C117.783 6.36332 117.938 6.51153 118.131 6.51153H119.155C119.396 6.51153 119.58 6.29415 119.541 6.04712C119.367 4.95034 119 3.98201 118.44 3.15201C117.803 2.20344 116.953 1.47225 115.881 0.948557C114.818 0.424867 113.553 0.158081 112.085 0.158081C110.617 0.158081 109.391 0.414986 108.328 0.928795C107.266 1.4426 106.407 2.13427 105.731 2.99391C105.055 3.85355 104.552 4.81201 104.234 5.86927C103.915 6.92653 103.76 7.99367 103.76 9.06081V9.51534C103.76 10.5034 103.915 11.5212 104.224 12.5587C104.533 13.5962 105.026 14.5645 105.711 15.4637C106.387 16.353 107.266 17.0743 108.348 17.6276C109.429 18.1809 110.733 18.4477 112.259 18.4477C113.785 18.4477 115.06 18.171 116.141 17.6177C117.223 17.0644 118.083 16.3035 118.72 15.3352C119.27 14.5052 119.647 13.5764 119.85 12.5685C119.898 12.3314 119.705 12.0943 119.464 12.0943H118.44C118.256 12.0943 118.112 12.2326 118.073 12.4105C117.793 13.774 117.155 14.8214 116.17 15.5724" fill="white"/>
<path d="M146.814 3.01368C146.08 2.15404 145.172 1.46237 144.091 0.948563C143.009 0.434754 141.744 0.167969 140.295 0.167969C138.847 0.167969 137.601 0.424873 136.519 0.948563C135.428 1.46237 134.52 2.15404 133.786 3.01368C133.052 3.87332 132.511 4.83177 132.144 5.88904C131.777 6.9463 131.594 8.01344 131.594 9.08058V9.51534C131.594 10.5133 131.777 11.5409 132.135 12.5982C132.492 13.6456 133.033 14.6238 133.747 15.5131C134.462 16.4024 135.37 17.1237 136.451 17.6572C137.543 18.2007 138.827 18.4675 140.305 18.4675C141.782 18.4675 143.067 18.2007 144.158 17.6572C145.249 17.1138 146.157 16.4024 146.882 15.5131C147.606 14.6238 148.147 13.6555 148.494 12.618C148.842 11.5706 149.016 10.5528 149.016 9.54499V9.09046C149.016 8.02332 148.832 6.96606 148.465 5.89892C148.098 4.84166 147.548 3.8832 146.824 3.02356M146.756 12.1239C146.447 13.0132 145.993 13.8136 145.404 14.525C144.815 15.2364 144.091 15.7897 143.231 16.1949C142.372 16.6 141.406 16.8075 140.314 16.8075C139.223 16.8075 138.277 16.6 137.408 16.1949C136.548 15.7897 135.814 15.2364 135.225 14.525C134.636 13.8136 134.182 13.0231 133.873 12.1239C133.564 11.2346 133.409 10.3058 133.409 9.3276C133.409 8.34939 133.564 7.35142 133.883 6.46213C134.201 5.57285 134.665 4.78237 135.264 4.08082C135.862 3.38916 136.587 2.8457 137.446 2.45047C138.306 2.05523 139.262 1.85761 140.314 1.85761C141.367 1.85761 142.352 2.05523 143.212 2.45047C144.071 2.8457 144.796 3.38916 145.394 4.08082C145.993 4.77249 146.447 5.56296 146.756 6.46213C147.065 7.35142 147.22 8.30987 147.22 9.3276C147.22 10.3453 147.065 11.2247 146.756 12.1239Z" fill="white"/>
<path d="M170.764 1.24501C169.866 0.780606 168.736 0.553345 167.365 0.553345H162.391V17.6573C162.391 17.8746 162.565 18.0525 162.778 18.0525H163.782C163.994 18.0525 164.168 17.8746 164.168 17.6573V12.0745C164.168 11.8571 164.342 11.6793 164.555 11.6793H167.365C168.736 11.6793 169.866 11.452 170.764 10.9876C171.662 10.5232 172.329 9.89084 172.773 9.07072C173.217 8.2506 173.439 7.32179 173.439 6.28429V5.94834C173.439 4.90096 173.217 3.96227 172.773 3.15203C172.329 2.3418 171.662 1.69953 170.764 1.24501ZM171.199 8.11227C170.919 8.70512 170.494 9.18929 169.914 9.545C169.335 9.90072 168.591 10.0786 167.674 10.0786H164.564C164.352 10.0786 164.178 9.90072 164.178 9.68334V2.5493C164.178 2.33191 164.352 2.15406 164.564 2.15406H167.674C168.591 2.15406 169.335 2.33191 169.914 2.67775C170.494 3.02358 170.919 3.49787 171.199 4.1006C171.479 4.69346 171.614 5.36537 171.614 6.11632C171.614 6.86727 171.469 7.50953 171.199 8.11227Z" fill="white"/>
<path d="M198.289 0.622545H196.782C196.637 0.622545 196.502 0.711474 196.434 0.839926L192.224 9.5648C192.156 9.70313 192.021 9.78218 191.876 9.78218H190.968C190.823 9.78218 190.688 9.70313 190.63 9.5648L186.178 0.820164C186.11 0.691712 185.975 0.602783 185.84 0.602783H184.208L189.693 11.205H190.534V17.6375C190.534 17.8549 190.707 18.0328 190.92 18.0328H191.895C192.108 18.0328 192.282 17.8549 192.282 17.6375V11.205H193.141L198.298 0.602783L198.289 0.622545Z" fill="white"/>
</svg>
