<svg width="196" height="21" viewBox="0 0 196 21" fill="none" xmlns="http://www.w3.org/2000/svg">
<path d="M17.6916 19.6486H13.9577V7.0215L10.3277 19.6486H7.36393L3.73388 7.07423V19.6486H0V0.404785H5.17465L8.85662 11.7622L12.5126 0.404785H17.6873V19.6486H17.6916Z" fill="white"/>
<path d="M32.1324 16.2612H25.7809L24.7944 19.6486H20.7361L26.0189 0.404785H31.9161L37.1989 19.6486H33.1146L32.1281 16.2612H32.1324ZM28.9567 4.79836L26.8496 12.4695H31.0681L28.961 4.79836H28.9567Z" fill="white"/>
<path d="M39.7906 13.686V13.0094H43.9268V13.9584C43.9268 15.4214 45.6099 16.3177 47.505 16.3177C48.8938 16.3177 50.5206 15.6938 50.5206 14.1473C50.5206 10.5446 40.1929 12.6842 40.1929 5.77315C40.1929 2.65811 42.274 0 47.2107 0C52.1474 0 54.3627 2.43843 54.3627 5.85223V6.74413H50.2264V5.7424C50.2264 4.5781 48.8635 3.79165 47.1588 3.79165C45.6099 3.79165 44.3595 4.41554 44.3595 5.66331C44.3595 8.51034 54.6872 6.99017 54.6872 13.954C54.6872 17.3941 52.1258 20.0523 47.4011 20.0523C42.6764 20.0523 39.7949 17.4249 39.7949 13.6816L39.7906 13.686Z" fill="white"/>
<path d="M71.1243 4.20083H66.0794V19.6486H61.9432V4.20083H56.8464V0.404785H71.1243V4.20083Z" fill="white"/>
<path d="M78.1484 4.20083V8.40108H85.1662V12.1971H78.1484V15.857H86.2349V19.653H74.0121V0.404785H86.2349V4.20083H78.1484Z" fill="white"/>
<path d="M97.1003 12.7112H93.7645V19.6486H89.6282V0.404785H97.6065C101.345 0.404785 103.824 2.57521 103.824 5.96265V7.15331C103.824 9.29298 102.837 10.9494 101.154 11.8676L104.062 19.6442H99.7655L97.096 12.7068L97.1003 12.7112ZM93.7645 8.91513H97.8748C98.9954 8.91513 99.6876 8.34397 99.6876 7.34223V5.76934C99.6876 4.7676 98.9954 4.19644 97.9007 4.19644H93.7645V8.91074V8.91513Z" fill="white"/>
<path d="M117.6 1.81444V10.0787H126.379V11.2738H117.6V19.6479H116.372V0.623779H127.392V1.81444H117.596H117.6Z" fill="white"/>
<path d="M143.651 18.4573V19.6479H132.6V0.623779H133.829V18.4573H143.651V18.4573Z" fill="white"/>
<path d="M147.919 13.9846V0.623779H149.143V13.7957C149.143 17.0733 150.64 18.756 154.426 18.756C158.212 18.756 159.683 17.0777 159.683 13.7957V0.623779H160.912V13.9846C160.912 17.7236 158.857 19.9467 154.426 19.9467C149.996 19.9467 147.914 17.7236 147.914 13.9846H147.919Z" fill="white"/>
<path d="M177.256 19.6479L171.839 11.0278L166.262 19.6479H164.899L171.091 9.86346L165.271 0.623779H166.686L171.861 8.86172L177.092 0.623779H178.48L172.609 9.99966L178.667 19.6479H177.252H177.256Z" fill="white"/>
<path d="M181.924 13.985V6.42371C181.924 2.60131 184.005 0.325439 188.673 0.325439C193.342 0.325439 195.397 2.60131 195.397 6.42371V13.985C195.397 17.724 193.316 19.9471 188.673 19.9471C184.031 19.9471 181.924 17.724 181.924 13.985ZM194.198 13.7961V6.61264C194.198 3.25156 192.706 1.5161 188.673 1.5161C184.641 1.5161 183.148 3.25156 183.148 6.61264V13.7961C183.148 17.0737 184.645 18.7565 188.673 18.7565C192.701 18.7565 194.198 17.0781 194.198 13.7961Z" fill="white"/>
</svg>
