<svg viewBox="0 0 246 80" fill="none" xmlns="http://www.w3.org/2000/svg" preserveAspectRatio="xMidYMid meet">
<path d="M57.8962 47.8301H54.8578V37.5551L51.9039 47.8301H49.4922L46.5384 37.598V47.8301H43.5V32.1709H47.7108L50.7069 41.4127L53.6819 32.1709H57.8926V47.8301H57.8962Z" fill="white"/>
<path d="M69.6471 45.0737H64.4787L63.6759 47.8301H60.3735L64.6723 32.1709H69.471L73.7698 47.8301H70.4463L69.6435 45.0737H69.6471ZM67.0629 35.746L65.3483 41.9883H68.781L67.0664 35.746H67.0629Z" fill="white"/>
<path d="M75.8787 42.9781V42.4275H79.2445V43.1998C79.2445 44.3903 80.6141 45.1196 82.1561 45.1196C83.2863 45.1196 84.6101 44.612 84.6101 43.3535C84.6101 40.4219 76.2061 42.163 76.2061 36.5392C76.2061 34.0044 77.8996 31.8415 81.9167 31.8415C85.9338 31.8415 87.7364 33.8257 87.7364 36.6036V37.3293H84.3706V36.5142C84.3706 35.5668 83.2616 34.9268 81.8745 34.9268C80.6141 34.9268 79.5966 35.4345 79.5966 36.4499C79.5966 38.7666 88.0005 37.5296 88.0005 43.1962C88.0005 45.9956 85.9162 48.1585 82.0716 48.1585C78.227 48.1585 75.8822 46.0206 75.8822 42.9745L75.8787 42.9781Z" fill="white"/>
<path d="M101.376 35.2598H97.2707V47.8301H93.9049V35.2598H89.7575V32.1709H101.376V35.2598Z" fill="white"/>
<path d="M107.092 35.2598V38.6777H112.802V41.7666H107.092V44.7447H113.672V47.8337H103.726V32.1709H113.672V35.2598H107.092Z" fill="white"/>
<path d="M122.513 42.1849H119.799V47.8301H116.433V32.1709H122.925C125.967 32.1709 127.984 33.937 127.984 36.6935V37.6623C127.984 39.4034 127.182 40.7513 125.812 41.4985L128.178 47.8265H124.682L122.51 42.1813L122.513 42.1849ZM119.799 39.096H123.143C124.055 39.096 124.619 38.6312 124.619 37.8161V36.5362C124.619 35.721 124.055 35.2562 123.165 35.2562H119.799V39.0924V39.096Z" fill="white"/>
<path d="M139.195 33.3179V40.0428H146.338V41.0152H139.195V47.8295H138.195V32.349H147.162V33.3179H139.191H139.195Z" fill="white"/>
<path d="M160.393 46.8606V47.8295H151.401V32.349H152.401V46.8606H160.393Z" fill="white"/>
<path d="M163.866 43.2211V32.349H164.862V43.0674C164.862 45.7344 166.08 47.1037 169.161 47.1037C172.241 47.1037 173.439 45.738 173.439 43.0674V32.349H174.438V43.2211C174.438 46.2636 172.766 48.0726 169.161 48.0726C165.556 48.0726 163.862 46.2636 163.862 43.2211H163.866Z" fill="white"/>
<path d="M187.738 47.8295L183.33 40.815L178.792 47.8295H177.683L182.721 39.8676L177.986 32.349H179.137L183.348 39.0524L187.604 32.349H188.735L183.957 39.9784L188.886 47.8295H187.735H187.738Z" fill="white"/>
<path d="M191.536 43.2215V37.0686C191.536 33.9582 193.23 32.1063 197.029 32.1063C200.828 32.1063 202.5 33.9582 202.5 37.0686V43.2215C202.5 46.2639 200.807 48.073 197.029 48.073C193.251 48.073 191.536 46.2639 191.536 43.2215ZM201.525 43.0677V37.2223C201.525 34.4873 200.31 33.0751 197.029 33.0751C193.747 33.0751 192.533 34.4873 192.533 37.2223V43.0677C192.533 45.7348 193.751 47.1041 197.029 47.1041C200.307 47.1041 201.525 45.7384 201.525 43.0677Z" fill="white"/>
</svg>
