<svg width="166" height="25" viewBox="0 0 166 25" fill="none" xmlns="http://www.w3.org/2000/svg">
<path d="M3.49286 9.64579C3.49286 10.1293 3.64962 10.2403 3.8717 10.3453C4.07378 10.4336 4.28908 10.4875 4.50879 10.5048H9.55022C10.6399 10.4438 11.7114 10.8051 12.5437 11.5142C12.9792 11.9287 13.3202 12.4331 13.5431 12.9926C13.766 13.5521 13.8656 14.1535 13.835 14.7554C13.8571 15.3477 13.7583 15.9382 13.5448 16.4908C13.3312 17.0433 13.0075 17.546 12.5933 17.9682C12.1792 18.3903 11.6835 18.7229 11.1366 18.9455C10.5898 19.1681 10.0034 19.2759 9.41356 19.2625L0.555626 19.2776C0.483274 19.2779 0.411581 19.2638 0.344661 19.2361C0.27774 19.2085 0.216909 19.1679 0.165654 19.1166C0.1144 19.0653 0.0737325 19.0043 0.0459837 18.9372C0.0182349 18.8701 0.0039511 18.7981 0.00395158 18.7254V16.3271C0.0038195 16.2546 0.0179062 16.1828 0.0454075 16.1157C0.0729087 16.0487 0.113286 15.9877 0.164234 15.9364C0.215181 15.885 0.275702 15.8442 0.34234 15.8163C0.408978 15.7885 0.480428 15.7741 0.552611 15.7739L9.39547 15.7588C10.3531 15.7194 10.3531 15.0673 10.3531 14.7494C10.3792 14.5278 10.3315 14.3039 10.2175 14.1124C10.085 14.0292 9.93029 13.989 9.77431 13.9974L9.66076 14.0145L9.61051 14.0044H4.50979C3.77602 13.9889 3.05342 13.8208 2.3875 13.5108C1.65542 13.1743 1.03862 12.628 0.614555 11.9406C0.190492 11.2531 -0.0219331 10.4551 0.00395158 9.6468C-0.0308506 8.85123 0.165274 8.06265 0.568465 7.37699C0.971655 6.69134 1.56453 6.13817 2.27496 5.7848C2.92276 5.46005 3.63249 5.27898 4.35605 5.25385H13.3838C13.5293 5.25385 13.6689 5.31191 13.7718 5.41527C13.8747 5.51863 13.9325 5.65881 13.9325 5.80498V8.20435C13.9325 8.35053 13.8747 8.49071 13.7718 8.59407C13.6689 8.69743 13.5293 8.75549 13.3838 8.75549H4.41332C4.10282 8.77063 3.49186 8.81404 3.49286 9.64579Z" fill="white"/>
<path d="M29.8859 5.81231V8.21067C29.886 8.28313 29.8719 8.35491 29.8444 8.42189C29.8169 8.48887 29.7765 8.54975 29.7256 8.60104C29.6746 8.65232 29.6141 8.69301 29.5474 8.72077C29.4808 8.74853 29.4094 8.76282 29.3372 8.76282H25.2384C25.0929 8.76282 24.9533 8.82088 24.8504 8.92424C24.7475 9.0276 24.6897 9.16778 24.6897 9.31396V18.7166C24.6897 18.8628 24.6319 19.003 24.529 19.1063C24.4261 19.2097 24.2866 19.2678 24.1411 19.2678H21.7525C21.607 19.2678 21.4674 19.2097 21.3645 19.1063C21.2616 19.003 21.2038 18.8628 21.2038 18.7166V9.31396C21.2038 9.16778 21.146 9.0276 21.0431 8.92424C20.9402 8.82088 20.8007 8.76282 20.6552 8.76282H16.5543C16.4087 8.76255 16.2691 8.70426 16.1663 8.60074C16.0634 8.49722 16.0056 8.35693 16.0056 8.21067V5.81231C16.0056 5.66614 16.0634 5.52595 16.1663 5.42259C16.2692 5.31923 16.4088 5.26117 16.5543 5.26117H29.3372C29.4828 5.26117 29.6223 5.31923 29.7252 5.42259C29.8281 5.52595 29.8859 5.66614 29.8859 5.81231" fill="white"/>
<path d="M43.908 12.2645C43.908 13.6498 43.4991 15.004 42.7329 16.1559C41.9667 17.3077 40.8777 18.2055 39.6036 18.7356C38.3295 19.2658 36.9275 19.4045 35.5749 19.1342C34.2223 18.864 32.9799 18.1969 32.0047 17.2173C31.0296 16.2377 30.3655 14.9897 30.0964 13.631C29.8274 12.2723 29.9655 10.8639 30.4932 9.58407C31.021 8.3042 31.9147 7.21027 33.0614 6.44063C34.208 5.67099 35.5561 5.26019 36.9352 5.26019C38.7845 5.26019 40.5581 5.99814 41.8657 7.31171C43.1734 8.62527 43.908 10.4068 43.908 12.2645V12.2645ZM36.9352 15.7661C37.6249 15.7663 38.2992 15.5611 38.8727 15.1763C39.4463 14.7916 39.8934 14.2446 40.1574 13.6046C40.4215 12.9646 40.4907 12.2603 40.3563 11.5808C40.2218 10.9013 39.8898 10.277 39.4022 9.78709C38.9146 9.29714 38.2933 8.96344 37.6169 8.82821C36.9404 8.69298 36.2393 8.76228 35.6021 9.02736C34.9649 9.29244 34.4202 9.74138 34.0371 10.3174C33.6539 10.8934 33.4493 11.5707 33.4493 12.2635C33.4501 13.192 33.8176 14.0823 34.4712 14.739C35.1247 15.3957 36.0109 15.7651 36.9352 15.7661V15.7661Z" fill="white"/>
<path d="M55.5251 14.4344C55.4902 14.3972 55.4666 14.3508 55.457 14.3005C55.4473 14.2503 55.4522 14.1984 55.4708 14.1508C55.4881 14.1027 55.5188 14.0607 55.5593 14.0297C55.5997 13.9987 55.6482 13.9801 55.6989 13.9762C56.3401 13.9196 56.9677 13.7579 57.557 13.4977C58.2741 13.1431 58.8725 12.5856 59.2785 11.894C59.6845 11.2023 59.8803 10.4064 59.842 9.6044C59.8656 9.02425 59.7699 8.44545 59.5609 7.90411C59.3518 7.36277 59.034 6.87052 58.6271 6.45807C57.7948 5.68851 56.7056 5.26028 55.5743 5.25788H46.5144C46.442 5.25761 46.3703 5.27174 46.3034 5.29944C46.2365 5.32714 46.1756 5.36788 46.1245 5.4193C46.0733 5.47072 46.0327 5.5318 46.0051 5.59904C45.9776 5.66627 45.9635 5.73832 45.9638 5.81104V8.42642C45.9638 8.5145 45.9986 8.59897 46.0606 8.66125C46.1226 8.72353 46.2067 8.75852 46.2944 8.75852H55.6256C55.8292 8.77533 56.0245 8.84756 56.1903 8.96746C56.3155 9.15486 56.3733 9.37955 56.3541 9.6044C56.3701 9.72911 56.3571 9.85584 56.3161 9.97464C56.2751 10.0934 56.2072 10.2011 56.1178 10.2891C56.0284 10.3771 55.92 10.4431 55.8009 10.482C55.6819 10.5208 55.5555 10.5314 55.4317 10.5129H46.3305C46.2818 10.5127 46.2335 10.5223 46.1885 10.541C46.1434 10.5596 46.1025 10.5871 46.068 10.6217C46.0336 10.6563 46.0063 10.6974 45.9877 10.7426C45.9691 10.7879 45.9596 10.8364 45.9597 10.8853V18.7174C45.9595 18.7901 45.9735 18.8621 46.0011 18.9294C46.0287 18.9966 46.0693 19.0577 46.1204 19.1091C46.1716 19.1605 46.2324 19.2013 46.2994 19.229C46.3663 19.2567 46.438 19.2708 46.5104 19.2705H48.894C48.9663 19.2708 49.0381 19.2567 49.105 19.229C49.1719 19.2013 49.2327 19.1605 49.2839 19.1091C49.3351 19.0577 49.3757 18.9966 49.4033 18.9294C49.4308 18.8621 49.4449 18.7901 49.4446 18.7174V14.5636C49.4451 14.4912 49.4598 14.4196 49.4879 14.3529C49.516 14.2862 49.557 14.2257 49.6084 14.175C49.6589 14.1236 49.7192 14.083 49.7857 14.0556C49.8521 14.0282 49.9234 14.0146 49.9953 14.0155H50.1782C50.2539 14.0162 50.3286 14.0326 50.3977 14.0635C50.4669 14.0944 50.529 14.1392 50.5801 14.1952L55.0186 19.0868C55.0704 19.1438 55.1334 19.1893 55.2037 19.2204C55.2739 19.2515 55.3498 19.2676 55.4266 19.2675H59.2773C59.3306 19.2672 59.3827 19.2516 59.4274 19.2224C59.4721 19.1932 59.5076 19.1518 59.5295 19.103C59.5522 19.0533 59.5597 18.9979 59.5509 18.944C59.5422 18.89 59.5176 18.84 59.4803 18.8001L55.5251 14.4344Z" fill="white"/>
<path d="M62.4507 5.26019H64.8393C64.9848 5.26019 65.1244 5.31826 65.2273 5.42162C65.3301 5.52498 65.388 5.66516 65.388 5.81133V18.7177C65.388 18.8638 65.3301 19.004 65.2273 19.1074C65.1244 19.2107 64.9848 19.2688 64.8393 19.2688H62.4507C62.3052 19.2688 62.1657 19.2107 62.0628 19.1074C61.9599 19.004 61.9021 18.8638 61.9021 18.7177V5.81234C61.9023 5.66625 61.9602 5.52622 62.0631 5.42292C62.1659 5.31962 62.3053 5.26147 62.4507 5.2612" fill="white"/>
<path d="M70.9437 9.31396V9.962C70.944 10.1081 71.0019 10.2481 71.1047 10.3514C71.2075 10.4547 71.3469 10.5129 71.4924 10.5131H74.9089C75.0544 10.5131 75.194 10.5712 75.2969 10.6746C75.3998 10.7779 75.4576 10.9181 75.4576 11.0643V13.4636C75.4577 13.5361 75.4436 13.6079 75.4161 13.6749C75.3886 13.7418 75.3482 13.8027 75.2972 13.854C75.2463 13.9053 75.1857 13.946 75.1191 13.9737C75.0525 14.0015 74.981 14.0158 74.9089 14.0158H71.4924C71.3468 14.0158 71.2073 14.0739 71.1044 14.1772C71.0015 14.2806 70.9437 14.4208 70.9437 14.5669V15.215C70.944 15.3611 71.0019 15.5011 71.1047 15.6044C71.2075 15.7077 71.3469 15.7658 71.4924 15.7661H80.8527C80.9982 15.7661 81.1378 15.8242 81.2407 15.9275C81.3436 16.0309 81.4014 16.1711 81.4014 16.3173V18.7166C81.4014 18.8628 81.3436 19.003 81.2407 19.1063C81.1378 19.2097 80.9982 19.2678 80.8527 19.2678H68.0055C67.8599 19.2678 67.7204 19.2097 67.6175 19.1063C67.5146 19.003 67.4568 18.8628 67.4568 18.7166V5.81231C67.4568 5.66614 67.5146 5.52595 67.6175 5.42259C67.7204 5.31923 67.8599 5.26117 68.0055 5.26117H80.8527C80.9982 5.26117 81.1378 5.31923 81.2407 5.42259C81.3436 5.52595 81.4014 5.66614 81.4014 5.81231V8.21067C81.4014 8.35693 81.3436 8.49722 81.2407 8.60074C81.1379 8.70426 80.9983 8.76255 80.8527 8.76282H71.4924C71.3468 8.76282 71.2073 8.82088 71.1044 8.92424C71.0015 9.0276 70.9437 9.16778 70.9437 9.31396" fill="white"/>
<path d="M86.9485 9.64657C86.9485 10.1301 87.1053 10.2411 87.3274 10.3461C87.5295 10.4344 87.7448 10.4883 87.9645 10.5056H93.0089C94.0986 10.4445 95.1701 10.8058 96.0024 11.515C96.4379 11.9295 96.7789 12.4339 97.0018 12.9934C97.2247 13.5529 97.3243 14.1543 97.2937 14.7562C97.3158 15.3485 97.217 15.939 97.0035 16.4915C96.7899 17.044 96.4662 17.5468 96.052 17.969C95.6379 18.3911 95.1422 18.7237 94.5953 18.9463C94.0485 19.1689 93.4621 19.2767 92.8723 19.2632L84.0143 19.2784C83.8687 19.2784 83.7291 19.2203 83.626 19.117C83.523 19.0137 83.4649 18.8735 83.4647 18.7272V16.3289C83.4645 16.2564 83.4786 16.1845 83.5061 16.1175C83.5336 16.0505 83.574 15.9895 83.6249 15.9381C83.6759 15.8868 83.7364 15.846 83.803 15.8181C83.8697 15.7903 83.9411 15.7758 84.0133 15.7757L92.8562 15.7606C93.8138 15.7212 93.8138 15.0691 93.8138 14.7512C93.8399 14.5296 93.7922 14.3056 93.6782 14.1142C93.5457 14.031 93.391 13.9908 93.235 13.9991L93.1215 14.0163L93.0712 14.0062H87.9635C87.2297 13.9906 86.5071 13.8226 85.8412 13.5126C85.109 13.1754 84.4924 12.6283 84.0688 11.94C83.6453 11.2518 83.4337 10.4532 83.4606 9.64455C83.4258 8.84897 83.622 8.06039 84.0252 7.37474C84.4283 6.68908 85.0212 6.13592 85.7316 5.78254C86.3794 5.45779 87.0892 5.27672 87.8127 5.25159H96.8405C96.986 5.25159 97.1256 5.30965 97.2285 5.41301C97.3313 5.51637 97.3891 5.65655 97.3891 5.80273V8.2021C97.3891 8.34827 97.3313 8.48845 97.2285 8.59181C97.1256 8.69517 96.986 8.75324 96.8405 8.75324H87.868C87.5575 8.76838 86.9465 8.81178 86.9475 9.64354" fill="white"/>
<path d="M117.012 0.43927H110.469C110.11 0.439805 109.766 0.583472 109.512 0.838753C109.258 1.09403 109.115 1.44008 109.115 1.80097V5.69124C109.115 6.05204 109.258 6.39793 109.512 6.65316C109.766 6.90838 110.11 7.05213 110.469 7.05293H111.359C111.471 7.05293 111.579 7.09792 111.659 7.17799C111.739 7.25807 111.784 7.36667 111.784 7.47991V22.7281C111.784 23.0891 111.927 23.4353 112.181 23.6906C112.435 23.946 112.78 24.0895 113.139 24.0898H117.012C117.371 24.0895 117.716 23.946 117.97 23.6906C118.224 23.4353 118.367 23.0891 118.368 22.7281V1.80097C118.367 1.4399 118.224 1.09371 117.97 0.838397C117.716 0.583087 117.371 0.439537 117.012 0.43927" fill="white"/>
<path d="M132.571 0.43927C130.243 0.43927 127.968 1.13271 126.032 2.4319C124.096 3.7311 122.587 5.57772 121.696 7.73826C120.805 9.89881 120.571 12.2763 121.025 14.57C121.479 16.8638 122.6 18.9709 124.246 20.6248C125.892 22.2788 127.989 23.4053 130.272 23.8621C132.556 24.3188 134.923 24.0852 137.074 23.1908C139.225 22.2964 141.064 20.7813 142.358 18.8372C143.652 16.8931 144.343 14.6072 144.344 12.2686V12.2686C144.336 9.13415 143.094 6.13011 140.888 3.91336C138.682 1.69661 135.692 0.447534 132.571 0.43927V0.43927ZM137.761 12.2625C137.757 13.6243 137.225 14.9311 136.277 15.9047C135.329 16.8783 134.04 17.4417 132.685 17.4751H132.571C131.545 17.4749 130.542 17.1691 129.689 16.5964C128.836 16.0236 128.172 15.2097 127.779 14.2574C127.386 13.3052 127.284 12.2574 127.484 11.2465C127.684 10.2357 128.178 9.30716 128.904 8.57836C129.629 7.84957 130.554 7.35324 131.56 7.15211C132.566 6.95099 133.609 7.05411 134.557 7.44844C135.505 7.84277 136.316 8.51059 136.886 9.36748C137.456 10.2244 137.76 11.2318 137.761 12.2625" fill="white"/>
<path d="M158.117 12.0707C158.058 12.1556 158.026 12.2567 158.026 12.3604C158.026 12.4641 158.058 12.5652 158.117 12.6501L161.693 17.8587L162.413 18.9095C162.476 18.9966 162.514 19.0989 162.524 19.2058C162.535 19.3127 162.516 19.4204 162.471 19.5179C162.427 19.6154 162.357 19.6992 162.269 19.7606C162.181 19.822 162.079 19.8589 161.972 19.8674L156.085 20.0309C155.991 20.0325 155.898 20.0108 155.814 19.9677C155.73 19.9245 155.659 19.8613 155.605 19.7836L154.545 18.2473C154.491 18.1999 154.428 18.1646 154.359 18.1435C154.291 18.1224 154.219 18.1161 154.147 18.125C154.076 18.1338 154.008 18.1577 153.946 18.1949C153.885 18.2322 153.832 18.282 153.791 18.3412L149.671 24.3108C149.626 24.3784 149.564 24.4337 149.492 24.472C149.42 24.5104 149.34 24.5306 149.259 24.5309H143.07C142.977 24.5313 142.887 24.5062 142.808 24.4585C142.729 24.4108 142.665 24.3423 142.622 24.2604C142.579 24.1778 142.56 24.0849 142.565 23.9919C142.571 23.8989 142.602 23.8091 142.654 23.7324L150.292 12.6521C150.339 12.5833 150.369 12.5039 150.378 12.4208C150.388 12.3377 150.377 12.2536 150.347 12.1757L145.976 5.84162C145.913 5.75477 145.875 5.65283 145.864 5.54622C145.854 5.4396 145.872 5.33212 145.916 5.23474C145.961 5.13736 146.03 5.05356 146.117 4.99188C146.205 4.93021 146.306 4.89288 146.413 4.88369L152.352 4.72017C152.445 4.71849 152.537 4.74023 152.62 4.78341C152.703 4.8266 152.773 4.88986 152.826 4.96747L153.831 6.43415C153.878 6.48601 153.936 6.52734 154 6.55551C154.064 6.58367 154.133 6.59803 154.203 6.59767C154.285 6.59753 154.365 6.57741 154.438 6.53907C154.51 6.50073 154.571 6.44532 154.617 6.37762L158.868 0.220211C158.914 0.150732 158.977 0.094095 159.05 0.0556075C159.124 0.0171199 159.206 -0.00195881 159.289 0.000158908H165.474C165.567 -0.00106823 165.658 0.0233802 165.737 0.0708097C165.817 0.118239 165.882 0.186809 165.925 0.268962C165.968 0.351114 165.988 0.443661 165.982 0.536403C165.976 0.629144 165.945 0.71848 165.892 0.794566L158.117 12.0707Z" fill="white"/>
<path d="M107.014 11.4183L102.211 8.63229C102.063 8.54647 101.895 8.50126 101.724 8.50122C101.554 8.50118 101.386 8.54631 101.238 8.63206C101.09 8.71781 100.968 8.84116 100.882 8.9897C100.797 9.13823 100.752 9.30671 100.752 9.47817V15.0501C100.752 15.2216 100.797 15.3901 100.882 15.5386C100.968 15.6871 101.09 15.8105 101.238 15.8962C101.386 15.982 101.554 16.0271 101.724 16.0271C101.895 16.027 102.063 15.9818 102.211 15.896L107.014 13.11C107.162 13.0244 107.285 12.9012 107.37 12.7527C107.456 12.6042 107.501 12.4357 107.501 12.2641C107.501 12.0926 107.456 11.9241 107.37 11.7756C107.285 11.6271 107.162 11.5039 107.014 11.4183" fill="white"/>
</svg>
