<svg viewBox="0 0 245 80" fill="none" xmlns="http://www.w3.org/2000/svg" preserveAspectRatio="xMidYMid meet">
<path d="M46.2049 37.4859C46.2049 37.9499 46.3553 38.0565 46.5684 38.1572C46.7624 38.242 46.969 38.2937 47.1798 38.3103H52.0181C53.0639 38.2518 54.0922 38.5985 54.891 39.279C55.309 39.6768 55.6362 40.1609 55.8501 40.6979C56.064 41.2348 56.1596 41.812 56.1302 42.3896C56.1514 42.958 56.0566 43.5248 55.8517 44.055C55.6468 44.5853 55.336 45.0678 54.9386 45.4729C54.5411 45.8781 54.0654 46.1973 53.5406 46.4109C53.0158 46.6245 52.4531 46.728 51.887 46.715L43.386 46.7296C43.3165 46.7298 43.2477 46.7163 43.1835 46.6898C43.1193 46.6633 43.0609 46.6243 43.0117 46.5751C42.9625 46.5258 42.9235 46.4673 42.8969 46.4029C42.8702 46.3385 42.8565 46.2694 42.8565 46.1997V43.898C42.8564 43.8284 42.8699 43.7594 42.8963 43.6951C42.9227 43.6308 42.9615 43.5723 43.0104 43.523C43.0593 43.4737 43.1173 43.4345 43.1813 43.4078C43.2452 43.3811 43.3138 43.3672 43.3831 43.3671L51.8696 43.3526C52.7887 43.3148 52.7887 42.689 52.7887 42.3838C52.8137 42.1712 52.7679 41.9563 52.6585 41.7726C52.5314 41.6927 52.3829 41.6541 52.2332 41.6621L52.1242 41.6786L52.076 41.6689H47.1808C46.4766 41.654 45.7831 41.4927 45.144 41.1952C44.4415 40.8722 43.8495 40.348 43.4425 39.6882C43.0356 39.0284 42.8317 38.2626 42.8565 37.4869C42.8231 36.7234 43.0114 35.9666 43.3983 35.3085C43.7852 34.6505 44.3542 34.1196 45.036 33.7805C45.6577 33.4688 46.3389 33.2951 47.0333 33.2709H55.6972C55.8369 33.2709 55.9708 33.3267 56.0695 33.4259C56.1683 33.525 56.2238 33.6596 56.2238 33.7999V36.1025C56.2238 36.2428 56.1683 36.3774 56.0695 36.4766C55.9708 36.5758 55.8369 36.6315 55.6972 36.6315H47.0882C46.7902 36.646 46.2039 36.6877 46.2049 37.4859Z" fill="white"/>
<path d="M71.5343 33.8069V36.1086C71.5345 36.1781 71.5209 36.247 71.4945 36.3113C71.4681 36.3756 71.4294 36.434 71.3805 36.4832C71.3316 36.5324 71.2735 36.5715 71.2095 36.5981C71.1456 36.6248 71.077 36.6385 71.0078 36.6385H67.0741C66.9344 36.6385 66.8005 36.6942 66.7018 36.7934C66.603 36.8926 66.5475 37.0271 66.5475 37.1674V46.1912C66.5475 46.3314 66.4921 46.466 66.3933 46.5652C66.2946 46.6644 66.1606 46.7201 66.021 46.7201H63.7287C63.589 46.7201 63.4551 46.6644 63.3563 46.5652C63.2576 46.466 63.2021 46.3314 63.2021 46.1912V37.1674C63.2021 37.0271 63.1466 36.8926 63.0479 36.7934C62.9491 36.6942 62.8152 36.6385 62.6756 36.6385H58.7399C58.6002 36.6382 58.4663 36.5823 58.3676 36.4829C58.2688 36.3836 58.2134 36.2489 58.2134 36.1086V33.8069C58.2134 33.6666 58.2689 33.532 58.3676 33.4328C58.4664 33.3336 58.6003 33.2779 58.7399 33.2779H71.0078C71.1474 33.2779 71.2814 33.3336 71.3801 33.4328C71.4789 33.532 71.5343 33.6666 71.5343 33.8069Z" fill="white"/>
<path d="M84.9914 39.9991C84.9914 41.3286 84.5989 42.6282 83.8636 43.7336C83.1283 44.8391 82.0832 45.7006 80.8604 46.2094C79.6377 46.7182 78.2922 46.8513 76.9941 46.592C75.696 46.3326 74.5036 45.6924 73.5677 44.7523C72.6319 43.8122 71.9945 42.6144 71.7363 41.3105C71.4781 40.0065 71.6107 38.6549 72.1171 37.4266C72.6236 36.1983 73.4813 35.1485 74.5818 34.4099C75.6823 33.6712 76.9761 33.277 78.2996 33.277C80.0744 33.277 81.7764 33.9852 83.0314 35.2459C84.2864 36.5065 84.9914 38.2163 84.9914 39.9991ZM78.2996 43.3596C78.9615 43.3598 79.6086 43.1628 80.159 42.7936C80.7094 42.4243 81.1385 41.8994 81.3919 41.2852C81.6454 40.6709 81.7118 39.995 81.5827 39.3429C81.4537 38.6908 81.1351 38.0917 80.6671 37.6215C80.1992 37.1513 79.6029 36.831 78.9537 36.7012C78.3046 36.5715 77.6317 36.638 77.0202 36.8924C76.4086 37.1468 75.8859 37.5776 75.5182 38.1304C75.1504 38.6833 74.9541 39.3332 74.9541 39.9981C74.9549 40.8892 75.3076 41.7436 75.9348 42.3738C76.562 43.0041 77.4125 43.3586 78.2996 43.3596Z" fill="white"/>
<path d="M96.1403 42.0816C96.1068 42.0458 96.0842 42.0012 96.0749 41.953C96.0657 41.9048 96.0703 41.855 96.0883 41.8093C96.1048 41.7632 96.1343 41.7228 96.1731 41.6931C96.212 41.6634 96.2585 41.6456 96.3072 41.6417C96.9225 41.5874 97.5249 41.4323 98.0903 41.1826C98.7786 40.8422 99.3529 40.3073 99.7425 39.6434C100.132 38.9796 100.32 38.2159 100.283 37.4462C100.306 36.8894 100.214 36.3339 100.013 35.8144C99.8129 35.2949 99.5078 34.8224 99.1174 34.4266C98.3186 33.6881 97.2732 33.2771 96.1876 33.2748H87.4928C87.4233 33.2745 87.3545 33.2881 87.2902 33.3147C87.226 33.3413 87.1676 33.3804 87.1185 33.4297C87.0694 33.479 87.0305 33.5377 87.004 33.6022C86.9775 33.6667 86.964 33.7359 86.9643 33.8057V36.3156C86.9643 36.4002 86.9977 36.4812 87.0572 36.541C87.1167 36.6008 87.1974 36.6344 87.2816 36.6344H96.2368C96.4322 36.6505 96.6196 36.7198 96.7788 36.8349C96.8989 37.0147 96.9544 37.2304 96.936 37.4462C96.9513 37.5658 96.9388 37.6875 96.8994 37.8015C96.8601 37.9155 96.7949 38.0188 96.7092 38.1033C96.6234 38.1877 96.5193 38.2511 96.405 38.2884C96.2908 38.3256 96.1695 38.3358 96.0507 38.318H87.3163C87.2695 38.3179 87.2232 38.327 87.18 38.345C87.1367 38.3629 87.0974 38.3892 87.0644 38.4224C87.0313 38.4556 87.0051 38.4951 86.9873 38.5385C86.9694 38.582 86.9603 38.6285 86.9604 38.6755V46.1919C86.9602 46.2617 86.9737 46.3308 87.0001 46.3954C87.0266 46.4599 87.0655 46.5185 87.1147 46.5678C87.1638 46.6172 87.2221 46.6563 87.2864 46.6829C87.3506 46.7095 87.4194 46.723 87.4889 46.7228H89.7764C89.8459 46.723 89.9147 46.7095 89.979 46.6829C90.0432 46.6563 90.1016 46.6172 90.1507 46.5678C90.1998 46.5185 90.2387 46.4599 90.2652 46.3954C90.2917 46.3308 90.3052 46.2617 90.3049 46.1919V42.2056C90.3053 42.136 90.3194 42.0673 90.3464 42.0033C90.3734 41.9393 90.4127 41.8813 90.4621 41.8326C90.5105 41.7833 90.5684 41.7443 90.6322 41.718C90.696 41.6917 90.7644 41.6786 90.8334 41.6795H91.0089C91.0815 41.6802 91.1532 41.6959 91.2196 41.7255C91.2859 41.7552 91.3455 41.7982 91.3946 41.852L95.6543 46.5465C95.704 46.6011 95.7644 46.6448 95.8319 46.6747C95.8993 46.7045 95.9722 46.7199 96.0458 46.7199H99.7413C99.7925 46.7196 99.8425 46.7046 99.8854 46.6766C99.9283 46.6486 99.9623 46.6088 99.9834 46.562C100.005 46.5143 100.012 46.4612 100.004 46.4094C99.9955 46.3576 99.9719 46.3095 99.9361 46.2713L96.1403 42.0816Z" fill="white"/>
<path d="M102.787 33.277H105.079C105.219 33.277 105.353 33.3327 105.452 33.4319C105.55 33.5311 105.606 33.6657 105.606 33.8059V46.1922C105.606 46.3325 105.55 46.467 105.452 46.5662C105.353 46.6654 105.219 46.7211 105.079 46.7211H102.787C102.647 46.7211 102.513 46.6654 102.415 46.5662C102.316 46.467 102.26 46.3325 102.26 46.1922V33.8069C102.261 33.6667 102.316 33.5323 102.415 33.4332C102.514 33.334 102.647 33.2782 102.787 33.278" fill="white"/>
<path d="M110.938 37.1674V37.7893C110.938 37.9295 110.993 38.0639 111.092 38.163C111.191 38.2622 111.325 38.318 111.464 38.3183H114.743C114.883 38.3183 115.017 38.374 115.115 38.4732C115.214 38.5724 115.27 38.7069 115.27 38.8472V41.1499C115.27 41.2194 115.256 41.2883 115.23 41.3526C115.203 41.4169 115.165 41.4753 115.116 41.5245C115.067 41.5737 115.009 41.6128 114.945 41.6394C114.881 41.666 114.812 41.6798 114.743 41.6798H111.464C111.324 41.6798 111.191 41.7355 111.092 41.8347C110.993 41.9339 110.938 42.0684 110.938 42.2087V42.8306C110.938 42.9708 110.993 43.1052 111.092 43.2043C111.191 43.3035 111.325 43.3593 111.464 43.3595H120.447C120.587 43.3595 120.721 43.4153 120.82 43.5145C120.918 43.6137 120.974 43.7482 120.974 43.8885V46.1912C120.974 46.3314 120.918 46.466 120.82 46.5652C120.721 46.6644 120.587 46.7201 120.447 46.7201H108.118C107.978 46.7201 107.844 46.6644 107.745 46.5652C107.647 46.466 107.591 46.3314 107.591 46.1912V33.8069C107.591 33.6666 107.647 33.532 107.745 33.4328C107.844 33.3336 107.978 33.2779 108.118 33.2779H120.447C120.587 33.2779 120.721 33.3336 120.82 33.4328C120.918 33.532 120.974 33.6666 120.974 33.8069V36.1086C120.974 36.2489 120.918 36.3836 120.82 36.4829C120.721 36.5823 120.587 36.6382 120.447 36.6385H111.464C111.324 36.6385 111.191 36.6942 111.092 36.7934C110.993 36.8926 110.938 37.0271 110.938 37.1674Z" fill="white"/>
<path d="M126.297 37.4867C126.297 37.9507 126.448 38.0573 126.661 38.158C126.855 38.2428 127.062 38.2945 127.272 38.3111H132.114C133.159 38.2524 134.188 38.5992 134.987 39.2798C135.404 39.6776 135.732 40.1617 135.946 40.6986C136.16 41.2356 136.255 41.8128 136.226 42.3904C136.247 42.9588 136.152 43.5256 135.947 44.0558C135.742 44.586 135.432 45.0686 135.034 45.4737C134.637 45.8788 134.161 46.198 133.636 46.4116C133.111 46.6252 132.549 46.7288 131.982 46.7158L123.482 46.7303C123.342 46.7303 123.208 46.6746 123.109 46.5755C123.01 46.4763 122.954 46.3418 122.954 46.2014V43.8997C122.954 43.8301 122.967 43.7612 122.994 43.6968C123.02 43.6325 123.059 43.574 123.108 43.5247C123.157 43.4754 123.215 43.4363 123.279 43.4095C123.343 43.3828 123.411 43.369 123.481 43.3688L131.967 43.3543C132.886 43.3165 132.886 42.6907 132.886 42.3856C132.911 42.173 132.865 41.958 132.756 41.7743C132.629 41.6944 132.48 41.6559 132.331 41.6639L132.222 41.6803L132.173 41.6706H127.272C126.567 41.6557 125.874 41.4944 125.235 41.1969C124.532 40.8733 123.94 40.3482 123.534 39.6877C123.127 39.0272 122.924 38.2608 122.95 37.4847C122.917 36.7212 123.105 35.9644 123.492 35.3064C123.879 34.6484 124.448 34.1175 125.13 33.7784C125.751 33.4667 126.432 33.2929 127.127 33.2688H135.791C135.93 33.2688 136.064 33.3245 136.163 33.4237C136.262 33.5229 136.317 33.6574 136.317 33.7977V36.1004C136.317 36.2407 136.262 36.3752 136.163 36.4744C136.064 36.5736 135.93 36.6293 135.791 36.6293H127.18C126.882 36.6439 126.296 36.6855 126.297 37.4838" fill="white"/>
<path d="M155.15 28.6504H148.87C148.526 28.6509 148.195 28.7888 147.951 29.0337C147.708 29.2787 147.571 29.6108 147.57 29.9572V33.6907C147.571 34.037 147.708 34.3689 147.952 34.6138C148.195 34.8588 148.526 34.9967 148.87 34.9975H149.724C149.832 34.9975 149.936 35.0407 150.012 35.1175C150.089 35.1944 150.132 35.2986 150.132 35.4073V50.041C150.132 50.3875 150.269 50.7198 150.513 50.9648C150.757 51.2098 151.088 51.3476 151.433 51.3478H155.15C155.494 51.3476 155.825 51.2098 156.069 50.9648C156.313 50.7198 156.45 50.3875 156.45 50.041V29.9572C156.45 29.6107 156.313 29.2784 156.069 29.0334C155.825 28.7884 155.494 28.6506 155.15 28.6504Z" fill="white"/>
<path d="M170.082 28.6504C167.848 28.6504 165.664 29.3159 163.806 30.5627C161.948 31.8095 160.5 33.5817 159.645 35.6552C158.789 37.7287 158.565 40.0104 159.001 42.2117C159.437 44.413 160.512 46.4352 162.092 48.0225C163.672 49.6098 165.684 50.691 167.876 51.1293C170.067 51.5676 172.338 51.3434 174.403 50.4851C176.467 49.6267 178.232 48.1727 179.474 46.3069C180.716 44.4411 181.379 42.2474 181.38 40.003C181.373 36.9949 180.18 34.1119 178.063 31.9845C175.946 29.857 173.077 28.6583 170.082 28.6504ZM175.062 39.9972C175.059 41.3041 174.548 42.5582 173.638 43.4926C172.729 44.4269 171.492 44.9676 170.191 44.9997H170.082C169.097 44.9995 168.135 44.706 167.316 44.1564C166.497 43.6067 165.859 42.8256 165.483 41.9117C165.106 40.9978 165.007 39.9922 165.2 39.0221C165.392 38.052 165.866 37.1609 166.562 36.4615C167.258 35.762 168.146 35.2857 169.111 35.0927C170.077 34.8997 171.078 34.9986 171.988 35.3771C172.898 35.7555 173.675 36.3964 174.222 37.2188C174.77 38.0411 175.062 39.008 175.062 39.9972Z" fill="white"/>
<path d="M194.598 39.8131C194.542 39.8946 194.511 39.9916 194.511 40.0911C194.511 40.1906 194.542 40.2877 194.598 40.3692L198.03 45.3678L198.721 46.3763C198.781 46.4599 198.818 46.5581 198.828 46.6607C198.838 46.7633 198.82 46.8667 198.777 46.9602C198.734 47.0538 198.667 47.1342 198.583 47.1931C198.498 47.252 198.4 47.2874 198.298 47.2956L192.648 47.4526C192.557 47.4541 192.468 47.4333 192.388 47.3918C192.308 47.3504 192.239 47.2898 192.188 47.2152L191.17 45.7408C191.118 45.6954 191.058 45.6614 190.992 45.6412C190.926 45.621 190.857 45.6149 190.788 45.6234C190.72 45.6319 190.654 45.6548 190.596 45.6905C190.537 45.7263 190.486 45.7741 190.447 45.8309L186.493 51.56C186.449 51.6248 186.39 51.6779 186.321 51.7147C186.252 51.7515 186.175 51.7709 186.097 51.7712H180.157C180.069 51.7715 179.982 51.7475 179.906 51.7017C179.831 51.656 179.769 51.5902 179.728 51.5116C179.687 51.4323 179.668 51.3432 179.673 51.2539C179.678 51.1646 179.708 51.0785 179.759 51.0049L187.088 40.3711C187.133 40.305 187.162 40.2288 187.171 40.1491C187.18 40.0694 187.17 39.9886 187.141 39.9139L182.946 33.835C182.886 33.7517 182.849 33.6539 182.839 33.5515C182.829 33.4492 182.846 33.3461 182.889 33.2526C182.932 33.1592 182.998 33.0787 183.082 33.0195C183.166 32.9604 183.263 32.9245 183.365 32.9157L189.065 32.7588C189.154 32.7572 189.243 32.778 189.322 32.8195C189.402 32.8609 189.47 32.9216 189.52 32.9961L190.484 34.4037C190.53 34.4535 190.585 34.4931 190.647 34.5202C190.708 34.5472 190.775 34.561 190.842 34.5606C190.921 34.5605 190.998 34.5412 191.067 34.5044C191.136 34.4676 191.195 34.4144 191.24 34.3494L195.319 28.4402C195.363 28.3735 195.423 28.3191 195.494 28.2822C195.564 28.2453 195.643 28.2269 195.723 28.229H201.659C201.747 28.2278 201.835 28.2513 201.911 28.2968C201.988 28.3423 202.05 28.4081 202.091 28.4869C202.133 28.5658 202.152 28.6546 202.146 28.7436C202.141 28.8326 202.111 28.9183 202.06 28.9914L194.598 39.8131Z" fill="white"/>
<path d="M145.554 39.1869L140.944 36.5132C140.803 36.4309 140.642 36.3875 140.478 36.3875C140.314 36.3874 140.153 36.4307 140.011 36.513C139.869 36.5953 139.752 36.7137 139.67 36.8562C139.588 36.9988 139.545 37.1605 139.545 37.325V42.6725C139.545 42.837 139.588 42.9987 139.67 43.1412C139.752 43.2838 139.869 43.4022 140.011 43.4845C140.153 43.5668 140.314 43.6101 140.478 43.61C140.642 43.61 140.803 43.5666 140.944 43.4843L145.554 40.8105C145.696 40.7284 145.814 40.6101 145.896 40.4676C145.978 40.3251 146.021 40.1634 146.021 39.9987C146.021 39.8341 145.978 39.6724 145.896 39.5299C145.814 39.3874 145.696 39.2691 145.554 39.1869Z" fill="white"/>
</svg>
