<svg width="180" height="29" viewBox="0 0 180 29" fill="none" xmlns="http://www.w3.org/2000/svg">
<g clip-path="url(#clip0_258_273)">
<path d="M120.687 18.638C120.687 14.3515 122.517 12.5791 127.749 12.5791C130.701 12.5791 132.66 13.2244 133.782 14.4495V12.3226C133.782 9.29245 132.819 8.32539 129.224 8.32539C125.629 8.32539 125.148 9.00169 125.148 11.0975L121.489 11.0011C121.426 6.87481 123.415 5.03864 129.289 5.03864C135.869 5.03864 137.634 7.06912 137.634 11.4535C137.634 14.0002 137.602 15.0963 137.602 18.0612C137.602 19.9952 137.602 21.6386 137.634 24.1853H134.168L134.104 21.864C133.045 23.5401 130.991 24.5708 127.718 24.5708C122.421 24.5708 120.688 22.8623 120.688 18.6411L120.687 18.638ZM133.878 18.5742V17.7689C133.878 16.2219 132.883 15.3839 129.257 15.3839C125.374 15.3839 124.603 16.2546 124.603 18.5431C124.603 20.8317 125.727 21.4754 129.192 21.4754C132.883 21.4754 133.878 20.6374 133.878 18.5742Z" fill="white"/>
<path d="M141.325 15.286V14.3189C141.325 7.09869 143.668 5.03711 149.189 5.03711C152.141 5.03711 154.1 6.10057 155.255 8.13105C155.222 4.8443 155.192 1.427 155.192 0.0728149H159.107C159.075 1.20156 159.075 2.61948 159.075 4.42455V19.8631C159.075 21.6356 159.075 22.9244 159.107 24.1823H155.545L155.479 20.9592C154.356 23.3441 152.303 24.5693 149.028 24.5693C143.668 24.5693 141.325 22.5062 141.325 15.2875V15.286ZM155.288 14.9641V14.6423C155.288 9.67958 154.004 8.55082 150.409 8.55082C146.428 8.55082 145.178 9.74332 145.178 14.675V14.933C145.178 19.8647 146.43 21.0572 150.25 21.0572C154.069 21.0572 155.289 19.8973 155.289 14.9657L155.288 14.9641Z" fill="white"/>
<path d="M162.668 18.0892L166.296 17.9927V18.4436C166.296 20.8286 167.194 21.4738 171.207 21.4738C174.384 21.4738 175.251 20.7975 175.251 19.0888C175.251 17.7347 174.641 16.9946 169.891 16.2203C164.241 15.317 162.958 14.1261 162.958 10.645C162.958 6.61673 164.884 5.03711 170.468 5.03711C177.081 5.03711 178.46 6.68047 178.46 11.0648L174.769 11.1612V10.6777C174.769 8.84 173.967 8.13102 170.372 8.13102C167.612 8.13102 166.649 8.77625 166.649 10.387C166.649 11.8702 167.291 12.4812 171.335 13.0627C177.948 14.0297 179.135 15.5767 179.135 18.767C179.135 23.0535 177.434 24.5693 171.143 24.5693C164.339 24.5693 162.67 23.2805 162.67 18.0907L162.668 18.0892Z" fill="white"/>
<path d="M28.1758 9.12916C28.1758 7.87293 28.1758 6.80795 28.1432 5.42267H31.9954C31.9954 6.68046 31.9628 7.58219 31.9628 9.06542V15.8021C31.9628 20.0559 32.9259 21.0556 36.2314 21.0556C39.5368 21.0556 40.7893 20.0559 40.7893 14.8677V9.58159C40.7893 7.87293 40.7893 6.8095 40.7567 5.42423H44.64C44.6074 6.84212 44.6074 7.97091 44.6074 9.67954V20.1538C44.6074 21.7009 44.6074 22.8296 44.64 24.1823H41.0449L40.9812 21.0556C39.8262 23.6334 37.6758 24.5693 34.4663 24.5693C29.9733 24.5693 28.1432 22.7969 28.1432 18.027C28.1432 17.0599 28.1758 15.0947 28.1758 12.6118V9.13072V9.12916Z" fill="white"/>
<path d="M49.551 9.64534C49.551 8.03307 49.551 6.80948 49.5184 5.42265H53.1135L53.1784 8.64563C54.27 6.26064 56.3556 5.03552 59.6303 5.03552C64.9902 5.03552 67.3328 7.09866 67.3328 14.3173V15.2844C67.3328 22.5046 64.9576 24.5663 59.4365 24.5663C56.4841 24.5663 54.5253 23.5027 53.4029 21.4396C53.4029 24.9533 53.4029 27.3694 53.4354 28.6909H49.5199C49.5525 27.7238 49.5525 26.1132 49.5525 24.2102V9.64222L49.551 9.64534ZM58.2489 21.0556C62.2297 21.0556 63.448 19.8631 63.448 14.9315V14.6734C63.448 9.71061 62.2281 8.54924 58.376 8.54924C54.5241 8.54924 53.369 9.70908 53.369 14.6407V14.9625C53.369 19.8942 54.62 21.054 58.2477 21.054L58.2489 21.0556Z" fill="white"/>
<path d="M69.9959 15.286V14.3189C69.9959 7.16399 72.4991 5.03711 78.7588 5.03711C85.0185 5.03711 87.3937 7.16399 87.3937 14.3189V15.9623H73.8801C74.0415 20.1196 75.3574 21.2157 78.9836 21.2157C82.8029 21.2157 83.6048 20.1849 83.6048 17.8311L87.3919 17.9601C87.3919 22.6974 85.4985 24.5678 78.951 24.5678C72.4034 24.5678 69.9959 22.4408 69.9959 15.286ZM73.8789 13.0937H83.3788C83.2503 9.12917 82.1912 8.12949 78.7883 8.12949C75.3851 8.12949 74.1018 9.12917 73.8773 13.0937H73.8789Z" fill="white"/>
<path d="M91.1791 9.451C91.1791 7.87138 91.1788 6.74418 91.1465 5.42265H94.7417L94.8065 8.58188C95.833 6.1969 97.6956 5.03552 100.424 5.03552C104.307 5.03552 105.559 6.4208 105.559 10.7725C105.559 11.6105 105.559 12.6102 105.527 13.4482L101.899 13.512V11.6432C101.899 9.25818 101.321 8.54924 98.7854 8.54924C96.2494 8.54924 94.9984 9.51627 94.9984 14.7371V20.0232C94.9984 21.7318 94.9984 22.7954 95.0307 24.1805H91.1481C91.1807 22.7627 91.1807 21.634 91.1807 19.9268V9.451H91.1791Z" fill="white"/>
<path d="M5.79736 24.1045C5.42423 23.9863 5.11921 23.8184 4.91331 23.6162C4.34509 23.0581 4.26303 22.2855 4.18871 20.3777L4.16702 19.8445L0.276276 20.0171L0.297951 20.5332C0.345948 21.7598 0.398588 23.0115 0.798038 24.1823H6.05127C5.9661 24.1574 5.88252 24.1324 5.79736 24.106V24.1045Z" fill="white"/>
<path d="M19.3074 9.06075L23.2013 9.07943C23.2105 8.09839 22.986 6.74885 22.3682 5.42267H17.3999C19.1711 6.53121 19.3027 8.56479 19.3074 9.06075Z" fill="white"/>
<path d="M12.0028 12.6009C9.23296 12.1765 5.78502 11.6463 4.7709 10.6622C3.38832 9.32195 4.02154 7.05203 4.64858 6.18915C4.84367 5.92175 5.17035 5.65898 5.6379 5.42267H0.675765C-0.253188 7.77033 -0.346083 11.1348 2.0661 13.4747C3.97198 15.3232 7.58718 15.8783 11.416 16.466C14.4661 16.934 18.6448 17.5761 19.5444 18.9069C20.5368 20.3777 20.5012 21.6403 19.422 23.268C19.1929 23.6131 18.7795 23.9194 18.2221 24.1805H23.3763C24.8735 21.0385 23.9244 18.425 22.7678 16.7116C20.913 13.9675 16.5872 13.3036 12.0044 12.6009H12.0028Z" fill="white"/>
<path d="M115.056 13.4312H111.173V17.3304H115.056V13.4312Z" fill="white"/>
</g>
<defs>
<clipPath id="clip0_258_273">
<rect width="179.345" height="28.7982" fill="white"/>
</clipPath>
</defs>
</svg>
