<svg viewBox="0 0 245 80" fill="none" xmlns="http://www.w3.org/2000/svg" preserveAspectRatio="xMidYMid meet">
<g clip-path="url(#clip0_454_726)">
<path d="M149.356 43.6704C149.356 39.9588 150.94 38.4241 155.47 38.4241C158.027 38.4241 159.723 38.9828 160.695 40.0436V38.202C160.695 35.5782 159.861 34.7408 156.748 34.7408C153.635 34.7408 153.218 35.3264 153.218 37.1411L150.05 37.0577C149.995 33.4847 151.718 31.8948 156.804 31.8948C162.502 31.8948 164.03 33.653 164.03 37.4494C164.03 39.6546 164.002 40.6037 164.002 43.171C164.002 44.8457 164.002 46.2687 164.03 48.4739H161.028L160.974 46.4639C160.057 47.9152 158.278 48.8077 155.443 48.8077C150.857 48.8077 149.357 47.3283 149.357 43.6731L149.356 43.6704ZM160.778 43.6152V42.9179C160.778 41.5784 159.916 40.8527 156.776 40.8527C153.414 40.8527 152.746 41.6067 152.746 43.5883C152.746 45.57 153.72 46.1274 156.72 46.1274C159.916 46.1274 160.778 45.4017 160.778 43.6152Z" fill="white"/>
<path d="M167.226 40.7679V39.9306C167.226 33.6786 169.255 31.8935 174.035 31.8935C176.592 31.8935 178.288 32.8143 179.288 34.5725C179.26 31.7265 179.233 28.7675 179.233 27.5949H182.624C182.595 28.5723 182.595 29.8 182.595 31.363V44.7313C182.595 46.2661 182.595 47.3821 182.624 48.4713H179.539L179.482 45.6804C178.509 47.7455 176.731 48.8064 173.896 48.8064C169.255 48.8064 167.226 47.0199 167.226 40.7693V40.7679ZM179.316 40.4893V40.2106C179.316 35.9134 178.205 34.936 175.092 34.936C171.645 34.936 170.562 35.9686 170.562 40.2389V40.4623C170.562 44.7326 171.646 45.7652 174.954 45.7652C178.261 45.7652 179.318 44.7609 179.318 40.4906L179.316 40.4893Z" fill="white"/>
<path d="M185.707 43.1952L188.848 43.1117V43.5021C188.848 45.5673 189.626 46.126 193.101 46.126C195.852 46.126 196.602 45.5403 196.602 44.0608C196.602 42.8882 196.074 42.2474 191.961 41.577C187.069 40.7948 185.958 39.7636 185.958 36.7493C185.958 33.2612 187.626 31.8934 192.461 31.8934C198.187 31.8934 199.382 33.3164 199.382 37.1128L196.186 37.1963V36.7776C196.186 35.1864 195.491 34.5724 192.378 34.5724C189.988 34.5724 189.154 35.1312 189.154 36.5259C189.154 37.8102 189.71 38.3393 193.212 38.8428C198.938 39.6801 199.966 41.0196 199.966 43.7822C199.966 47.4939 198.493 48.8063 193.046 48.8063C187.153 48.8063 185.708 47.6904 185.708 43.1965L185.707 43.1952Z" fill="white"/>
<path d="M69.2502 35.4368C69.2502 34.349 69.2502 33.4268 69.222 32.2273H72.5576C72.5576 33.3164 72.5294 34.0973 72.5294 35.3816V41.2149C72.5294 44.8982 73.3633 45.7639 76.2255 45.7639C79.0877 45.7639 80.1722 44.8982 80.1722 40.4058V35.8285C80.1722 34.349 80.1722 33.4282 80.144 32.2287H83.5065C83.4783 33.4564 83.4783 34.4338 83.4783 35.9133V44.983C83.4783 46.3226 83.4783 47.3 83.5065 48.4712H80.3935L80.3384 45.7639C79.3383 47.9959 77.4762 48.8064 74.6971 48.8064C70.8066 48.8064 69.222 47.2717 69.222 43.1414C69.222 42.304 69.2502 40.6023 69.2502 38.4524V35.4381V35.4368Z" fill="white"/>
<path d="M87.7589 35.8837C87.7589 34.4877 87.7589 33.4282 87.7307 32.2273H90.8437L90.8999 35.0181C91.8452 32.9529 93.651 31.8921 96.4866 31.8921C101.128 31.8921 103.156 33.6786 103.156 39.9292V40.7666C103.156 47.0186 101.1 48.8038 96.3188 48.8038C93.7623 48.8038 92.0662 47.8828 91.0943 46.0964C91.0943 49.1389 91.0943 51.231 91.1225 52.3752H87.732C87.7602 51.5378 87.7602 50.1433 87.7602 48.4954V35.881L87.7589 35.8837ZM95.2905 45.7638C98.7374 45.7638 99.7924 44.7313 99.7924 40.461V40.2375C99.7924 35.9402 98.7361 34.9346 95.4005 34.9346C92.0651 34.9346 91.065 35.9389 91.065 40.2092V40.4879C91.065 44.7582 92.1482 45.7625 95.2894 45.7625L95.2905 45.7638Z" fill="white"/>
<path d="M105.462 40.7679V39.9305C105.462 33.7351 107.63 31.8934 113.05 31.8934C118.47 31.8934 120.527 33.7351 120.527 39.9305V41.3535H108.825C108.965 44.9534 110.105 45.9025 113.245 45.9025C116.552 45.9025 117.246 45.0099 117.246 42.9717L120.525 43.0834C120.525 47.1855 118.886 48.8051 113.216 48.8051C107.547 48.8051 105.462 46.9633 105.462 40.7679ZM108.824 38.8697H117.05C116.939 35.4367 116.022 34.5711 113.076 34.5711C110.129 34.5711 109.017 35.4367 108.823 38.8697H108.824Z" fill="white"/>
<path d="M123.805 35.7154C123.805 34.3477 123.804 33.3716 123.777 32.2273H126.89L126.946 34.9629C127.835 32.8977 129.447 31.8921 131.809 31.8921C135.172 31.8921 136.256 33.0916 136.256 36.8597C136.256 37.5854 136.256 38.451 136.228 39.1766L133.087 39.2318V37.6137C133.087 35.5485 132.587 34.9346 130.391 34.9346C128.195 34.9346 127.112 35.772 127.112 40.2927V44.8699C127.112 46.3494 127.112 47.2704 127.14 48.4697H123.778C123.806 47.2421 123.806 46.2647 123.806 44.7865V35.7154H123.805Z" fill="white"/>
<path d="M49.8727 48.4039C49.5496 48.3015 49.2855 48.1562 49.1072 47.9811C48.6151 47.4978 48.5441 46.8288 48.4797 45.1769L48.461 44.7151L45.092 44.8646L45.1107 45.3115C45.1523 46.3736 45.1979 47.4574 45.5438 48.4712H50.0925C50.0188 48.4497 49.9464 48.4281 49.8727 48.4052V48.4039Z" fill="white"/>
<path d="M61.571 35.3775L64.9428 35.3937C64.9507 34.5442 64.7564 33.3757 64.2213 32.2273H59.9193C61.453 33.1872 61.567 34.9481 61.571 35.3775Z" fill="white"/>
<path d="M55.246 38.443C52.8476 38.0754 49.862 37.6164 48.9839 36.7642C47.7867 35.6037 48.335 33.6382 48.8779 32.891C49.0469 32.6595 49.3297 32.432 49.7346 32.2273H45.4379C44.6335 34.2602 44.5531 37.1735 46.6418 39.1996C48.2921 40.8002 51.4225 41.2809 54.7379 41.7897C57.3789 42.1949 60.9973 42.751 61.7762 43.9033C62.6355 45.1769 62.6047 46.2701 61.6703 47.6796C61.4719 47.9784 61.1139 48.2436 60.6313 48.4697H65.0942C66.3907 45.749 65.5689 43.486 64.5674 42.0024C62.9613 39.6263 59.2156 39.0515 55.2473 38.443H55.246Z" fill="white"/>
<path d="M144.48 39.1619H141.117V42.5382H144.48V39.1619Z" fill="white"/>
</g>
<defs>
<clipPath id="clip0_454_726">
<rect width="155.294" height="24.9363" fill="white" transform="translate(44.8528 27.5318)"/>
</clipPath>
</defs>
</svg>
