<svg viewBox="0 0 245 80" fill="none" xmlns="http://www.w3.org/2000/svg" preserveAspectRatio="xMidYMid meet">
<path d="M70.1875 25.9608H66.6082C66.4358 25.9608 66.2845 26.0659 66.2211 26.227L63.6238 33.2737C63.49 33.6275 62.9868 33.6275 62.853 33.2737L60.2346 26.227C60.1748 26.0694 60.0199 25.9608 59.851 25.9608H56.2647C55.9726 25.9608 55.772 26.2585 55.8846 26.5282L61.0687 39.3994C61.132 39.5535 61.2834 39.6515 61.4488 39.6515H64.9999C65.1688 39.6515 65.3166 39.5535 65.38 39.3994L70.5641 26.5282C70.6767 26.2585 70.4796 25.9608 70.184 25.9608H70.1875Z" fill="white"/>
<path d="M77.5607 25.9608C74.1187 25.9608 70.7576 28.3704 70.7576 32.8324C70.7576 35.4592 71.9754 37.4065 73.7597 38.5343C74.6501 38.156 75.6743 37.9459 76.7899 37.9459C78.4828 37.9459 79.8025 38.4327 80.8056 39.0806C81.6854 38.7164 82.4139 38.1945 82.97 37.5886C83.1143 37.431 83.1143 37.1859 82.97 37.0282L81.52 35.4907C81.3898 35.3541 81.1786 35.3191 81.0167 35.4137C80.1369 35.939 79.25 36.1036 78.2822 36.1036C77.1313 36.1036 76.1987 35.8024 75.5792 35.2C75.3223 34.9478 75.5194 34.5065 75.8784 34.5065H83.7056C83.9132 34.5065 84.0892 34.3559 84.1138 34.1493C84.8283 28.1813 80.8689 25.9608 77.5712 25.9608H77.5607ZM79.5773 31.414H75.5863C75.2555 31.414 75.0584 31.0357 75.2449 30.766C75.8045 29.978 76.7055 29.6137 77.6099 29.6137C78.5144 29.6137 79.4576 29.985 79.9363 30.801C80.0946 31.0742 79.8905 31.4175 79.5773 31.4175V31.414Z" fill="white"/>
<path d="M93.968 25.9608C92.6412 25.9608 91.603 26.3811 90.8463 27.043C90.5964 27.2672 90.1987 27.0956 90.1987 26.7628V26.234C90.1987 26.0834 90.0755 25.9608 89.9242 25.9608H86.0634C85.9121 25.9608 85.7889 26.0834 85.7889 26.234V39.2452C85.7889 39.4694 85.9719 39.655 86.2007 39.655H89.7834C90.0122 39.655 90.1987 39.4729 90.1987 39.2452V32.4016C90.1987 31.0322 90.8357 29.8414 92.3139 29.8414C93.792 29.8414 94.4783 31.0322 94.4783 32.4016V39.2452C94.4783 39.4694 94.6613 39.655 94.8936 39.655H98.4764C98.7016 39.655 98.8882 39.4729 98.8882 39.2452V31.6416C98.8882 27.6104 96.6463 25.9608 93.9715 25.9608H93.968Z" fill="white"/>
<path d="M114.504 22.8437H110.921C110.696 22.8437 110.509 23.0258 110.509 23.257V27.4598H110.432C110.33 27.2321 109.081 25.9643 106.761 25.9643C103.805 25.9643 100.493 28.1953 100.493 32.8114C100.493 37.4275 103.809 39.655 106.761 39.655C109.077 39.655 110.326 38.3872 110.432 38.1595H110.509V39.2452C110.509 39.4694 110.692 39.655 110.921 39.655H114.504C114.733 39.655 114.919 39.4729 114.919 39.2452V23.2535C114.919 23.0258 114.736 22.8402 114.504 22.8402V22.8437ZM107.708 35.7744C106.177 35.7744 104.826 34.6607 104.826 32.8079C104.826 30.9552 106.177 29.8414 107.708 29.8414C109.239 29.8414 110.612 30.9306 110.612 32.8079C110.612 34.6852 109.288 35.7744 107.708 35.7744Z" fill="white"/>
<path d="M130.531 25.9608H126.949C126.72 25.9608 126.533 26.1429 126.533 26.3741V27.4563H126.456C126.354 27.2286 125.108 25.9608 122.785 25.9608C119.829 25.9608 116.517 28.1918 116.517 32.8079C116.517 37.424 119.829 39.6515 122.785 39.6515C125.104 39.6515 126.354 38.3837 126.456 38.156H126.533V39.2417C126.533 39.4659 126.716 39.6515 126.949 39.6515H130.531C130.76 39.6515 130.947 39.4694 130.947 39.2417V26.3706C130.947 26.1429 130.764 25.9573 130.531 25.9573V25.9608ZM123.732 35.7744C122.201 35.7744 120.853 34.6606 120.853 32.8079C120.853 30.9551 122.201 29.8414 123.732 29.8414C125.263 29.8414 126.639 30.9306 126.639 32.8079C126.639 34.6852 125.316 35.7744 123.732 35.7744Z" fill="white"/>
<path d="M142.416 35.7079C142.142 35.7569 141.888 35.7779 141.702 35.7779C140.453 35.7779 140.097 35.0144 140.097 34.4015V30.4123C140.097 30.1601 140.301 29.9535 140.555 29.9535H142.441C142.694 29.9535 142.899 29.7468 142.899 29.4947V26.4231C142.899 26.1674 142.694 25.9608 142.441 25.9608H140.555C140.301 25.9608 140.097 25.7822 140.097 25.53V23.3025C140.097 23.0468 139.893 22.8402 139.64 22.8402H136.148C135.895 22.8402 135.691 23.0468 135.691 23.3025V25.53C135.691 25.7822 135.487 25.9608 135.233 25.9608H134.209C133.956 25.9608 133.748 26.1674 133.748 26.4231V29.4947C133.748 29.7468 133.956 29.9535 134.209 29.9535H135.233C135.487 29.9535 135.691 30.1601 135.691 30.4123V35.0669C135.691 38.3837 137.602 39.6585 140.252 39.6585C141.146 39.6585 142.202 39.5149 142.779 39.0771C142.888 38.9931 142.955 38.8565 142.955 38.7129V36.1632C142.955 35.8795 142.698 35.6588 142.42 35.7114L142.416 35.7079Z" fill="white"/>
<path d="M150.951 25.9608C147.463 25.9608 143.87 28.3179 143.87 32.8079C143.87 37.2979 147.463 39.6515 150.951 39.6515C154.439 39.6515 158.007 37.2944 158.007 32.8079C158.007 28.3214 154.414 25.9608 150.951 25.9608ZM150.951 35.7254C149.42 35.7254 148.199 34.5591 148.199 32.8079C148.199 31.0567 149.42 29.8904 150.951 29.8904C152.482 29.8904 153.679 31.0567 153.679 32.8079C153.679 34.5591 152.457 35.7254 150.951 35.7254Z" fill="white"/>
<path d="M172.944 22.8437H169.453C169.199 22.8437 168.995 23.0503 168.995 23.3025V27.4598H168.918C168.816 27.2321 167.57 25.9643 165.247 25.9643C162.291 25.9643 158.979 28.1953 158.979 32.8114C158.979 37.4275 162.291 39.655 165.247 39.655C167.566 39.655 168.816 38.3872 168.918 38.1595H168.995V39.1997C168.995 39.4519 169.199 39.655 169.453 39.655H172.944C173.197 39.655 173.401 39.4519 173.401 39.1997V23.3025C173.401 23.0503 173.197 22.8437 172.944 22.8437ZM166.19 35.7744C164.659 35.7744 163.311 34.6607 163.311 32.8079C163.311 30.9552 164.659 29.8414 166.19 29.8414C167.721 29.8414 169.097 30.9306 169.097 32.8079C169.097 34.6852 167.774 35.7744 166.19 35.7744Z" fill="white"/>
<path d="M182.091 25.9608C178.6 25.9608 175.006 28.3179 175.006 32.8079C175.006 37.2979 178.6 39.6515 182.091 39.6515C185.582 39.6515 189.147 37.2944 189.147 32.8079C189.147 28.3214 185.554 25.9608 182.091 25.9608ZM182.091 35.7254C180.56 35.7254 179.339 34.5591 179.339 32.8079C179.339 31.0567 180.563 29.8904 182.091 29.8904C183.618 29.8904 184.818 31.0567 184.818 32.8079C184.818 34.5591 183.594 35.7254 182.091 35.7254Z" fill="white"/>
<path d="M150.874 40.3345H147.294C147.066 40.3345 146.879 40.5201 146.879 40.7478V44.9541H146.802C146.7 44.7265 145.454 43.4586 143.131 43.4586C141.551 43.4586 139.872 44.096 138.647 45.3954C139.798 46.7123 140.4 48.3864 140.4 50.3057C140.4 52.225 139.798 53.8992 138.647 55.216C139.868 56.5154 141.551 57.1528 143.131 57.1528C145.45 57.1528 146.7 55.885 146.802 55.6573H146.879V56.4874C146.879 56.7151 147.066 56.9007 147.294 56.9007H150.874C151.102 56.9007 151.289 56.7151 151.289 56.4874V40.7513C151.289 40.5236 151.106 40.338 150.874 40.338V40.3345ZM144.078 53.2722C142.547 53.2722 141.199 52.1585 141.199 50.3057C141.199 48.453 142.547 47.3392 144.078 47.3392C145.609 47.3392 146.985 48.4285 146.985 50.3057C146.985 52.183 145.661 53.2722 144.078 53.2722Z" fill="white"/>
<path d="M157.525 43.4586H153.946C153.717 43.4586 153.531 43.6407 153.531 43.8719V56.4839C153.531 56.7115 153.717 56.8972 153.946 56.8972H157.525C157.754 56.8972 157.941 56.7115 157.941 56.4839V43.8719C157.941 43.6442 157.758 43.4586 157.525 43.4586ZM157.525 40.3345H153.946C153.717 40.3345 153.531 40.5201 153.531 40.7478V42.2608C153.531 42.4885 153.717 42.6741 153.946 42.6741H157.525C157.754 42.6741 157.941 42.492 157.941 42.2608V40.7478C157.941 40.5201 157.758 40.3345 157.525 40.3345Z" fill="white"/>
<path d="M173.553 43.4586H169.973C169.745 43.4586 169.558 43.6407 169.558 43.8719V44.9541H169.481C169.379 44.7264 168.129 43.4586 165.81 43.4586C162.854 43.4586 159.542 45.6896 159.542 50.3057C159.542 54.9218 162.854 57.1493 165.81 57.1493C168.126 57.1493 169.375 55.8815 169.481 55.6538H169.558V56.4839C169.558 56.7115 169.741 56.8972 169.973 56.8972H173.553C173.781 56.8972 173.968 56.7115 173.968 56.4839V43.8719C173.968 43.6442 173.781 43.4586 173.553 43.4586ZM166.757 53.2722C165.226 53.2722 163.874 52.1585 163.874 50.3057C163.874 48.453 165.226 47.3392 166.757 47.3392C168.288 47.3392 169.66 48.4284 169.66 50.3057C169.66 52.183 168.337 53.2722 166.757 53.2722Z" fill="white"/>
<path d="M70.5852 52.4527L73.4782 51.1148C73.6893 51.0167 73.9357 51.1008 74.0483 51.3039C74.5657 52.2355 75.3646 53.1461 76.7618 53.1461C77.807 53.1461 78.7502 52.6383 78.7502 51.423C78.7502 50.5614 78.342 50.1306 76.7371 49.4967L75.6144 49.0659C73.2705 48.1273 70.902 46.8349 70.902 43.7668C70.902 40.6987 73.6013 38.6464 76.7864 38.6464C79.7814 38.6464 81.7101 40.345 82.6814 42.1172C82.7976 42.3273 82.7201 42.59 82.5125 42.7091L79.9257 44.1731C79.7251 44.2852 79.4752 44.2256 79.345 44.0365C78.613 42.9753 77.8211 42.576 76.9659 42.576C76.0227 42.576 75.3083 42.9823 75.3083 43.8439C75.3083 44.5023 75.6919 45.0347 77.5255 45.7456L78.7502 46.229C82.0867 47.5739 83.4135 49.0694 83.4135 51.479C83.4135 55.3596 79.9222 57.1598 76.8392 57.1598C73.7562 57.1598 71.1941 55.4402 70.3529 53.0025C70.279 52.7889 70.3776 52.5577 70.5852 52.4632V52.4527Z" fill="white"/>
<path d="M84.3814 50.3022C84.3814 45.6861 87.6931 43.4551 90.6494 43.4551C92.9687 43.4551 94.2181 44.723 94.3202 44.9506H94.3976V43.8894C94.3976 43.6478 94.5947 43.4516 94.8375 43.4516H98.3675C98.6104 43.4516 98.8074 43.6478 98.8074 43.8894V56.4559C98.8074 56.6976 98.6104 56.8937 98.3675 56.8937H94.8375C94.5947 56.8937 94.3976 56.6976 94.3976 56.4559V55.6504H94.3202C94.2181 55.878 92.9687 57.1459 90.6494 57.1459C87.6931 57.1459 84.3814 54.9149 84.3814 50.2987V50.3022ZM91.5926 53.2687C93.1729 53.2687 94.4962 52.1795 94.4962 50.3022C94.4962 48.425 93.1729 47.3357 91.5926 47.3357C90.0124 47.3357 88.7138 48.453 88.7138 50.3022C88.7138 52.1515 90.0652 53.2687 91.5926 53.2687Z" fill="white"/>
<path d="M101.486 43.4586H105.016C105.259 43.4586 105.456 43.6548 105.456 43.8964V44.2712C105.456 44.6039 105.85 44.772 106.1 44.5514C106.856 43.8859 107.898 43.4621 109.228 43.4621C111.903 43.4621 114.145 45.1117 114.145 49.143V56.4664C114.145 56.7081 113.948 56.9042 113.705 56.9042H110.175C109.932 56.9042 109.735 56.7081 109.735 56.4664V49.903C109.735 48.5335 109.074 47.3427 107.571 47.3427C106.068 47.3427 105.456 48.5335 105.456 49.903V56.4664C105.456 56.7081 105.259 56.9042 105.016 56.9042H101.486C101.243 56.9042 101.046 56.7081 101.046 56.4664V43.8999C101.046 43.6583 101.243 43.4621 101.486 43.4621V43.4586Z" fill="white"/>
<path d="M117.379 52.4842V47.5949C117.379 47.3533 117.182 47.1571 116.939 47.1571H115.803C115.56 47.1571 115.363 46.961 115.363 46.7193V43.8999C115.363 43.6583 115.56 43.4621 115.803 43.4621H116.939C117.182 43.4621 117.379 43.266 117.379 43.0243V40.7688C117.379 40.5272 117.576 40.331 117.819 40.331H121.349C121.592 40.331 121.789 40.5272 121.789 40.7688V43.0243C121.789 43.266 121.986 43.4621 122.229 43.4621H124.154C124.397 43.4621 124.594 43.6583 124.594 43.8999V46.7193C124.594 46.961 124.397 47.1571 124.154 47.1571H122.229C121.986 47.1571 121.789 47.3533 121.789 47.5949V51.8258C121.789 52.4352 122.145 53.1952 123.394 53.1952C123.584 53.1952 123.845 53.1742 124.126 53.1217C124.408 53.0691 124.643 53.2828 124.643 53.5559V56.1197C124.643 56.2528 124.584 56.3824 124.475 56.4664C123.901 56.9042 122.838 57.0513 121.941 57.0513C119.29 57.0513 117.379 55.7834 117.379 52.4877V52.4842Z" fill="white"/>
<path d="M125.562 50.3022C125.562 45.8122 129.155 43.4551 132.647 43.4551C136.138 43.4551 139.703 45.8122 139.703 50.3022C139.703 54.7923 136.11 57.1493 132.647 57.1493C129.184 57.1493 125.562 54.7923 125.562 50.3022ZM132.647 53.2197C134.149 53.2197 135.374 52.0534 135.374 50.3022C135.374 48.551 134.149 47.3848 132.647 47.3848C131.144 47.3848 129.894 48.551 129.894 50.3022C129.894 52.0534 131.119 53.2197 132.647 53.2197Z" fill="white"/>
</svg>
