<svg width="155" height="40" viewBox="0 0 155 40" fill="none" xmlns="http://www.w3.org/2000/svg">
<path d="M16.6373 3.62189H12.4831C12.283 3.62189 12.1073 3.74384 12.0338 3.93082L9.01927 12.1095C8.86405 12.5201 8.27993 12.5201 8.12471 12.1095L5.08567 3.93082C5.01623 3.7479 4.8365 3.62189 4.64043 3.62189H0.478089C0.139056 3.62189 -0.0937737 3.96741 0.0369378 4.28041L6.05375 19.2191C6.12728 19.3979 6.30292 19.5118 6.4949 19.5118H10.6164C10.8125 19.5118 10.984 19.3979 11.0576 19.2191L17.0744 4.28041C17.2051 3.96741 16.9763 3.62189 16.6332 3.62189H16.6373Z" fill="white"/>
<path d="M25.1948 3.62189C21.2 3.62189 17.299 6.41857 17.299 11.5973C17.299 14.646 18.7124 16.9061 20.7833 18.215C21.8168 17.776 23.0054 17.5321 24.3003 17.5321C26.265 17.5321 27.7968 18.0972 28.961 18.8492C29.9821 18.4264 30.8277 17.8207 31.4731 17.1175C31.6406 16.9346 31.6406 16.65 31.4731 16.4671L29.7902 14.6826C29.639 14.5241 29.3939 14.4834 29.206 14.5932C28.1849 15.2029 27.1555 15.394 26.0322 15.394C24.6965 15.394 23.614 15.0444 22.8951 14.3452C22.5969 14.0525 22.8257 13.5404 23.2423 13.5404H32.3268C32.5678 13.5404 32.772 13.3656 32.8006 13.1257C33.6298 6.19906 29.0345 3.62189 25.2071 3.62189H25.1948ZM27.5354 9.95101H22.9033C22.5193 9.95101 22.2906 9.51199 22.5071 9.19899C23.1566 8.28438 24.2022 7.86162 25.252 7.86162C26.3018 7.86162 27.3965 8.29251 27.952 9.23964C28.1358 9.55671 27.8989 9.95507 27.5354 9.95507V9.95101Z" fill="white"/>
<path d="M44.2377 3.62189C42.6977 3.62189 41.4927 4.10968 40.6145 4.87796C40.3245 5.13811 39.8629 4.93893 39.8629 4.55276V3.93895C39.8629 3.76416 39.72 3.62189 39.5443 3.62189H35.0634C34.8877 3.62189 34.7448 3.76416 34.7448 3.93895V19.0402C34.7448 19.3004 34.9572 19.5158 35.2227 19.5158H39.3809C39.6464 19.5158 39.8629 19.3044 39.8629 19.0402V11.0973C39.8629 9.50793 40.6023 8.12585 42.3179 8.12585C44.0334 8.12585 44.83 9.50793 44.83 11.0973V19.0402C44.83 19.3004 45.0424 19.5158 45.312 19.5158H49.4702C49.7316 19.5158 49.9481 19.3044 49.9481 19.0402V10.2152C49.9481 5.53648 47.3462 3.62189 44.2418 3.62189H44.2377Z" fill="white"/>
<path d="M68.0724 0.00406504H63.9141C63.6527 0.00406504 63.4362 0.215442 63.4362 0.483729V5.36166H63.3463C63.2279 5.09744 61.7778 3.62593 59.0859 3.62593C55.6548 3.62593 51.811 6.2153 51.811 11.5729C51.811 16.9305 55.6589 19.5158 59.0859 19.5158C61.7737 19.5158 63.2238 18.0443 63.3463 17.7801H63.4362V19.0402C63.4362 19.3004 63.6486 19.5158 63.9141 19.5158H68.0724C68.3379 19.5158 68.5544 19.3044 68.5544 19.0402V0.479664C68.5544 0.215442 68.342 0 68.0724 0V0.00406504ZM60.1847 15.0118C58.4079 15.0118 56.8393 13.7192 56.8393 11.5688C56.8393 9.41848 58.4079 8.12583 60.1847 8.12583C61.9616 8.12583 63.5547 9.39002 63.5547 11.5688C63.5547 13.7476 62.0188 15.0118 60.1847 15.0118Z" fill="white"/>
<path d="M86.6742 3.62186H82.5159C82.2504 3.62186 82.0339 3.83324 82.0339 4.10153V5.35759H81.9441C81.8256 5.09337 80.3796 3.62186 77.6837 3.62186C74.2525 3.62186 70.4088 6.21123 70.4088 11.5688C70.4088 16.9264 74.2525 19.5117 77.6837 19.5117C80.3755 19.5117 81.8256 18.0402 81.9441 17.776H82.0339V19.0361C82.0339 19.2963 82.2463 19.5117 82.5159 19.5117H86.6742C86.9397 19.5117 87.1562 19.3004 87.1562 19.0361V4.09746C87.1562 3.83324 86.9438 3.6178 86.6742 3.6178V3.62186ZM78.7825 15.0118C77.0056 15.0118 75.4412 13.7192 75.4412 11.5688C75.4412 9.41847 77.0056 8.12582 78.7825 8.12582C80.5593 8.12582 82.1565 9.39002 82.1565 11.5688C82.1565 13.7476 80.6206 15.0118 78.7825 15.0118Z" fill="white"/>
<path d="M100.468 14.9346C100.15 14.9915 99.8556 15.0159 99.6391 15.0159C98.189 15.0159 97.7765 14.1298 97.7765 13.4184V8.78841C97.7765 8.49574 98.0134 8.2559 98.3075 8.2559H100.497C100.791 8.2559 101.028 8.01607 101.028 7.7234V4.15844C101.028 3.8617 100.791 3.62187 100.497 3.62187H98.3075C98.0134 3.62187 97.7765 3.41455 97.7765 3.12188V0.536573C97.7765 0.239832 97.5396 0 97.2455 0H93.1934C92.8993 0 92.6624 0.239832 92.6624 0.536573V3.12188C92.6624 3.41455 92.4255 3.62187 92.1314 3.62187H90.9427C90.6486 3.62187 90.4076 3.8617 90.4076 4.15844V7.7234C90.4076 8.01607 90.6486 8.2559 90.9427 8.2559H92.1314C92.4255 8.2559 92.6624 8.49574 92.6624 8.78841V14.1907C92.6624 18.0402 94.8804 19.5199 97.9562 19.5199C98.9937 19.5199 100.219 19.3532 100.889 18.8451C101.016 18.7475 101.093 18.589 101.093 18.4223V15.4631C101.093 15.1338 100.795 14.8777 100.472 14.9387L100.468 14.9346Z" fill="white"/>
<path d="M110.374 3.62189C106.326 3.62189 102.155 6.3576 102.155 11.5689C102.155 16.7801 106.326 19.5118 110.374 19.5118C114.422 19.5118 118.564 16.7761 118.564 11.5689C118.564 6.36166 114.393 3.62189 110.374 3.62189ZM110.374 14.955C108.597 14.955 107.18 13.6013 107.18 11.5689C107.18 9.53638 108.597 8.18276 110.374 8.18276C112.151 8.18276 113.539 9.53638 113.539 11.5689C113.539 13.6013 112.122 14.955 110.374 14.955Z" fill="white"/>
<path d="M135.899 0.00408936H131.847C131.553 0.00408936 131.316 0.243922 131.316 0.536598V5.36169H131.226C131.108 5.09747 129.662 3.62596 126.966 3.62596C123.535 3.62596 119.691 6.21533 119.691 11.5729C119.691 16.9305 123.535 19.5158 126.966 19.5158C129.658 19.5158 131.108 18.0443 131.226 17.7801H131.316V18.9874C131.316 19.2801 131.553 19.5158 131.847 19.5158H135.899C136.193 19.5158 136.43 19.2801 136.43 18.9874V0.536598C136.43 0.243922 136.193 0.00408936 135.899 0.00408936ZM128.061 15.0119C126.284 15.0119 124.719 13.7192 124.719 11.5689C124.719 9.4185 126.284 8.12585 128.061 8.12585C129.838 8.12585 131.435 9.39005 131.435 11.5689C131.435 13.7477 129.899 15.0119 128.061 15.0119Z" fill="white"/>
<path d="M146.516 3.62189C142.464 3.62189 138.293 6.3576 138.293 11.5689C138.293 16.7801 142.464 19.5118 146.516 19.5118C150.568 19.5118 154.706 16.7761 154.706 11.5689C154.706 6.36166 150.535 3.62189 146.516 3.62189ZM146.516 14.955C144.739 14.955 143.321 13.6013 143.321 11.5689C143.321 9.53638 144.743 8.18276 146.516 8.18276C148.288 8.18276 149.681 9.53638 149.681 11.5689C149.681 13.6013 148.26 14.955 146.516 14.955Z" fill="white"/>
<path d="M110.284 20.3044H106.13C105.864 20.3044 105.648 20.5199 105.648 20.7841V25.6661H105.558C105.44 25.4019 103.994 23.9304 101.298 23.9304C99.4635 23.9304 97.5151 24.6702 96.0936 26.1783C97.4293 27.7067 98.1278 29.6498 98.1278 31.8773C98.1278 34.1049 97.4293 36.048 96.0936 37.5764C97.511 39.0845 99.4635 39.8243 101.298 39.8243C103.989 39.8243 105.44 38.3528 105.558 38.0886H105.648V39.052C105.648 39.3162 105.864 39.5316 106.13 39.5316H110.284C110.55 39.5316 110.766 39.3162 110.766 39.052V20.7882C110.766 20.524 110.554 20.3085 110.284 20.3085V20.3044ZM102.396 35.3204C100.62 35.3204 99.0551 34.0277 99.0551 31.8773C99.0551 29.727 100.62 28.4343 102.396 28.4343C104.173 28.4343 105.77 29.6985 105.77 31.8773C105.77 34.0562 104.235 35.3204 102.396 35.3204Z" fill="white"/>
<path d="M118.004 23.9304H113.85C113.585 23.9304 113.368 24.1418 113.368 24.41V39.0479C113.368 39.3121 113.585 39.5276 113.85 39.5276H118.004C118.27 39.5276 118.486 39.3121 118.486 39.0479V24.41C118.486 24.1458 118.274 23.9304 118.004 23.9304ZM118.004 20.3044H113.85C113.585 20.3044 113.368 20.5199 113.368 20.7841V22.5402C113.368 22.8044 113.585 23.0198 113.85 23.0198H118.004C118.27 23.0198 118.486 22.8084 118.486 22.5402V20.7841C118.486 20.5199 118.274 20.3044 118.004 20.3044Z" fill="white"/>
<path d="M136.606 23.9304H132.452C132.186 23.9304 131.97 24.1417 131.97 24.41V25.6661H131.88C131.761 25.4019 130.311 23.9304 127.62 23.9304C124.188 23.9304 120.345 26.5197 120.345 31.8773C120.345 37.2349 124.188 39.8202 127.62 39.8202C130.307 39.8202 131.757 38.3487 131.88 38.0845H131.97V39.0479C131.97 39.3121 132.182 39.5276 132.452 39.5276H136.606C136.871 39.5276 137.088 39.3121 137.088 39.0479V24.41C137.088 24.1458 136.871 23.9304 136.606 23.9304ZM128.718 35.3203C126.941 35.3203 125.373 34.0277 125.373 31.8773C125.373 29.727 126.941 28.4343 128.718 28.4343C130.495 28.4343 132.088 29.6985 132.088 31.8773C132.088 34.0561 130.552 35.3203 128.718 35.3203Z" fill="white"/>
<path d="M17.0989 34.3691L20.4566 32.8163C20.7016 32.7025 20.9876 32.8 21.1183 33.0358C21.7187 34.1171 22.646 35.174 24.2676 35.174C25.4808 35.174 26.5755 34.5846 26.5755 33.174C26.5755 32.174 26.1017 31.674 24.239 30.9383L22.936 30.4383C20.2156 29.3489 17.4665 27.8489 17.4665 24.288C17.4665 20.7272 20.5995 18.3451 24.2962 18.3451C27.7723 18.3451 30.0108 20.3166 31.1381 22.3735C31.2729 22.6173 31.1831 22.9222 30.9421 23.0604L27.9398 24.7596C27.707 24.8897 27.4169 24.8206 27.2658 24.601C26.4162 23.3694 25.4971 22.906 24.5045 22.906C23.4098 22.906 22.5806 23.3775 22.5806 24.3775C22.5806 25.1417 23.0259 25.7596 25.154 26.5847L26.5755 27.1457C30.4478 28.7066 31.9878 30.4424 31.9878 33.2391C31.9878 37.743 27.9357 39.8324 24.3575 39.8324C20.7792 39.8324 17.8056 37.8365 16.8293 35.0073C16.7435 34.7593 16.8579 34.4911 17.0989 34.3813V34.3691Z" fill="white"/>
<path d="M33.1111 31.8733C33.1111 26.5157 36.9549 23.9263 40.386 23.9263C43.0779 23.9263 44.528 25.3978 44.6464 25.662H44.7363V24.4304C44.7363 24.1499 44.965 23.9222 45.2469 23.9222H49.3439C49.6257 23.9222 49.8545 24.1499 49.8545 24.4304V39.0154C49.8545 39.2959 49.6257 39.5235 49.3439 39.5235H45.2469C44.965 39.5235 44.7363 39.2959 44.7363 39.0154V38.0804H44.6464C44.528 38.3447 43.0779 39.8162 40.386 39.8162C36.9549 39.8162 33.1111 37.2268 33.1111 31.8692V31.8733ZM41.4808 35.3163C43.3148 35.3163 44.8507 34.0521 44.8507 31.8733C44.8507 29.6945 43.3148 28.4303 41.4808 28.4303C39.6467 28.4303 38.1394 29.727 38.1394 31.8733C38.1394 34.0196 39.708 35.3163 41.4808 35.3163Z" fill="white"/>
<path d="M52.963 23.9304H57.0599C57.3418 23.9304 57.5705 24.158 57.5705 24.4385V24.8734C57.5705 25.2596 58.028 25.4547 58.318 25.1986C59.1963 24.4263 60.4053 23.9344 61.9494 23.9344C65.0538 23.9344 67.6557 25.849 67.6557 30.5278V39.0276C67.6557 39.308 67.427 39.5357 67.1452 39.5357H63.0482C62.7663 39.5357 62.5376 39.308 62.5376 39.0276V31.4099C62.5376 29.8205 61.7696 28.4384 60.0255 28.4384C58.2813 28.4384 57.5705 29.8205 57.5705 31.4099V39.0276C57.5705 39.308 57.3418 39.5357 57.0599 39.5357H52.963C52.6811 39.5357 52.4524 39.308 52.4524 39.0276V24.4425C52.4524 24.1621 52.6811 23.9344 52.963 23.9344V23.9304Z" fill="white"/>
<path d="M71.4096 34.4057V28.7311C71.4096 28.4506 71.1809 28.2229 70.899 28.2229H69.5797C69.2978 28.2229 69.0691 27.9953 69.0691 27.7148V24.4425C69.0691 24.1621 69.2978 23.9344 69.5797 23.9344H70.899C71.1809 23.9344 71.4096 23.7068 71.4096 23.4263V20.8085C71.4096 20.528 71.6384 20.3004 71.9202 20.3004H76.0172C76.299 20.3004 76.5278 20.528 76.5278 20.8085V23.4263C76.5278 23.7068 76.7565 23.9344 77.0384 23.9344H79.2727C79.5546 23.9344 79.7833 24.1621 79.7833 24.4425V27.7148C79.7833 27.9953 79.5546 28.2229 79.2727 28.2229H77.0384C76.7565 28.2229 76.5278 28.4506 76.5278 28.7311V33.6415C76.5278 34.3488 76.9404 35.2309 78.3904 35.2309C78.611 35.2309 78.9133 35.2065 79.2401 35.1455C79.5668 35.0846 79.8405 35.3325 79.8405 35.6496V38.6251C79.8405 38.7796 79.7711 38.93 79.6444 39.0276C78.9786 39.5357 77.745 39.7064 76.7034 39.7064C73.6276 39.7064 71.4096 38.2349 71.4096 34.4098V34.4057Z" fill="white"/>
<path d="M80.9066 31.8732C80.9066 26.662 85.0772 23.9263 89.1292 23.9263C93.1813 23.9263 97.3191 26.662 97.3191 31.8732C97.3191 37.0845 93.1486 39.8202 89.1292 39.8202C85.1098 39.8202 80.9066 37.0845 80.9066 31.8732ZM89.1292 35.2593C90.8734 35.2593 92.2949 33.9057 92.2949 31.8732C92.2949 29.8408 90.8734 28.4871 89.1292 28.4871C87.385 28.4871 85.935 29.8408 85.935 31.8732C85.935 33.9057 87.3564 35.2593 89.1292 35.2593Z" fill="white"/>
</svg>
