<svg width="608" height="784" viewBox="0 0 608 784" fill="none" xmlns="http://www.w3.org/2000/svg">
<path d="M110.141 324.56C105.159 258.251 102.339 191.271 97.7643 124.897C97.0413 114.41 101.081 106.359 108.575 99.13C113.51 94.393 119.629 91.072 126.289 89.514C137.186 86.985 162.749 83.98 174.901 82.132L276.86 66.487L372.17 51.42C386.568 49.12 404.48 45.565 418.98 45.006C429.28 44.609 430.06 63.873 428.95 71.731C430.29 79.333 433.56 81.926 440.08 86.553C448.71 92.577 458.72 96.354 469.18 97.544C473.61 98.021 483.22 97.221 483.47 101.89C486.57 158.686 489.7 216.874 491.5 273.662C545.47 297.978 602.99 326.954 543.94 388.475C547.2 402.469 546.1 402.584 537.47 412.287C536.61 413.248 533.64 431.539 534.21 432.125C553.96 452.244 530.2 476.141 501.19 473.917C501.53 480.268 503.04 491.847 499.82 496.691C492.62 499.533 462.2 504.563 452.65 506.336L350.057 525.436C359.5 536.14 369.661 553.387 377.393 565.95C386.331 580.47 398.1 601.674 397.92 618.929C397.82 628.61 392.461 639.326 391.356 648.9C390.584 654.484 396.81 652.365 397.67 658.789C398.18 662.565 399.14 670.199 401.37 672.458C420.74 677.718 445.51 673.628 457.7 694.992C462.09 702.697 471.1 723.513 458.64 727.776C416.63 742.158 363.859 740.264 320.814 730.615C317.664 729.855 312.444 726.469 311.805 723.758C309.074 709.094 317.68 692.18 320.885 677.985C321.826 673.816 318.635 668.889 320.888 664.717C325.799 655.621 332.599 654.944 341.922 656.017C350.306 631.63 358.027 618.55 345.193 593.877C339.466 582.869 316.37 539.27 308.754 533.359C305.882 533.014 307.063 532.585 304.972 534.143C304.848 558.875 322.396 614.013 306.04 637.489C298.258 648.659 259.156 642.106 246.481 640.151C243.092 644.564 240.664 645.523 235.888 648.149C229.665 666.854 257.714 701.77 218.023 723.549C213.356 726.11 207.845 727.388 202.346 725.755C190.834 721.612 180.968 702.561 176.488 692.199C162.973 660.94 150.137 620.12 155.937 586.061C157.818 575.014 198.031 579.459 205.781 580.652C221.15 571.465 234.852 575.725 236.881 594.686C245.618 596.486 260.191 600.404 268.435 598.415C274.43 592.569 266.56 550.947 264.486 541.106C246.823 544.363 218.367 547.433 202.389 552.818C175.419 561.906 144.187 545.66 129.455 524.022C111.924 522.873 84.7733 511.41 100.688 488.03C101.89 486.264 97.1353 478.066 96.2013 476.11C79.0623 471.178 85.3623 458.128 81.2513 455.372C18.4693 413.286 26.7683 378.386 110.141 324.56Z" fill="#000513"/>
<path d="M244.156 162.374C299.81 155.656 363.259 145.341 418.931 136.075C429.531 155.828 437.731 164.192 458.401 173.288C458.471 177.99 458.851 181.819 459.311 186.459C459.461 208.825 460.861 232.682 462.261 255.04C465.931 313.597 467.541 372.689 471.471 431.177C453.021 445.041 446.101 455.394 439.981 477.438L268.309 509.557C261.732 491.652 247.259 482.457 229.494 478.204C222.674 388.001 216.544 297.748 211.103 207.451C212.2 206.874 213.284 206.273 214.354 205.647C233.225 194.583 238.842 182.886 244.156 162.374Z" fill="#F9F6F2"/>
<path d="M377.241 207.129C386.909 205.846 395.72 207.192 404.04 212.583C417.17 221.091 425.29 236.544 428.41 251.535C431.86 268.063 429.7 287.068 420.25 301.337C412.21 313.459 401.84 318.794 387.844 321.593C384.978 326.261 381.128 331.059 375.661 332.687C372.732 333.558 368.756 334.506 365.956 333.014C368.21 328.19 378 325.711 381.514 320.593C382.874 318.613 383.294 316.319 382.691 314.004C381.9 310.964 379.663 309.274 377.057 307.84C368.751 306.75 365.455 314.903 358.483 316.957C356.747 317.469 356.632 316.976 355.11 316.199C354.611 312.904 357.824 312.691 358.152 309.306L351.939 301.808C347.73 312.21 343.053 319.339 334.332 326.483C328.997 330.217 324.53 331.29 318.427 332.762C313.943 333.844 312.689 333.863 310.4 337.753C304.492 338.335 302.454 325.005 296.884 321.356C283.846 312.813 278.403 317.265 264.971 318.943C262.638 319.235 260.633 319.445 258.826 317.926C261.753 313.707 268.211 311.621 272.929 310.18C267.174 296.645 264.116 283.737 265.145 268.936C266.221 253.448 271.991 238.191 284.052 227.95C291.907 221.28 301.809 217.628 312.171 218.616C325.766 219.912 335.42 228.21 343.747 238.253C345.098 235.458 346.406 232.62 347.983 229.942C354.769 218.413 364.149 210.383 377.241 207.129Z" fill="#F9F6F2"/>
<path d="M305.028 224.2C311.39 223.968 317.649 224.9 323.426 227.678C337.775 234.579 343.617 248.555 348.35 262.713C335.69 264.851 322.974 266.639 310.215 268.077C296.968 270.351 283.403 271.673 270.067 273.437C270.545 262.346 273.143 250.685 279.24 241.266C285.451 231.67 294.108 226.618 305.028 224.2Z" fill="#F9F6F2"/>
<path d="M378.75 212.128C385.647 211.535 391.711 212.196 397.97 215.376C411.63 222.323 418.47 236.654 422.71 250.621C410.85 253.217 398.65 254.903 386.679 256.951L354.112 262.009C352.216 256.296 350.042 250.648 347.998 244.984C348.938 241.937 349.89 238.796 351.204 235.884C356.642 223.832 366.655 216.564 378.75 212.128Z" fill="#F9F6F2"/>
<path d="M347.777 268.362L348.867 268.918C349.246 269.874 349.578 270.725 349.745 271.747C352.074 285.966 347.515 303.107 338.621 314.4C330.784 324.349 322.168 327.629 309.931 329.04C309.038 327.602 308.106 326.19 307.136 324.803C300.362 315.03 291.054 311.629 279.881 309.603C276.19 303.165 273.866 296.608 271.822 289.504C271.522 287.844 271.191 286.173 270.985 284.5C270.684 282.051 270.541 281.271 272.06 279.284C274.652 278.464 275.981 278.133 278.748 278.587C282.456 284.035 282.996 291.356 285.83 297.35C287.906 301.738 291.156 304.973 295.797 306.513C301.287 308.335 306.195 307.765 311.185 304.934C315.458 302.511 320.244 298.021 321.397 293.058C322.137 289.871 321.043 287.928 319.425 285.372C316.301 282.83 311.99 282.838 308.11 282.338C312.078 279.242 315.728 275.783 319.437 272.387C328.905 271.203 338.353 269.861 347.777 268.362Z" fill="#F9F6F2"/>
<path d="M395.05 261.479C404.72 259.441 414.42 257.566 424.15 255.855C425.27 285.922 420.01 306.192 389.136 316.017C385.237 300.097 376.847 299.363 362.918 306.087C359.767 302.664 356.75 299.59 354.069 295.777C354.885 288.754 355.709 283.051 355.485 275.989C355.151 272.221 355.091 272.292 355.89 268.635L356.881 268.402L357.603 271.978C360.069 280.698 362.78 289.366 371.552 294.102C375.507 296.229 380.151 296.674 384.438 295.336C392.145 292.982 399.86 284.598 398.8 276.103C395.56 271.147 388.96 271.848 383.231 271.406C387.391 268.102 391.202 265.154 395.05 261.479Z" fill="#F9F6F2"/>
<path d="M355.485 275.989C355.151 272.221 355.091 272.292 355.89 268.635L356.881 268.402L357.603 271.978L355.485 275.989Z" fill="#F7F2EA"/>
<path d="M282.578 191.304C304.064 188.371 309.329 199.183 324.744 199.91C327.914 200.06 331.949 198.768 335.073 198.096L336.13 198.973C336.402 200.253 336.534 200.552 336.474 201.995C336.352 204.961 333.616 209.583 331.443 211.5C327.981 214.553 323.583 214.237 319.287 213.977C295.571 206.181 288.182 197.98 262.229 207.292C268.053 198.973 273.28 195.037 282.578 191.304Z" fill="#F9F6F2"/>
<path d="M391.802 165.344C394.72 165.547 397.59 165.82 400.42 166.584C406.03 168.099 412.47 171.665 415.35 176.89L414.46 178.1C408.4 178.168 402.73 175.155 397 175.336C390.111 175.554 382.117 184.166 377.461 188.686C375.195 191.313 372.5 195.097 369.214 196.414C366.39 197.546 364.292 197.498 361.502 196.267C360.013 194.835 359.192 193.693 358.804 191.607C358.108 187.858 359.675 184.172 361.868 181.208C368.577 172.144 380.891 166.728 391.802 165.344Z" fill="#F9F6F2"/>
<path d="M291.21 338.709C292.755 339.709 293.258 340.37 294.057 342.023C292.662 345.119 289.734 346.67 287.057 348.703C315.173 361.495 341.029 365.418 371.346 357.142C378.991 355.055 385.861 350.773 393.585 349.074L394.87 350.189C392.811 355.245 385.866 357.186 381.114 359.25C379.324 359.837 377.53 360.412 375.732 360.974C343.081 371.168 313.346 367.977 283.232 352.228C282.846 355.073 282.741 359.967 280.926 362.246C279.85 363.597 280.388 363.171 278.499 363.373L277.149 361.315C276.856 358.786 276.889 356.616 277.53 354.129C279.575 346.189 284.534 342.601 291.21 338.709Z" fill="#F9F6F2"/>
<path d="M363.286 376.88C365.147 378.412 365.367 378.325 365.727 380.673C364.98 381.688 364.984 381.805 363.827 382.694C357.313 387.702 343.737 386.696 336.12 385.584C334.614 383.846 334.226 384.099 334.3 381.665C341.238 378.184 351.223 383.276 363.286 376.88Z" fill="#F9F6F2"/>
<path d="M430.95 85.7531C430.95 84.7231 430.68 84.786 429.93 83.61C427.39 83.675 428.27 83.864 425.92 83.06C425.39 80.978 426.98 66.096 427.39 65.562L427.5 71.009L428.95 71.731C430.29 79.333 433.56 81.926 440.08 86.553C448.71 92.577 458.72 96.3541 469.18 97.5441C473.61 98.0211 483.22 97.221 483.47 101.89C486.57 158.686 489.7 216.874 491.5 273.662C545.47 297.978 602.99 326.954 543.94 388.475C547.2 402.469 546.1 402.584 537.47 412.287C536.61 413.248 533.64 431.539 534.21 432.125C553.96 452.244 530.2 476.141 501.19 473.917C501.53 480.268 503.04 491.847 499.82 496.691C492.62 499.533 462.2 504.563 452.65 506.336L350.057 525.436C359.5 536.14 369.661 553.387 377.393 565.95C386.331 580.47 398.1 601.674 397.92 618.929C397.82 628.61 392.461 639.326 391.356 648.9C390.584 654.484 396.81 652.365 397.67 658.789C398.18 662.565 399.14 670.199 401.37 672.458C420.74 677.718 445.51 673.628 457.7 694.992C462.09 702.697 471.1 723.513 458.64 727.776C416.63 742.158 363.859 740.264 320.814 730.615C317.664 729.855 312.444 726.469 311.805 723.758C309.074 709.094 317.68 692.18 320.885 677.985C321.826 673.816 318.635 668.889 320.888 664.717C325.799 655.621 332.599 654.944 341.922 656.017C350.306 631.63 358.027 618.55 345.193 593.877C339.466 582.869 316.37 539.27 308.754 533.359C305.882 533.014 307.063 532.585 304.972 534.143C304.848 558.875 322.396 614.013 306.04 637.489C298.258 648.659 259.156 642.106 246.481 640.151C243.092 644.564 240.664 645.523 235.888 648.149C229.665 666.854 257.714 701.77 218.023 723.549C213.356 726.11 207.845 727.388 202.346 725.755C190.834 721.612 180.968 702.561 176.488 692.199C162.973 660.94 150.137 620.12 155.937 586.061C157.818 575.014 198.031 579.459 205.781 580.652C221.15 571.465 234.852 575.725 236.881 594.686C245.618 596.486 260.191 600.404 268.435 598.415C274.43 592.569 266.56 550.947 264.486 541.106C246.823 544.363 218.367 547.433 202.389 552.818C175.419 561.906 144.187 545.66 129.455 524.022C130.268 523.669 131.078 523.308 131.883 522.937C136.431 520.828 137.75 520.353 139.42 515.887L140.136 515.444C144.721 514.649 148.957 510.572 150.867 506.431L152.101 508.069L154.439 508.368L155.757 506.84C176.153 490.483 166.055 484.212 159.6 466.196C171.518 469.497 167.946 478.456 173.869 481.141C176.483 479.044 175.961 478.66 177.389 474.999C180.581 477.555 179.752 476.006 180.701 479.33L180.275 480.056C179.15 482.005 178.467 482.761 178.462 485.011C174.454 490.873 173.198 491.735 171.12 498.847C174.806 503.391 174.682 520.129 174.79 526.38C174.993 538.101 171.715 541.819 181.278 549.424L181.939 549.936C197.02 551.156 194.97 548.225 207.643 546.073L208.454 545.944C213.836 546.886 243.946 543.08 246.309 538.68L269.655 534.034L267.625 523.384C268.317 517.441 266.222 513.222 268.308 509.557L439.98 477.438C446.1 455.394 453.02 445.041 471.47 431.177C467.54 372.689 465.93 313.597 462.26 255.04C460.86 232.682 459.46 208.825 459.31 186.459C459.72 182.476 459.14 174.973 460.84 171.994C463.09 173.475 462.37 173.094 463.2 176.645L463.52 176.121C467.55 173.985 473.09 176.607 480.64 175.173C481.04 173.571 482.66 172.603 482.98 171.012C484.62 162.914 483.9 149.68 480.43 142.321C479.27 129.27 479.01 115.277 478.54 102.103C477.06 101.753 466.95 100.996 465.4 101.201C460.26 101.884 456.24 99.2411 453.3 99.3111C449.98 98.2951 448.39 97.2321 445.34 95.5141L444.49 94.1841C441.58 94.2851 440.66 94.516 437.92 93.41L437.2 90.793C435.21 89.388 432.88 87.3471 430.95 85.7531Z" fill="#030303"/>
<path d="M463.2 176.645L463.52 176.121C467.55 173.985 473.09 176.607 480.64 175.173C484.97 184.643 490.51 385.553 492.59 412.122L492.61 421.814C487.37 423.535 483.44 424.471 479.06 427.824L477.52 427.818C474.67 424.023 473.37 375.442 472.94 367.226L467.06 249.765C465.94 226.124 465.24 200.078 463.2 176.645Z" fill="#F9F6F2"/>
<path d="M501.21 368.428C510.15 368.142 514.78 368.22 522.62 373.342C524.71 374.703 530.25 379.35 531.68 380.026C544.73 385.858 544.73 400.296 535.61 408.868C531.36 412.857 531.65 427.968 528.61 435.507L529.39 436.97C532.36 437.797 533.42 437.473 534.84 439.413C537.63 448.318 534.65 456.273 526.9 461.958C517.93 468.538 510.95 468.757 500.43 467.329C499.77 457.504 499.96 446.949 498.61 437.278L498.19 436.547C496.46 433.452 496.32 433.094 495.4 429.715C495.35 430.623 495.29 430.135 495.73 431.154L494.84 432.153C495.08 437.785 495.17 445.872 494.34 451.44C493.37 445.037 493.03 434.397 492.65 427.793C485.41 430.106 482.75 431.052 476.08 434.567C477.09 432.327 478.08 430.079 479.06 427.824C483.44 424.471 487.37 423.535 492.61 421.814L492.59 412.122C494.45 406.553 493.43 390.56 493.91 384.005C493.91 383.984 496.67 379.518 496.67 379.509C495.48 374.719 493.89 375.209 495.08 370.449C498.4 368.106 496.95 368.757 501.21 368.428Z" fill="#207FD5"/>
<path d="M492.59 412.122C494.45 406.553 493.43 390.56 493.91 384.005C493.91 383.984 496.67 379.518 496.67 379.509C495.48 374.719 493.89 375.209 495.08 370.449C498.4 368.106 496.95 368.757 501.21 368.428C498.52 372.078 497.95 371.656 497.54 375.494C501.37 379.738 503.72 376.388 508.15 381.64L507.97 383.583C504.82 384.537 499.88 382.999 496.43 382.256C497.13 398.468 498.76 421.579 498.61 437.278L498.19 436.547C496.46 433.452 496.32 433.094 495.4 429.715C495.35 430.623 495.29 430.135 495.73 431.154L494.84 432.153C495.08 437.785 495.17 445.872 494.34 451.44C493.37 445.037 493.03 434.397 492.65 427.793C485.41 430.106 482.75 431.052 476.08 434.567C477.09 432.327 478.08 430.079 479.06 427.824C483.44 424.471 487.37 423.535 492.61 421.814L492.59 412.122Z" fill="#000513"/>
<path d="M531.681 380.026C544.731 385.858 544.731 400.296 535.611 408.868C531.361 412.857 531.651 427.968 528.611 435.507L529.391 436.97C532.361 437.797 533.421 437.473 534.841 439.413C522.441 438.629 523.141 452.963 516.121 455.471C513.411 452.657 513.151 452.249 511.811 448.575C514.571 436.984 541.181 441.152 523.231 395.189C527.431 392.295 531.211 405.039 537.611 405.619C543.101 397.727 536.041 386.524 531.681 380.026Z" fill="#000513"/>
<path d="M476.08 434.567C482.75 431.052 485.41 430.106 492.65 427.793C493.03 434.397 493.37 445.037 494.34 451.44C494.37 453.988 494.32 457.075 494.54 459.556C494.77 465.432 495.35 487.989 496.66 492.752C478.58 495.848 460.51 499.038 442.46 502.323C444.97 470.989 449.82 453.827 476.08 434.567Z" fill="#207FD5"/>
<path d="M181.939 549.936C172.789 548.508 161.759 544.653 154.012 539.483C150.387 537.063 138.911 528.676 138.049 524.386C147.896 512.783 158.084 514.926 171.12 498.847C174.806 503.391 174.682 520.129 174.79 526.38C174.993 538.101 171.715 541.819 181.278 549.424L181.939 549.936Z" fill="#2669B2"/>
<path d="M171.514 512.076L172.364 512.043C172.272 512.558 172.172 513.072 172.089 513.588C171.717 515.913 168.574 524.236 169.134 526.016C169.665 527.705 171.057 527.376 171.259 529.894L169.502 531.547C168.575 530.115 167.295 528.822 166.187 527.521C165.181 522.461 164.602 518.304 167.351 513.71C168.08 512.491 170.149 512.418 171.514 512.076Z" fill="#2381D6"/>
<path d="M160.847 517.201L161.818 517.39L161.065 522.76C159.414 521.114 158.371 520.814 158.309 518.368L160.847 517.201Z" fill="#2B78C6"/>
<path d="M494.54 459.556C498.62 465.718 502.47 487.007 497.48 492.477L496.66 492.752C495.35 487.989 494.77 465.432 494.54 459.556Z" fill="#000513"/>
<path d="M270.89 548.749C281.034 549.7 290.924 549.996 301.091 549.173C305.041 569.936 309.466 603.66 306.15 624.315C305.414 628.897 304.005 632.533 299.986 635.118C286.208 643.978 259.658 636.785 244.676 633.822C239.766 632.257 237.996 628.489 234.564 625.023C229.886 620.298 226.799 619.756 220.393 619.859L218.755 619.893C216.931 618.754 217.388 619.493 216.877 617.479C215.481 611.979 215.797 602.944 218.698 598.115C234.281 595.089 251.616 606.881 267.233 605.248C269.723 604.987 272.048 603.897 273.474 601.759C280.274 591.566 273.158 560.841 270.89 548.749Z" fill="#F9F6F2"/>
<path d="M350.738 539.139L351.831 539.153C361.196 546.202 378.855 579.364 384.447 591.277C396.6 617.176 393.011 626.303 383.833 652.006C358.202 656.005 371.063 662.653 363.086 671.89C359.712 673.888 355.478 673.294 351.665 673.273L341.937 669.725C347.131 657.183 352.952 644.29 356.396 631.143C357.979 625.098 358.656 619.13 357.669 612.896C354.541 593.146 334.072 562.328 323.403 544.256C332.815 543.379 341.725 542.079 350.738 539.139Z" fill="#F9F6F2"/>
<path d="M435.7 483.28L437.45 483.193C439.55 487.261 437.58 498.499 437.36 503.48C383.313 514.13 328.94 523.491 274.749 533.399C273.716 526.914 272.084 520.657 270.408 514.314C325.354 503.313 380.622 493.634 435.7 483.28Z" fill="#F9F6F2"/>
<path d="M500.88 284.218C515.72 289.302 532.7 299.088 544.7 308.938C553.86 316.46 562.14 326.244 562.96 338.592C564.01 354.186 554.09 367.794 544.58 379.073L542.19 381.197C541.5 381.111 540.76 381.225 540.13 380.941C536.28 379.205 531.5 372.607 527.87 369.719C525.29 367.67 522.15 366.138 519.26 364.59C522.39 361.189 525.85 357.76 528.54 354.005C531.56 349.787 533.95 344.53 532.81 339.241C530.49 328.446 512.99 320.028 504.4 314.62C500.57 304.298 499.88 295.11 500.88 284.218Z" fill="#F9F6F2"/>
<path d="M175.774 616.135C201.652 604.244 192.321 591.353 200.862 585.724C213.013 587.626 211.589 581.238 223.16 581.151C227.669 581.118 230.887 587.686 229.914 592.277C221.849 594.964 221.966 589.242 215.574 591.797C212.966 594.995 212.588 597.601 211.453 601.576C211.771 607.277 212.162 619.425 214.828 624.327C217.973 623.947 220.841 623.048 223.533 624.144C230.665 628.272 233.618 633.083 239.87 638.563L239.463 640.223C227.483 648.593 210.522 621.413 200.679 634.615C198.863 642.089 202.892 658.197 204.576 666.287C203.218 668.523 192.477 670.606 189.249 671.396C182.554 653.584 178.03 635.03 175.774 616.135Z" fill="#207FD5"/>
<path d="M223.533 624.144C215.46 625.926 216.802 627.181 210.457 629.613L209.872 628.312C214.386 618.133 207.881 616.995 211.453 601.576C211.771 607.277 212.162 619.425 214.828 624.327C217.973 623.947 220.841 623.048 223.533 624.144Z" fill="#000513"/>
<path d="M324.138 685.599C330.179 676.926 326.671 679.491 325.742 670.172C325.286 665.606 331.378 660.454 336.209 660.844C340.767 665.337 336.388 669.017 340.255 675.008C347.376 680.536 359.021 678.919 367.601 677.884C378.255 689.147 368.6 684.282 371.429 697.335C380.985 695.581 391.186 695.225 399.821 700.456L400.721 701.824C399.011 708.945 398.851 711.355 398.481 718.73C381.996 719.334 367.288 718.394 350.888 716.867C346.908 700.031 339.527 692.567 324.138 685.599Z" fill="#207FD5"/>
<path d="M371.429 697.335C380.985 695.581 391.186 695.225 399.821 700.456L400.721 701.824C397.981 702.461 373.926 698.451 371.429 697.335Z" fill="#000513"/>
<path d="M422.66 682.968C428.75 682.53 433.91 683 439.56 685.501C449.66 689.973 453.88 698.651 457.54 708.368C450.88 710.816 443.89 712.366 437.01 714.097C425.99 715.999 414.95 717.123 403.83 718.214C404.06 714.604 404.32 711.011 405.09 707.468C407.49 696.431 413.29 688.923 422.66 682.968Z" fill="#F9F6F2"/>
<path d="M211.187 672.392C218.362 672.363 224.882 673.655 231.748 675.636C234.568 683.989 235.507 693.042 232.296 701.451C229.345 709.18 223.742 713.702 216.428 717.072C204.753 711.88 196.033 687.191 190.964 675.999C197.744 674.309 204.227 673.037 211.187 672.392Z" fill="#F9F6F2"/>
<path d="M167.019 584.848C169.366 588.066 169.005 606.387 169.52 611.733C170.578 622.711 172.037 633.749 174.919 644.41C180.394 665.441 188.416 685.724 198.808 704.811C201.81 710.317 206.611 714.463 209.222 720.071L208.604 721.627L204.784 722.546C193.226 715.344 184.658 697.331 179.303 685.241C171.423 667.45 152.858 606.019 160.828 589.085C162.221 586.125 164.184 585.896 167.019 584.848Z" fill="#F9F6F2"/>
<path d="M456.97 714.087C458.24 713.862 458.3 714.24 459.34 714.908L459.74 717.996C458.63 720.855 458.23 721.764 455.47 723.177C426.55 737.967 350.012 733.436 319.082 724.347C318.467 723.808 317.502 723.023 317.069 722.349C315.847 720.448 315.959 719.62 316.694 717.731C321.977 715.138 350.506 722.303 358.439 723.143C389.995 726.486 426.92 723.933 456.97 714.087Z" fill="#F9F6F2"/>
<path d="M322.34 691.166C326.703 692.575 330.219 694.723 333.544 697.869C337.87 701.962 343.982 708.139 344.171 714.392L342.495 715.614C334.544 714.054 326.63 712.166 318.713 710.436C319.495 703.876 320.818 697.592 322.34 691.166Z" fill="#F9F6F2"/>
<path d="M384.744 657.178C387.216 656.966 388.979 657.393 391.315 658.055C392.866 659.613 393.578 660.031 393.43 662.412C393.199 666.156 388.86 670.406 386.03 672.449C383.155 674.525 380.687 676.82 378.116 679.249C376.938 678.779 376.643 678.716 375.464 677.953C372.728 676.183 370.537 672.924 370.015 669.729C369.587 667.116 371.109 664.157 372.643 662.157C375.769 658.082 380.024 657.902 384.744 657.178Z" fill="#2479CC"/>
<path d="M178.602 584.485L193.791 584.507C191.227 592.886 188.739 598.93 183.02 605.641C182.171 606.322 181.684 606.738 180.738 607.369C178.909 608.587 178.043 609.073 175.908 608.544C171.775 602.008 173.398 593.383 173.864 586.008C175.395 584.433 176.502 584.735 178.602 584.485Z" fill="#F9F6F2"/>
<path d="M204.908 636.532C206.11 636.587 207.261 636.641 208.442 636.886C215.89 638.435 226.239 643.71 230.407 650.179C228.412 649.76 226.513 649.253 224.587 648.589C216.905 645.941 208.723 644.29 204.908 636.532Z" fill="#F9F6F2"/>
<path d="M205.327 648.8C209.979 648.891 215.168 650.504 219.563 651.982C224.496 653.642 229.533 655.282 231.975 660.152C231.486 660.087 230.993 660.043 230.506 659.956C225.242 659.018 211.895 656.168 207.844 652.611C206.958 651.834 206.015 649.841 205.327 648.8Z" fill="#F9F6F2"/>
<path d="M208.695 660.613C214.733 660.948 223.224 662.157 228.534 665.091C231.138 666.53 231.011 667.111 231.851 669.846C226.041 668.349 219.761 668.276 214.08 666.503C211.026 665.55 210.221 663.165 208.695 660.613Z" fill="#F9F6F2"/>
<path d="M393.408 674.699L394.64 675.192C394.84 677.361 381.5 691.309 379.313 693.977L377.824 693.241C377.055 691.77 376.807 691.977 377.305 690.2C379.115 683.737 387.816 677.853 393.408 674.699Z" fill="#F7F2EA"/>
<path d="M412.291 679.529L414.921 679.802L415.151 680.686C410.481 685.332 406.021 689.777 402.461 695.36L401.701 696.578C400.491 696.425 399.471 696.075 398.311 695.706L398.341 693.658C401.501 687.77 407.141 683.626 412.291 679.529Z" fill="#F7F2EA"/>
<path d="M402.56 677.634L403.86 678.332C399.86 684.206 394.055 691.375 389.213 696.512L387.349 694.897C387.344 694.557 387.291 694.215 387.334 693.877C388.122 687.701 397.79 681.026 402.56 677.634Z" fill="#F7F2EA"/>
<path d="M116.367 320.511C114.332 316.471 110.194 239.259 110.515 229.461C107.586 226.227 108.75 222.645 109.164 218.345C114.396 219.394 125.781 232.29 127.181 232.275C130.199 232.243 129.379 229.673 133.486 232.892C141.356 239.059 166.16 237.468 176.522 236.243C179.059 258.966 179.803 282.645 181.603 305.502C185.404 353.787 187.555 402.978 191.605 451.158C187.307 452.193 183.517 453.704 179.528 452.35C177.932 450.544 177.679 450.367 176.563 448.267C172.36 442.165 169.576 439.503 163.788 435.157C151.108 427.222 150.292 429.314 136.96 425.822L136.394 425.033L134.775 424.85C131.158 421.412 126.981 420.354 122.296 416.153C115.006 387.675 137.853 362.114 148.261 338.706C155.6 322.201 133.778 310.041 116.367 320.511Z" fill="#2669B2"/>
<path d="M161.154 334.23C161.423 334.732 158.147 314.166 158.026 312.544C156.305 289.488 152.755 265.54 153.766 242.548C153.877 240.024 171.057 239.154 173.756 239.857C178.337 247.068 185.347 425.159 188.608 446.534C188.773 447.621 187.225 449.667 186.441 450.478C181.996 452.119 180.133 450.94 176.563 448.267C172.36 442.165 169.576 439.503 163.788 435.157L163.617 430.148C161.713 428.994 162.341 429.829 161.43 427.863L163.741 427.458L167.105 426.593L166.65 422.842C169.949 415.464 166.792 406.52 165.95 399.1L165.796 397.64L166.143 395.985C166.945 390.258 165.144 378.494 163.777 372.727L163.342 371.646C162.183 369.894 162.571 369.95 162.293 367.515C161.441 360.477 162.833 347.364 158.616 342.802L160.645 340.742L160.951 339.944L161.154 334.23Z" fill="#207FD5"/>
<path d="M163.618 430.148C161.714 428.994 162.342 429.829 161.431 427.863L163.742 427.458L167.106 426.593L165.642 431.652C163.96 431.101 164.636 431.601 163.618 430.148Z" fill="#287BCA"/>
<path d="M151.45 356.339C149.932 354.801 150.395 355.433 149.533 353.452L151.87 351.632C149.493 340.289 153.298 340.529 161.154 334.23L160.951 339.944L160.645 340.742L158.616 342.802C162.833 347.364 161.441 360.477 162.293 367.515C162.571 369.95 162.183 369.894 163.342 371.646L163.777 372.727C162.432 373.436 161.324 374.323 160.17 375.309C157.774 374.961 156.316 375.038 154.558 373.415C152.889 366.957 158.029 370.435 160.215 362.64C158.195 362.959 158.136 363.962 156.431 366.175L154.986 366.043L153.345 363.525C156.194 361.247 155.245 362.654 156.287 359.152C152.751 358.38 154.398 359.115 151.45 356.339Z" fill="#2381D6"/>
<path d="M151.45 356.339L154.062 353.785C157.668 354.627 156.252 353.738 158.614 356.27L158.808 358.247L156.287 359.152C152.751 358.38 154.398 359.115 151.45 356.339Z" fill="#2B78C6"/>
<path d="M157.279 344.097C158.266 346.046 158.08 345.278 157.982 347.459L154.976 348.248L153.182 347.982C154.268 345.563 154.734 345.863 157.279 344.097Z" fill="#2B78C6"/>
<path d="M163.342 371.646C162.789 371.311 161.98 370.466 161.468 369.983L162.293 367.515C162.571 369.95 162.183 369.894 163.342 371.646Z" fill="#2479CC"/>
<path d="M157.988 395.064L159.037 396.116C160.661 398.481 160.561 399.172 161.112 401.978L159.952 403.704C155.671 404.093 149.513 402.541 149.027 397.651C151.395 397.497 152.625 397.205 154.85 398.205L157.988 395.064Z" fill="#2381D6"/>
<path d="M157.988 395.064L157.443 393.823C161.121 392.947 160.921 392.984 164.635 393.816L166.143 395.985L165.796 397.64C164.418 398.367 165.191 398.04 163.445 398.549L159.037 396.116L157.988 395.064Z" fill="#2B78C6"/>
<path d="M163.741 427.458C163.868 424.744 162.495 422.538 161.523 419.891C163.945 419.879 164.205 420.87 166.65 422.842L167.105 426.593L163.741 427.458Z" fill="#2381D6"/>
<path d="M145.573 304.152C149.198 303.205 147.525 303.058 150.779 304.211C154.131 309.321 159.203 320.768 153.157 325.337L151.697 324.568C151.406 319.901 152.438 312.348 150.396 309.386C147.664 307.584 149.073 307.87 146.151 308.052C145.415 308.534 145.957 308.221 144.386 308.694L144.57 308.405C143.646 306.919 143.963 307.791 143.855 305.713L145.573 304.152Z" fill="#2B78C6"/>
<path d="M146.151 308.052C145.415 308.534 145.957 308.221 144.386 308.694L144.57 308.405C143.646 306.919 143.963 307.791 143.855 305.713L145.573 304.152L146.151 308.052Z" fill="#2479CC"/>
<path d="M145.656 267.426C142.54 265.841 140.912 261.389 137.125 260.232L136.562 258.599L137.964 257.212C143.959 258.792 140.964 261.675 145.94 262.537L147.886 260.194L151.219 261.695C152.996 265.179 153.044 263.631 152.373 266.521C151.545 268.443 151.285 268.676 150.023 270.377C148.49 268.902 147.558 268.386 145.656 267.426Z" fill="#2381D6"/>
<path d="M145.656 267.426L148.325 264.115C151.191 264.307 149.774 263.905 152.373 266.521C151.545 268.443 151.284 268.676 150.022 270.377C148.489 268.902 147.558 268.386 145.656 267.426Z" fill="#2B78C6"/>
<path d="M146.265 295.148C145.155 295.366 145.91 295.296 144.015 294.819C145.09 290.92 141.936 290.744 145.19 285.282C146.999 289.042 147.181 289.643 149.876 292.719L151.333 292.779L152.256 291.874C153.364 293.41 153.091 292.62 153.306 294.152L152.465 296.393L147.947 299.866C145.193 298.877 146.298 299.669 144.46 297.477L146.265 295.148Z" fill="#2381D6"/>
<path d="M146.265 295.148L148.545 294.864C148.358 296.532 148.159 298.2 147.947 299.866C145.193 298.877 146.298 299.669 144.46 297.477L146.265 295.148Z" fill="#2B78C6"/>
<path d="M158.243 418.455C155.789 416.466 154.991 417.723 153.209 414.042C151.357 413.239 151.446 413.346 150.128 411.831C154.179 411.424 154.57 411.499 158.16 409.782C159.43 407.49 159.294 407.132 161.507 405.91L163.227 406.904C163.023 409.608 160.594 412.836 158.221 413.879L159.133 415.617L160.742 417.637L160.369 419.813L158.928 419.814L158.243 418.455Z" fill="#2381D6"/>
<path d="M144.953 271.106L145.584 271.036C147.091 272.584 145.631 273.446 146.292 275.758C146.523 276.566 147.072 278.201 147.127 279.045C147.293 281.578 146.022 282.283 144.378 283.89L141.361 283.604C141.8 282.845 142.83 281.357 143.058 280.436C143.676 277.94 139.236 274.053 137.863 271.871L139.17 270.91C140.116 271.347 140.999 271.789 141.893 272.331C142.154 272.489 142.412 272.654 142.672 272.816L144.953 271.106Z" fill="#2381D6"/>
<path d="M145.418 372.625C148.177 372.688 150.868 372.386 153.211 374.058C152.855 376.709 152.236 377.343 150.693 379.454L148.957 379.97C146.905 378.646 145.979 376.933 144.619 374.953L145.418 372.625Z" fill="#2381D6"/>
<path d="M136.867 244.109C138.851 245.212 141.121 246.089 142.229 248.167C141.895 251.405 141.133 251.572 138.866 253.77L137.44 253.217C135.356 251.456 134.258 250.96 133.466 248.301L138.184 249.127L138.974 248.051L136.867 244.109Z" fill="#2B78C6"/>
<path d="M146.456 253.988L149.055 252.684C151.458 255.036 150.578 255.755 152.591 258.2L151.219 261.695L147.886 260.194L147.425 256.559L146.476 256.297L146.456 253.988Z" fill="#2381D6"/>
<path d="M147.425 256.559C150.876 258.586 149.153 258.31 152.591 258.2L151.219 261.695L147.886 260.194L147.425 256.559Z" fill="#2B78C6"/>
<path d="M128.72 275.549L130.322 274.746C131.804 275.43 132.693 276.309 133.902 277.386L133.031 278.804C131.152 278.998 128.887 278.241 127.429 277.099L128.72 275.549Z" fill="#2381D6"/>
<path d="M126.252 285.544L127.541 284.774C128.983 285.448 129.939 286.434 131.125 287.48L131.088 288.952C130.472 289.711 129.839 290.058 129.023 290.577C127.887 288.895 126.868 287.497 126.252 285.544Z" fill="#2B78C6"/>
<path d="M146.476 256.297L144.756 256.363C142.463 254.136 143.023 255.454 142.965 252.305L144.382 251.041L145.845 251.662L145.437 252.773L146.456 253.988L146.476 256.297Z" fill="#2479CC"/>
<path d="M145.005 371.131C144.407 371.523 143.187 371.951 142.469 372.242C140.944 370.299 141.361 370.084 140.912 367.305L142.692 366.23L145.005 371.131Z" fill="#2479CC"/>
<path d="M142.692 366.23C146.54 366.214 145.152 365.496 147.455 367.436C146.55 370.255 147.286 369.033 145.005 371.131L142.692 366.23Z" fill="#2381D6"/>
<path d="M136.688 275.973C138.378 276.488 139.509 276.981 140.934 278.031L139.269 279.458C138.24 279.16 137.275 278.184 136.422 277.535L136.688 275.973Z" fill="#2381D6"/>
<path d="M153.306 294.152C155.841 296.394 154.99 294.963 155.286 298.941L154.176 299.954C152.672 298.502 152.853 298.49 152.465 296.393L153.306 294.152Z" fill="#2479CC"/>
<path d="M156.898 387.325L158.151 387.407L159.011 389.28L157.87 391.136C157.106 390.609 156.707 389.634 156.229 388.846L156.898 387.325Z" fill="#2479CC"/>
<path d="M150.272 404.362C150.987 403.971 151.873 403.802 152.656 403.571L151.945 405.797L150.26 406.436L150.272 404.362Z" fill="#2381D6"/>
<path d="M188.511 145.58C205.502 143.006 222.522 140.634 239.57 138.465C239.911 171.084 235.569 188.498 205.872 204.412C205.921 232.346 209.88 275.246 211.856 303.964L224.572 482.725C250.652 488.615 259.181 498.581 267.625 523.384L269.655 534.034L246.309 538.68C238.194 539.519 224.085 542.414 215.47 543.847C213.726 529.752 212.951 510.882 211.943 496.454L205.82 406.75L188.511 145.58Z" fill="#207FD5"/>
<path d="M116.368 320.511C133.779 310.041 155.601 322.201 148.262 338.706C137.854 362.114 115.007 387.675 122.297 416.153C126.982 420.354 131.159 421.412 134.776 424.85L136.395 425.033L136.961 425.822C135.254 427.052 134.227 427.738 132.687 429.188L133.517 430.883L136.01 431.459C133.427 431.538 131.687 431.711 129.116 431.217L129.356 429.631C129.621 427.809 129.654 428.508 129.514 427.361C113.293 418.157 97.9816 434.11 91.1156 447.701L90.6606 448.623C87.0966 451.256 88.5206 450.902 84.4646 451.432C81.2296 450.168 80.7116 449.07 78.5356 446.394C77.5486 444.576 56.9766 428.931 52.0066 422.065C25.3206 385.197 88.6426 345.473 114.631 327.709C116.998 323.325 116.761 325.145 116.368 320.511Z" fill="#F9F6F2"/>
<path d="M116.367 320.511C133.778 310.041 155.6 322.201 148.261 338.706C137.853 362.114 115.006 387.675 122.296 416.153C126.981 420.354 131.158 421.412 134.775 424.85L136.394 425.033L136.96 425.822C135.253 427.052 134.226 427.738 132.686 429.188L133.516 430.883L136.009 431.459C133.426 431.538 131.686 431.711 129.115 431.217L129.355 429.631C129.62 427.809 129.653 428.508 129.513 427.361C113.292 418.157 97.9808 434.11 91.1148 447.701L90.6598 448.623C87.0958 451.256 88.5198 450.902 84.4638 451.432C81.2288 450.168 80.7108 449.07 78.5348 446.394C80.1678 447.139 81.4138 447.621 83.0818 448.265C86.9358 446.073 90.7838 435.791 94.3428 431.95C97.1738 428.895 98.6988 427.709 101.969 425.186C94.2098 420.226 82.6008 413.099 79.4478 405.079C69.1978 379.009 133.522 355.102 142.681 337.464C143.81 334.53 143.587 330.685 142.131 328.025C135.237 315.431 123.652 322.549 114.63 327.709C116.997 323.325 116.76 325.145 116.367 320.511Z" fill="#030303"/>
<path d="M256.007 118.041C224.353 125.577 186.723 126.83 154.498 133.343C148.26 134.604 133.607 137.366 128.694 133.135C130.633 127.903 144.608 129.369 150.135 127.841C170.067 122.33 224.87 120.586 241.218 112.082L241.201 110.796C231.685 108.246 141.457 127.152 121.297 125.98L119.929 124.257C126.129 117.628 153.576 116.214 163.789 114.676L303.346 93.6771C331.082 89.1451 358.859 84.8591 386.672 80.8201C395.38 79.5601 417.1 73.8581 422.88 80.3891C421.9 86.0081 277.498 100.611 272.665 106.356L274.039 107.738C279.404 109.524 284.994 107.819 291.005 106.959C335.058 98.8951 386.286 92.1701 430.95 85.7531C432.88 87.3471 435.21 89.3881 437.2 90.7931L437.92 93.4101C440.66 94.5161 441.58 94.2851 444.49 94.1841L445.34 95.5141C448.39 97.2321 449.98 98.2951 453.3 99.3111C450.62 103.542 229.634 133.98 205.947 137.182C198.652 138.168 172.371 145.174 165.713 144.824C163.093 143.53 161.02 142.624 158.315 141.517L158.301 140.269C160.46 139.131 162.614 137.981 164.76 136.819C169.185 135.284 184.536 133.804 189.387 132.853C204.906 129.811 292.38 119.521 301.29 114.742L301.475 113.506C295.429 110.215 266.904 117.207 256.962 117.976L256.007 118.041Z" fill="#2479CC"/>
<path d="M437.2 90.793L437.92 93.41C440.66 94.516 441.58 94.285 444.49 94.184L445.34 95.514L381.427 104.692C372.4 105.996 352.893 109.301 344.669 108.763L344.219 107.336C358.053 98.644 416.84 98.223 437.2 90.793Z" fill="#000513"/>
<path d="M173.55 153.346C176.955 151.879 180.707 150.155 184.115 148.807C188.807 226.652 193.918 304.472 199.449 382.262L205.953 479.597C207.297 499.182 208.732 518.915 209.927 538.52C210.168 542.467 210.394 543.258 208.454 545.944L207.643 546.073C194.97 548.225 197.02 551.156 181.939 549.936L181.278 549.424C171.715 541.819 174.993 538.101 174.79 526.38C174.682 520.129 174.806 503.391 171.12 498.847C173.198 491.735 174.454 490.873 178.462 485.011C181.154 484.113 189.943 482.53 193.156 481.881C193.866 493.278 194.892 528.623 199.242 536.6L200.461 536.355C203.274 526.258 199.159 494.825 198.348 482.628C193.492 406.023 188.187 329.447 182.433 252.904C180.915 230.673 179.91 194.245 176.791 170.879C176.652 169.837 176.083 169.955 174.785 169.636C171.696 173.642 173.978 198.724 174.32 205.445C164.238 206.552 157.979 207.067 147.917 206.064C149.557 204.42 149.096 205.006 150.203 203.022L148.475 199.958C147.73 199.095 146.369 196.996 146.669 196.06C148.001 191.908 146.705 165.45 147.583 163.406C150.338 156.998 167.21 160.475 173.55 153.346Z" fill="#207FD5"/>
<path d="M90.6604 448.623L91.1154 447.701C97.9814 434.11 113.292 418.157 129.513 427.361C122.078 431.716 118.426 432.934 114.785 440.738C120.48 439.489 122.517 437.245 127.444 434.975C135.979 431.043 148.069 432.892 156.141 437.238C166.161 442.734 173.474 452.114 176.362 463.172C177.434 467.419 177.411 470.715 177.389 474.999C175.961 478.66 176.483 479.044 173.869 481.141C167.946 478.456 171.518 469.497 159.6 466.196C166.055 484.212 176.153 490.483 155.757 506.84L154.439 508.368L152.101 508.069L150.867 506.431C148.957 510.572 144.721 514.649 140.136 515.444L139.42 515.887C124.894 521.775 101.529 515.547 101.83 498.066C103.652 494.653 102.34 495.869 105.94 494.333C110.119 494.57 112.947 497.145 116.57 499.575C117.728 503.384 117.886 505.481 120.883 507.659C123.197 505.953 122.672 505.186 123.608 501.592C125.737 500.434 125.773 500.61 127.012 498.578C126.383 497.43 111.864 489.039 108.686 486.778C95.8154 477.622 109.325 459.654 103.33 455.052C99.3084 457.369 98.5714 464.36 93.5314 468.969L91.8874 468.765C87.9314 463.218 89.4634 454.748 90.6604 448.623Z" fill="#207FD5"/>
<path d="M114.785 440.738C120.48 439.489 122.517 437.245 127.444 434.975C135.979 431.043 148.069 432.892 156.141 437.238C166.161 442.734 173.474 452.114 176.362 463.172C177.434 467.419 177.411 470.715 177.389 474.999C175.961 478.66 176.483 479.044 173.869 481.141C167.946 478.456 171.518 469.497 159.6 466.196C168.141 462.854 168.272 470.408 173.017 474.89C180.418 464.713 169.392 449.968 161.525 443.777C148.927 433.863 133.434 432.143 120.286 441.449C118.332 442.832 116.557 441.613 114.785 440.738Z" fill="#2B78C6"/>
<path d="M140.136 515.444L140.411 515.164C152.994 502.564 145.444 498.515 144.316 485.054L145.411 483.768L147.721 484.075C153.511 489.128 150.327 498.275 153.515 506.091L155.757 506.84L154.439 508.368L152.101 508.069L150.867 506.431C148.957 510.572 144.721 514.649 140.136 515.444Z" fill="#000513"/>
<path d="M417.63 111.84C436.7 108.348 460.1 106.178 478.54 102.103C479.01 115.277 479.27 129.27 480.43 142.321C480.29 151.395 480.99 161.805 481.39 170.966C443.97 168.729 424.28 148.288 417.63 111.84Z" fill="#207FD5"/>
<path d="M147.917 206.064C141.093 203.993 135.053 202.34 128.696 199.14C102.424 185.91 106.204 180.476 104.966 153.371C104.839 150.59 105.23 145.223 104.175 142.852C103.148 140.545 103.647 142.753 103.588 140.068C107.355 140.245 113.36 146.509 117.653 148.765C137.455 159.169 153.048 158.655 173.55 153.346C167.21 160.475 150.338 156.998 147.583 163.406C146.705 165.45 148.001 191.908 146.669 196.06C146.369 196.996 147.73 199.095 148.475 199.958L150.203 203.022C149.096 205.006 149.557 204.42 147.917 206.064Z" fill="#2669B2"/>
<path d="M139.487 172.731C140.431 173.42 141.318 174.344 142.184 175.135L141.998 177.464C140.339 179.695 140.193 179.704 137.511 180.49L134.801 178.682L133.179 176.759L133.369 174.866C134.713 175.07 135.882 175.202 137.12 175.807C138.364 176.414 137.358 176.322 139.246 175.837L139.487 172.731Z" fill="#2381D6"/>
<path d="M132.122 184.152L134.399 184.184L135.168 187.277L133.75 189.402L131.011 188.583C130.98 189.551 131.062 188.877 130.236 190.468L128.503 190.396C128.41 187.304 130.137 186.338 132.122 184.152Z" fill="#2B78C6"/>
<path d="M142.479 140.306C149.865 138.898 157.297 137.735 164.76 136.819C162.614 137.981 160.461 139.131 158.302 140.269L158.315 141.517C161.02 142.624 163.094 143.53 165.714 144.824C157.221 144.534 150.618 142.563 142.479 140.306Z" fill="#2B78C6"/>
<path d="M135.192 149.783C125.05 148.045 106.586 137.279 104.385 127.183C96.9824 93.226 143.184 92.602 162.473 89.437C191.891 84.477 221.372 79.899 250.908 75.704L356.224 59.528C366.185 57.946 415.16 47.828 421.28 51.447C425.07 57.985 424.72 67.152 425.07 74.849C418.98 70.283 414.09 65.886 408.44 60.845C385.86 65.266 355.26 68.972 332.122 72.497L193.828 93.686C177.207 96.17 160.605 98.285 143.877 100.612C133.569 101.772 118.966 104.371 115.94 116.602C110.761 137.542 139.601 145.436 153.41 148.541C158.264 149.108 161.234 149.439 166.056 150.662C154.204 152.882 146.906 153.863 135.192 149.783Z" fill="#2479CC"/>
<path d="M153.41 148.541C158.264 149.108 161.234 149.439 166.056 150.662C154.204 152.882 146.906 153.863 135.192 149.783C141.731 149.91 147.365 151.285 153.646 150.328L153.41 148.541Z" fill="#2669B2"/>
<path d="M408.051 113.338C409.941 112.976 410.691 112.935 412.441 113.765C414.721 119.191 415.521 125.712 417.161 131.455C362.704 140.139 308.187 148.413 253.61 156.279L245.377 157.484L245.352 137.405L408.051 113.338Z" fill="#F9F6F2"/>
<path d="M400.981 67.2941C402.191 67.0551 403.741 66.6501 404.971 66.7611C407.551 66.9941 408.941 68.241 410.731 69.888L410.631 71.4081C405.021 75.2871 164.039 109.896 132.69 114.79C129.376 115.283 126.058 116.145 123.138 114.269L124.094 112.373C126.962 110.366 129.496 108.925 132.91 108.069C143.462 105.423 154.766 104.28 165.52 102.658L220.69 94.359C280.736 84.992 340.835 75.9701 400.981 67.2941Z" fill="#2479CC"/>
<path d="M107.115 191.404L107.918 192.031C129.297 208.655 148.06 214.037 174.994 210.696L175.861 230.525C169.907 232.153 163.498 232.482 157.356 232.112C136.888 230.882 121.33 222.841 107.911 207.656L107.115 191.404Z" fill="#F9F6F2"/>
<path d="M186.894 456.506C188.204 456.592 189.286 456.899 190.548 457.24C191.164 458.707 191.743 460.188 192.164 461.724C193.26 465.722 193.578 472.472 191.197 476.103C190.303 477.466 187.293 477.846 185.746 478.305C184.154 478.276 185.049 478.422 183.127 477.571C182.518 471.879 181.089 463.692 183.062 458.26L186.894 456.506Z" fill="#F9F6F2"/>
</svg>
