<svg width="608" height="784" viewBox="0 0 608 784" fill="none" xmlns="http://www.w3.org/2000/svg">
<path d="M109.618 328.194L101.426 195.07C100.176 174.29 93.2702 127.351 103.392 108.604C111.631 93.3437 133.942 92.0507 149.83 89.6617L207.543 80.8216C272.844 70.7106 338.112 60.4526 403.37 50.0876C407.433 49.4426 416.002 48.7646 420.021 49.0796C430.057 49.8656 429.185 75.5416 429.543 82.3266C439.703 90.0656 451.512 98.7116 464.194 101.823C470.856 103.457 475.363 98.2207 482.066 102.718C483.996 110.262 485.13 151.248 485.551 161.178L490.752 277.134C511.293 285.953 531.342 295.503 548.757 309.738C582.32 337.172 566.721 365.605 543.181 392.39C546.45 406.289 544.777 409.632 534.314 418.11C534.886 425.891 534.259 428.861 532.64 436.624C541.722 442.742 544.203 451.79 537.439 461.021C527.983 473.926 516.339 479.253 500.381 477.414C501.178 490.63 505.736 500.829 489.74 502.131C458.913 509.32 426.07 514.669 394.874 520.495C390.23 544.04 383.395 566.73 366.096 584.423C372.84 594.092 379.716 603.667 386.724 613.147C407.922 605.959 403.852 618.694 410.893 618.82C416.711 615.052 424.412 609.824 430.428 606.519C438.057 591.762 441.869 589.048 456.048 582.399C470.268 575.73 504.979 587.611 508.443 602.504C514.911 630.311 481.115 671.678 462.694 689.583C443.984 707.77 426.519 723.458 402.449 732.573C386.573 738.115 386.129 726.607 381.16 718.071C375.483 708.319 366.073 700.027 363.733 687.807C363.432 686.618 363.137 684.048 362.997 682.741C353.835 675.161 345.656 662.001 355.193 651.361C357.563 647.306 337.261 618.575 333.548 612.837C313.77 623.304 302.919 627.41 280.214 628.79C278.875 644.167 270.891 637.497 266.25 650.043C265.465 652.165 266.587 658.849 267.32 659.083C280.557 663.31 288.768 661.981 297.309 675.919C302.108 683.75 306.501 700.325 304.088 709.511C303.077 713.357 298.992 718.465 295.116 719.721C270.387 727.731 233.62 727.026 208.888 720.322C200.822 718.136 193.719 712.785 190.359 705.221C175.881 672.63 173.377 624.768 181.846 589.732C182.752 585.982 186.097 580.659 190.023 579.187C202.36 574.563 220.114 574.459 233.394 573.798C236.328 573.652 240.474 574.923 243.526 574.86C248.864 574.75 255.981 570.793 260.849 573.169C266.259 575.81 268.196 581.723 269.99 586.833C287.418 586.226 293.854 584.358 310.125 577.759C303.309 568.469 290.489 547.96 283.435 540.963C277.74 542.053 272.027 543.042 266.297 543.932C252.061 548.011 232.401 549.585 217.651 552.287C207.166 554.208 195.328 560.334 184.924 559.243C165.219 557.177 146.059 547.308 133.144 532.578C128.261 525.703 123.739 526.851 115.642 525.95C109.49 523.253 102.497 519.009 98.3462 513.531C91.7062 504.769 98.9422 499.069 100.449 490.143C96.2092 479.769 98.1572 481.021 88.5112 476.097C85.0892 474.35 83.6442 470.244 82.9522 466.569C82.8972 465.019 82.9592 460.669 81.8531 459.733C64.7787 445.684 32.9755 425.871 39.996 399.195C47.3009 371.438 86.6532 343.242 109.618 328.194Z" fill="#030303"/>
<path d="M244.533 165.842C272.27 162.9 300.424 157.969 327.987 153.588L418.434 139.682C429.367 160.339 436.469 165.394 456.145 176.972C458.091 178.117 458.235 185.29 458.439 187.783C458.595 220.682 461.516 261.404 463.398 294.427L470.294 435.194C452.448 448.578 445.075 459.551 438.957 480.932L268.723 512.971C262.005 499.897 253.601 488.869 239.033 483.9C237.889 483.517 236.73 483.178 235.56 482.884C233.449 482.172 232.181 481.637 230.169 480.759C227.87 474.72 225.436 421.6 224.836 412.798L211.302 210.896C231.809 200.324 239.269 187.9 244.533 165.842Z" fill="#F9F6F2"/>
<path d="M375.92 210.764C386.819 209.514 396.061 210.58 405.231 217.202C418.537 226.81 426.167 243.404 428.633 259.265C431.218 275.895 427.985 293.784 417.817 307.446C410.023 317.919 400.704 322.623 387.914 324.603C387.826 324.729 387.736 324.853 387.65 324.98C386.726 326.353 385.814 327.728 384.809 329.043C381.261 333.687 374.738 337.596 368.971 338.361C366.363 337.464 366.085 337.476 364.526 335.239C368.583 330.404 377.119 331.237 380.994 324.894C382.403 322.587 382.44 320.058 381.72 317.529C380.852 314.479 379.516 312.409 376.649 310.954C370.289 310.398 365.843 316.047 360.807 319.092C358.493 320.492 357.5 320.873 354.916 320.136L354.421 318.416L357.724 313.915C357.02 310.69 353.849 308.049 351.665 305.592C347.058 316.301 342.689 323.82 333.223 330.973C326.253 335.164 319.283 335.62 311.643 337.694C310.846 339.127 310.122 340.177 308.963 341.338C302.26 338.292 302.346 324.558 287.201 320.125C277.435 317.267 268.409 324.731 259.967 322.365L259.684 320.615C262.258 316.224 269.308 314.814 274.01 313.565C266.832 300.354 263.514 286.341 264.858 271.264C266.211 256.076 272.369 241.34 284.263 231.433C292.213 224.811 302.247 221 312.697 222.211C326.125 223.766 335.501 232.204 343.48 242.325C344.393 240.221 345.364 238.142 346.393 236.093C352.793 223.57 362.531 215.01 375.92 210.764Z" fill="#F9F6F2"/>
<path d="M304.024 227.707C310.191 227.342 316.436 228.12 322.115 230.643C337.18 237.337 342.816 252.079 348.059 266.446C334.969 268.453 321.846 270.236 308.695 271.794C295.849 273.404 283.016 275.105 270.195 276.899C270.584 266.774 272.519 256.739 277.44 247.779C283.464 236.81 292.284 231.052 304.024 227.707Z" fill="#F9F6F2"/>
<path d="M378.997 215.56C385.611 215.173 391.579 216.012 397.551 219.046C411.565 226.167 417.811 240.31 422.139 254.535L387.426 260.287C376.183 262.186 364.926 263.998 353.655 265.722C351.941 259.917 349.641 254.213 347.572 248.521C348.652 244.851 350.047 240.965 351.804 237.554C357.58 226.342 367.199 219.396 378.997 215.56Z" fill="#F9F6F2"/>
<path d="M347.894 271.893C348.714 272.482 349.123 273.304 349.365 274.299C352.557 287.468 346.541 307.476 338.395 317.959C330.554 328.051 321.953 331.096 309.751 332.625C308.731 330.929 307.642 329.275 306.485 327.669C299.949 318.621 290.736 314.9 280.179 313.04C276.278 306.238 273.673 299.487 271.842 291.872C271.425 289.827 270.641 287.07 271.338 285.06C272.219 282.519 273.763 281.093 276.066 280.032C281.238 282.068 283.383 294.757 286.016 299.66C288.529 304.341 292.658 310.155 298.154 311.489C303.111 312.692 308.456 310.175 312.503 307.522C319.891 302.678 320.841 296.458 322.52 288.362C317.721 287.185 312.784 286.48 307.917 285.633C312.016 282.635 315.766 279.145 319.587 275.803L347.894 271.893Z" fill="#F9F6F2"/>
<path d="M382.37 274.926C398.421 261.484 403.427 262.676 423.532 259.566C424.602 280.501 419.734 313.467 392.576 317.795C390.799 318.078 389.451 317.761 387.926 316.792C380.829 303.825 376.491 302.299 362.33 309.849C359.472 306.285 356.004 302.216 353.529 298.45C354.068 294.504 354.767 290.129 355.113 286.199C354.815 280.89 354.421 277.538 355.378 272.225L356.675 272.157L357.031 274.67C364.466 306.277 393.215 309.054 398.903 277.287C393.184 276.32 388.157 275.445 382.37 274.926Z" fill="#F9F6F2"/>
<path d="M355.114 286.199C354.816 280.89 354.422 277.538 355.379 272.225L356.676 272.157L357.032 274.67C354.71 280.428 357.082 282.641 355.114 286.199Z" fill="#F7F2EA"/>
<path d="M283.95 194.606C301.128 192.59 308.999 201.164 324.201 203.643C328.048 204.271 331.881 201.179 335.616 201.965C336.039 202.994 336.184 203.177 336.32 204.413C336.63 207.232 334.544 211.729 332.677 213.732C329.213 217.447 324.839 217.658 320.064 217.833C309.595 214.527 299.105 207.501 288.182 206.169C281.678 205.377 272.651 209.786 266.947 208.348C265.771 208.052 266.131 207.858 265.527 206.477C265.636 206.208 265.713 205.924 265.853 205.67C268.734 200.462 278.523 196.412 283.95 194.606Z" fill="#F9F6F2"/>
<path d="M291.091 342.198C292.43 343.059 292.968 343.776 293.927 345.017C292.624 348.377 289.389 350.037 286.554 352.199C299.362 358.05 311.917 362.972 326.014 364.532C338.672 365.932 353.161 365.42 365.492 362.124C372.065 360.368 388.537 351.441 394.058 353.568L393.883 355.401C390.077 358.76 385.437 360.578 380.869 362.686C378.97 363.309 377.067 363.917 375.159 364.512C343.094 374.474 312.684 371.498 283.084 355.928C282.381 359.939 282.123 363.999 279.576 367.305L277.903 367.423C276.039 364.259 276.575 360.962 277.486 357.546C279.599 349.619 284.321 345.975 291.091 342.198Z" fill="#F9F6F2"/>
<path d="M384.805 169.673C388.751 169.201 392.695 168.986 396.652 169.514C406.697 170.854 412.789 177.544 418.772 184.946C412.714 182.701 407.532 179.529 400.889 179.211C391.652 178.768 385.698 183.889 379.139 189.547C376.549 192.479 373.494 196.74 370.068 198.673C367.756 199.978 364.175 200.812 361.617 199.834C359.912 199.183 359.229 198.476 358.497 196.812C357.546 194.652 357.96 191.811 358.798 189.674C362.654 179.828 375.595 173.466 384.805 169.673Z" fill="#F9F6F2"/>
<path d="M362.508 380.383C364.321 381.898 364.511 381.834 364.884 384.135C364.179 385.122 364.214 385.189 363.117 386.076C356.747 391.228 343.251 390.128 335.774 388.903C334.607 387.851 334.343 387.234 333.7 385.838C336.207 382.681 348.378 384.732 352.795 384.169C356.183 383.737 359.508 381.923 362.508 380.383Z" fill="#F9F6F2"/>
<path d="M103.28 131.042C103.876 119.016 108.298 103.226 122.124 100.105C137.422 97.3397 167.37 91.3917 181.516 89.9757C209.629 87.1627 412.867 51.0267 419.381 54.1227C422.802 58.9107 423.231 65.7077 424.185 71.7017C427.282 77.6617 420.991 80.8217 426.336 86.8867L430.089 87.2387C430.952 88.6537 431.078 88.2787 431.077 89.5527C433.019 91.4927 434.507 93.1177 436.76 94.7237L438.285 96.9377L443.083 97.7417L443.62 98.7817C446.075 100.01 449.735 101.996 452.244 102.811C457.58 103.827 454.656 105.506 456.593 105.495C463.395 105.453 471.23 104.334 477.869 105.53L479.651 148.033C479.927 154.607 480.842 166.97 480.183 173.078C477.59 174.941 476.954 174.272 473.031 174.402C468.814 174.679 463.384 174.404 460.254 176.722C458.209 180.131 458.585 183.669 458.438 187.783C458.234 185.29 458.09 178.117 456.144 176.972C436.468 165.394 429.366 160.339 418.433 139.682L327.986 153.588C300.423 157.969 272.269 162.9 244.532 165.842C239.268 187.9 231.808 200.324 211.301 210.896L224.835 412.798C225.435 421.6 227.869 474.72 230.168 480.759C232.18 481.637 233.448 482.172 235.559 482.884C235.079 485.387 234.911 485.651 235.109 488.153C249.458 494.105 254.793 499.982 262.943 513.182C266.387 515.614 266.654 516.19 269.274 519.618L270.064 519.022C272.221 523.512 272.484 524.18 273.091 529.109L272.913 529.892C270.957 538.767 274.274 537.986 264.72 543.025L266.297 543.932C252.061 548.011 232.401 549.585 217.651 552.287C207.166 554.208 195.328 560.334 184.924 559.243C165.219 557.177 146.059 547.308 133.144 532.578C128.261 525.703 123.739 526.851 115.642 525.95C109.49 523.253 102.497 519.009 98.3461 513.531C91.7061 504.769 98.9421 499.069 100.449 490.143C96.2091 479.769 98.1571 481.021 88.5111 476.097C85.0891 474.35 83.6441 470.244 82.9521 466.569C86.1541 463.129 83.5831 461.775 89.3231 456.033C95.0751 441.043 111.006 420.723 128.765 430.786L130.315 433.573C137.866 434.202 148.693 432.349 153.755 438.991C165.963 447.764 173.26 452.256 177.089 467.978C177.397 460.992 180.295 463.684 181.568 456.487C183.967 455.719 188.645 454.769 191.269 454.144C188.062 409.625 185.093 365.089 182.363 320.537C182.733 314.893 181.352 298.917 180.933 292.694L177.339 239.958C152.666 242.69 125.883 240.558 108.875 219.964L112.734 217.208C105.41 208.454 106.839 204.69 106.409 193.359C109.327 196.123 110.927 197.964 114.564 199.828L114.82 198.304C110.328 194.346 108.578 192.725 107.373 186.952C105.005 184.368 102.866 148.017 103.571 143.668C102.234 142.125 102.536 143.008 102.584 141.048L105.584 140.424L105.786 138.968C104.134 135.707 103.473 134.671 103.28 131.042Z" fill="#000513"/>
<path d="M188.526 149.15C205.61 146.538 222.727 144.149 239.874 141.984C241.333 174.129 234.398 191.493 206.554 207.782C206.255 235.719 210.578 277.946 212.621 307.118L224.809 485.912L235.109 488.153C249.458 494.105 254.793 499.982 262.943 513.182C266.225 521.946 268.024 528.593 269.213 537.817C251.329 541.229 233.402 544.416 215.438 547.376C204.47 416.282 197.57 280.804 188.526 149.15Z" fill="#207FD5"/>
<path d="M157.514 141.49C173.883 138.67 298.297 121.808 302.37 118.036L301.701 116.323C293.036 112.783 160.896 138.827 140.644 138.675C135.337 138.635 134.918 140.658 129.362 136.32C133.675 130.347 231.673 122.979 241.275 116.171L241.132 114.084C231.475 110.139 130.106 135.028 121.891 127.777L122.612 126.08C126.371 123.873 129.55 122.957 133.825 122.28L300.47 97.5356C337.809 91.6646 378.328 84.6897 416.076 80.4587C418.32 80.2077 420.411 82.7737 421.825 84.3687C415.851 90.4897 279.158 102.887 273.329 110.379L273.729 111.636C282.095 114.133 408.937 90.3226 431.078 89.5526C433.02 91.4926 434.508 93.1177 436.761 94.7237L438.286 96.9377L443.084 97.7417L443.621 98.7817C446.076 100.01 449.736 101.996 452.245 102.811C450.503 106.081 428.492 107.695 423.559 108.538C406.55 111.444 389.451 114.193 372.372 116.651L203.983 141.012C187.665 143.386 177.875 149.255 161.817 148.174C159.553 147.171 158.412 146.912 156.868 144.959L157.514 141.49Z" fill="#2479CC"/>
<path d="M436.76 94.7236L438.285 96.9376L443.083 97.7416L443.62 98.7816L351.059 112.682C347.821 113.163 345.724 113.442 343.333 111.623L344.493 109.496C348.619 106.237 385.315 102.858 393.221 101.567C407.352 99.2596 422.449 97.6496 436.76 94.7236Z" fill="#000513"/>
<path d="M273.728 111.636C275.602 115.101 277.212 114.555 280.648 114.813C274.558 116.048 248.309 121.918 244.317 119.851C244.232 115.088 244.476 114.263 241.017 110.954C239.024 110.742 238.069 110.561 236.111 110.119C244.963 110.07 260.943 105.55 271.562 104.862C275.149 107.072 271.076 104.369 273.328 110.379L273.728 111.636Z" fill="#207FD5"/>
<path d="M175.958 156.028C179.057 154.427 180.565 153.633 183.833 152.494L210.115 547.869C196.454 552.515 194.784 553.917 180.586 553.453C178.584 548.204 175.992 548.278 175.268 544.89C177.099 542.501 177.104 543.286 177.444 540.76C174.413 539.081 174 538.876 171.5 536.538C171.483 532.824 171.114 534.645 173.296 531.063L175.034 530.794L177.05 535.14C175.72 524.225 176.608 503.765 174.128 494.616C175.667 492.995 177.962 490.068 179.465 488.26C184.043 487.483 188.872 486.454 193.452 485.551C195.572 502.313 195.283 521.376 197.424 538.299C197.789 541.185 197.809 540.679 199.681 541.88L201.477 540.911C203.307 537.211 200.883 518.726 200.472 513.228L196.246 451.745L181.745 234.408C181.266 226.899 178.801 176.557 176.169 173.016L173.149 173.294C170.915 177.756 172.718 198.15 170.226 205.144C164.148 206.963 154.964 206.428 149.802 202.338C147.941 198.675 145.876 167.678 148.95 165.511C155.141 161.144 169.911 162.97 175.958 156.028Z" fill="#2381D6"/>
<path d="M89.323 456.033C95.075 441.043 111.006 420.723 128.765 430.786L130.315 433.573C137.866 434.202 148.693 432.349 153.755 438.991C165.963 447.764 173.26 452.256 177.089 467.978C177.471 474.301 178.231 478.053 174.909 483.54L173.406 483.778C165.889 476.751 170.367 472.741 159.73 469.762C161.702 477.455 169.121 483.698 167.692 493.962C166.806 500.329 160.125 509.451 153.841 509.009C150.208 503.712 154.037 489.94 145.594 487.603C144.875 489.77 145.645 494.323 146.014 496.822C149.748 522.095 131.609 527.274 112.184 517.898C106.634 515.218 101.797 507.911 101.687 501.192C103.419 497.812 102.141 498.982 105.637 497.544C109.741 497.898 112.491 500.295 116.056 502.617C117.483 506.694 117.412 508.676 120.258 511.044C123.35 508.693 121.759 508.691 123.176 505.208C124.039 503.086 124.372 506.169 126.335 501.796C101.753 485.944 100.814 488.051 104.687 459.442L102.803 458.503C98.239 461.698 98.842 469.824 93.545 472.666C87.846 469.477 88.757 461.34 89.323 456.033Z" fill="#207FD5"/>
<path d="M129.272 437.498C138.765 434.759 144.402 436.154 153.755 438.991C165.963 447.764 173.26 452.256 177.089 467.978C177.471 474.301 178.231 478.053 174.909 483.54L173.406 483.778C165.889 476.751 170.367 472.741 159.73 469.762C167.136 466.031 169.127 473.275 172.716 477.802L174.022 477.72C177.292 469.569 170.535 455.814 164.757 449.874C157.472 442.454 147.621 438.106 137.229 437.724L129.272 437.498Z" fill="#2B78C6"/>
<path d="M128.765 430.786L130.315 433.573C137.866 434.202 148.693 432.349 153.755 438.991C144.402 436.154 138.765 434.759 129.272 437.498C124.144 439.264 120.413 443.24 116.539 443.387L115.817 441.891C118.715 435.851 123.062 434.013 128.765 430.786Z" fill="#000513"/>
<path d="M103.28 131.042C103.876 119.016 108.298 103.226 122.124 100.105C137.422 97.3397 167.37 91.3917 181.516 89.9757C209.629 87.1627 412.867 51.0267 419.381 54.1227C422.802 58.9107 423.231 65.7077 424.185 71.7017L423.23 75.8757C418.774 76.2907 411.376 67.5417 407.867 64.5007C342.998 74.0317 278.192 83.9907 213.455 94.3787C196.355 96.9257 179.241 99.3787 162.114 101.737C152.384 103.074 142.367 103.973 132.858 106.293C112.844 111.175 109.058 132.009 127.014 142.633C139.407 150.035 151.674 151.75 165.462 154.339C146.185 157.407 130.607 154.939 113.964 143.472C109.103 140.123 107.13 134.324 103.28 131.042Z" fill="#2479CC"/>
<path d="M416.886 115.628C436.291 111.275 459.22 110.284 477.87 105.53L479.652 148.033C479.928 154.607 480.843 166.97 480.184 173.078C477.591 174.941 476.955 174.272 473.032 174.402C439.432 168.798 423.514 147.856 416.886 115.628Z" fill="#207FD5"/>
<path d="M103.571 143.668L104.641 143.245C118.849 154.18 119.315 155.691 137.701 159.132C153.29 162.049 160.83 160.742 175.958 156.028C169.911 162.97 155.141 161.144 148.95 165.511C145.876 167.678 147.941 198.675 149.802 202.338C154.964 206.428 164.148 206.963 170.226 205.144C172.718 198.15 170.915 177.756 173.149 173.294C174.165 184.564 174.594 197.807 174.86 209.206C152.203 211.032 133.202 209.098 114.905 193.551C112.377 191.371 109.866 189.171 107.373 186.952C105.005 184.368 102.866 148.017 103.571 143.668Z" fill="#2669B2"/>
<path d="M140.532 175.311C142.071 175.471 142.08 175.819 143.175 176.824C142.423 179.513 141.967 179.445 139.605 181.022L137.226 180.179C135.403 180.185 133.824 180.005 132.019 179.783L131.601 178.238C134.383 175.625 136.92 175.686 140.532 175.311Z" fill="#2B78C6"/>
<path d="M120.098 168.78C122.372 170.503 125.573 172.093 126.295 174.874L124.526 177.275L122.956 174.735C121.447 174.163 120.444 173.683 119.227 172.616L120.098 168.78Z" fill="#2B78C6"/>
<path d="M116.141 179.126L119.38 179.308C120.634 180.457 121.64 181.658 122.689 182.995L122.164 184.644L120.939 185.664C118.445 183.287 117.156 182.476 116.141 179.126Z" fill="#2B78C6"/>
<path d="M135.04 186.777L136.665 187.281L137.157 189.486L135.571 191.441L132.794 191.541L132.134 190.949L132.369 189.741C133.758 188.809 134.358 188.317 135.04 186.777Z" fill="#2479CC"/>
<path d="M144.437 179.064C145.328 181.609 146.264 183.626 145.635 186.364L142.098 181.866L144.437 179.064Z" fill="#2479CC"/>
<path d="M106.409 193.359C109.327 196.123 110.927 197.964 114.564 199.828C126.958 211.11 146.86 216.118 163.288 215.34C167.356 215.115 171.413 214.721 175.448 214.159L176.567 234.465C153.097 237.928 130.442 233.919 112.734 217.208C105.41 208.454 106.839 204.69 106.409 193.359Z" fill="#F9F6F2"/>
<path d="M174.129 494.616C176.609 503.765 175.721 524.225 177.051 535.14L175.035 530.794L173.297 531.063C171.115 534.645 171.484 532.824 171.501 536.538C174.001 538.876 174.414 539.081 177.445 540.76C177.105 543.286 177.1 542.501 175.269 544.89C175.993 548.278 178.585 548.204 180.587 553.453C159.397 545.793 154.631 546.116 137.351 528.607C140.167 525.923 149.179 516.889 152.032 516.124C164.214 512.857 170.437 509.501 172.863 495.475L174.129 494.616Z" fill="#2669B2"/>
<path d="M168.778 530.93C168.856 531.04 168.968 531.132 169.011 531.259C169.743 533.413 169.447 533.976 168.656 536.002C167.51 536.51 166.75 536.905 165.811 537.768C165.562 537.997 165.33 538.243 165.089 538.481C164.778 538.873 164.235 539.006 163.783 539.224C163.629 538.213 163.498 537.773 163.672 536.666C164.223 533.169 165.993 532.394 168.778 530.93Z" fill="#2381D6"/>
<path d="M163.713 521.128C169.124 517.594 166.366 516.091 170.852 515.81L171.459 517.501C170.155 519.782 168.408 522.656 166.351 524.374L163.713 521.128Z" fill="#2381D6"/>
<path d="M166.352 524.374C164.245 525.517 165.36 525.394 163.033 525.126C162.028 522.735 162.012 522.921 162.435 520.375L163.714 521.128L166.352 524.374Z" fill="#2479CC"/>
<path d="M115.643 525.95C119.621 525.295 131.533 522.982 134.433 524.253L135.581 525.9C134.843 528.888 134.368 529.853 133.145 532.578C128.262 525.703 123.74 526.851 115.643 525.95Z" fill="#030303"/>
<path d="M143.612 144.03C147.956 143.007 153.062 142.256 157.513 141.49L156.867 144.959C158.411 146.912 159.552 147.171 161.816 148.174C154.132 147.182 151.093 146.322 143.612 144.03Z" fill="#2B78C6"/>
<path d="M408.192 116.857C409.243 116.588 410.275 116.816 411.346 116.913C414.028 121.189 414.933 129.942 416.442 135.062L254.326 159.863L245.466 161.016L245.274 140.766C299.534 132.486 353.841 124.516 408.192 116.857Z" fill="#F9F6F2"/>
<path d="M400.342 70.7936L405.573 70.3427C407.996 71.4357 408.588 72.3516 409.974 74.4996L409.326 75.4787C399.109 78.6057 387.523 79.4676 376.924 81.0466L319.762 89.6467L133.02 118.344C129.807 118.759 126.813 119.481 123.729 118.224L124.072 116.634C127.637 113.902 130.598 112.335 134.981 111.287C160.608 105.162 192.914 102.177 219.701 98.0676C279.866 88.6576 340.081 79.5666 400.342 70.7936Z" fill="#2479CC"/>
<path d="M189.969 459.676C190.371 459.791 191.123 460.636 191.443 460.933C192.483 467.311 193.502 472.457 191.64 478.841C189.315 481.391 187.595 481.404 184.314 482.292C181.647 479.694 182.227 466.913 182.007 462.469C183.687 460.467 187.459 460.198 189.969 459.676Z" fill="#F9F6F2"/>
<path d="M108.875 219.964C125.883 240.558 152.666 242.69 177.339 239.958L180.933 292.694C181.352 298.917 182.733 314.893 182.363 320.537C185.093 365.089 188.062 409.625 191.269 454.144C188.645 454.769 183.967 455.719 181.568 456.487C176.397 454.853 173.077 445.363 165.036 439.496C161.816 437.347 157.889 434.852 153.804 433.445C148.459 431.603 140.575 430.197 134.974 428.901C133.151 426.518 131.637 424.537 130.43 422.958C127.654 422.71 122.762 422.114 121.632 419.312C116.125 405.658 126.766 383.931 132.124 371.175C136.762 360.133 145.913 352.091 148.381 339.854C152.133 326.322 132.973 312.892 121.906 321.367C119.796 322.982 119.753 323.524 116.943 324.114L114.345 321.016C111.967 289.643 108.502 250.822 108.875 219.964Z" fill="#2669B2"/>
<path d="M154.286 275.392C154.932 270.999 151.454 253.576 151.834 245.793C154.951 242.757 169.074 242.436 173.332 243.921C180.546 252.951 177.645 317.939 182.364 320.537C185.094 365.089 188.063 409.625 191.27 454.144C188.646 454.769 183.968 455.719 181.569 456.487C176.398 454.853 173.078 445.363 165.037 439.496C166.893 438.01 167.403 438.015 167.984 435.821C166.157 433.384 165.659 432.647 164.741 429.765L165.424 429.305C166.285 424.855 166.657 418.545 166.817 413.9C163.276 399.774 162.581 378.485 160.828 362.798C161.646 358.456 162.292 356.84 161.207 352.606L162.811 349.928C160.856 345.054 160.974 342.618 159.785 337.707L160.974 335.304L158.956 334.451L158.451 332.251C156.923 329.357 157.322 330.463 158.399 326.349C159.184 322.144 159.372 324.162 157.616 320.095C157.094 318.694 156.616 317.852 156.822 316.352C157.979 307.906 155.316 313.223 155.406 306.754L156.718 305.451L156.508 303.73C156.073 299.522 155.6 299.096 152.659 295.989C154.238 294.785 154.51 294.659 156.494 294.551L156.148 294.232L156.046 291.001L154.138 289.43C155.109 287.713 155.522 286.8 156.292 284.979L155.429 283.781L154.216 281.842C154.709 278.69 154.807 278.712 154.286 275.392Z" fill="#207FD5"/>
<path d="M163.204 422.212C161.049 418.905 159.481 418.97 158.429 414.85C160.624 415.033 161.733 415.138 163.768 415.977L166.816 413.9C166.656 418.545 166.284 424.855 165.423 429.305L164.74 429.765C162.233 430.274 161.599 431.039 159.348 432.471L157.697 431.656C156.139 427.723 158.372 425.927 157.135 422.025L154.004 424.459L151.822 423.87C149.579 421.272 149.29 421.322 148.738 417.845L149.87 417.264L154.143 419.468L154.582 417.368C159.41 417.478 159.098 419.237 160.288 422.946L163.204 422.212Z" fill="#2381D6"/>
<path d="M148.264 308.45C148.955 308.006 149.969 306.987 150.618 306.39L149.986 304.813C145.794 302.234 143.634 302.29 145.089 297.681C148.09 294.979 147.498 294.653 150.838 294.054L152.659 295.989C155.6 299.096 156.073 299.522 156.508 303.73L156.718 305.451L155.406 306.754L154.566 310.287C155.113 313.345 154.672 314.454 152.829 317.117C149.604 317.714 151.029 317.994 148.359 316.595C148.073 314.555 148.234 314.538 147.173 312.777L150.353 312.312L148.264 308.45Z" fill="#2381D6"/>
<path d="M153.49 302.315L156.508 303.73L156.718 305.451L155.406 306.754L154.566 310.287L153.121 309.712C151.951 307.548 152.857 306.22 153.455 303.081L153.49 302.315Z" fill="#2479CC"/>
<path d="M156.908 353.139L161.207 352.606C162.292 356.84 161.646 358.456 160.828 362.798C158.896 365.165 158.291 366.373 155.415 367.41C153.141 366.025 152.961 364.545 151.971 361.972L151.578 360.925L147.977 359.474L148.068 358.032L150.662 356.768C152.443 357.925 153.136 358.027 155.239 358.287C155.312 355.507 155.502 355.612 156.908 353.139Z" fill="#2381D6"/>
<path d="M155.238 358.287C155.311 355.507 155.501 355.612 156.907 353.139L157.008 358.513L155.238 358.287Z" fill="#2B78C6"/>
<path d="M147.008 283.776C146.491 279.351 150.423 276.41 154.285 275.392C154.806 278.712 154.708 278.69 154.215 281.842L155.428 283.781L152.251 285.205C149.442 285.939 150.423 285.769 147.008 283.776Z" fill="#2381D6"/>
<path d="M159.784 337.707C156.51 340.045 157.554 340.031 154.165 340.126L153.063 338.566C153.927 335.735 153.111 336.867 155.782 335.204C156.952 333.025 156.381 333.791 158.45 332.251L158.955 334.451L160.973 335.304L159.784 337.707Z" fill="#2479CC"/>
<path d="M158.398 326.349C155.154 328.113 156.613 328.14 153.823 327.56L153.492 326.672C154.125 322.55 154.065 323.741 157.615 320.095C159.371 324.162 159.183 322.144 158.398 326.349Z" fill="#2381D6"/>
<path d="M146.265 308.855C147 308.136 146.446 308.531 148.264 308.45L150.353 312.312L147.173 312.777C146.65 312.502 144.045 312.345 142.894 312.04L146.265 308.855Z" fill="#2479CC"/>
<path d="M148.337 287.524L151.277 288.573C150.176 289.795 149.083 291.023 147.996 292.257L147.518 291.834L145.773 291.599L145.455 290.299C146.738 288.033 145.892 289.007 148.337 287.524Z" fill="#2B77C3"/>
<path d="M147.009 283.776C150.424 285.769 149.443 285.939 152.252 285.205C151.809 287.435 151.926 286.408 151.852 288.308L151.278 288.573L148.338 287.524L147.009 283.776Z" fill="#2479CC"/>
<path d="M142.893 312.04C142.261 310.913 142.165 310.061 141.816 308.766L142.969 307.854L146.264 308.855L142.893 312.04Z" fill="#2381D6"/>
<path d="M147.808 365.037C149.645 369.05 155.55 371.163 154.078 375.971L151.652 375.503C148.845 376.746 148.163 376.634 145.424 375.78C142.2 370.306 144.588 369.335 147.808 365.037Z" fill="#2381D6"/>
<path d="M149.793 256.531C151.386 261.075 148.737 262.264 147.668 265.968L145.565 266.283L145.568 262.29L146.728 261.031L144.413 257.367L149.793 256.531Z" fill="#2479CC"/>
<path d="M145.565 266.283L143.679 267.511C141.568 266.792 140.29 263.296 139.366 261.193C141.313 261.54 141.851 261.954 143.434 263.127L145.568 262.29L145.565 266.283Z" fill="#2381D6"/>
<path d="M130.233 264.639L131.763 265.196L132.298 266.849C131.096 267.95 129.959 269.037 128.862 270.247C128.549 270.592 128.244 270.944 127.934 271.292L126.087 271.197L125.888 269.501L130.233 264.639Z" fill="#2B78C6"/>
<path d="M128.298 294.742L129.676 295.158C129.845 298.146 129.271 299.089 127.756 301.522L125.601 301.005L124.943 299.551C126.055 298.283 126.987 297.232 127.8 295.74C127.978 295.413 128.132 295.074 128.298 294.742Z" fill="#2B78C6"/>
<path d="M147.188 399.22C147.433 400.897 147.332 401.959 147.117 403.616L143.122 406.601C143.056 405.928 142.944 405.199 143.083 404.526C143.674 401.656 145.095 400.923 147.188 399.22Z" fill="#2B78C6"/>
<path d="M132.345 246.895L135.218 248.807C133.903 250.579 133.789 250.426 131.749 251.387L130.992 250.503L132.345 246.895Z" fill="#2B78C6"/>
<path d="M144.413 257.367L145.842 253.848L147.225 253.534L149.793 256.531L144.413 257.367Z" fill="#2381D6"/>
<path d="M150.455 348.799C152.594 349.792 153.204 349.966 154.535 351.868L153.819 354.922L150.455 348.799Z" fill="#2479CC"/>
<path d="M140.816 268.834L142.528 269.06L142.021 270.393C141.077 270.752 141.754 270.555 139.909 270.502L140.816 268.834Z" fill="#2381D6"/>
<path d="M141.03 275.059L142.726 274.724L143.076 275.549L140.969 276.51L139.542 277.164L139.33 276.001L141.03 275.059Z" fill="#2381D6"/>
<path d="M491.098 405.483C492.349 396.096 491.74 379.466 498.597 372.089C500.826 369.691 506.565 369.882 509.621 370.004L510.581 371.858C525.814 376.82 547.408 392.884 535.459 410.507C535.698 419.041 531.287 413.119 534.315 418.11C534.887 425.891 534.26 428.861 532.641 436.624C541.723 442.742 544.204 451.79 537.44 461.021C527.984 473.926 516.34 479.253 500.382 477.414C501.179 490.63 505.737 500.829 489.741 502.131C486.704 501.004 475.303 500.678 471.478 500.494C476.587 498.928 489.673 496.923 495.47 495.876C495.063 488.686 493.296 435.733 490.648 432.753L485.551 432.573C486.543 430.626 488.41 430.056 490.378 429.408L490.642 426.407C492.623 423.057 491.345 410.084 491.098 405.483Z" fill="#207FD5"/>
<path d="M491.098 405.483C492.349 396.096 491.74 379.466 498.597 372.089C500.826 369.691 506.565 369.882 509.621 370.004L510.581 371.858C503.427 372.243 502.048 371.906 496.927 377.1L496.771 378.956C501.527 382.067 505.726 381.22 508.318 384.557L508.04 386.792C503.001 389.108 500.306 383.588 496.272 386.441C495.579 392.955 498.793 462.228 500.244 469.91C515.601 479.551 546.154 454.093 531.958 443.022C524.111 443.625 519.894 456.51 514.292 459.403C514.518 456.918 514.868 456.93 514.025 454.63L510.98 453.733L510.458 451.786C513.794 446.809 517.752 445.322 522.022 441.608C530.539 434.199 530.314 416.244 525.816 406.709C524.599 404.129 523.17 401.23 522.713 398.494L523.745 397.845C531.452 402.91 529.087 407.301 535.459 410.507C535.698 419.041 531.287 413.119 534.315 418.11C534.887 425.891 534.26 428.861 532.641 436.624C541.723 442.742 544.204 451.79 537.44 461.021C527.984 473.926 516.34 479.253 500.382 477.414C501.179 490.63 505.737 500.829 489.741 502.131C486.704 501.004 475.303 500.678 471.478 500.494C476.587 498.928 489.673 496.923 495.47 495.876C495.063 488.686 493.296 435.733 490.648 432.753L485.551 432.573C486.543 430.626 488.41 430.056 490.378 429.408L490.642 426.407C492.623 423.057 491.345 410.084 491.098 405.483Z" fill="#000513"/>
<path d="M462.877 178.079C469.001 178.951 475.017 179.329 481.182 179.788C484.058 255.038 487.363 330.271 491.097 405.483C491.344 410.084 492.622 423.057 490.641 426.407C484.391 427.532 481.036 429.464 475.47 432.301C473.002 404.947 472.047 372.87 470.69 345.223L462.877 178.079Z" fill="#F9F6F2"/>
<path d="M297.504 550.917L331.409 548.016C344.35 564.04 371.834 600.784 382.22 617.871C364.943 625.891 381.092 638.614 382.413 648.383C379.821 653.569 374.294 652.689 369.225 651.951C366.808 650.871 364.377 649.504 362.846 647.277C340.807 615.224 320.715 582.22 297.504 550.917Z" fill="#F9F6F2"/>
<path d="M270.064 519.022C274.439 515.191 415.27 491.095 437.864 486.214C437.161 493.392 436.453 499.602 436.576 506.856C417.095 510.578 279.896 537.247 275.043 535.732C273.876 532.778 273.737 532.234 273.091 529.109C272.484 524.18 272.221 523.512 270.064 519.022Z" fill="#F9F6F2"/>
<path d="M485.551 432.573L490.648 432.753C493.296 435.733 495.063 488.686 495.47 495.876C489.673 496.923 476.587 498.928 471.478 500.494C464.926 501.027 448.966 504.385 441.894 505.705C444.103 464.06 452.399 454.423 485.551 432.573Z" fill="#207FD5"/>
<path d="M370.441 680.287C369.452 680.247 368.315 680.012 367.313 679.852C363.173 672.58 350.095 665.799 359.034 655.971C365.15 654.239 371.839 658.601 378.599 658.117C383.346 657.777 386.77 652.73 390.103 649.033C395.236 648.753 396.631 651.303 400.96 652.295C409.528 654.258 420.917 640.118 429.129 642.459C430.299 646.246 432.273 649.764 430.392 652.735C422.975 664.45 410.888 677.084 401.647 687.279C393.026 680.702 381.101 675.748 370.441 680.287Z" fill="#207FD5"/>
<path d="M391.465 616.799C398.449 616.514 399.106 616.578 404.616 620.779L406.346 622C406.527 625.182 406.417 625.348 405.852 628.346L407.946 627.995C408.494 634.579 405.864 637.592 407.148 644.658L408.482 645.857C410.783 645.516 410.633 645.496 412.612 644.23C415.905 642.379 415.924 642.543 418.194 639.635L419.907 641.53L420.971 641.473C421.1 639.155 421.294 636.915 421.778 634.637L423.353 638.517L428.746 639.123L429.691 640.623L429.13 642.459C420.918 640.118 409.529 654.258 400.961 652.295C396.632 651.303 395.237 648.753 390.104 649.033C386.771 652.73 383.347 657.777 378.6 658.117C371.84 658.601 365.151 654.239 359.035 655.971C350.096 665.799 363.174 672.58 367.314 679.852C368.316 680.012 369.453 680.247 370.442 680.287L368.844 683.127C365.902 683.947 366.406 683.543 362.998 682.741C353.836 675.161 345.657 662.001 355.194 651.361C361.769 652.804 361.77 650.913 367.82 652.727L369.226 651.951C374.295 652.689 379.822 653.569 382.414 648.383C381.093 638.614 364.944 625.891 382.221 617.871C386.186 618.731 386.685 616.604 391.465 616.799Z" fill="#000513"/>
<path d="M391.464 616.799C398.448 616.514 399.105 616.578 404.615 620.779C404.37 624.761 396.95 633.387 397.106 638.891C397.149 640.401 396.437 642.354 395.689 643.718C388.512 643.352 379.681 637.938 380.76 629.73C381.606 623.296 386.655 620.506 391.464 616.799Z" fill="#207FD5"/>
<path d="M405.851 628.346L407.945 627.995C408.493 634.579 405.863 637.592 407.147 644.658C406.201 646.562 406.134 646.393 404.233 647.439L403.068 646.278C401.462 639.435 403.448 634.599 405.851 628.346Z" fill="#F7F2EA"/>
<path d="M412.611 644.23C410.636 638.938 413.172 624.394 417.541 621.511C418.685 624.605 417.481 634.508 418.193 639.635C415.923 642.543 415.904 642.379 412.611 644.23Z" fill="#F7F2EA"/>
<path d="M428.26 608.953C428.546 616.909 429.948 633.79 423.352 638.517L421.777 634.637C423.602 624.399 424.335 618.749 428.26 608.953Z" fill="#F7F2EA"/>
<path d="M129.265 324.524C131.906 324.742 135.125 325.084 137.427 326.467C140.364 328.232 142.594 331.925 143.107 335.28C143.78 339.686 141.756 343.838 138.819 347.006C133.597 352.64 126.001 356.388 119.504 360.414C106.381 368.546 89.3309 380.161 80.8216 393.27C78.2364 397.253 76.8522 401.744 77.8988 406.473C80.0099 416.011 93.8029 423.452 101.477 428.628C92.6779 435.489 88.4619 442.831 84.0429 452.911C69.7265 445.436 50.4429 430.365 45.6314 414.241C43.1234 405.836 45.3824 397.476 49.5333 390.015C61.0967 369.232 106.034 330.969 129.265 324.524Z" fill="#F9F6F2"/>
<path d="M499.28 605.047L500.824 604.825C503.342 605.779 503.605 605.634 504.878 607.959C504.451 608.959 504.117 609.905 503.922 610.979C499.606 634.739 486.144 655.543 470.253 673.288C459.897 684.852 444.068 701.653 431.51 710.343C427.071 713.414 421.642 714.692 417.21 717.687C413.42 720.248 409.044 725.275 404.23 725.189C401.827 725.146 401.138 726.298 399.269 727.746C398.508 726.208 397.935 725.086 396.691 723.863C396.397 723.574 396.078 723.312 395.771 723.037C401.16 713.597 410.839 708.508 417.902 700.576C427.965 689.274 440.65 669.996 451.421 660.838C451.74 660.567 452.071 660.312 452.389 660.041C452.827 659.668 453.253 659.281 453.689 658.907C453.951 658.682 454.219 658.466 454.484 658.245C454.674 656.044 455.049 653.918 456.051 651.932C461.404 641.324 478.125 618.026 487.104 610.746C490.487 608.003 495.144 606.295 499.28 605.047Z" fill="#2669B2"/>
<path d="M446.459 673.906C447.013 675.631 446.747 675.756 446.292 677.422L443.779 677.25L446.459 673.906Z" fill="#2B78C6"/>
<path d="M500.164 287.681C515.762 294.045 532.165 302.727 544.928 313.717C553.742 321.306 561.675 330.913 562.262 343.061C563.005 358.438 552.944 372.389 543.292 383.337L541.349 384.95C540.72 384.875 540.032 384.999 539.462 384.723C535.929 383.015 531.374 376.878 528.076 374.082C525.212 371.654 521.755 369.952 518.445 368.216C521.778 364.651 525.336 361.092 528.226 357.154C531.242 353.046 533.556 347.745 532.432 342.567C530.094 331.787 512.287 323.315 503.45 317.823C499.839 307.768 499.028 298.23 500.164 287.681Z" fill="#F9F6F2"/>
<path d="M197.946 616.569C229.573 610.962 223.425 584.671 232.828 579.785C240.997 582.262 239.915 580.61 248.061 578.542C252.64 577.379 261.995 577.825 262.967 583.845L261.031 586.003C256.647 587.998 252.128 587.223 247.156 586.991C246.089 588.181 245.05 589.398 244.042 590.639C236.335 600.193 237.694 609.337 238.847 620.684C234.014 628.471 233.68 632.851 225.361 636.654C225.923 641.966 226.312 642.805 228.473 647.732C228.121 649.391 227.745 651.045 227.344 652.693L225.875 658.381C225.414 659.708 222.518 670.411 222.391 671.407L224.116 674.088C223.141 677.842 219.638 681.321 216.927 684.239C214.906 691.259 214.087 690.627 212.374 699.468C208.518 692.354 206.455 686.794 204.448 679.051C198.971 659.817 197.571 636.66 197.946 616.569Z" fill="#207FD5"/>
<path d="M225.361 636.654C225.923 641.966 226.312 642.805 228.473 647.732C228.121 649.391 227.745 651.045 227.344 652.693L225.875 658.381C225.414 659.708 222.518 670.411 222.391 671.407C219.023 665.364 225.076 649.897 224.086 642.964C223.643 639.857 223.982 639.472 225.361 636.654Z" fill="#000513"/>
<path d="M204.447 679.051C207.786 682.596 209.216 686.963 211.182 691.504C213.335 687.651 213.553 685.523 216.926 684.239C214.905 691.259 214.086 690.627 212.373 699.468C208.517 692.354 206.454 686.794 204.447 679.051Z" fill="#2B78C6"/>
<path d="M197.553 581.256L199.012 581.974C199.089 586.588 194.92 597.515 194.088 603.27C190.644 627.107 192.512 652.999 197.787 676.46C199.549 684.293 201.947 694.236 207.83 700.062C217.036 709.177 253.148 710.142 266.102 708.512C275.483 707.331 284.769 704.273 294.137 703.405C296.947 703.145 298 703.011 300.351 704.506L300.524 706.777C299.075 709.809 297.619 711.623 295.209 713.95C272.728 720.953 229.19 723.317 207.428 713.977C198.879 710.308 195.124 703.844 192.07 695.478C183.502 672.009 176.31 611.833 188.405 588.182C190.62 583.851 193.056 582.766 197.553 581.256Z" fill="#F9F6F2"/>
<path d="M254.667 665.654C265.363 664.609 277.75 664.6 286.611 671.575C294.866 678.074 296.641 686.613 297.997 696.38C286.601 700.228 275.643 701.99 263.766 703.365C248.149 703.993 233.302 702.948 218.028 699.586C219.64 694.26 221.187 689.433 224.258 684.724C231.551 673.544 241.948 668.297 254.667 665.654Z" fill="#F9F6F2"/>
<path d="M305.46 585.585C312.915 591.467 315.413 606.05 317.226 614.741C306.212 619.329 293.438 623.053 281.457 623.566C272.458 623.951 266.587 622.396 259.952 616.215C259.226 615.492 258.92 615.136 258.179 614.544C254.556 611.652 248.623 613.49 244.374 613.929C243.849 613.142 243.72 613.062 243.443 612.001C242.364 607.865 244.396 601.431 246.212 597.748C247.072 596.002 248.262 594.096 250.013 593.097C254.865 590.328 269.408 592.127 275.362 591.736C285.942 591.041 295.403 588.886 305.46 585.585Z" fill="#F9F6F2"/>
<path d="M486.089 594.534C486.722 594.446 487.356 594.359 487.993 594.307C491.748 593.999 495.533 594.949 498.417 597.403C498.459 600.199 497.284 599.468 495.005 600.177C486.68 602.77 481.995 607.308 476.459 613.829C462.33 630.468 451.753 649.79 438.486 667.109C424.76 685.027 408.375 700.183 393.126 716.723C391.922 718.939 390.796 720.737 389.175 722.665L387.798 721.892C387.054 719.314 386.394 716.782 387.139 714.118C389.955 704.05 407.992 688.621 415.498 680.44C434.87 659.323 447.523 633.665 465.999 612.147C472.042 605.109 478.151 599.349 486.089 594.534Z" fill="#F9F6F2"/>
<path d="M461.002 586.649C466.507 586.078 479.095 585.109 483.479 588.449C482.455 594.028 474.506 594.97 470.741 598.632C460.786 608.315 452.561 620.357 444.986 631.946C441.946 636.595 438.826 641.191 435.63 645.734C431.853 632.079 431.282 615.923 438.353 603.164C443.492 593.89 451.194 589.532 461.002 586.649Z" fill="#F9F6F2"/>
<path d="M385.585 533.735C385.62 534.074 385.686 534.412 385.691 534.753C385.868 548.484 371.428 570.158 362.821 580.233L356.204 571.299L345.82 557.327C349.512 551.608 352.717 546.066 355.442 539.823C365.547 538.253 375.579 535.848 385.585 533.735Z" fill="#F9F6F2"/>
<path d="M219.343 579.831C221.01 579.603 221.765 579.704 223.37 580.029C223.697 581.163 224.11 581.89 223.856 583.066C221.297 594.895 212.752 604.376 202.808 610.638L199.968 610.778C199.809 610.514 199.612 610.269 199.492 609.985C196.957 603.967 202.941 588.336 204.822 581.879L219.343 579.831Z" fill="#F9F6F2"/>
<path d="M250.336 618.157C252.749 618.245 254.258 618.839 256.059 620.433C260.653 624.499 273.027 629.464 274.973 632.25C274.871 632.503 274.803 632.773 274.665 633.008C272.751 636.265 266.394 638.213 262.946 639.592C254.747 634.842 247.275 633.723 237.974 632.852C241.013 626.001 244.529 622.6 250.336 618.157Z" fill="#2479CC"/>
<path d="M373.65 683.572C382.876 683.806 390.183 686.669 398.26 690.885C394.158 694.647 390.473 698.522 386.85 702.747L382.062 710.077C378.446 704.691 370.184 694.078 370.772 687.377C370.933 685.552 372.377 684.784 373.65 683.572Z" fill="#F9F6F2"/>
<path d="M227.343 652.693C239.466 647.396 250.757 646.244 261.168 656.073L260.582 656.977C255.448 656.409 247.425 653.922 244.14 653.772C240.604 653.61 231.687 658.744 225.874 658.381L227.343 652.693Z" fill="#F7F2EA"/>
<path d="M231.56 638.682C235.779 638.373 240.053 637.978 244.272 638.463C249.436 639.057 257.456 641.15 260.593 645.646C261.78 647.346 261.496 647.078 261.238 648.854L259.671 648.429C248.162 642.407 239.271 647.342 230.529 643.512L229.8 641.551L231.56 638.682Z" fill="#F9F6F2"/>
<path d="M243.011 659.87C245.1 659.687 246.954 659.771 249.033 659.94C246.874 662.736 237.092 665.253 233.233 667.815L232.168 668.533C231.132 669.23 230.027 669.591 228.87 670.047L227.215 668.965L227.273 666.845C231.254 661.752 237.064 661.182 243.011 659.87Z" fill="#F7F2EA"/>
</svg>
