<svg width="608" height="784" viewBox="0 0 608 784" fill="none" xmlns="http://www.w3.org/2000/svg">
<path d="M109.878 325.05C106.108 280.306 104.008 234.32 100.928 189.412C100.618 167.21 96.6278 143.819 98.2378 121.709C100.508 90.4707 132.068 89.5797 154.388 86.2657L222.918 75.8877L339.338 57.7047C363.248 53.8527 387.478 49.6647 411.478 46.6267C415.238 46.7007 419.748 44.6527 422.758 47.5867C430.138 54.7907 429.468 70.0287 430.128 79.8557C439.558 87.0927 449.288 94.3377 461.058 97.4357C467.698 99.1857 475.108 97.5467 480.288 100.581C485.188 106.487 484.308 131.835 484.598 140.873L490.928 274.926C548.478 300.388 598.818 327.332 542.668 389.788C545.848 403.707 545.218 404.983 536.348 412.822C534.098 414.81 533.188 429.51 532.158 434.021C541.898 440.723 543.558 450.386 536.308 459.664C526.598 472.101 515.198 476.211 499.878 474.93C500.478 482.018 502.288 491.504 498.748 497.26C489.728 501.626 398.918 517.148 382.828 519.868C396.618 529.084 422.318 546.865 426.418 563.314C430.368 579.186 406.878 593.542 395.728 601.446C403.878 610.741 398.568 616.235 391.918 624.493C395.978 629.525 398.438 635.041 402.048 639.443C413.058 652.899 426.028 657.734 423.138 677.877C421.558 688.942 419.198 711.86 401.278 706.171C361.988 693.702 325.698 659.52 301.108 627.098C298.528 623.597 294.998 616.029 296.468 612.886C301.358 602.434 316.928 590.83 326.328 586.176C332.488 570.033 343.778 566.399 357.478 577.184C363.748 573.744 370.748 570.997 373.898 564.724C372.218 556.292 336.398 535.337 327.878 529.568C314.188 532.469 291.348 537.62 277.768 539.434C262.788 572.877 244.928 602.745 218.548 628.521C211.308 635.749 202.268 642.072 195.878 650.04C195.388 650.65 197.458 660.276 195.178 663.191C192.588 666.499 189.198 669.514 186.388 672.062C183.368 674.863 185.098 682.233 188.948 683.75C192.698 685.232 199.088 685.829 202.598 687.254C214.998 692.281 227.468 713.427 223.218 726.69C222.478 729.55 218.728 732.532 215.998 733.305C195.488 739.121 157.078 741.837 137.778 733.146C121.568 725.849 94.0178 668.013 100.478 649.976C102.808 643.469 124.838 631.389 132.708 628.133C140.288 613.963 150.398 611.046 164.548 619.645C190.748 599.319 211.368 579.267 226.538 548.944C208.968 550.257 194.728 558.25 181.088 556.45C160.008 553.667 141.478 541.671 128.408 525.182C108.628 523.937 82.3677 508.783 100.528 488.432C93.3677 469.649 81.6977 478.479 81.9477 456.112C-0.572266 407.82 54.8777 361.393 109.878 325.05Z" fill="#030303"/>
<path d="M109.878 325.05C106.108 280.306 104.008 234.32 100.928 189.412C100.618 167.21 96.6278 143.819 98.2378 121.709C100.508 90.4707 132.068 89.5797 154.388 86.2657L222.918 75.8877L339.338 57.7047C363.248 53.8527 387.478 49.6647 411.478 46.6267C415.238 46.7007 419.748 44.6527 422.758 47.5867C430.138 54.7907 429.468 70.0287 430.128 79.8557C439.558 87.0927 449.288 94.3377 461.058 97.4357C467.698 99.1857 475.108 97.5467 480.288 100.581C485.188 106.487 484.308 131.835 484.598 140.873C478.588 149.665 488.908 166.54 480.318 172.118C446.068 169.642 431.848 154.965 419.438 123.312C413.708 117.956 417.638 115.72 414.228 111.647L411.898 111.603L412.128 112.811C406.918 114.543 373.058 119.955 367.468 119.851C361.848 117.561 344.888 121.178 333.798 120.02C308.518 122.335 276.028 128.693 250.318 132.287C235.818 141.817 245.198 145.016 240.958 155.453L239.508 155.884C235.818 182.657 228.808 192.36 205.998 206.044C206.068 224.481 207.798 245.267 209.398 263.788C215.688 336.593 217.748 410.667 224.148 483.37C240.228 486.989 250.878 492.707 260.048 507.071C263.458 512.411 273.598 530.591 265.098 536.057C264.688 536.322 260.888 537.032 260.088 537.179C255.798 543.359 234.358 547.235 226.538 548.944C208.968 550.257 194.728 558.25 181.088 556.45C160.008 553.667 141.478 541.671 128.408 525.182C108.628 523.937 82.3677 508.783 100.528 488.432C93.3677 469.649 81.6977 478.479 81.9477 456.112C-0.572266 407.82 54.8777 361.393 109.878 325.05Z" fill="#000513"/>
<path d="M189.008 146.557C205.948 143.922 222.918 141.479 239.918 139.23C239.908 144.658 239.658 150.427 239.508 155.884C235.818 182.657 228.808 192.36 205.998 206.044C206.068 224.481 207.798 245.267 209.398 263.788C215.688 336.593 217.748 410.667 224.148 483.37C240.228 486.989 250.878 492.707 260.048 507.071C263.458 512.411 273.598 530.591 265.098 536.057C264.688 536.322 260.888 537.032 260.088 537.179C245.268 539.453 229.428 542.618 214.598 545.305C212.548 527.34 211.588 504.045 210.348 485.627L203.008 371.635C198.398 296.82 192.298 221.269 189.008 146.557Z" fill="#207FD5"/>
<path d="M183.918 150.556C184.608 171.571 186.478 193.577 188.048 214.609C196.258 324.641 200.608 435.58 209.708 545.474C198.258 549.689 194.298 551.572 182.458 551.006L178.118 550.804C177.878 548.34 176.158 546.161 174.808 543.966C174.828 541.454 174.788 542.161 173.918 539.635L175.208 536.267C174.138 531.041 177.338 527.835 173.358 524.428L172.038 522.61L172.238 521.731C172.728 519.557 172.478 517.978 172.318 515.766C172.928 509.156 181.118 509.138 171.398 497.754C173.618 491.058 174.338 490.851 178.998 485.738C183.728 484.962 188.718 483.872 193.448 482.929C194.198 495.176 194.598 528.074 198.688 537.439L199.858 537.529C200.018 537.019 200.198 536.515 200.338 536C203.088 525.959 191.038 381.83 189.578 360.425C185.478 300.485 182.638 240.386 177.978 180.493C177.728 177.169 177.788 173.643 176.178 170.651L175.048 170.909C172.458 175.311 173.238 175.09 173.058 180.466C172.258 187.881 175.198 200.099 171.368 204.269C166.618 206.213 159.308 206.076 154.518 204.503C150.028 203.031 149.258 194.283 147.278 190.477L143.838 193.986C145.108 190.129 145.078 189.853 148.058 187.316L148.678 186.802C149.058 185.317 149.368 182.871 149.628 181.28L147.498 179.277C147.978 175.886 147.508 174.915 146.678 171.651C146.768 168.322 146.798 165.898 147.258 162.611C149.848 159.148 149.388 160.144 154.118 158.286C162.608 157.354 168.618 156.722 176.248 152.769C179.378 151.497 180.578 151.271 183.918 150.556Z" fill="#207FD5"/>
<path d="M303.238 112.367C289.578 113.596 269.748 117.244 255.748 119.399C227.728 123.739 199.678 127.918 171.608 131.937C163.408 133.111 132.518 139.624 128.018 133.494C128.218 133.01 128.408 132.526 128.608 132.042C143.218 129.031 233.548 118.092 241.228 113.476L241.278 111.939C233.238 107.576 138.198 130.973 122.078 125.794L121.338 124.311C125.658 119.813 160.408 116.303 168.698 115.024L283.828 97.6527C320.468 91.9407 357.028 85.6667 393.778 80.6517C401.918 79.5407 410.058 78.2537 418.278 78.0897C420.598 79.4817 421.188 79.5707 422.698 81.8297C413.458 89.2657 276.428 100.108 273.038 107.982L274.088 108.986C278.438 110.316 298.478 106.721 304.288 105.932C301.478 108.383 300.768 108.97 297.228 110.108C299.538 110.674 301.438 110.878 303.238 112.367Z" fill="#2B78C6"/>
<path d="M264.698 104.435C266.638 104.062 268.018 103.962 269.978 104.258C270.188 105.346 270.368 106.896 270.838 107.942C271.778 110.035 274.088 110.904 276.018 111.856L276.918 112.288L275.828 112.044L275.578 114.348L275.088 111.754L274.508 114.472C268.698 115.035 262.968 115.928 257.198 116.824C252.798 117.668 248.448 118.801 243.948 118.271C242.298 116.417 243.098 111.949 241.668 107.942C244.778 104.597 259.648 104.787 264.698 104.435Z" fill="#207FD5"/>
<path d="M429.818 86.8227L437.008 92.5947C417.808 95.5117 398.588 98.3127 379.358 100.999C369.628 102.338 351.168 102.805 343.718 108.547L344.468 110.129L342.918 109.613L344.078 108.37L345.538 110.176C376.328 107.975 412.478 99.9877 443.848 96.4697L454.188 101.72L376.668 113.459C363.658 115.411 346.288 117.32 333.798 120.02C308.518 122.335 276.028 128.693 250.318 132.287C231.028 134.794 199.768 138.047 181.568 142.732L176.778 145.471C172.178 145.671 167.668 146.14 163.178 145.284C161.068 144.431 158.968 143.557 156.878 142.664L156.978 141.638C159.538 140.359 160.908 139.6 163.338 138.09C199.468 131.859 263.758 123.86 301.998 116.323C302.948 116.137 302.978 113.847 303.238 112.367C301.438 110.878 299.538 110.674 297.228 110.108C300.768 108.97 301.478 108.383 304.288 105.932C316.188 103.048 337.468 100.429 350.188 98.5457L429.818 86.8227Z" fill="#2479CC"/>
<path d="M419.438 123.312C418.758 119.852 417.628 116.432 418.768 113.213C424.418 110.414 468.418 105.19 477.808 103.795C478.768 126.564 479.608 149.339 480.318 172.118C446.068 169.642 431.848 154.965 419.438 123.312Z" fill="#207FD5"/>
<path d="M175.008 206.665C170.718 207.033 164.908 207.585 160.688 207.62C143.818 207.756 113.748 198.124 105.998 181.689L107.078 179.276C103.928 170.512 105.638 163.101 103.998 154.017C104.368 156.096 104.458 138.97 104.068 141.096C107.648 141.464 115.468 150.925 122.168 152.617C133.838 155.563 140.148 158.277 152.458 158.291L154.118 158.286C149.388 160.144 149.848 159.148 147.258 162.611C146.798 165.898 146.768 168.322 146.678 171.651C147.508 174.915 147.978 175.886 147.498 179.277L149.628 181.28C149.368 182.871 149.058 185.317 148.678 186.802L148.058 187.316C145.078 189.853 145.108 190.129 143.838 193.986L147.278 190.477C149.258 194.283 150.028 203.031 154.518 204.503C159.308 206.076 166.618 206.213 171.368 204.269C175.198 200.099 172.258 187.881 173.058 180.466C174.028 184.649 174.718 201.343 175.008 206.665Z" fill="#2669B2"/>
<path d="M143.838 193.986C143.428 194.085 143.708 193.956 142.938 194.736L144.418 197.911L143.718 199.129C140.918 198.981 140.258 195.205 136.098 192.783C134.228 195.183 135.188 194.666 132.678 195.678L130.358 192.825L128.658 193.377L127.768 192.866C131.738 191.301 133.518 190.803 136.978 188.276L136.948 186.556L134.138 185.525L134.258 182.694L135.718 181.642C134.928 179.652 134.568 179.003 133.598 177.108L134.288 176.569C145.208 178.869 137.088 180.519 140.588 188.136L142.188 188.431C145.908 185.505 144.258 183.591 149.628 181.28C149.368 182.871 149.058 185.317 148.678 186.802L148.058 187.316C145.078 189.853 145.108 190.129 143.838 193.986Z" fill="#2381D6"/>
<path d="M147.498 179.277C145.388 176.766 144.638 176.154 143.488 173.003L144.408 171.754L146.678 171.651C147.508 174.915 147.978 175.886 147.498 179.277Z" fill="#2381D6"/>
<path d="M122.298 166.001C124.278 165.906 125.738 165.777 127.648 166.416C129.128 169.324 127.768 172.804 126.938 175.764L126.368 176.374L124.158 175.132L123.798 173.428L126.188 171.617C125.648 169.419 123.448 168.62 122.298 166.001Z" fill="#2B78C6"/>
<path d="M114.648 175.266C116.778 176.924 118.618 178.608 120.468 180.559L119.998 183.583C117.948 182.066 115.938 180.512 113.848 179.038L114.648 175.266Z" fill="#2B78C6"/>
<path d="M132.618 166.541C133.288 166.314 132.808 166.436 134.108 166.501C134.268 166.892 134.758 168.057 134.968 168.371C135.258 168.801 135.628 169.172 135.958 169.573L135.358 171.452C135.178 171.416 134.988 171.415 134.808 171.345C132.728 170.494 131.588 169.57 130.628 167.618L132.618 166.541Z" fill="#2381D6"/>
<path d="M138.248 173.463L139.888 173.008C141.498 174.96 141.368 175.496 141.608 178.061C140.418 176.962 138.918 176.152 137.558 175.277L138.248 173.463Z" fill="#2381D6"/>
<path d="M171.398 497.754C181.118 509.138 172.928 509.156 172.318 515.766C172.478 517.978 172.728 519.557 172.238 521.731L172.038 522.61L173.358 524.428C177.338 527.835 174.138 531.041 175.208 536.267L173.918 539.635C174.788 542.161 174.828 541.454 174.808 543.966C176.158 546.161 177.878 548.34 178.118 550.804C163.158 545.299 147.318 539.811 137.218 526.338C138.218 516.289 164.088 515.184 171.398 497.754Z" fill="#2669B2"/>
<path d="M174.808 543.966C173.248 541.685 170.448 537.911 167.848 536.946L166.438 538.339L165.488 537.979C166.278 535.583 166.388 536.416 166.008 534.205C163.798 534.471 163.898 534.527 162.008 535.596C160.238 533.206 161.738 528.612 162.258 524.779L160.738 522.969C161.258 521.524 161.768 520.073 162.258 518.616C172.058 521.146 163.138 519.642 172.318 515.766C172.478 517.978 172.728 519.557 172.238 521.731L172.038 522.61L173.358 524.428C177.338 527.835 174.138 531.041 175.208 536.267L173.918 539.635C174.788 542.161 174.828 541.454 174.808 543.966Z" fill="#2381D6"/>
<path d="M173.357 524.428C177.337 527.835 174.137 531.041 175.207 536.267L173.917 539.635L171.177 537.123C170.497 534.986 169.837 533.16 168.757 531.177L167.697 530.93C170.217 527.491 171.557 528.095 173.357 524.428Z" fill="#2B78C6"/>
<path d="M176.778 145.471L181.568 142.732L186.648 143.43C188.548 146.448 188.128 144.839 187.888 148.442C185.328 150.836 186.708 150.488 183.918 150.556C180.578 151.271 179.378 151.497 176.248 152.769C172.608 152.84 169.998 152.819 166.368 152.56L165.168 149.355L166.098 147.805C170.188 147.896 171.868 147.851 175.918 147.301L176.778 145.471Z" fill="#030303"/>
<path d="M142.468 141.422C148.668 140.115 156.938 139.08 163.338 138.09C160.908 139.6 159.538 140.359 156.978 141.638L156.878 142.664C158.968 143.557 161.068 144.431 163.178 145.284C155.088 145.427 150.108 143.7 142.468 141.422Z" fill="#2B78C6"/>
<path d="M115.978 321.687L115.418 321.015C116.278 306.47 106.938 239.026 111.108 230.991C109.898 229.887 110.588 230.393 109.008 229.492C108.288 224.778 107.918 223.121 108.348 218.42C113.568 220.903 115.748 225.065 120.438 228.012C137.088 238.476 158.278 239.947 176.898 237.162L177.798 251.215C181.558 318.105 185.928 384.959 190.888 451.77L179.598 454.084C177.598 451.468 171.128 443.473 169.688 441.123C153.898 428.759 153.228 431.053 134.438 425.933C130.958 421.943 130.778 421.371 125.878 420.93C128.008 423.147 129.198 424.501 131.138 426.898C128.988 426.759 128.968 426.567 126.998 425.583C117.778 424.823 116.458 424.699 108.018 428.943C103.598 428.375 105.538 426.009 101.418 425.902C91.2282 433.605 88.3582 438.795 83.7682 450.507C58.3282 435.621 30.6382 411.598 53.9082 380.811C70.2782 359.158 92.7481 342.956 115.128 328.041L115.978 321.687Z" fill="#2669B2"/>
<path d="M115.978 321.687C128.518 313.075 137.268 316.022 146.538 326.624C148.238 337.4 148.728 340.731 142.978 350.345C132.098 368.545 115.288 396.99 122.768 418.807C124.618 419.578 124.648 419.338 125.878 420.93C128.008 423.147 129.198 424.501 131.138 426.898C128.988 426.759 128.968 426.567 126.998 425.583C117.778 424.823 116.458 424.699 108.018 428.943C103.598 428.375 105.538 426.009 101.418 425.902C91.2282 433.605 88.3582 438.795 83.7682 450.507C58.3282 435.621 30.6382 411.598 53.9082 380.811C70.2782 359.158 92.7481 342.956 115.128 328.041L115.978 321.687Z" fill="#F9F6F2"/>
<path d="M115.978 321.687C128.518 313.075 137.268 316.022 146.538 326.624C148.238 337.4 148.728 340.731 142.978 350.345C132.098 368.545 115.288 396.99 122.768 418.807C124.618 419.578 124.648 419.338 125.878 420.93C128.008 423.147 129.198 424.501 131.138 426.898C128.988 426.759 128.968 426.567 126.998 425.583C117.778 424.823 116.458 424.699 108.018 428.943C103.598 428.375 105.538 426.009 101.418 425.902C35.9181 392.721 124.668 364.495 142.228 338.507C143.548 336.552 142.968 331.75 141.668 329.65C134.238 317.722 124.748 322.734 115.128 328.041L115.978 321.687Z" fill="#030303"/>
<path d="M149.568 254.025C150.588 252.296 151.508 250.47 152.448 248.691L148.488 245.176L149.468 243.913C156.868 241.263 165.118 240.807 172.908 240.829C174.998 242.766 176.248 247.74 177.798 251.215C181.558 318.105 185.928 384.959 190.888 451.77L179.598 454.084C177.598 451.468 171.128 443.473 169.688 441.123C167.018 432.402 166.138 429.686 167.448 420.202C165.528 416.936 165.638 413.961 165.258 410.125C166.268 399.28 158.528 328.788 159.498 325.503L157.438 322.843L159.528 320.945L159.448 319.488L156.538 318.389L155.868 316.067L156.648 314.904C155.678 308.32 151.828 311.283 150.598 306.469C153.068 303.82 153.688 303.328 152.048 300.259L153.078 294.006C152.758 290.81 152.708 292.426 154.228 288.921L154.838 283.739L155.898 282.481L154.068 276.659C155.538 271.897 155.358 261.942 153.318 256.869L152.138 257.457L149.568 254.025Z" fill="#207FD5"/>
<path d="M153.078 294.006L156.548 296.907C158.688 301.12 157.198 308.063 159.168 313.455L158.568 314.618L156.648 314.904C155.678 308.32 151.828 311.283 150.598 306.469C153.068 303.82 153.688 303.328 152.048 300.259L153.078 294.006Z" fill="#2479CC"/>
<path d="M154.227 288.921C155.207 291.487 156.557 294.244 156.547 296.907L153.077 294.006C152.757 290.81 152.707 292.426 154.227 288.921Z" fill="#2381D6"/>
<path d="M152.178 418.087L150.758 417.908L149.088 419.369L147.058 419.02C148.018 417.225 147.968 417.343 148.188 415.313L145.848 412.72L146.488 411.026L150.878 412.029C154.158 411.029 152.828 411.965 154.808 408.856C153.568 407.223 152.438 405.864 151.128 404.3L151.518 402.594C153.598 403.107 155.638 403.731 157.688 404.337L158.868 403.47C158.288 400.942 158.208 399.797 156.728 397.619C153.588 397.602 151.118 398.06 148.758 396.222L148.698 394.186C151.528 390.604 150.488 390.716 153.948 390.006C154.058 394.079 154.528 392.168 152.048 395.816C155.238 395.066 160.438 393.388 163.298 393.94L164.368 395.688C163.178 397.801 162.438 399.014 161.038 401.06C161.538 403.279 161.478 403.143 162.788 405.001C161.618 408.15 160.698 407.513 159.138 409.73L157.608 411.652L157.588 412.983L158.598 414.392L159.588 417.295L156.388 417.486L154.288 420.259C152.418 419.262 153.128 419.986 152.178 418.087Z" fill="#2B78C6"/>
<path d="M152.178 418.087C152.928 416.594 153.338 415.832 154.248 414.435L156.388 417.486L154.288 420.259C152.418 419.262 153.128 419.986 152.178 418.087Z" fill="#2B75C3"/>
<path d="M145.938 308.022L145.868 310.737L144.588 311.756C141.778 309.943 141.648 309.398 139.988 306.597L142.208 303.037C146.668 301.393 144.508 305.137 149.328 304.562C148.268 302.442 147.608 301.558 146.278 299.628L146.988 298.351L149.618 297.795C150.738 299.625 150.348 298.633 150.338 300.949L152.048 300.259C153.688 303.328 153.068 303.82 150.598 306.469C151.828 311.283 155.678 308.32 156.648 314.904L155.868 316.067C153.968 316.52 153.698 316.585 151.758 316.659L151.348 311.394C148.408 308.094 149.848 308.786 145.938 308.022Z" fill="#2B78C6"/>
<path d="M144.117 306.826C145.027 307.304 145.527 307.361 145.937 308.022C145.567 307.792 144.337 307.116 144.117 306.826Z" fill="#2669B2"/>
<path d="M142.087 253.117L143.587 250.16C145.547 251.638 144.737 251.282 147.067 251.952C148.297 252.786 148.897 252.922 149.567 254.025L152.137 257.457L147.237 259.18C147.507 260.055 147.237 261.005 146.547 261.611C145.607 264.138 146.297 263.841 144.707 264.718L144.007 264.212C141.967 264.062 142.417 264.151 140.577 263.658C138.467 261.243 137.877 260.88 137.197 257.683C139.927 256.624 139.847 256.794 141.847 254.722L142.087 253.117Z" fill="#2B78C6"/>
<path d="M147.068 251.952C148.298 252.786 148.898 252.922 149.568 254.025L152.138 257.457L147.238 259.18C147.038 258.531 146.568 257.999 145.958 257.723C145.338 257.447 144.628 257.453 144.008 257.741C146.218 255.237 146.368 255.36 147.068 251.952Z" fill="#2776C7"/>
<path d="M144.008 257.741C144.628 257.453 145.338 257.447 145.958 257.723C146.568 257.999 147.038 258.531 147.238 259.18C147.508 260.055 147.238 261.005 146.548 261.611C146.018 262.082 145.298 262.286 144.598 262.164C143.898 262.043 143.288 261.609 142.948 260.985C142.638 260.413 142.578 259.737 142.778 259.118C142.988 258.51 143.428 258.012 144.008 257.741Z" fill="#2381D6"/>
<path d="M146.547 261.611L149.787 260.831C151.427 262.978 150.837 261.749 151.087 264.839L148.787 265.969C147.777 266.958 146.757 268.091 145.777 269.124C147.047 271.791 147.547 273.365 146.497 276.162L144.507 276.961L143.387 276.442L143.727 272.668C142.297 271.644 141.327 271.259 140.527 269.943C142.727 267.953 143.297 267.464 144.707 264.718C146.297 263.841 145.607 264.138 146.547 261.611Z" fill="#2381D6"/>
<path d="M159.138 409.73L162.108 412.914L163.578 412.823L165.258 410.125C165.638 413.961 165.528 416.936 167.448 420.202C165.378 423.926 164.318 425.812 160.598 427.807L158.988 426.407L159.228 424.334C162.478 422 164.018 420.734 164.998 416.597L163.818 414.71C161.838 414.451 160.608 414.432 158.598 414.392L157.588 412.983L157.608 411.652L159.138 409.73Z" fill="#2381D6"/>
<path d="M142.088 253.117C135.668 246.011 140.668 252.543 135.518 249.422L135.128 247.34L136.518 245.496C143.748 245.541 136.148 246.794 141.858 247.992L144.198 244.901C146.668 246.256 145.788 245.287 146.848 247.968L143.588 250.16L142.088 253.117Z" fill="#2381D6"/>
<path d="M159.497 325.503C158.317 327.395 158.397 327.254 156.367 328.214C154.037 326.259 153.477 324.732 151.947 322.075L153.517 321.346L157.437 322.843L159.497 325.503Z" fill="#2B78C6"/>
<path d="M154.837 283.739L153.897 282.389C151.487 283.465 151.667 283.425 149.027 283.334C149.767 280.532 151.977 278.82 154.067 276.659L155.897 282.481L154.837 283.739Z" fill="#2381D6"/>
<path d="M158.598 414.392C160.608 414.432 161.838 414.451 163.818 414.71L164.998 416.597L161.068 419.889C160.568 419.032 160.068 418.167 159.588 417.295L158.598 414.392Z" fill="#2B78C6"/>
<path d="M151.088 264.839L152.878 266.444L152.018 267.514C150.368 267.326 150.538 267.499 149.058 266.868L148.788 265.969L151.088 264.839Z" fill="#2B78C6"/>
<path d="M153.947 390.006L154.077 386.863L155.397 387.683L156.617 389.403L153.947 390.006Z" fill="#2B78C6"/>
<path d="M153.257 349.458C155.397 348.99 155.927 350.464 158.407 350.681C159.437 352.421 159.187 352.204 158.947 354.043L156.197 355.851L156.487 357.361L158.187 356.428C158.977 357.537 159.127 358.093 159.307 359.463C159.907 364.228 160.877 366.649 163.347 370.741L160.407 371.149C159.597 370.523 158.867 369.968 158.257 369.131C155.937 365.963 152.427 356.776 153.427 352.905C153.487 352.65 153.607 352.411 153.697 352.165L152.527 351.164L153.257 349.458Z" fill="#2381D6"/>
<path d="M141.598 366.602L143.648 367.786L144.178 370.049L145.668 370.751C146.438 368.989 146.878 368.32 148.508 367.289L149.878 367.753C149.778 369.435 149.728 370.127 148.688 371.543C147.668 372.956 147.838 373.058 147.708 374.772L149.338 376.009L148.308 376.617C146.718 375.855 145.008 375.095 143.568 374.084C141.128 372.375 140.108 371.318 139.678 368.454L141.598 366.602Z" fill="#2381D6"/>
<path d="M130.718 245.445C132.048 245.477 132.198 245.817 133.258 246.553C132.148 249.036 130.518 249.648 128.298 251.148L127.198 251.664L126.638 250.617L130.718 245.445Z" fill="#2C84D6"/>
<path d="M130.828 259.381C132.318 259.448 131.498 259.238 133.118 260.499C132.038 262.393 130.578 263.931 129.138 265.554L127.238 265.075C127.168 262.608 129.248 261.206 130.828 259.381Z" fill="#2381D6"/>
<path d="M135.738 382.2L141.458 383.483L140.978 385.708C139.358 386.868 140.278 386.543 138.188 386.605L135.738 382.2Z" fill="#2B78C6"/>
<path d="M138.387 272.932C139.217 273.631 138.747 273.132 139.467 274.67L135.807 279.311C134.357 277.786 134.687 278.088 134.667 276.192L138.387 272.932Z" fill="#2381D6"/>
<path d="M140.198 404.495L142.177 403.684C143.247 405.185 143.367 405.558 143.677 407.283C142.297 407.16 140.987 406.747 139.647 406.409L140.198 404.495Z" fill="#2B78C6"/>
<path d="M125.138 296.771C127.048 298.03 127.358 297.745 129.678 297.498L130.528 299.62L128.288 301.721L126.718 301.394L125.138 296.771Z" fill="#2B78C6"/>
<path d="M133.018 267.016C134.158 267.488 135.298 267.933 136.458 268.342L137.548 268.716L136.498 271.154L135.138 271.676L133.948 271.108L133.018 267.016Z" fill="#2381D6"/>
<path d="M146.958 278.634L148.908 278.451L147.408 280.385L145.128 280.656L144.968 279.287L146.958 278.634Z" fill="#2381D6"/>
<path d="M108.018 428.943C116.458 424.699 117.778 424.823 126.998 425.583L127.268 428.366C121.418 433.111 120.428 433.244 115.978 439.461L116.318 440.684C120.608 439.356 121.708 438.583 125.678 436.301C151.178 425.084 183.948 452.489 175.098 480.177C174.278 482.728 174.308 482.448 172.238 483.454C168.728 475.962 168.058 468.677 158.948 467.166C160.998 475.961 171.928 486.082 164.738 498.422C162.228 502.673 158.188 505.807 153.448 507.189C149.398 504.419 153.878 485.035 144.658 485.614C143.788 487.786 145.128 495.355 145.578 497.977C151.218 530.926 100.678 522.745 100.838 498.407C102.408 495.181 101.228 496.355 104.588 494.851C108.828 495.155 111.918 497.733 115.638 500.096C116.538 503.526 116.958 507.6 120.808 508.114C123.358 506.157 122.198 506.689 123.238 505.065C123.928 504.514 125.038 497.5 124.388 497.276C89.5581 485.227 108.428 466.771 103.378 455.157L102.188 455.142C98.2182 459.958 97.8482 464.543 94.7982 470.043L93.2182 469.939C79.3782 457.17 96.5681 437.088 108.018 428.943Z" fill="#207FD5"/>
<path d="M125.678 436.301C151.178 425.084 183.948 452.489 175.098 480.177C174.278 482.728 174.308 482.448 172.238 483.454C168.728 475.962 168.058 468.677 158.948 467.166C168.618 462.949 168.058 473.082 172.948 475.898C174.478 473.328 174.178 472.23 173.868 469.047C171.718 447.381 154.518 435.051 133.578 435.951C130.808 436.07 128.538 436.302 125.678 436.301Z" fill="#2B78C6"/>
<path d="M412.448 51.3497C414.998 50.9147 416.608 50.6317 419.128 51.5897C424.378 57.1797 423.658 67.9287 424.178 75.2677C418.498 71.2097 413.258 66.4577 407.938 61.9367L195.338 94.4687C180.868 96.6947 136.818 100.31 126.288 105.722C121.678 108.095 117.488 112.865 115.958 117.837C114.568 122.317 115.238 126.621 117.678 130.596C124.758 142.121 138.798 146.272 151.148 149.177C154.138 149.573 156.778 150.075 159.628 151.051L159.798 152.155C158.788 152.564 157.908 152.925 156.818 153.064C143.848 154.72 125.818 150.072 115.348 142.253C109.708 138.035 104.868 132.553 103.918 125.323C103.158 119.123 104.878 112.874 108.708 107.94C113.418 101.796 120.668 98.1047 128.018 96.1347C141.878 92.4237 157.298 91.2597 171.498 89.0927L243.908 77.6867L359.278 60.0537C377.028 57.2537 394.628 53.6707 412.448 51.3497Z" fill="#2479CC"/>
<path d="M400.318 68.3057L404.928 67.8947C407.248 68.8637 409.228 69.4507 410.668 71.6507C408.358 73.8917 403.698 74.3517 400.548 74.9297C367.618 80.9697 333.978 85.0197 300.858 90.0857C244.988 98.6327 189.148 107.64 133.178 115.536C130.088 115.987 127.648 116.351 124.578 115.653L124.018 114.224C127.388 110.959 131.488 109.665 135.958 108.588C163.228 102.029 192.778 99.6397 220.538 95.3927C280.408 86.0247 340.338 76.9957 400.318 68.3057Z" fill="#2B78C6"/>
<path d="M106.128 191.607C110.768 194.104 114.998 198.283 119.548 201.122C137.318 212.203 154.428 214.312 174.908 211.683C175.668 218.334 175.778 225.088 176.058 231.775C169.948 233.422 163.328 233.577 157.038 233.167C135.928 231.789 120.968 223.905 107.208 208.155L106.128 191.607Z" fill="#F9F6F2"/>
<path d="M189.867 457.34L191.117 459.007C192.177 465.537 193.217 470.356 190.877 476.786C188.237 479.111 186.407 479.105 183.007 479.808L182.098 478.513C182.358 472.236 181.808 465.912 181.438 459.645C183.848 458.126 187.067 457.874 189.867 457.34Z" fill="#F9F6F2"/>
<path d="M367.468 119.851C373.058 119.955 406.918 114.543 412.128 112.811C413.518 120.65 414.318 125.104 416.738 132.61L245.318 158.575C245.698 150.773 245.718 146.019 245.258 138.242L324.118 126.655C336.528 124.831 355.828 122.559 367.468 119.851Z" fill="#F9F6F2"/>
<path d="M418.038 137.385C420.448 138.966 422.528 143.846 424.228 146.349C433.208 159.595 443.298 167.857 457.728 174.671C458.118 197.773 459.978 221.023 461.148 244.11C464.328 306.97 468.438 369.979 469.978 432.897C453.308 443.716 443.658 459.594 438.668 478.501C401.248 486.146 363.458 492.411 325.918 499.501C310.548 502.405 283.088 509.463 268.468 510.013L267.098 508.523C266.218 506.845 265.308 505.184 264.368 503.541C256.208 489.346 244.378 482.736 228.958 478.621C221.448 388.849 216.718 298.624 210.798 208.716L211.658 208.233C231.418 197.039 238.688 184.813 244.658 163.245C268.888 161.043 293.118 156.602 317.148 152.838L418.038 137.385Z" fill="#F9F6F2"/>
<path d="M376.498 208.225C386.588 206.88 395.258 208.103 403.928 213.692C417.238 222.276 425.108 238.599 428.158 253.671C431.558 270.505 428.598 288.664 418.948 303.018C410.968 314.875 401.108 319.913 387.298 322.555C386.068 324.317 384.848 326.098 383.478 327.757C380.168 331.743 373.568 335.624 368.428 336.14C366.038 335.236 365.848 335.126 364.398 333.025C367.118 328.162 376.628 327.751 380.748 323.334C382.158 321.825 382.658 320.1 382.528 318.073C382.258 314.172 380.148 311.53 377.348 309.032C368.418 306.749 365.708 315.164 358.638 317.882C356.748 318.607 356.258 318.072 354.588 317.231L354.328 315.555L357.798 311.403C357.028 308.126 353.848 305.313 351.678 302.749C347.408 313.111 342.738 320.417 334.248 327.812C327.058 332.017 320.168 333.535 312.108 335.325C311.358 336.539 310.578 337.716 309.758 338.887C305.728 338.173 298.248 321.867 288.718 318.131C280.518 314.912 271.028 316.816 263.268 320.363C261.758 321.054 260.938 320.438 259.368 320.038L258.708 318.498C262.178 314.163 268.178 312.488 273.338 311.132C266.948 297.856 263.718 283.731 264.918 268.95C266.158 253.763 272.528 238.367 284.498 228.541C292.428 222.032 302.298 218.438 312.598 219.645C326.138 221.232 335.748 229.556 343.648 239.927C344.918 237.062 346.228 234.161 347.748 231.421C354.168 219.885 363.748 211.743 376.498 208.225Z" fill="#F9F6F2"/>
<path d="M303.188 225.282C309.828 224.744 316.498 225.54 322.588 228.343C337.378 235.149 342.928 249.66 347.898 263.964C335.548 265.956 323.158 267.635 310.738 268.998L269.748 274.528C270.778 264.838 272.098 255.463 276.578 246.676C282.398 235.246 291.318 229.186 303.188 225.282Z" fill="#F9F6F2"/>
<path d="M378.068 213.187C384.998 212.516 391.168 213.233 397.428 216.481C411.108 223.577 417.948 237.895 422.148 251.967C410.198 254.215 398.148 256.057 386.158 258.087C375.298 259.289 364.338 261.534 353.528 263.25C351.808 257.752 349.738 252.337 347.788 246.914C348.588 243.729 349.508 240.468 350.808 237.447C356.038 225.261 366.128 218 378.068 213.187Z" fill="#F9F6F2"/>
<path d="M347.788 269.455C348.988 270.431 349.198 271.973 349.398 273.421C351.358 287.654 346.958 304.134 338.228 315.549C330.598 325.523 321.948 328.655 309.928 330.216L309.438 329.498L308.608 328.313C307.988 327.424 307.378 326.531 306.758 325.651C299.838 315.959 290.568 312.394 279.338 310.587C276.268 304.284 274.038 298.084 271.998 291.377C271.398 288.419 270.428 285.241 271.558 282.316C272.528 279.796 273.098 278.881 275.558 277.955C281.688 280.129 283.198 292.591 286.468 298.269C289.028 302.712 292.768 307.459 298.048 308.616C302.998 309.701 308.728 307.581 312.818 304.876C319.778 300.278 320.788 293.456 322.198 285.86C317.498 284.612 312.598 283.891 307.818 282.991C311.908 280.097 315.558 276.617 319.288 273.282L347.788 269.455Z" fill="#F9F6F2"/>
<path d="M382.677 271.99C398.367 258.99 404.057 260.065 423.677 257.307C424.657 283.012 419.267 307.538 391.817 316.28L388.807 317.261C384.237 301.73 376.917 299.84 362.377 307.286C359.347 303.722 356.397 300.394 353.697 296.563C354.047 293.982 354.867 286.661 355.487 284.53C355.097 279.237 354.467 275.016 355.837 269.839C357.527 271.354 357.087 272.288 357.527 275.2C366.297 303.862 392.607 305.664 399.037 274.326L382.677 271.99Z" fill="#F9F6F2"/>
<path d="M355.488 284.53C355.098 279.237 354.468 275.016 355.838 269.839C357.528 271.354 357.088 272.288 357.528 275.2C356.038 278.92 356.018 280.488 355.488 284.53Z" fill="#F7F2EA"/>
<path d="M290.458 191.361C307.288 192.13 318.928 204.28 333.098 199.806L334.678 199.293C335.418 199.82 335.828 200.049 336.418 200.826C337.178 201.823 337.838 203.93 337.618 205.112C336.918 208.771 333.218 211.146 330.198 212.849C324.898 215.842 321.338 215.442 315.638 213.841C306.438 209.803 297.358 205.469 287.408 203.698C280.738 202.511 273.498 204.846 266.968 206.323L265.848 204.969C266.178 203.769 266.158 203.582 266.938 202.369C271.708 194.992 282.338 192.416 290.458 191.361Z" fill="#F9F6F2"/>
<path d="M290.788 339.713C292.558 340.909 292.868 341.106 293.748 343.025C292.608 346.025 289.168 347.84 286.648 349.654C312.138 361.459 339.868 367.422 367.568 359.028C376.148 356.428 384.198 352.126 392.938 350.094L394.018 351.566C391.948 355.964 384.798 358.269 380.558 360.122C379.468 360.511 378.368 360.883 377.268 361.238C344.008 372.13 313.998 369.266 282.948 353.48C282.328 357.498 282.258 361.958 279.398 365.043L277.628 364.896C275.768 361.734 276.218 358.593 277.118 355.17C279.228 347.178 284.028 343.631 290.788 339.713Z" fill="#F9F6F2"/>
<path d="M390.397 166.345C391.847 166.399 393.298 166.492 394.748 166.624C405.968 167.716 412.068 173.981 418.698 182.261C412.228 179.938 406.918 176.664 399.758 176.615C389.838 176.547 383.358 183.217 376.768 189.645C374.738 192.094 372.657 194.893 370.067 196.77C368.577 197.847 366.358 198.595 364.548 198.169C360.088 197.116 358.137 192.395 356.067 188.738C364.457 177.455 376.357 168.585 390.397 166.345Z" fill="#F9F6F2"/>
<path d="M362.198 377.887L364.538 379.247L364.868 381.148C364.108 382.184 364.168 382.214 363.048 383.181C357.098 388.344 343.858 387.843 336.658 386.68C335.438 386.034 334.618 385.261 333.598 384.349L333.708 382.643C339.098 379.737 350.928 383.65 362.198 377.887Z" fill="#F9F6F2"/>
<path d="M496.128 374.437C514.708 358.257 548.428 389.367 534.658 408.141L530.488 408.524C528.518 411.19 529.178 412.063 528.938 416.107C527.158 435.078 524.078 436.614 510.308 448.382L510.208 450.328L513.298 451.873C513.728 453.647 513.928 454.582 514.748 456.224C523.358 454.645 519.768 443.269 530.388 440.169C542.718 445.689 527.908 460.877 522.308 465.734C516.448 474.635 505.938 472.01 496.788 470.984C496.698 475.012 497.118 490.668 495.768 493.054L494.978 493.488L441.468 503.449C442.758 472.487 456.658 434.49 492.018 430.109L494.108 430.241C498.288 426.586 491.278 390.279 494.338 382.835C495.048 381.101 494.908 377.938 494.708 376.031L496.128 374.437Z" fill="#207FD5"/>
<path d="M492.018 430.109C492.858 448.751 493.158 475.89 494.978 493.488L441.468 503.449C442.758 472.487 456.658 434.49 492.018 430.109Z" fill="#207FD5"/>
<path d="M492.018 430.109L494.107 430.241C498.287 426.586 491.277 390.279 494.337 382.835C495.047 381.101 494.908 377.938 494.708 376.031L496.127 374.437L497.288 377.249C501.248 378.769 505.668 379.7 507.488 383.018L506.998 384.854C500.688 385.067 501.997 382.836 496.887 384.86C493.897 389.788 498.727 458.159 499.107 468.35C510.097 469.804 511.957 469.7 522.307 465.734C516.447 474.635 505.938 472.01 496.788 470.984C496.698 475.012 497.118 490.668 495.768 493.054L494.978 493.488C493.158 475.89 492.858 448.751 492.018 430.109Z" fill="#000513"/>
<path d="M528.937 416.107C527.187 408.582 521.927 400.912 521.277 396.97L522.417 395.694C528.137 395.64 529.677 404.109 534.657 408.141L530.487 408.524C528.517 411.19 529.177 412.063 528.937 416.107Z" fill="#000513"/>
<path d="M462.758 175.737C468.828 176.525 474.958 176.796 481.058 177.166C483.318 199.304 492.748 418.267 490.978 423.161L488.708 424.042C484.068 425.579 479.558 427.672 475.048 429.562C472.148 344.96 466.808 260.305 462.758 175.737Z" fill="#F9F6F2"/>
<path d="M260.438 556.465C262.258 556.064 261.358 555.951 263.088 556.97C261.898 561.89 257.908 567.349 255.318 571.735C237.198 602.367 214.338 625.377 187.708 648.661C183.048 646.046 177.808 642.436 172.348 642.126C167.418 641.846 164.058 644.857 160.738 648.064C160.208 648.641 160.617 648.306 159.188 648.433C155.767 644.711 153.817 640.085 151.647 635.58C182.587 614.35 208.037 591.244 227.637 558.703C238.627 558.321 249.498 557.513 260.438 556.465Z" fill="#F9F6F2"/>
<path d="M435.418 484.286L436.168 484.325C438.148 487.991 436.088 499.833 435.928 504.564L274.368 534.293C273.128 527.861 271.488 521.514 269.918 515.157L435.418 484.286Z" fill="#F9F6F2"/>
<path d="M383.558 529.056L385.378 528.866C395.398 532.44 407.758 545.2 414.488 553.325C417.588 557.065 422.488 563.328 421.718 568.407C419.798 581.113 398.908 592.519 389.298 599.055C384.478 596.291 379.098 593.415 373.398 595.222C368.478 596.779 366.328 600.951 363.978 605.158C357.948 600.945 353.008 596.238 348.408 590.509C356.578 582.427 368.058 578.67 376.028 570.609C378.418 568.182 379.388 566.375 379.368 562.977C375.448 552.235 359.498 544.008 350.338 537.865C361.598 535.757 372.648 532.514 383.558 529.056Z" fill="#F9F6F2"/>
<path d="M500.258 285.571C514.518 291.447 529.478 299.209 541.568 308.753C551.178 316.347 560.578 326.374 561.738 339.176C563.138 354.796 552.958 368.616 543.568 379.944C542.398 381.193 541.318 382.012 539.858 382.908C532.078 376.066 527.648 370.083 517.928 365.637C521.678 361.853 525.928 357.596 528.818 353.122C531.268 349.338 532.838 344.547 531.818 340.047C529.418 329.417 512.688 321.678 504.088 316.403C499.878 305.937 498.878 296.735 500.258 285.571Z" fill="#F9F6F2"/>
<path d="M136.268 632.961C141.258 625.836 145.468 620.147 155.128 619.882L156.638 622.89L156.758 621.411C157.118 625.494 157.408 623.873 154.548 627.833C152.278 629.78 150.768 630.064 150.458 633.24C149.778 640.097 156.508 654.829 165.228 651.479C166.558 650.163 169.058 647.287 171.108 647.8C177.398 649.379 190.548 650.775 190.248 658.993C188.008 663.118 185.108 665.732 183.118 669.275L183.148 671.49C181.778 671.887 180.478 672.334 179.188 672.947L179.128 675.34C176.968 675.681 156.338 675.433 153.968 675.148L153.168 673.286C151.868 674.934 151.798 685.076 150.658 689.913L154.868 692.491C156.848 697.53 148.928 705.252 145.318 714.155L144.668 715.792C133.978 698.053 130.338 690.863 122.598 671.668C136.458 659.277 136.908 650.335 136.268 632.961Z" fill="#207FD5"/>
<path d="M157.398 655.776C152.748 649.398 143.048 635.81 148.118 628.094C151.918 626.63 150.308 626.853 154.548 627.833C152.278 629.78 150.768 630.064 150.458 633.24C149.778 640.097 156.508 654.829 165.228 651.479C166.558 650.163 169.058 647.287 171.108 647.8C177.398 649.379 190.548 650.775 190.248 658.993C188.008 663.118 185.108 665.732 183.118 669.275L183.148 671.49C181.778 671.887 180.478 672.334 179.188 672.947L179.128 675.34C176.968 675.681 156.338 675.433 153.968 675.148L153.168 673.286C151.868 674.934 151.798 685.076 150.658 689.913C144.818 676.045 153.668 669.271 156.968 657.339L157.398 655.776Z" fill="#000513"/>
<path d="M165.228 651.479C166.558 650.163 169.058 647.287 171.108 647.8C177.398 649.379 190.548 650.775 190.248 658.993C188.008 663.118 185.108 665.732 183.118 669.275C173.838 665.442 170.228 664.467 160.268 663.83C161.648 659.486 163.418 655.65 165.228 651.479Z" fill="#2479CC"/>
<path d="M153.968 675.148C159.608 666.461 170.918 671.002 179.188 672.947L179.128 675.34C176.968 675.681 156.338 675.433 153.968 675.148Z" fill="#F7F2EA"/>
<path d="M327.147 592.998C335.767 586.729 333.787 574.102 346.307 576.925C348.867 577.503 350.357 578.13 351.427 580.364C349.097 583.143 346.438 582.548 342.958 585.805C344.348 604.115 357.248 599.406 362.218 613.215C363.688 617.285 356.148 621.675 356.228 628.423C357.858 631.331 358.377 631.781 360.587 634.125L360.827 635.523C361.577 639.76 361.847 642.922 366.157 645.047C369.897 647.983 371.877 648.464 373.077 652.383C372.317 655.366 371.688 656.312 370.278 658.966C368.428 661.035 367.727 662.014 365.357 663.563L364.688 663.142C362.297 664.106 363.128 664.049 360.698 664.107L360.397 661.956C356.097 656.754 335.927 639.52 328.087 631.304L331.798 620.964C332.188 608.427 331.587 604.492 327.147 592.998Z" fill="#207FD5"/>
<path d="M327.147 592.998C335.767 586.729 333.787 574.102 346.307 576.925C348.867 577.503 350.357 578.13 351.427 580.364C349.097 583.143 346.438 582.548 342.958 585.805C342.628 582.418 342.837 583.348 344.877 579.744C324.777 578.554 337.158 610.873 332.988 620.637L331.798 620.964C332.188 608.427 331.587 604.492 327.147 592.998Z" fill="#2B78C6"/>
<path d="M366.157 645.047C369.897 647.983 371.877 648.464 373.077 652.383C372.317 655.366 371.688 656.312 370.278 658.966C368.428 661.035 367.727 662.014 365.357 663.563L364.688 663.142C362.297 664.106 363.128 664.049 360.698 664.107L360.397 661.956C368.027 654.457 371.237 655.253 366.157 645.047Z" fill="#000513"/>
<path d="M186.968 689.317C191.178 689.37 195.708 690 199.578 691.726C209.198 696.019 213.448 704.977 217.218 714.153C205.578 716.96 193.337 717.779 181.427 718.647C171.017 718.931 160.298 718.053 149.978 716.84C151.788 712.328 153.917 707.867 156.867 703.978C164.677 693.718 174.848 690.728 186.968 689.317Z" fill="#F9F6F2"/>
<path d="M370.278 658.966C414.278 624.203 425.977 681.388 414.077 690.106C406.497 690.581 368.727 670.436 365.357 663.563C367.727 662.014 368.428 661.035 370.278 658.966Z" fill="#F9F6F2"/>
<path d="M109.377 646.682C112.557 650.379 112.767 659.679 114.257 664.774C118.937 680.693 126.867 703.075 138.407 714.966C151.337 728.295 182.497 724.665 199.267 722.449C205.437 721.633 211.777 719.965 218.007 720.084L219.277 721.427C218.997 724.112 217.767 725.664 216.277 727.8C204.177 730.924 191.757 732.673 179.267 733.014C165.797 733.474 144.677 733.993 134.327 723.737C122.037 711.548 104.747 673.837 104.907 656.636C104.947 651.912 106.017 649.941 109.377 646.682Z" fill="#F9F6F2"/>
<path d="M305.227 610.649C311.287 616.924 315.277 625.971 321.247 632.678C340.127 653.902 364.527 673.727 389.787 686.61C396.467 690.017 403.997 691.404 410.457 694.725C412.527 695.791 412.677 696.004 413.247 698.123L410.827 701.547C400.427 702.818 387.417 695.366 378.707 690.336C361.667 680.496 304.937 636.153 302.447 617.425C302.027 614.293 303.557 613.059 305.227 610.649Z" fill="#F9F6F2"/>
<path d="M373.728 599.594C379.688 599.713 388.318 602.682 392.488 607.132C394.298 609.071 394.197 610.352 394.067 612.872C392.567 615.085 391.258 616.841 389.208 618.565C383.668 616.807 378.678 617.277 373.178 616.297C370.408 615.804 369.207 614.937 367.607 612.736C367.367 607.765 370.848 603.367 373.728 599.594Z" fill="#2479CC"/>
<path d="M320.888 595.749C322.128 596.634 322.088 596.396 322.768 597.466C326.538 603.379 327.768 614.037 326.098 620.817C325.568 622.996 325.108 624.224 323.168 625.451L321.128 623.593C316.778 618.17 313.138 612.247 309.408 606.398L320.888 595.749Z" fill="#F9F6F2"/>
<path d="M129.638 635.924L130.758 637.128C131.738 644.013 131.048 650.014 127.968 656.335C126.158 660.044 123.668 663.628 119.698 664.921C117.818 657.991 116.588 651.044 115.408 643.967C120.028 641.11 124.898 638.573 129.638 635.924Z" fill="#F9F6F2"/>
<path d="M384.418 630.253C386.498 630.297 388.478 630.802 390.508 631.217L389.878 633.003L391.278 632.346C386.408 634.913 379.288 635.507 373.858 637.253C372.118 638.223 370.648 638.776 368.718 639.265L367.218 638.324L367.618 636.294C372.928 631.671 377.658 631.312 384.418 630.253Z" fill="#F7F2EA"/>
<path d="M371.518 622.246C375.768 621.964 382.038 621.179 385.518 624.06C383.488 626.027 379.448 625.893 376.688 626.173L372.438 627.204C368.768 628.135 367.018 628.562 363.308 627.426L362.878 626.011C365.298 623.569 368.298 623.101 371.518 622.246Z" fill="#F9F6F2"/>
<path d="M161.128 680.387C164.198 680.163 167.358 680.095 170.428 680.363C173.068 680.592 177.378 681.283 179.048 683.234C175.998 684.46 172.558 684.085 169.318 684.027C164.528 685.159 160.408 686.169 155.428 685.599L155.098 683.294C156.918 681.912 159.018 681.215 161.128 680.387Z" fill="#F7F2EA"/>
<path d="M391.817 639.358C393.407 639.381 393.628 639.524 394.938 640.289C392.408 643.082 380.437 645.007 376.147 646.368C375.477 646.668 374.718 646.565 373.998 646.58L373.478 644.936C377.598 640.227 386.007 639.978 391.817 639.358Z" fill="#F7F2EA"/>
</svg>
