<svg width="608" height="784" viewBox="0 0 608 784" fill="none" xmlns="http://www.w3.org/2000/svg">
<path d="M109.372 325.258L100.018 185.168C98.909 167.958 97.555 150.598 96.471 133.368C93.79 90.7181 131.392 91.7681 163.294 86.7581L252.443 72.8081L354.583 56.8021C374.159 53.6801 393.69 50.2971 413.38 48.0901C428.82 46.3611 426.79 69.9681 427.25 80.6481C431.21 84.7581 436.35 86.9481 441.5 91.5181C447.22 94.3681 454.8 98.5281 460.88 100.238C467.06 101.978 475.39 96.648 479.68 102.068C482.05 113.968 482.87 147.598 483.53 161.568L489.26 272.678C540.67 295.768 603.81 325.548 542.34 386.208C546.31 399.588 545.37 402.068 535.14 411.038C535.19 418.918 534.83 422.308 532.63 430.058C556.7 445.588 525.79 474.048 500.39 470.378C500.74 478.008 501.29 486.268 501.44 493.848C482.92 497.638 464.07 500.748 445.48 504.298C426.74 507.878 407.86 511.998 389.021 514.848C382.968 540.618 378.728 551.428 364.035 573.878C374.603 593.678 378.585 612.578 384.093 633.888C384.606 635.878 385.023 637.678 386.789 637.808C401.45 638.838 398.47 644.578 402.61 655.658C403.76 658.728 422.01 661.318 425.66 662.768C444.68 662.128 462.14 659.818 474.87 678.268C478.34 683.288 485.99 697.988 485.04 704.808C484.41 708.278 481.98 712.198 478.46 713.778C439.79 731.128 382.91 739.888 340.925 733.078C337.091 732.458 332.03 729.858 330.617 726.788C325.682 716.058 327.81 690.058 329.899 678.858C322.949 664.098 323.049 655.388 340.281 649.588C337.891 634.068 335.292 618.868 330.322 603.918C313.149 615.168 295.425 620.048 275.006 621.768C270.298 635.548 255.376 635.838 260.591 650.258C261.53 652.858 277.202 656.078 281.105 657.398C292.407 661.548 304.722 702.968 292.241 708.338C268.528 718.558 225.958 718.178 201.686 711.188C165.109 700.648 166.326 615.368 173.88 585.618C179.927 561.808 222.335 570.368 240.002 566.508C265.622 559.528 253.533 581.208 272.007 579.828C283.8 578.958 298.317 574.178 308.696 568.588C299.868 557.838 289.213 544.508 279.236 534.808C261.298 538.888 242.457 542.238 224.34 545.708C208.309 546.698 198.028 552.848 184.514 552.168C161.854 551.018 143.246 538.378 128.635 521.738C115.523 521.058 98.0611 515.308 96.0251 499.558C95.1851 493.058 97.4761 491.008 101.256 486.238C100.011 482.778 98.745 479.328 97.458 475.888C85.337 470.098 83.6411 467.748 82.4411 454.448C49.1481 434.618 22.076 406.528 54.804 370.348C71.96 351.388 87.787 338.808 109.372 325.258Z" fill="#000513"/>
<path d="M242.561 164.408C300.588 157.008 358.807 147.348 416.55 137.928C426.33 155.558 437.18 165.648 455.48 174.078L470.68 428.628C467.88 430.638 465.2 432.738 462.69 435.098C453.11 444.098 440.44 460.828 440.07 474.588C420.88 478.998 401.27 482.138 381.904 485.698L268.381 506.488L265.284 500.968C256.888 486.208 245.472 479.848 229.549 475.448L209.75 209.198C212.615 207.608 215.427 205.928 218.183 204.168C232.884 194.608 239.06 181.138 242.561 164.408Z" fill="#F9F6F2"/>
<path d="M375.981 207.408C385.061 206.718 392.83 207.788 400.86 212.288C414.03 219.698 422.27 233.388 426.02 247.698C430.35 264.238 428.91 283.058 420.09 297.948C412.01 311.588 401.24 317.348 386.267 321.328C384.363 324.408 382.042 327.608 379.198 329.898C375.729 332.688 368.139 333.918 363.799 333.678L362.97 332.328C366.091 327.518 371.416 326.888 376.243 324.498C378.672 323.298 380.682 321.788 381.356 319.008C382.259 315.268 380.756 311.188 378.914 307.988C370.562 302.818 363.439 315.328 355.578 316.828L354.55 315.508C355.084 313.418 355.81 311.118 356.007 308.978C356.294 305.838 353.029 303.178 351.128 300.968C346.862 311.868 341.651 318.828 332.786 326.458C325.409 331.368 318.695 331.288 310.758 334.108C309.826 335.818 309.412 336.878 307.58 337.688C301.48 334.148 301.956 323.078 291.418 318.198C277.253 311.628 265.91 321.328 258.556 317.138L259.049 316.118C263.457 312.888 267.439 311.368 272.577 309.708C266.099 296.318 262.4 282.048 263.82 267.098C265.215 252.408 271.516 237.578 283.136 228.108C291.116 221.608 301.281 217.978 311.632 219.258C324.955 220.898 335.006 229.328 342.825 239.638C344.054 236.818 345.283 233.968 346.71 231.228C353.273 218.668 362.619 211.528 375.981 207.408Z" fill="#F9F6F2"/>
<path d="M299.629 225.488C307.953 224.608 315.311 224.918 322.946 228.718C336.574 235.508 342.471 249.298 347.192 262.828C335.389 264.778 323.439 266.138 311.583 267.748L269.028 273.598C269.422 264.938 270.704 256.548 274.245 248.558C279.404 236.918 287.856 230.008 299.629 225.488Z" fill="#F9F6F2"/>
<path d="M379.105 212.388C384.759 212.378 389.79 212.998 395.04 215.308C410.02 221.898 416.23 236.158 421.44 250.528C409.6 252.538 397.79 254.858 385.97 257.018C374.861 258.208 363.721 260.178 352.654 261.768C351.187 256.788 349.156 251.988 347.25 247.168C348.488 241.298 350.034 235.948 353.161 230.768C359.226 220.718 367.946 215.118 379.105 212.388Z" fill="#F9F6F2"/>
<path d="M344.517 268.668C345.85 268.378 346.241 268.518 347.522 268.848C348.015 269.818 348.402 270.538 348.559 271.628C350.568 285.578 346.434 303.818 337.333 314.738C329.472 324.168 320.134 327.428 308.323 328.428C307.912 327.658 307.488 326.888 307.051 326.128C300.514 314.808 290.785 312.018 278.997 308.738C274.915 302.248 272.56 295.698 270.651 288.318L269.818 282.158C270.871 279.368 271.635 278.498 273.985 276.668C281.906 276.448 281.794 300.258 293.622 305.598C298.299 307.718 302.577 308.088 307.242 305.958C312.562 303.528 319.263 297.698 320.899 291.868C321.67 289.128 320.973 287.838 319.755 285.398C316.37 283.188 310.82 282.918 306.846 282.218L317.4 272.228C326.287 270.598 335.543 269.818 344.517 268.668Z" fill="#F9F6F2"/>
<path d="M382.394 271.018C396.71 257.278 403.47 258.508 422.37 255.698C423.71 283.948 417.92 307.008 387.492 314.948C383.751 299.428 375.35 298.388 362.01 305.638L353.049 295.598C353.695 288.678 354.491 282.308 353.995 275.358C353.369 271.558 353.276 271.388 354.28 267.758L355.287 268.108L355.983 271.418C358.715 280.108 361.453 289.308 370.319 293.878C374.414 295.968 379.194 296.268 383.519 294.708C390.88 292.078 398.98 283.348 397.13 274.998C393.76 271.338 387.744 271.558 382.394 271.018Z" fill="#F9F6F2"/>
<path d="M353.994 275.358C353.368 271.558 353.275 271.388 354.279 267.758L355.286 268.108L355.982 271.418L353.994 275.358Z" fill="#F7F2EA"/>
<path d="M282.888 192.488C297.971 190.998 307.849 197.928 321.889 201.138C326.172 202.118 329.488 198.178 333.897 199.348C335.016 200.678 335.27 201.188 335.264 202.998C335.253 206.178 332.328 210.418 330.032 212.408C326.41 215.528 321.828 215.318 317.36 214.968C307.37 210.818 297.624 206.568 286.939 204.548C279.53 203.148 272.174 205.268 264.918 206.818L263.819 205.048C263.915 204.748 263.974 204.438 264.109 204.158C266.745 198.678 277.361 194.338 282.888 192.488Z" fill="#F9F6F2"/>
<path d="M383.997 167.388C390.99 166.568 397.04 166.838 403.49 169.958C407.24 171.768 411.51 174.068 412.95 178.118C407.31 180.718 402.25 176.988 396.63 176.528C389.389 175.938 382.038 183.548 377.189 188.128C374.547 191.078 371.79 194.598 368.573 196.928C367.076 198.008 364.976 198.788 363.14 198.398C358.674 197.438 356.609 192.838 354.448 189.248C361.601 178.888 371.996 171.198 383.997 167.388Z" fill="#F9F6F2"/>
<path d="M291.142 338.008C292.312 338.878 292.833 339.658 293.663 340.838C292.636 343.948 289.686 344.548 287.414 346.858C290.84 351.518 300.359 354.468 305.785 356.048C325.847 361.908 348.906 362.668 369.077 356.618C376.152 354.488 386.509 347.788 393.68 348.918L393.19 350.688C389.409 354.608 384.171 356.428 379.275 358.598C344.272 370.088 315.594 367.708 282.849 351.428C281.913 355.628 281.822 359.528 278.961 362.798L277.282 362.408C275.6 358.548 276.591 354.128 278.113 350.348C280.669 343.978 285.099 340.728 291.142 338.008Z" fill="#F9F6F2"/>
<path d="M362.363 375.178C364.276 376.498 364.666 376.208 365.263 378.578C364.329 379.438 363.466 380.218 362.384 380.898C354.39 385.858 343.63 385.728 334.827 383.728C334.037 382.828 333.891 381.898 333.542 380.778C336.333 377.978 347.577 380.018 352.084 379.378C355.674 378.878 359.188 376.848 362.363 375.178Z" fill="#F9F6F2"/>
<path d="M441.499 91.5181C447.219 94.3681 454.799 98.528 460.879 100.238C467.059 101.978 475.389 96.648 479.679 102.068C482.049 113.968 482.869 147.598 483.529 161.568L489.259 272.678C540.669 295.768 603.809 325.548 542.339 386.208C546.309 399.588 545.369 402.068 535.139 411.038C535.189 418.918 534.829 422.308 532.629 430.058C556.699 445.588 525.789 474.048 500.389 470.378C500.739 478.008 501.289 486.268 501.439 493.848C482.919 497.638 464.069 500.748 445.479 504.298C426.739 507.878 407.859 511.998 389.02 514.848C382.967 540.618 378.727 551.428 364.034 573.878C374.602 593.678 378.584 612.578 384.092 633.888C384.605 635.878 385.022 637.678 386.788 637.808C401.449 638.838 398.469 644.578 402.609 655.658C403.759 658.728 422.009 661.318 425.659 662.768C444.679 662.128 462.139 659.818 474.869 678.268C478.339 683.288 485.989 697.988 485.039 704.808C484.409 708.278 481.979 712.198 478.459 713.778C439.789 731.128 382.909 739.888 340.924 733.078C337.09 732.458 332.029 729.858 330.616 726.788C325.681 716.058 327.809 690.058 329.898 678.858C322.948 664.098 323.048 655.388 340.28 649.588C337.89 634.068 335.291 618.868 330.321 603.918C313.148 615.168 295.424 620.048 275.005 621.768C270.297 635.548 255.375 635.838 260.59 650.258C261.529 652.858 277.201 656.078 281.104 657.398C292.406 661.548 304.721 702.968 292.24 708.338C268.527 718.558 225.957 718.178 201.685 711.188C165.108 700.648 166.325 615.368 173.879 585.618C179.926 561.808 222.334 570.368 240.001 566.508C265.621 559.528 253.532 581.208 272.006 579.828C283.799 578.958 298.316 574.178 308.695 568.588C299.867 557.838 289.212 544.508 279.235 534.808C261.297 538.888 242.456 542.238 224.339 545.708C222.463 544.938 221.618 544.748 220.328 543.128L223.995 540.318C232.953 536.558 259.183 533.368 270.08 531.268C269.223 526.278 267.904 521.378 266.687 516.458C266.785 512.988 266.447 509.508 268.38 506.488L381.903 485.698C401.269 482.138 420.879 478.998 440.069 474.588C443.659 479.608 440.249 491.638 441.819 498.438C445.749 499.288 488.059 490.938 495.429 489.588C495.209 476.608 493.759 462.908 493.379 449.678C494.539 442.668 492.409 430.478 495.119 426.228L497.389 428.438C497.079 418.718 493.989 389.578 496.209 382.228C501.039 379.988 502.849 383.508 506.959 381.328C507.399 374.018 499.399 378.438 495.599 373.478C495.849 370.168 497.139 369.328 499.399 366.848C497.519 366.908 495.729 366.548 494.609 367.658C489.779 372.448 490.379 386.438 490.209 393.288C488.659 381.608 488.179 355.948 487.569 343.238L482.039 232.288C481.219 216.598 480.769 192.968 478.919 177.768C476.739 175.978 473.389 176.288 470.389 176.158C472.739 175.808 475.089 175.418 477.429 174.968C484.169 169.318 481.259 155.428 477.619 148.918C476.629 134.048 475.749 119.168 474.989 104.278C471.169 103.618 458.989 103.238 454.469 102.998C453.109 101.978 453.059 102.108 451.419 101.878C448.049 100.558 447.569 100.558 445.189 97.998L441.659 94.7881L441.499 91.5181Z" fill="#030303"/>
<path d="M499.4 366.848C506.47 366.628 510.86 366.378 517.53 369.438C531.53 375.838 544.08 388.748 534.93 404.438C532.91 405.758 533.4 405.398 531.18 405.718C529.26 412.448 533.68 419.658 528.24 425.388C519 441.578 520.39 435.428 510.96 445.268C512.65 449.318 513.11 445.208 515.66 451.128C522.27 446.908 524.17 437.508 531.99 436.018C545.41 449.448 511.85 473.728 500.67 462.848C498.59 457.528 497.68 435.368 497.39 428.438C497.08 418.718 493.99 389.578 496.21 382.228C501.04 379.988 502.85 383.508 506.96 381.328C507.4 374.018 499.4 378.438 495.6 373.478C495.85 370.168 497.14 369.328 499.4 366.848Z" fill="#207FD5"/>
<path d="M528.239 425.388L528.629 421.238C530.659 400.148 521.009 397.158 521.239 392.018C527.729 393.878 529.589 399.248 533.719 403.278L534.929 404.438C532.909 405.758 533.399 405.398 531.179 405.718C529.259 412.448 533.679 419.658 528.239 425.388Z" fill="#000513"/>
<path d="M326.01 538.688C327.387 538.378 328.412 538.548 329.801 538.698C336.895 543.878 342.127 550.868 347.185 557.948C365.242 583.208 373.513 609.038 379.694 639.048C357.284 646.918 368.77 651.528 360.843 662.048C357.36 663.818 353.617 663.178 349.825 662.988C344.684 655.908 340.879 615.748 335.76 602.188C327.034 579.058 308.05 558.608 292.085 540.068C303.492 540.378 314.663 539.688 326.01 538.688Z" fill="#F9F6F2"/>
<path d="M233.314 575.568C238.408 573.438 246.482 569.198 252.03 571.698C254.735 572.918 255.571 574.928 256.696 577.458C255.921 579.208 255.891 579.448 254.103 580.028C247.196 582.278 240.039 577.908 235.003 585.608C230.269 592.838 231.208 604.568 231.856 612.798C229.161 616.998 226.935 621.108 224.913 625.678L218.645 629.218C218.857 632.618 219.159 635.788 219.766 639.148C220.254 641.858 220.274 643.318 219.477 645.928L219.535 651.238C218.244 652.808 218.146 653.738 217.837 655.728C217.231 659.628 216.733 663.358 216.647 667.308C211.63 673.338 209.056 680.528 204.391 686.708L202.573 686.458C194.68 675.748 192.012 651.198 191.035 638.058L189.582 637.788C189.192 637.008 189.092 636.898 188.886 635.908C187.742 630.378 188.009 613.438 191.534 609.058C193.016 607.218 192.633 608.448 192.711 606.128C192.554 605.828 192.354 605.548 192.24 605.228C189.833 598.558 195.601 583.228 197.84 576.698C203.431 575.088 210.318 571.998 216.053 573.838C217.597 576.228 216.761 577.428 216.235 580.158L217.712 579.408C219.01 576.488 219.815 574.148 222.514 572.298L233.314 575.568Z" fill="#207FD5"/>
<path d="M197.84 576.698C203.431 575.088 210.318 571.998 216.053 573.838C217.597 576.228 216.761 577.428 216.235 580.158C210.054 592.858 204.458 598.608 192.711 606.128C192.554 605.828 192.354 605.548 192.24 605.228C189.833 598.558 195.601 583.228 197.84 576.698Z" fill="#F9F6F2"/>
<path d="M216.235 580.158L217.712 579.408C219.01 576.488 219.815 574.148 222.514 572.298C221.946 583.518 216.58 594.328 208.306 601.838C203.223 606.458 197.506 609.238 191.215 611.808C191.051 620.548 190.703 629.328 191.035 638.058L189.582 637.788C189.192 637.008 189.092 636.898 188.886 635.908C187.742 630.378 188.009 613.438 191.534 609.058C193.016 607.218 192.633 608.448 192.711 606.128C204.458 598.608 210.054 592.858 216.235 580.158Z" fill="#000513"/>
<path d="M218.645 629.218C218.857 632.618 219.159 635.788 219.766 639.148C220.254 641.858 220.274 643.318 219.477 645.928L219.535 651.238C218.244 652.808 218.147 653.738 217.838 655.728C217.232 659.628 216.733 663.358 216.647 667.308C214.89 664.568 213.913 662.748 214.061 659.438C214.413 651.528 215.027 635.788 218.645 629.218Z" fill="#000513"/>
<path d="M437.37 480.688C438.96 483.468 436.76 496.698 436.56 500.678C382.474 509.458 328.458 520.388 274.604 530.498C273.695 523.938 272.638 517.738 270.713 511.398C326.219 501.138 381.665 489.718 437.37 480.688Z" fill="#F9F6F2"/>
<path d="M498.999 283.468C512.859 287.148 530.189 297.848 541.609 306.508C551.129 313.728 560.2 323.648 561.53 336.048C563.22 351.708 552.84 365.328 543.39 376.568L540.849 379.128C536.039 378.068 531.199 370.948 527.109 367.768C524.549 365.778 521.429 364.298 518.569 362.808C521.749 359.208 525.349 355.418 527.939 351.358C530.629 347.138 532.469 341.848 531.099 336.848C528.179 326.188 511.14 318.618 502.27 313.358C498.5 303.458 497.829 293.928 498.999 283.468Z" fill="#F9F6F2"/>
<path d="M186.754 576.018C188.796 575.938 190.075 575.688 191.85 576.868C190.876 579.718 189.998 582.608 189.215 585.528C182.719 609.958 183.842 666.828 197.003 687.858C207.041 703.898 257.623 699.868 273.803 697.308C278.611 696.538 288.163 692.438 292.183 693.298C292.314 693.598 292.487 693.878 292.577 694.188C293.557 697.618 292.024 701.548 290.15 704.368C269.083 710.278 247.649 712.538 225.826 710.408C214.832 709.338 197.74 707.808 190.451 698.338C174.868 678.088 173.177 628.218 176.11 602.648C177.239 592.808 178.586 582.478 186.754 576.018Z" fill="#F9F6F2"/>
<path d="M247.505 657.518C257.985 656.978 269.077 656.348 278.155 662.688C286.92 668.818 288.836 677.758 290.662 687.558C278.91 691.338 267.178 692.768 254.972 694.078C239.761 694.708 225.308 693.288 210.38 690.648C211.911 686.018 213.602 681.768 216.238 677.638C223.689 665.948 234.206 660.428 247.505 657.518Z" fill="#F9F6F2"/>
<path d="M338.002 683.788C335.766 678.318 329.808 669.218 331.662 663.508C332.542 660.808 334.471 657.678 337.122 656.518C341.997 658.218 342.806 664.768 347.161 667.008C354.587 670.828 363.836 663.568 369.723 670.458C374.206 675.698 373.423 682.918 380.015 686.338C381.818 686.068 383.23 685.778 385.05 686.088C386.727 686.378 387.584 688.358 388.562 689.678C392.07 688.698 396.56 686.888 400.19 687.038C400.61 687.058 401.04 687.098 401.47 687.118L402.67 686.038L404.76 686.938C405.64 688.558 406.75 689.498 407.86 690.908C408.01 691.108 408.09 691.348 408.21 691.568C405.51 697.988 405.6 705.468 405.39 712.308C391.32 714.188 377.385 714.728 363.209 714.378C357.214 699.858 351.039 691.408 337.116 683.628L338.002 683.788Z" fill="#207FD5"/>
<path d="M388.562 689.678C392.07 688.698 396.56 686.888 400.19 687.038C400.61 687.058 401.04 687.098 401.47 687.118L402.67 686.038L404.76 686.938C405.64 688.558 406.75 689.498 407.86 690.908C408.01 691.108 408.09 691.348 408.21 691.568C406.6 691.928 405.45 692.178 403.8 691.868C399.26 691.028 392.2 691.778 388.562 689.678Z" fill="#000513"/>
<path d="M303.458 577.228L304.383 577.458C311.816 583.198 315.591 596.478 318.188 605.068C305.182 610.808 291.031 615.388 276.746 616.198C267.73 616.718 260.976 615.568 254.07 609.318C253.247 608.498 252.429 607.828 251.407 607.268C247.11 604.908 243.987 605.918 239.452 607.168L238.244 607.518C238.052 607.218 237.823 606.938 237.668 606.618C235.772 602.688 237.172 596.238 238.667 592.378C239.626 589.898 241.644 586.598 244.386 585.778C248.475 584.568 255.473 585.348 259.903 585.228C275.113 584.838 289.325 582.978 303.458 577.228Z" fill="#F9F6F2"/>
<path d="M436.65 667.468C443.4 666.848 450.41 667.548 456.67 670.298C466.85 674.768 472.08 683.168 475.75 693.148C465.95 698.948 456.05 702.228 445.21 705.418C433.78 708.688 421.96 710.468 410.22 712.258C410.65 704.198 411.4 695.608 414.46 688.058C418.96 676.988 426.09 671.978 436.65 667.468Z" fill="#F9F6F2"/>
<path d="M477.97 698.258L479.03 699.148C479.94 702.108 480.04 703.148 479.08 706.088C477.58 708.048 476.05 708.978 473.86 710.068C442.9 725.508 368.544 737.048 335.968 726.088C334.24 723.428 332.578 720.938 332.941 717.668C339.836 716.258 358.739 719.888 367.431 720.328C400.17 721.978 449.76 714.228 477.97 698.258Z" fill="#F9F6F2"/>
<path d="M375.6 529.508L377.959 529.168L378.876 530.668C377.052 543.908 368.129 557.278 361.103 568.468L356.086 561.018C352.262 555.478 347.981 550.228 343.844 544.918L348.928 533.848C357.935 532.828 366.714 531.248 375.6 529.508Z" fill="#F9F6F2"/>
<path d="M383.522 643.308C386.3 643.188 389.178 643.028 391.54 644.708C394.2 646.598 396.2 648.628 396.91 651.848C395.85 657.348 383.854 663.128 379.671 668.638L378.905 669.668L377.471 670.998C373.945 669.798 371.587 665.068 370.063 661.888C368.637 658.908 368.009 655.738 369.351 652.608C371.678 647.158 378.472 645.228 383.522 643.308Z" fill="#2479CC"/>
<path d="M244.606 611.038C244.718 611.078 265.843 623.078 267.145 623.928L267.2 625.788C264.662 628.798 261.201 630.258 257.772 632.058C248.864 627.248 241.208 626.178 231.185 625.448C234.826 618.758 238.026 614.968 244.606 611.038Z" fill="#207FD5"/>
<path d="M334.103 688.788C345.834 694.298 352.16 702.688 356.848 714.368C349.023 713.618 341.218 712.098 333.459 710.838C333.354 703.418 333.421 696.178 334.103 688.788Z" fill="#F9F6F2"/>
<path d="M225.462 631.428C233.619 630.688 241.58 631.138 249.267 634.138C252.713 635.488 253.756 636.378 255.205 639.768L254.381 640.858L252.746 640.048C249.708 639.128 246.597 638.088 243.426 637.738C237.797 637.118 226.306 639.208 222.123 635.778C222.716 633.178 223.425 633.038 225.462 631.428Z" fill="#F9F6F2"/>
<path d="M219.477 645.928C227.005 641.678 239.712 641.628 248.042 643.838C251.137 644.668 252.167 645.418 254.164 647.848L254.058 649.638C238.362 647.768 235.692 645.868 219.535 651.238L219.477 645.928Z" fill="#F7F2EA"/>
<path d="M407.13 663.938C409 664.368 408.82 664.048 410.16 665.698C405.19 669.868 401.61 673.678 398.87 679.668C397.75 682.118 396.58 683.968 394.85 686.038L392.21 684.708L391.6 682.368C393.45 674.198 400.39 668.318 407.13 663.938Z" fill="#F7F2EA"/>
<path d="M402.67 686.038C405.09 679.908 410.35 670.268 416.64 667.468C418.29 666.738 418.44 667.048 420.08 667.428C420.32 669.858 419.89 671.368 418.4 673.378C415.36 677.478 409.16 684.568 404.76 686.938L402.67 686.038Z" fill="#F7F2EA"/>
<path d="M397.78 660.828L399.56 661.598C395.53 666.598 390.42 670.648 387.026 676.138C386.058 677.708 384.99 679.198 383.931 680.708L381.443 680.048L380.798 677.988C383.293 670.048 390.79 664.678 397.78 660.828Z" fill="#F7F2EA"/>
<path d="M235.68 652.468C236.813 652.568 237.941 652.918 239.048 653.178C236.406 656.448 226.976 659.348 222.832 661.888L221.128 662.608L219.981 660.968C220.287 659.858 220.282 659.578 221.018 658.498C224.108 653.948 230.758 653.228 235.68 652.468Z" fill="#F7F2EA"/>
<path d="M187.39 147.798C204.049 145.258 220.73 142.858 237.431 140.608C237.906 151.718 238.06 162.698 234.66 173.428C229.508 189.678 219.412 198.038 204.734 205.648C204.235 232.228 208.761 264.758 210.74 291.928L224.817 480.168C229.321 481.148 233.931 482.058 238.197 483.838C253.636 490.288 260.562 501.538 266.688 516.458C267.905 521.378 269.224 526.278 270.081 531.268C259.184 533.368 232.954 536.558 223.996 540.318C221.801 540.578 219.645 540.738 217.44 540.858C216.918 540.318 216.214 539.918 215.875 539.248C214.456 536.478 189.361 183.018 187.39 147.798Z" fill="#207FD5"/>
<path d="M238.623 112.098C230.168 114.748 123.718 129.658 120.076 128.668L118.994 126.238L120.312 124.638C126.199 122.278 144.515 120.148 151.737 119.068L207.124 110.668C273.297 100.628 339.37 90.168 405.56 80.308C410.19 79.618 417.01 78.318 419.57 82.758C414.2 90.798 285.187 99.8681 272.968 108.898L273.444 110.298C279.34 112.248 328.879 102.648 340.069 101.538L340.927 101.768C344.252 102.638 344.578 102.748 347.934 102.708L348.318 103.548L346.568 106.748C342.622 107.858 343.484 106.968 341.842 109.718C345.857 114.088 377.717 106.308 384.92 106.198C398.23 107.528 408.58 105.318 421.82 103.528L422.42 104.428L424.08 103.548C415.8 106.868 398.29 105.548 393.11 111.558C380.812 114.768 346.875 118.768 332.701 120.898C289.18 127.598 245.598 133.888 201.959 139.778C175.891 143.258 169.536 152.778 141.928 142.878C144.665 142.318 152.269 141.038 154.728 140.478C170.544 136.908 295.467 121.928 299.215 116.858C293.006 113.258 260.538 120.168 251.639 121.508C223.707 125.808 195.744 129.898 167.753 133.788C157.809 135.218 134.115 141.598 125.997 136.038L125.823 134.688C129.971 132.888 234.501 116.838 238.703 117.318L238.623 112.098Z" fill="#207FD5"/>
<path d="M238.623 112.098C232.361 107.898 226.603 113.728 225.308 110.918C231.431 109.238 265.475 103.848 270.402 105.228C270.917 108.108 271.642 111.508 271.749 114.358C266.621 118.108 227.253 122.868 219.633 122.838C224.217 122.078 236.441 121.128 238.703 117.318L238.623 112.098Z" fill="#2381D6"/>
<path d="M460.56 175.168C464.1 175.688 466.82 175.918 470.39 176.158C473.39 176.288 476.74 175.978 478.92 177.768C480.77 192.968 481.22 216.598 482.04 232.288L487.57 343.238C488.18 355.948 488.66 381.608 490.21 393.288C490.41 401.798 491.11 411.128 491.57 419.698C486.13 421.468 480.87 423.758 475.58 425.938C468.93 344.318 464.79 257.078 460.56 175.168Z" fill="#F9F6F2"/>
<path d="M415.899 113.788C435.359 109.948 455.649 108.188 474.989 104.278C475.749 119.168 476.629 134.048 477.619 148.918C477.759 156.308 478.259 164.258 478.579 171.688C441.949 171.448 422.179 148.228 415.899 113.788Z" fill="#207FD5"/>
<path d="M441.819 498.438C444.639 461.138 455.739 439.338 491.429 425.578C491.889 433.558 492.189 441.788 493.379 449.678C493.759 462.908 495.209 476.608 495.429 489.588C488.059 490.938 445.749 499.288 441.819 498.438Z" fill="#2381D6"/>
<path d="M340.068 101.538C351.939 99.5781 425.549 86.5681 431.069 90.6481C432.019 91.3481 432.389 91.8181 433.139 92.6481C431.159 95.8781 414.159 96.9281 409.159 97.7181C388.333 100.988 367.468 104.008 346.567 106.748L348.317 103.548L347.933 102.708C344.577 102.748 344.251 102.638 340.926 101.768L340.068 101.538Z" fill="#2479CC"/>
<path d="M384.92 106.198C394.99 103.948 436.7 98.198 445.19 97.998C447.57 100.558 448.05 100.558 451.42 101.878C446.01 104.768 401.43 110.708 393.11 111.558C398.29 105.548 415.8 106.868 424.08 103.548L422.42 104.428L421.82 103.528C408.58 105.318 398.23 107.528 384.92 106.198Z" fill="#2B78C6"/>
<path d="M142.129 349.488C150.564 343.828 150.209 329.448 143.152 321.768C131.181 308.738 121.132 321.108 115.296 320.728C113.597 313.408 113.428 304.338 112.923 296.788C111.517 275.758 111.323 254.668 109.065 233.698C109.077 233.808 110.577 230.198 110.707 229.878L109.616 229.618C107.821 226.928 108.114 224.868 107.991 221.598C110.474 219.898 119.956 229.428 127.971 232.558C149.027 240.788 155.586 237.758 175.265 238.318C177.169 241.628 176.657 244.708 176.623 248.658C179.532 269.528 180.66 301.918 182.281 324.358C185.564 365.978 188.607 407.618 191.412 449.278C186.643 449.998 183.344 451.058 178.968 449.328C175.896 446.738 175.669 445.938 173.61 442.348C174.456 442.788 162.944 433.548 162.859 433.458C152.427 421.798 135.704 429.688 124.687 417.538C119.302 411.598 123.174 406.348 120.422 399.498L121.972 397.528C122.314 393.728 130.112 370.128 132.492 365.948C134.035 363.238 139.569 354.578 142.129 349.488Z" fill="#2669B2"/>
<path d="M149.299 245.478C155.748 240.158 163.637 241.218 171.875 241.138C174.555 241.118 174.635 246.288 176.623 248.658C179.532 269.528 180.66 301.918 182.281 324.358C185.564 365.978 188.607 407.618 191.412 449.278C186.643 449.998 183.344 451.058 178.968 449.328C175.896 446.738 175.669 445.938 173.61 442.348C173.885 436.988 161.441 433.128 165.906 422.328C159.939 420.178 165.375 422.238 159.771 424.288C158.281 422.208 154.157 411.778 154.073 409.708L153.716 408.588C154.167 406.098 154.096 404.698 155.977 403.088C156.682 399.068 155.72 400.738 159.355 398.158L159.587 395.808C160.116 391.838 159.195 393.178 161.408 390.958C164.727 384.928 164.396 387.378 163.593 381.478C164.936 375.668 164.981 373.238 162.437 368.038C160.158 366.708 160.795 366.708 159.671 363.488L161.514 360.458C161.975 358.568 161.023 351.448 161.191 348.158C160.62 345.258 160.985 343.338 161.219 340.398C159.424 341.948 160.249 341.638 158.086 342.058C158.25 338.288 158.635 339.008 161.318 335.308C161.804 332.458 161.365 332.108 160.307 329.418C161.121 327.578 160.927 327.828 161.259 325.798C158.108 318.158 158.327 315.758 157.452 307.478L155.875 306.428L154.085 303.498L151.58 302.868C150.131 304.368 150.626 304.368 149.969 306.978C146.931 303.638 147.374 303.188 149.225 299.618C148.231 297.378 146.56 296.518 144.478 294.808C142.233 288.788 144.407 294.408 145.984 289.318C137.082 282.568 139.502 283.518 142.17 272.838L141.252 271.868C139.006 273.958 138.746 275.018 136.406 275.148C135.159 270.508 138.226 273.918 138.451 268.768C136.799 268.868 136.829 268.858 135.075 268.738C135.1 265.408 135.238 266.378 138.532 263.128C137.73 259.108 137.147 256.748 137.089 252.558C139.789 254.398 140.977 255.468 144.172 256.318L147.302 253.618L146.848 252.448C145.847 251.538 145.431 250.778 144.626 249.658C145.488 246.898 145.932 247.468 149.299 245.478Z" fill="#2381D6"/>
<path d="M155.977 403.088C156.621 403.988 156.144 403.468 157.707 404.278L160.104 403.458C160.806 401.898 161.219 401.388 162.47 400.208C165.507 404.538 164.742 402.488 164.9 408.318C164.587 412.868 164.798 413.228 160.927 414.928C157.973 413.238 158.998 414.418 157.736 411.268L160.341 407.398L159.88 406.078C156.093 405.298 156.044 406.898 154.073 409.708L153.716 408.588C154.167 406.098 154.096 404.698 155.977 403.088Z" fill="#2479CC"/>
<path d="M159.587 395.808C160.116 391.838 159.195 393.178 161.408 390.958C161.617 393.878 161.857 393.318 163.781 396.138L159.587 395.808Z" fill="#2B78C6"/>
<path d="M148.235 255.598C153.222 259.658 153.246 258.538 153.367 265.158L153.904 265.458L152.31 265.988L150.507 264.888C145.955 266.258 147.661 270.078 142.96 270.768L141.045 269.308C139.979 263.138 143.49 262.828 147.613 256.558L148.235 255.598Z" fill="#2479CC"/>
<path d="M153.874 287.298L154.501 288.118C153.349 290.898 153.808 291.928 154.541 294.768C152.824 296.498 152.99 296.458 150.685 297.188L149.325 295.708C147.903 288.298 149.933 295.608 150.319 288.238L153.874 287.298Z" fill="#2479CC"/>
<path d="M146.624 279.348L148.151 278.628C151.213 284.208 151.288 282.878 150.319 288.238C148.698 285.978 146.472 285.078 144.095 283.768C144.533 280.858 144.316 282.148 146.624 279.348Z" fill="#2479CC"/>
<path d="M157.43 377.218C155.559 372.178 151.549 373.098 154.948 367.528L155.928 369.378L154.551 367.598L156.201 368.458L155.066 367.398L153.717 368.288L153.779 370.448C151.482 370.988 151.176 371.358 149.023 370.638C148.198 367.718 148.159 367.518 146.656 364.688C142.431 364.038 145.57 367.048 140.689 367.818L138.936 365.988L139.175 364.298C142.916 362.078 141.836 361.278 144.625 359.598C145.922 360.728 147.23 361.848 148.547 362.958C151.176 358.538 149.662 360.008 154.527 357.578C157.064 353.418 154.378 356.308 153.989 350.488C155.091 349.288 154.517 349.818 156.383 349.278L157.224 351.098L158.571 351.438L161.191 348.158C161.023 351.448 161.975 358.568 161.514 360.458L159.671 363.488C160.795 366.708 160.158 366.708 162.437 368.038C164.981 373.238 164.936 375.668 163.593 381.478L160.933 380.688C159.735 381.808 158.793 382.748 157.666 383.938L156.292 382.128C156.488 380.788 157.093 378.618 157.43 377.218Z" fill="#2C84D6"/>
<path d="M159.671 363.488L159.259 363.638L157.862 361.928C157.246 358.418 156.824 359.828 158.034 357.148L159.36 360.528L161.514 360.458L159.671 363.488Z" fill="#267DCE"/>
<path d="M152.002 365.228L153.948 361.338L155.232 361.538C154.166 363.608 153.804 363.658 152.002 365.228Z" fill="#2479CC"/>
<path d="M155.875 306.428L157.452 307.478C158.327 315.758 158.108 318.158 161.259 325.798C160.927 327.828 161.121 327.578 160.307 329.418L158.031 330.328L155.4 327.228L155.665 326.288L154.952 322.328L153.325 322.278L151.649 321.868C146.699 316.138 151.356 310.688 155.875 306.428Z" fill="#2C84D6"/>
<path d="M153.325 322.278L155.063 319.548L156.358 319.628C155.739 321.188 155.963 321.058 154.952 322.328L153.325 322.278Z" fill="#2479CC"/>
<path d="M153.325 322.278L154.952 322.328L155.665 326.288L155.4 327.228L158.031 330.328C156.951 332.118 157.475 331.458 155.45 332.578C149.504 330.238 150.528 326.408 153.325 322.278Z" fill="#2381D6"/>
<path d="M156.291 382.128L157.665 383.938C158.293 385.658 158.234 385.838 159.353 387.358L158.55 389.868L156.769 389.788C155.316 387.758 153.974 386.468 153.943 384.048L156.291 382.128Z" fill="#2381D6"/>
<path d="M144.617 374.488L145.957 374.368L147.298 375.288C149.019 374.698 150.613 374.328 152.409 374.048L153.104 374.828C151.181 377.028 148.212 379.588 147.589 382.398L150.705 385.058C149.768 387.118 149.756 386.688 147.82 387.488C145.83 386.148 145.552 384.818 144.53 382.718C144.304 384.538 144.077 385.628 143.107 387.198L140.533 386.738C138.361 384.748 137.51 383.228 136.431 380.508L141.556 383.138L143.65 382.298C144.597 381.148 145.22 380.458 145.55 378.968C145.877 377.488 145.032 376.978 144.242 375.798L144.617 374.488Z" fill="#2C84D6"/>
<path d="M127.941 405.838L129.38 405.108C132.206 407.238 135.283 408.618 136.672 411.898C135.459 415.088 132.72 416.028 129.897 417.788L128.958 415.478L129.543 414.378L133.547 413.358L133.355 411.928L130.348 410.058C129.68 408.488 128.913 407.228 127.941 405.838Z" fill="#2B78C6"/>
<path d="M145.142 304.568C146.455 305.048 145.787 304.618 146.846 306.218C146.045 308.548 145.168 310.508 143.974 312.668L141.615 312.108L139.772 313.278L139.316 311.818C140.645 308.348 142.472 306.928 145.142 304.568Z" fill="#2381D6"/>
<path d="M132.056 249.928C132.29 250.258 133.419 251.798 133.545 252.158C134.723 255.548 132.75 252.048 134.352 254.788C134.534 255.098 134.737 255.398 134.93 255.698L133.959 257.468L132.823 257.488C131.12 256.448 129.769 255.808 128.743 254.038C129.306 251.448 129.867 251.498 132.056 249.928Z" fill="#2381D6"/>
<path d="M142.732 392.228C144.439 393.038 143.616 392.968 145.489 392.558C146.003 392.448 146.513 392.318 147.024 392.198C148.116 395.868 148.302 396.268 151.282 398.648L149.362 400.178C148.387 399.938 148.265 399.968 147.276 399.348C144.658 397.708 143.577 395.018 142.732 392.228Z" fill="#2B78C6"/>
<path d="M130.053 259.168L131.231 258.908L132.316 259.728L130.101 264.578L130.658 265.048L128.564 266.628C126.781 265.058 125.868 264.038 124.794 261.848C126.067 260.478 128.146 260.548 130.053 259.168Z" fill="#2381D6"/>
<path d="M149.065 344.838C150.589 345.228 151.713 345.428 152.926 346.508C154.033 347.498 153.661 349.388 153.71 350.808C151.613 350.538 150.941 350.698 149.2 349.398L149.065 344.838Z" fill="#2C84D6"/>
<path d="M133.055 273.418L134.407 275.338C134.677 278.708 132.976 280.068 131.136 282.818C129.089 277.488 131.876 278.778 133.055 273.418Z" fill="#2381D6"/>
<path d="M132.973 243.548L134.393 242.828L137.929 244.698L137.025 246.118C135.108 246.858 133.998 245.838 132.169 245.058L132.973 243.548Z" fill="#2381D6"/>
<path d="M125.561 287.328C127.251 287.818 128.406 288.348 129.866 289.328L129.468 292.958C127.492 293.198 127.743 293.088 126.143 292.248L125.561 287.328Z" fill="#2B78C6"/>
<path d="M172.608 195.698C175.555 209.288 168.33 209.768 156.565 208.628C143.338 207.338 133.381 203.568 121.8 197.578C106.355 189.578 103.964 185.698 106.667 167.928C104.851 165.498 104.18 164.398 102.652 161.748C104.213 155.268 102.458 149.528 103.265 142.288C106.101 143.368 106.129 145.158 108.437 146.918C124.118 158.868 143.609 159.648 161.72 159.078C168.548 157.778 175.88 153.918 182.284 150.928C188.579 226.058 193.526 303.088 199.047 378.428C201.95 416.838 204.659 455.248 207.172 493.678C207.736 502.108 211.241 534.238 209.255 540.548C207.133 542.248 207.311 542.278 204.69 542.858C203.586 543.458 202.466 544.028 201.331 544.568C190.724 549.568 178.629 546.728 168.074 542.888C158.935 539.558 141.627 531.518 137.322 522.238C142.295 515.988 148.069 513.948 155.079 510.618C165.71 505.568 169.471 500.058 173.266 489.348L180.279 481.568C184.804 481.138 189.484 480.508 194.012 479.968C194.856 491.088 195.811 524.178 199.474 532.598L200.766 532.728C203.736 523.788 200.47 499.508 199.649 489.468L194.205 420.078L182.934 265.138C182.062 253.358 177.411 175.398 173.72 171.178C170.805 175.548 172.36 189.738 172.608 195.698Z" fill="#2C84D6"/>
<path d="M172.608 195.698C175.555 209.288 168.33 209.768 156.565 208.628C143.338 207.338 133.381 203.568 121.8 197.578C106.355 189.578 103.964 185.698 106.667 167.928C104.851 165.498 104.18 164.398 102.652 161.748C104.213 155.268 102.458 149.528 103.265 142.288C106.101 143.368 106.129 145.158 108.437 146.918C124.118 158.868 143.609 159.648 161.72 159.078C157.154 161.698 153.092 162.548 150.348 165.498L150.876 165.368C148.924 168.878 148.12 169.978 147.156 173.928L148.174 177.538C148.854 180.788 149.672 183.668 150.309 186.958L149.167 187.778L148.36 187.318C147.629 186.938 146.899 186.558 146.169 186.188L144.008 188.578L142.871 189.598L142.621 190.648L144.831 193.118C150.543 196.798 155.346 210.258 167.385 206.938C172.513 202.888 172.245 202.178 172.608 195.698Z" fill="#2669B2"/>
<path d="M140.71 177.768C140.886 177.118 140.949 175.708 141.011 174.968C138.444 172.188 138.338 172.068 136.482 168.778L137.404 168.098C142.894 169.238 137.179 168.048 144.427 174.198L147.157 173.928L148.175 177.538C148.855 180.788 149.673 183.668 150.31 186.958L149.168 187.778L148.361 187.318C147.63 186.938 146.9 186.558 146.17 186.188L144.009 188.578L142.872 189.598L142.622 190.648L144.832 193.118C142.833 195.928 144.078 195.328 141.471 196.078C138.69 193.278 139.68 191.368 139.587 187.928C139.496 184.548 134.026 183.478 133.961 179.038L136.186 178.718L140.71 177.768Z" fill="#2381D6"/>
<path d="M136.186 178.718L140.71 177.768C141.6 178.968 142.349 179.848 143.057 181.158L142.15 182.038L142.481 183.068L140.913 183.138C138.282 181.228 138.209 181.058 136.186 178.718Z" fill="#2779C6"/>
<path d="M126.926 166.928C127.221 167.998 127.184 169.068 127.227 170.178L125.299 171.008L124.142 170.438L123.933 169.078L126.926 166.928Z" fill="#2381D6"/>
<path d="M173.267 489.348C173.761 495.248 173.795 499.248 172.037 504.938L175.003 505.158L175.155 506.938C173.78 509.168 172.083 511.418 171.47 513.988L168.897 516.528C167.293 516.508 166.791 516.368 165.367 515.778L164.268 514.498L163.833 515.108L164.343 516.208L163.658 517.108C163.936 517.348 164.226 517.578 164.492 517.838C165.521 518.818 166.189 519.838 166.47 521.248L167.716 521.678L171.521 524.218L172.782 524.588L176.291 527.938C176.452 528.358 176.608 528.778 176.774 529.198C177.244 530.388 177.729 531.408 178.358 532.508L175.389 535.298L178.528 538.178L178.43 538.528L178.225 538.028L176.413 540.468C179.452 543.728 185.292 543.698 189.467 543.838C194.382 544.008 199.886 543.978 204.691 542.858C203.587 543.458 202.467 544.028 201.332 544.568C190.725 549.568 178.63 546.728 168.075 542.888C158.936 539.558 141.628 531.518 137.323 522.238C142.296 515.988 148.07 513.948 155.08 510.618C165.711 505.568 169.472 500.058 173.267 489.348Z" fill="#2479CC"/>
<path d="M171.521 524.218L172.782 524.588L176.291 527.938C176.452 528.358 176.608 528.778 176.774 529.198C177.244 530.388 177.729 531.408 178.358 532.508L175.389 535.298C173.035 536.188 173.414 537.128 170.631 536.968C169.101 535.228 167.635 533.518 165.729 532.188C165.314 531.898 164.892 531.618 164.473 531.328L166.625 530.588L167.349 528.248C170.321 527.158 170.115 527.098 171.521 524.218Z" fill="#207FD5"/>
<path d="M164.473 531.328L163.203 528.558L164.039 527.478L167.349 528.248L166.625 530.588L164.473 531.328Z" fill="#2C84D6"/>
<path d="M167.716 521.678C168.091 521.488 168.473 521.308 168.842 521.118C170.145 520.408 170.854 519.788 171.845 518.728C172.904 519.728 173.939 520.728 174.947 521.778L172.782 524.588L171.521 524.218L167.716 521.678Z" fill="#277DCE"/>
<path d="M175.155 506.938L174.984 511.988C173.822 512.668 172.651 513.338 171.47 513.988C172.083 511.418 173.78 509.168 175.155 506.938Z" fill="#207FD5"/>
<path d="M172.782 524.588L174.947 521.778L177.022 525.178L176.291 527.938L172.782 524.588Z" fill="#247DD0"/>
<path d="M83.7067 448.188C60.5977 434.818 35.4407 414.668 49.8387 386.758C58.6387 369.698 119.82 312.018 137.731 323.668C140.334 325.388 142.122 328.098 142.683 331.168C143.705 336.668 141.825 340.258 138.682 344.528C141.143 346.658 141.098 346.428 142.129 349.488C139.569 354.578 134.035 363.238 132.492 365.948C130.112 370.128 122.314 393.728 121.972 397.528L120.422 399.498C117.205 403.648 119.471 413.428 119.693 418.508C118.832 419.258 117.97 420.008 117.109 420.758L117.387 421.968L119.509 422.378L112.452 424.758C104.377 424.388 106.274 426.168 99.9327 427.408C91.9827 430.618 87.2217 440.788 83.7067 448.188Z" fill="#F9F6F2"/>
<path d="M99.9328 427.408L100.865 424.748C99.0648 422.218 93.9518 418.648 91.1148 417.288C48.3108 396.748 119.966 355.968 138.682 344.528C141.143 346.658 141.098 346.428 142.129 349.488C139.569 354.578 134.035 363.238 132.492 365.948C130.112 370.128 122.314 393.728 121.972 397.528L120.422 399.498C117.205 403.648 119.471 413.428 119.693 418.508C118.832 419.258 117.97 420.008 117.109 420.758L117.387 421.968L119.509 422.378L112.452 424.758C104.377 424.388 106.274 426.168 99.9328 427.408Z" fill="#030303"/>
<path d="M119.509 422.378C122.994 423.218 124.634 423.258 127.26 425.508L127.062 427.328C123.348 430.238 118.072 432.888 116.318 436.248C116.625 439.058 116.07 437.778 118.574 439.938C124.405 434.218 132.323 431.128 140.488 431.388C164.17 432.108 187.532 459.278 173.66 480.998L172.571 481.208C169.574 473.628 169.363 466.628 160.855 463.238C160.215 469.028 166.746 474.868 166.713 481.168C166.666 490.138 164.649 503.818 153.364 503.848C150.257 500.678 154.699 485.528 146.066 481.598C142.911 483.618 145.543 489.258 146.327 492.248C155.72 528.128 93.156 519.328 103.099 491.808C103.552 490.548 104.983 490.688 106.277 490.458C114.427 493.658 115.577 500.108 120.588 504.208L122.267 503.768C124.73 498.768 121.653 500.788 126.577 497.178C126.696 493.288 109.645 487.458 105.386 481.268C97.973 470.478 108.034 461.368 103.765 453.138C100.115 454.648 99.673 463.608 94.388 466.848C88.916 465.138 87.445 456.968 88.788 451.998C92.201 439.348 101.993 431.618 112.452 424.758L119.509 422.378Z" fill="#2381D6"/>
<path d="M118.573 439.938C124.404 434.218 132.322 431.128 140.487 431.388C164.169 432.108 187.531 459.278 173.659 480.998L172.57 481.208C169.573 473.628 169.362 466.628 160.854 463.238C167.671 459.978 169.438 469.138 172.965 472.928C187.442 458.018 149.682 424.618 131.683 434.778C130.004 435.718 120.359 439.328 118.573 439.938Z" fill="#2B78C6"/>
<path d="M156.485 154.778C141.362 154.238 130.896 153.868 117.306 145.598C103.54 137.218 96.1163 125.518 106.75 110.518C116.071 97.368 126.712 97.8781 141.091 95.6681C154.193 93.6381 167.284 91.538 180.363 89.358L393.139 56.053C398.929 55.107 414.379 51.849 418.429 54.758C422.199 61.748 421.679 69.218 421.899 77.178C417.139 73.598 410.929 67.8881 406.299 63.8721C386.116 66.0861 363.498 70.0881 343.303 73.1481C305.403 78.5881 267.563 84.438 229.79 90.698C197.411 95.898 164.868 100.208 132.488 105.398C124.393 106.698 114.922 112.548 113.646 121.248C112.908 126.018 114.099 130.878 116.958 134.768C125.433 146.368 144.201 149.868 157.306 152.258L156.485 154.778Z" fill="#207FD5"/>
<path d="M404.979 115.598C407.199 115.268 407.819 115.058 409.869 115.868C412.629 121.028 413.379 127.848 415.299 133.538C361.049 141.458 306.851 149.708 252.706 158.298L243.59 159.578L243.232 139.658L404.979 115.598Z" fill="#F9F6F2"/>
<path d="M401.24 69.5781C401.94 69.4381 402.37 69.2981 403.14 69.4281C405.5 69.8181 406.88 70.7281 408.37 72.5381L407.95 74.2981C401.78 77.8681 157.719 113.368 128.702 117.908C126.113 118.388 124.316 118.838 121.771 117.808L121.631 116.188C124.912 112.518 129.436 111.698 134.064 110.648C161.429 104.418 192.625 101.438 220.62 97.1081L401.24 69.5781Z" fill="#2479CC"/>
<path d="M106.253 194.098C108.919 196.168 111.612 198.198 114.443 200.048C132.284 211.678 153.039 216.138 173.986 211.838L175.33 231.568C171.424 232.878 167.347 233.608 163.23 233.738C147.22 234.288 125.644 229.218 113.982 217.578C106.522 210.128 106.152 203.998 106.253 194.098Z" fill="#F9F6F2"/>
<path d="M183.058 455.618C185.654 455.328 187.651 455.048 190.189 455.928C191.397 457.528 192.551 459.298 192.926 461.318C193.672 465.338 193.318 472.098 191.034 475.408C188.27 475.408 185.94 475.288 183.256 474.598C183.255 469.418 181.515 460.228 183.058 455.618Z" fill="#F9F6F2"/>
<path d="M157.306 152.258L160.625 152.588L160.418 153.528L156.485 154.778L157.306 152.258Z" fill="#2669B2"/>
</svg>
