<svg width="608" height="784" viewBox="0 0 608 784" fill="none" xmlns="http://www.w3.org/2000/svg">
<path d="M110.888 312.02C109.168 307.27 98.0876 138.82 98.4976 118.7C98.6676 110.63 108.668 98.1603 115.938 93.9603C117.978 92.7803 120.668 90.9503 123.408 90.4803C132.048 88.9803 140.908 88.0903 149.568 86.6603C174.618 82.3803 199.708 78.3203 224.828 74.5003C283.958 65.2503 343.128 55.9043 402.258 46.6543C405.188 46.3493 418.228 44.2733 420.018 45.2673C432.598 52.2423 425.688 71.4403 432.148 81.0903C442.538 87.0103 451.238 94.2402 462.908 97.4102C469.658 99.2402 477.078 93.8004 481.758 99.0304C483.668 109.03 484.978 147.6 485.448 159.9C486.798 195.86 489.718 233.84 490.418 269.64C547.368 295.63 600.208 319.53 543.508 384.28C547.258 397 545.208 400.15 536.028 408.85C536.138 416.71 535.648 419.63 533.288 427.32C555.488 441.56 530.178 465.32 513.198 467.98C509.438 468.56 504.838 468.35 501.088 468.09C501.428 475.3 502.048 483.8 502.048 490.92C465.008 499.12 420.218 506.55 382.168 513.65C392.078 537.7 409.198 581.47 400.408 606.98C394.718 623.47 365.208 624.07 351.338 623.36C346.578 623.67 333.858 619.65 330.618 623.5C330.008 624.22 329.068 629.24 326.308 629.66C314.788 631.45 310.988 645.63 312.818 657.05C315.318 672.68 315.138 681.58 304.578 695.95C332.238 747.67 284.758 735.34 249.578 738.5C237.768 739.56 219.328 736.49 207.928 733.65C163.418 715.33 187.178 677.33 208.668 654.81C207.218 627.01 223.308 637.73 231.788 632.15C233.548 625.91 232.078 615.65 232.488 608.74C233.158 597.51 234.878 573.39 245.328 566.77C251.258 563.01 262.788 565.71 269.488 566.82C271.118 555.72 272.968 544.43 273.108 533.21L214.628 544.04C200.818 546.72 191.538 551.94 177.188 547.88C158.508 544.24 143.108 533.76 130.798 519.51C113.358 516.31 83.9775 504.45 102.478 482.94C100.838 479.51 99.6675 476.01 98.3675 472.44C94.3275 470.22 90.6875 468.86 87.8575 465.33C84.0175 460.43 83.9976 453.25 82.9976 452.23C73.2576 442.27 59.5275 435.33 50.5875 424.34C16.7375 382.71 81.2476 344.46 109.038 322.17C111.758 319.99 110.878 315.49 110.888 312.02Z" fill="#F9F6F2"/>
<path d="M110.888 312.02C109.168 307.27 98.0876 138.82 98.4976 118.7C98.6676 110.63 108.668 98.1603 115.938 93.9603C117.978 92.7803 120.668 90.9503 123.408 90.4803C132.048 88.9803 140.908 88.0903 149.568 86.6603C174.618 82.3803 199.708 78.3203 224.828 74.5003C283.958 65.2503 343.128 55.9043 402.258 46.6543C405.188 46.3493 418.228 44.2733 420.018 45.2673C432.598 52.2423 425.688 71.4403 432.148 81.0903L430.858 82.9903C434.008 87.5103 438.538 92.6903 444.088 93.4603L445.468 94.8103C448.338 97.0103 448.898 97.5103 452.138 98.9803L453.928 99.2203L454.068 102.02C458.858 103.4 470.418 98.0902 477.098 101.91C477.428 110.94 481.938 165.3 478.618 169.05L477.598 169.2C469.488 170.3 463.468 167.69 458.648 172.24L457.798 176.07C457.068 172.97 457.368 171.74 453.848 169.95C435.458 160.62 428.828 153.83 418.648 135.33C362.358 143.51 299.518 155.49 243.908 161.52C239.998 179.73 234.508 191.95 218.398 202.39C216.168 203.82 213.888 205.19 211.588 206.5L224.048 385C225.648 406.97 230.468 452.24 230.188 472.35L227.438 477.83C240.838 480.25 251.538 485.67 259.428 497.1C265.768 506.3 269.008 517.2 270.928 528.1C257.748 530.68 230.998 533.51 219.958 538.48C217.778 540.04 216.298 540.83 213.718 541.52C206.268 543.51 199.448 545.97 191.708 546.98C187.208 547.57 180.968 545.51 177.188 547.88C158.508 544.24 143.108 533.76 130.798 519.51C113.358 516.31 83.9775 504.45 102.478 482.94C100.838 479.51 99.6675 476.01 98.3675 472.44C94.3275 470.22 90.6875 468.86 87.8575 465.33C84.0175 460.43 83.9976 453.25 82.9976 452.23C73.2576 442.27 59.5275 435.33 50.5875 424.34C16.7375 382.71 81.2476 344.46 109.038 322.17C111.758 319.99 110.878 315.49 110.888 312.02Z" fill="#000513"/>
<path d="M118.258 316.81C114.558 311.56 115.028 289.84 114.508 282.44L110.858 235.02C110.588 231.09 109.448 223.2 109.958 219.96L111.178 219.24C115.868 223.77 116.678 221.4 120.978 224.03C138.308 234.61 154.978 239.32 175.788 234.76L177.198 234.45C178.748 248.18 180.228 265.71 180.498 279.43C183.238 297.09 183.328 325.38 185.288 344.08C186.028 351.15 188.448 383.5 188.218 388.67C190.358 400.8 191.888 433.07 192.208 446.22L180.018 447.26C173.138 437.63 166.518 429.05 154.748 425.87C150.388 424.69 145.558 423.05 141.958 420.3L139.038 422.31C124.578 418.01 119.918 405.05 123.878 391.34C115.508 400.96 123.708 406.71 119.748 416.29C118.928 418.28 115.318 416.08 113.988 421.23C105.818 426.53 102.158 429.33 96.0376 437.18C94.5776 439.04 92.6276 442.65 91.1276 443.96C84.1376 451.73 87.6575 457.04 87.8575 465.33C84.0175 460.43 83.9976 453.25 82.9976 452.23C73.2576 442.27 59.5275 435.33 50.5875 424.34C16.7375 382.71 81.2476 344.46 109.038 322.17C111.758 319.99 110.878 315.49 110.888 312.02C111.678 314.14 112.408 316.07 113.318 318.15C115.738 317.94 115.968 317.71 118.258 316.81Z" fill="#2669B2"/>
<path d="M118.258 316.81C126.058 314.82 123.058 312.31 134.278 313.6C149.158 315.3 150.328 325.26 146.988 338.16C142.018 352.29 129.958 366.06 127.368 381.1C126.468 386.41 122.748 386.01 124.978 391.58L123.878 391.34C115.508 400.96 123.708 406.71 119.748 416.29C118.928 418.28 115.318 416.08 113.988 421.23C105.818 426.53 102.158 429.33 96.0376 437.18C94.5776 439.04 92.6276 442.65 91.1276 443.96C84.1376 451.73 87.6575 457.04 87.8575 465.33C84.0175 460.43 83.9976 453.25 82.9976 452.23C73.2576 442.27 59.5275 435.33 50.5875 424.34C16.7375 382.71 81.2476 344.46 109.038 322.17C111.758 319.99 110.878 315.49 110.888 312.02C111.678 314.14 112.408 316.07 113.318 318.15C115.738 317.94 115.968 317.71 118.258 316.81Z" fill="#030303"/>
<path d="M128.618 318.11C132.188 318.07 136.468 318.66 139.338 320.93C141.848 322.92 143.868 326.11 144.178 329.33C144.648 334.25 141.168 338.81 137.798 341.97C133.198 346.28 127.268 349.5 121.988 352.9C108.578 361.52 92.488 372.1 83.168 385.18C80.248 389.27 78.238 394.08 79.368 399.16C81.648 409.44 95.028 415.91 103.388 420.95C95.108 427.97 89.768 434.97 85.178 444.78C84.928 444.75 84.658 444.78 84.418 444.71C74.298 441.47 54.048 422.37 49.498 412.59C45.918 404.92 45.678 396.87 48.568 388.94C58.128 362.69 103.928 329.45 128.618 318.11Z" fill="#F9F6F2"/>
<path d="M150.367 243.73C156.217 238.87 168.837 236.45 173.977 243.04C180.187 250.99 175.717 271.3 180.497 279.43C183.237 297.09 183.327 325.38 185.287 344.08C186.027 351.15 188.447 383.5 188.217 388.67C186.797 401.3 193.337 436.14 186.067 443.66C178.877 445.66 170.397 433.02 167.227 427.41C167.287 420.1 169.217 421.25 165.607 416.83C164.597 418.81 165.157 418.27 163.547 419.62L162.497 418.02C160.027 417.88 159.327 417.4 156.977 416.58C157.267 412.39 156.587 414.22 158.987 410.87L157.077 410.22C154.277 406.3 152.457 406.79 150.787 401.92L151.557 400.9C156.117 402.4 158.097 405.51 160.987 409.36C162.057 405.48 159.407 405.59 161.847 398.49L164.597 398.66L164.137 396.22C163.867 391.44 163.957 385.05 161.927 380.94C159.437 379.56 159.647 379.54 158.177 377.03C160.367 376.36 159.227 376.54 161.877 377.39L163.417 376.46L163.087 375.54C163.357 374.16 163.607 370.21 162.077 369.57C162.697 365.16 161.827 361.02 162.787 357.82C161.377 353.93 162.477 350.84 160.147 344.31C160.837 342.04 160.737 343.26 159.327 340.42L158.307 334.17C158.407 331.93 157.727 328.69 157.167 326.48C156.607 325.78 150.207 313 150.047 312.49C152.187 308.75 153.567 308.44 157.727 306.92L158.537 304.67C156.367 299 158.467 299.44 154.717 294.49L153.567 293.61L150.037 295.99L149.137 294.33C150.577 292.19 150.537 292.59 151.347 290.24L150.107 290.45C147.317 293.18 146.527 294.84 143.117 295.76L142.007 294.12C149.297 287.29 138.497 287.95 136.287 279.83C141.427 274.36 143.627 272.15 148.007 266.17C146.747 265.94 146.747 265.75 145.557 265.07C146.417 259.72 147.967 256.37 147.527 250.5L147.597 249.57L145.947 248.42C148.227 247.34 147.937 246.77 149.487 244.12L150.367 243.73Z" fill="#2381D6"/>
<path d="M149.487 244.12L150.367 243.73C154.417 249.64 152.857 255.02 153.577 261.76C154.837 262.59 155.917 263.3 156.827 263.89C154.487 267.66 153.527 270.72 150.097 272.46L147.387 273.44L149.797 275.38C151.467 274.79 153.057 274.22 154.707 273.56L154.907 273.77L154.517 274.52C153.987 275.56 153.557 276.49 153.077 277.55L155.087 279.22C158.037 282.02 157.667 280.84 158.117 284.15L156.307 288.89L154.687 288.04L153.267 287.77C152.297 286.97 151.747 286.18 150.917 285.2L150.217 285.03L150.107 290.45C147.317 293.18 146.527 294.84 143.117 295.76L142.007 294.12C149.297 287.29 138.497 287.95 136.287 279.83C141.427 274.36 143.627 272.15 148.007 266.17C146.747 265.94 146.747 265.75 145.557 265.07C146.417 259.72 147.967 256.37 147.527 250.5L147.597 249.57L145.947 248.42C148.227 247.34 147.937 246.77 149.487 244.12Z" fill="#2C84D6"/>
<path d="M145.968 280.64C144.408 279.39 144.448 279.32 143.308 277.64C144.828 275.78 145.658 275.05 147.388 273.44L149.798 275.38C151.468 274.79 153.058 274.22 154.708 273.56L154.908 273.77L154.518 274.52C153.988 275.56 153.558 276.49 153.078 277.55L155.088 279.22L153.298 282.04C148.958 280.73 150.558 280.54 146.818 282L145.968 280.64Z" fill="#2479CC"/>
<path d="M145.968 280.64L149.698 277.03C151.768 278.31 151.918 279.57 153.298 282.04C148.958 280.73 150.558 280.54 146.818 282L145.968 280.64Z" fill="#2B78C6"/>
<path d="M162.137 413.22L163.057 410.6L164.447 410.01C164.657 412.63 164.617 414.37 165.607 416.83C164.597 418.81 165.157 418.27 163.547 419.62L162.497 418.02L160.667 414.67L162.137 413.22Z" fill="#207FD5"/>
<path d="M159.328 340.42C160.738 343.26 160.838 342.04 160.148 344.31C162.478 350.84 161.378 353.93 162.788 357.82C161.828 361.02 162.698 365.16 162.078 369.57C163.608 370.21 163.358 374.16 163.088 375.54C160.608 373.3 159.658 372.34 156.848 370.6L155.218 371.95L152.368 375.22L150.028 375.57L148.628 373.64C146.718 373.07 147.228 373.24 145.508 372.17L145.478 370.41L147.858 368.53C148.638 365.64 151.978 362.63 154.198 360.2C152.228 358.76 152.908 359.67 152.088 357.36L153.838 354.22L152.008 353.58C149.938 350.68 150.458 352.21 150.048 348.94L151.888 346.77L152.468 344.71L155.318 345.1L157.718 344.69C158.178 342.44 158.238 342.46 159.328 340.42Z" fill="#2C84D6"/>
<path d="M162.788 357.82C161.828 361.02 162.698 365.16 162.078 369.57C159.208 368.28 159.688 367.56 157.178 365.87C155.928 366.32 154.488 367.13 153.268 367.75C156.138 363.63 158.188 359.87 162.788 357.82Z" fill="#2B78C6"/>
<path d="M159.327 340.42C160.737 343.26 160.837 342.04 160.147 344.31L159.997 346.89L158.147 348.38L155.317 345.1L157.717 344.69C158.177 342.44 158.237 342.46 159.327 340.42Z" fill="#207FD5"/>
<path d="M152.468 344.71L155.318 345.1L158.148 348.38C157.468 350.47 157.688 349.85 156.368 351.71L154.578 347.37L151.888 346.77L152.468 344.71Z" fill="#277DCB"/>
<path d="M153.837 354.22C156.897 356.21 156.347 355.01 157.267 357.59C156.247 357.95 155.307 358.28 154.257 358.59L154.197 360.2C152.227 358.76 152.907 359.67 152.087 357.36L153.837 354.22Z" fill="#2479CC"/>
<path d="M143.398 249.47C141.138 246.49 142.518 247.76 138.678 246.04C137.498 243.46 137.538 244.72 138.388 242.14C142.218 240.17 146.328 241.84 149.488 244.12C147.938 246.77 148.228 247.34 145.948 248.42L143.398 249.47Z" fill="#2381D6"/>
<path d="M153.218 340.83C155.888 338.96 156.678 336.99 158.308 334.17L159.328 340.42C158.238 342.46 158.178 342.44 157.718 344.69L155.318 345.1L155.148 342.82L153.218 340.83Z" fill="#2C84D6"/>
<path d="M152.468 344.71C152.448 342.49 151.658 342.7 151.828 339.95L153.218 340.83L155.148 342.82L155.318 345.1L152.468 344.71Z" fill="#2479CC"/>
<path d="M152.367 375.22L155.217 371.95C155.707 374.48 156.337 376.07 155.327 378.39L153.877 378.46C153.447 376.85 153.197 376.61 152.367 375.22Z" fill="#2B78C6"/>
<path d="M156.978 416.58C159.328 417.4 160.028 417.88 162.498 418.02L163.548 419.62C159.738 419.86 160.598 420.33 157.518 418.89L156.978 416.58Z" fill="#2479CC"/>
<path d="M143.398 249.47L145.948 248.42L147.598 249.57L147.528 250.5C145.398 250.63 145.168 250.96 143.058 251.8L143.398 249.47Z" fill="#2B78C6"/>
<path d="M161.847 398.49L160.827 396.85L164.137 396.22L164.597 398.66L161.847 398.49Z" fill="#2479CC"/>
<path d="M158.777 383.98C160.027 385.68 159.727 385.48 159.587 387.42C157.537 389.9 156.457 391.53 155.697 394.67C154.317 394.11 154.917 394.41 153.487 393.56C151.927 392.64 152.257 392.3 151.837 390.63C153.067 387.81 156.367 385.84 158.777 383.98Z" fill="#2381D6"/>
<path d="M134.798 251.82C136.248 251.9 137.518 252.15 138.928 252.5C139.548 254.18 140.118 255.87 140.688 257.57L138.968 258.37C136.518 256.17 135.418 255.09 134.798 251.82Z" fill="#2381D6"/>
<path d="M141.158 262.71C142.028 262.58 141.518 262.55 142.628 263.17L141.828 268.18C140.338 266.48 139.178 265.84 139.008 263.5L141.158 262.71Z" fill="#2381D6"/>
<path d="M136.888 306.53L138.758 305.84L139.118 308.02C138.168 308.72 137.628 308.87 136.518 309.17L136.888 306.53Z" fill="#2C84D6"/>
<path d="M189.208 144.84C205.868 142.28 222.518 139.54 239.258 137.58C239.718 147.95 239.658 158.09 236.738 168.14C231.718 185.39 221.788 194.8 206.358 203.17C206.808 228.72 224.428 472.72 225.818 475.87C226.158 476.65 226.898 477.18 227.438 477.83C240.838 480.25 251.538 485.67 259.428 497.1C265.768 506.3 269.008 517.2 270.928 528.1C257.748 530.68 230.998 533.51 219.958 538.48L217.018 537.41C215.008 533.36 189.578 170.38 189.208 144.84Z" fill="#207FD5"/>
<path d="M144.087 139.68C157.437 136.76 174.007 134.88 187.827 132.83L262.037 121.78C268.887 120.77 299.877 118.05 302.307 113.21C296.747 107.63 141.767 140.44 130.287 133.98C128.507 132.99 129.067 133.59 128.517 131.6C136.907 125.88 236.777 118.08 240.677 111.8C239.537 110.42 239.247 110.09 237.327 109.94C231.757 109.48 223.647 111.97 217.937 112.82C205.377 114.69 128.577 127.8 122.737 125.62C120.987 124.96 121.587 125.39 120.827 123.52L122.107 121.49C137.907 117.79 161.197 115.01 177.757 112.48L281.897 96.6901C313.417 91.6601 344.967 86.7901 376.537 82.0901C385.457 80.7801 409.987 76.7701 417.537 76.9601C420.607 79.1301 419.747 77.7802 421.027 80.6602C415.297 85.9002 294.097 99.2201 277.667 103.83C274.747 104.65 275.357 104.36 274.087 106.73L275.047 107.99C282.827 108.36 302.037 104.69 310.657 103.29C336.857 99.1701 363.107 95.2701 389.377 91.5701C397.857 90.3501 429.427 83.7202 434.327 89.1202C428.157 96.2902 351.577 100.64 344.777 105.6L344.517 107.73L345.637 108.59C351.127 109 369.117 105.58 375.807 104.62L445.467 94.8101C448.337 97.0101 448.897 97.5102 452.137 98.9802C446.747 102.18 420.197 104.64 412.147 106.01C346.477 116.57 280.677 126.28 214.747 135.13C199.077 137.29 185.017 140.77 169.667 143.99C163.157 145.35 150.467 141.62 144.087 139.68Z" fill="#207FD5"/>
<path d="M265.888 101.63C268.198 101.41 270.488 101.48 272.798 101.52C272.998 103.56 272.498 104.85 271.928 106.77C272.548 108.48 272.858 109.38 272.508 111.19C266.068 116.6 249.708 116.51 241.388 117.5L238.098 117.96L237.678 117.47L235.228 118.33C238.148 117.21 239.728 116.28 241.878 114C242.758 110.94 242.308 110.35 241.348 107.42C245.958 102.65 259.338 102.51 265.888 101.63Z" fill="#2381D6"/>
<path d="M113.987 421.23C119.827 419.62 122.097 418.46 127.337 421.04L128.637 422.84C126.487 427.92 118.497 428.67 117.587 434.08L119.507 435.17C131.747 429.92 140.327 425.58 154.007 430.77C164.727 434.83 171.497 442.86 175.927 453.17C178.687 459.61 181.777 473.05 173.927 477.16L170.127 468.4C168.507 464.65 166.487 462.57 162.367 461.73L161.677 462.97C166.127 471.4 170.117 479.34 167.377 489.2C165.807 494.85 160.197 499.98 154.387 500.67C151.317 493.81 156.477 481.68 146.117 479.3C144.047 484.02 156.927 503.66 136.737 512.06C122.627 517.94 98.7073 503.88 104.307 490.23C109.817 487.51 112.667 490.72 117.647 493.74C119.547 497.86 118.977 498.51 122.127 500.36C126.067 498.6 127.057 494.61 125.687 490.69C86.1873 472.9 112.927 457.69 104.927 450.08C99.1773 453.07 98.9072 465.16 93.4872 464.16C88.7272 457.14 90.0073 451.8 91.1273 443.96C92.6273 442.65 94.5773 439.04 96.0373 437.18C102.157 429.33 105.817 426.53 113.987 421.23Z" fill="#2381D6"/>
<path d="M417.857 110.68C437.627 107.88 457.367 104.95 477.097 101.91C477.427 110.94 481.937 165.3 478.617 169.05C442.977 166.44 423.167 145.76 417.857 110.68Z" fill="#207FD5"/>
<path d="M104.058 138.73C123.698 154.17 132.758 155.44 158.368 156.46C169.048 155.38 174.148 152.44 184.018 147.89C194.538 277.13 201.768 408.19 211.128 537.62C199.058 543.04 192.668 546.37 179.218 542.78C178.908 542.71 178.598 542.64 178.288 542.56C177.768 542.44 177.258 542.29 176.748 542.17C167.238 539.87 157.358 535.22 149.478 529.35C149.728 528.12 149.798 527.38 149.738 526.1C148.868 526.69 147.978 527.24 147.078 527.77C144.618 525.74 139.158 521.91 138.618 518.8C139.368 517.81 140.028 516.94 140.998 516.15C145.888 512.13 159.488 503.34 165.578 503.94C168.398 499.27 171.558 494.59 173.388 489.44C174.078 487.49 174.568 486.16 175.868 484.5C177.298 483.29 179.868 479.98 181.198 478.38L194.568 477.24C195.918 494.61 196.338 512.24 198.548 529.49C199.168 530.18 199.778 530.86 200.398 531.54L201.618 531C203.898 524.38 198.038 456.01 197.208 443.87L186.158 289.23C185.098 273.83 179.298 172.39 176.898 168.73L175.428 168.51C172.308 173.48 174.878 196.2 175.308 203.94C167.088 205.08 162.558 205.21 154.308 204.93C141.218 203.63 122.438 195.8 112.468 186.98C102.978 178.58 108.138 166.71 106.848 156.51C105.868 148.73 104.408 147.81 104.058 138.73Z" fill="#2381D6"/>
<path d="M104.058 138.73C123.698 154.17 132.758 155.44 158.368 156.46L156.868 156.98C152.958 158.32 149.908 158.19 147.908 160.67C148.148 163.37 148.368 165.09 148.828 167.77L147.428 169.43L144.748 169.26L143.198 167.83L141.998 168.78C141.828 173.1 143.758 171.87 143.368 173.19C141.718 178.7 132.828 180.58 137.208 185.48C141.278 183.08 135.618 182.36 141.068 182.67C143.158 185.54 143.328 184.8 143.258 187.62C142.368 188.4 140.698 189.75 139.958 190.55C139.168 188.44 139.538 189.18 137.988 187.44L135.958 188.19C136.048 191.93 136.588 192.22 138.958 195.39L140.708 196.25C143.168 196.34 144.838 196.62 146.738 195.08L147.378 195.76L146.628 196.79C147.428 197.92 147.608 198.99 148.018 200.3C152.858 202.34 151.308 201.06 154.308 204.93C141.218 203.63 122.438 195.8 112.468 186.98C102.978 178.58 108.138 166.71 106.848 156.51C105.868 148.73 104.408 147.81 104.058 138.73Z" fill="#2669B2"/>
<path d="M137.177 167.2L134.857 164.72C134.387 161.42 134.017 162.82 135.457 160.28L137.167 159.84L138.457 160.7L139.087 164.1L141.957 165.18C140.677 167.72 139.007 170.76 136.417 171.81L135.027 170.42L135.317 168.48L137.177 167.2Z" fill="#2381D6"/>
<path d="M118.418 157.63C120.828 159.14 123.288 160.55 125.638 162.15L124.918 165.8C121.908 165.01 120.008 163.08 117.718 161.09L118.418 157.63Z" fill="#2B78C6"/>
<path d="M141.958 165.18L142.278 161.87C142.818 161.79 143.388 161.54 143.898 161.71L144.768 163.9L141.958 165.18Z" fill="#2381D6"/>
<path d="M175.867 484.5C178.937 492.52 177.407 504.55 176.657 513.04L175.477 513.06L174.977 512.06L171.147 509.97C169.197 511.29 168.977 511.78 167.917 513.92L168.097 517.05L169.647 517.78C170.767 517.01 171.907 516.35 172.827 515.34L176.247 519.07L174.077 520.58L173.977 523.06C170.397 524.51 169.867 525.87 167.647 528.93C167.277 531.3 167.387 532.42 168.237 534.66C170.287 536.01 170.377 536.32 172.777 536.06L174.987 531.47C177.397 533.72 178.437 537.25 179.687 540.24L179.217 542.78C178.907 542.71 178.597 542.64 178.287 542.56C177.767 542.44 177.257 542.29 176.747 542.17C167.237 539.87 157.357 535.22 149.477 529.35C149.727 528.12 149.797 527.38 149.737 526.1C148.867 526.69 147.977 527.24 147.077 527.77C144.617 525.74 139.157 521.91 138.617 518.8C139.367 517.81 140.027 516.94 140.997 516.15C145.887 512.13 159.487 503.34 165.577 503.94C168.397 499.27 171.557 494.59 173.387 489.44C174.077 487.49 174.567 486.16 175.867 484.5Z" fill="#2479CC"/>
<path d="M155.968 511.21C159.568 511.84 160.098 512.35 162.858 514.81L163.438 516.75L161.778 519.73L163.368 520.15L164.508 517.95L166.608 517.78L167.618 518.74C166.128 520.65 164.768 522.53 163.458 524.57C161.008 522.6 160.638 519.9 159.858 516.89L158.658 516.12L155.968 511.21Z" fill="#2381D6"/>
<path d="M158.658 516.12L156.738 516.89L155.408 516.24L154.508 512.85L155.968 511.21L158.658 516.12Z" fill="#2B78C6"/>
<path d="M411.688 50.5362C412.648 50.3832 413.128 50.2823 414.158 50.2503C416.668 50.1723 418.638 50.7122 420.388 52.5872C424.668 57.1572 423.748 68.0603 423.938 74.0603C418.748 69.8803 413.828 65.2902 408.838 60.8682C386.688 63.4662 364.588 67.3402 342.538 70.7002C305.028 76.1702 267.568 81.9302 230.138 87.9602L163.878 98.0702C153.598 99.6102 142.768 100.5 132.648 102.78C130.258 103.31 128.138 104.11 126.008 105.34C121.448 107.98 117.408 112.12 116.088 117.36C114.998 121.73 115.598 126.33 117.968 130.17C125.098 141.68 141.178 144.9 153.358 147.85C155.918 148.28 159.368 148.25 161.128 150.12C160.088 150.74 159.968 150.88 158.618 151.23C147.578 154.1 128.128 147.87 118.678 142.17C111.418 137.79 105.778 131.58 103.978 123.1C102.868 117.87 104.028 113.1 107.118 108.79C111.548 102.61 118.788 98.1002 125.948 95.7902C135.548 92.7102 147.088 92.1002 157.128 90.5402L212.868 81.6302C279.228 71.8702 345.508 61.5012 411.688 50.5362Z" fill="#207FD5"/>
<path d="M407.828 112.6C409.668 112.24 410.398 112.21 412.108 113C414.368 118.24 414.838 125.06 416.488 130.69L255.918 155.24C252.438 155.92 249.508 156.88 246.338 155.09C245.248 152.98 244.848 151.79 244.968 149.4C245.188 145.12 245.138 140.86 245.118 136.58C299.448 129.23 353.538 120.22 407.828 112.6Z" fill="#F9F6F2"/>
<path d="M404.617 66.5502C404.907 66.5202 405.197 66.4402 405.497 66.4602C408.267 66.6202 411.067 69.9202 412.977 71.7402C388.347 75.9802 363.497 79.2702 338.797 83.1002L131.387 114.9C128.447 115.23 126.657 116.03 124.107 114.43L124.777 112.43C128.627 109.32 133.347 108.36 138.087 107.36C166.527 101.33 196.257 98.2302 225.027 93.7902L404.617 66.5502Z" fill="#2479CC"/>
<path d="M107.678 190.98C110.468 192.17 112.938 194.27 115.488 195.93C134.648 208.32 153.098 213.52 175.758 208.74C176.138 215.48 176.508 222.21 176.568 228.97C166.878 231.51 157.898 231.31 148.078 229.37C132.598 226.32 117.668 219.72 108.658 206.29C108.158 201.2 107.968 196.08 107.678 190.98Z" fill="#F9F6F2"/>
<path d="M191.368 451.64L192.518 452.73C193.458 459.08 194.728 464.23 192.308 470.42C189.648 472.59 187.808 472.17 184.438 472.4C182.728 469.13 183.688 457.62 183.588 453.33C185.158 451.9 189.168 451.92 191.368 451.64Z" fill="#F9F6F2"/>
<path d="M445.467 94.8102L444.087 93.4602C438.537 92.6902 434.007 87.5102 430.857 82.9902L432.147 81.0902C442.537 87.0102 451.237 94.2402 462.907 97.4102C469.657 99.2402 477.077 93.8003 481.757 99.0303C483.667 109.03 484.978 147.6 485.448 159.9C486.798 195.86 489.717 233.84 490.417 269.64C547.367 295.63 600.207 319.53 543.507 384.28C547.257 397 545.207 400.15 536.027 408.85C536.137 416.71 535.647 419.63 533.287 427.32C555.487 441.56 530.178 465.32 513.198 467.98C509.438 468.56 504.837 468.35 501.087 468.09C501.427 475.3 502.047 483.8 502.047 490.92C465.007 499.12 420.217 506.55 382.167 513.65C392.077 537.7 409.197 581.47 400.407 606.98C394.717 623.47 365.207 624.07 351.337 623.36C346.577 623.67 333.857 619.65 330.617 623.5C330.007 624.22 329.067 629.24 326.307 629.66C314.787 631.45 310.988 645.63 312.818 657.05C315.318 672.68 315.138 681.58 304.578 695.95C332.238 747.67 284.758 735.34 249.578 738.5C237.768 739.56 219.327 736.49 207.927 733.65C163.417 715.33 187.177 677.33 208.667 654.81C207.217 627.01 223.307 637.73 231.787 632.15C233.547 625.91 232.077 615.65 232.487 608.74C233.157 597.51 234.878 573.39 245.328 566.77C251.258 563.01 262.787 565.71 269.487 566.82C271.117 555.72 272.967 544.43 273.107 533.21L214.627 544.04C200.817 546.72 191.538 551.94 177.188 547.88C180.967 545.51 187.208 547.57 191.708 546.98C199.448 545.97 206.267 543.51 213.717 541.52C216.297 540.83 217.778 540.04 219.958 538.48C230.998 533.51 257.747 530.68 270.927 528.1C269.007 517.2 265.767 506.3 259.427 497.1C251.537 485.67 240.837 480.25 227.438 477.83L230.188 472.35C231.467 472.73 232.737 473.12 234.017 473.52C252.907 479.43 260.507 486.51 269.557 503.7C276.977 501.95 285.227 500.49 292.777 499.2C341.957 490.84 391.087 480.34 440.247 472.12C446.097 450.89 454.147 438.87 471.807 425.56C466.537 342.43 461.867 259.26 457.797 176.07L458.647 172.24C463.467 167.69 469.487 170.3 477.597 169.2L478.617 169.05C481.937 165.3 477.427 110.94 477.097 101.91C470.417 98.0902 458.858 103.4 454.068 102.02L453.927 99.2202L452.137 98.9802C448.897 97.5102 448.337 97.0102 445.467 94.8102Z" fill="#030303"/>
<path d="M492.057 422.55C493.047 422.2 494.117 421.7 495.087 421.28C498.937 410.52 490.847 381.11 496.047 365.81C498.947 363.27 497.557 363.96 501.907 363.71C508.927 363.84 512.817 363.76 519.377 366.9C532.847 373.33 545.017 387.23 535.607 402.18C533.707 403.06 534.257 402.66 532.677 404.04C532.297 408.91 530.027 425.54 531.727 430.06C531.777 430.21 534.287 432.85 534.247 432.73C534.327 432.86 534.407 433 534.487 433.13C539.187 450.83 526.267 457.43 512.047 463.25C508.727 465.54 503.207 464.79 498.637 464.71C498.687 469.8 499.487 483.01 497.387 486.64C479.277 489.61 461.208 492.83 443.188 496.31C444.558 457.54 456.337 437.58 492.057 422.55Z" fill="#207FD5"/>
<path d="M492.057 422.55C495.617 433.17 494.177 474.17 497.387 486.64C479.277 489.61 461.208 492.83 443.188 496.31C444.558 457.54 456.337 437.58 492.057 422.55Z" fill="#207FD5"/>
<path d="M492.058 422.55C493.048 422.2 494.118 421.7 495.088 421.28C498.938 410.52 490.848 381.11 496.048 365.81C498.948 363.27 497.558 363.96 501.908 363.71C498.568 367.01 498.158 366.42 496.988 370.32C499.428 374.24 507.778 372.36 508.548 377.77C505.378 379.67 500.788 378.17 496.208 377.77C496.798 389.24 499.158 458.02 502.278 461.53C506.468 462.92 507.568 462.88 512.048 463.25C508.728 465.54 503.208 464.79 498.638 464.71C498.688 469.8 499.488 483.01 497.388 486.64C494.178 474.17 495.618 433.17 492.058 422.55Z" fill="#000513"/>
<path d="M534.487 433.13C522.667 434.13 523.857 444.39 516.277 447.73C514.537 444.23 515.277 445.4 511.688 443.02C513.237 439.51 520.747 435.4 524.517 430.48C536.217 415.14 525.727 404.96 524.407 390.9L525.497 390.45C531.017 394.21 531.347 397.57 535.607 402.18C533.707 403.06 534.257 402.66 532.677 404.04C532.297 408.91 530.027 425.54 531.727 430.06C531.777 430.21 534.287 432.85 534.247 432.73C534.327 432.86 534.407 433 534.487 433.13Z" fill="#000513"/>
<path d="M462.407 172.87C468.547 173.56 474.617 173.89 480.787 174.07C482.967 232.94 486.237 291.84 489.387 350.67C490.047 363.06 494.177 407.57 492.467 416.49L489.907 417.91L476.557 422.78C472.727 339.45 466.467 256.2 462.407 172.87Z" fill="#F9F6F2"/>
<path d="M380.078 529.63L382.218 529.81C387.118 536.62 389.668 549.79 392.038 557.97C395.828 571.09 402.208 593.32 394.548 606.05C391.158 611.69 385.448 614.6 379.278 616.25C366.068 619.79 334.258 619.52 322.388 612.68C319.988 605.47 318.118 602.76 311.628 598.49C312.128 593.96 312.198 589.23 314.398 585.17C325.018 578.13 344.438 590.27 357.038 586.49C359.688 585.7 361.638 584.2 362.868 581.7C368.358 570.53 356.148 543.73 352.038 532.41C361.398 532.24 370.798 530.75 380.078 529.63Z" fill="#F9F6F2"/>
<path d="M438.158 477.62C439.638 479.91 437.958 494.08 437.818 497.69L275.608 527.48C274.988 520.91 273.678 514.92 271.678 508.65C327.098 497.88 382.588 487.54 438.158 477.62Z" fill="#F9F6F2"/>
<path d="M306.098 541.53C307.038 541.33 308.208 541.4 309.168 541.36C309.528 541.99 309.768 542.29 309.828 543.09C310.198 547.44 308.528 553.88 307.848 558.29C303.408 587.33 293.268 609.32 277.558 633.91C274.748 632.65 271.888 631.28 268.938 630.37C263.158 628.6 256.318 628.32 250.948 631.46C244.098 635.47 242.018 642.35 240.128 649.52C237.298 649.36 235.048 649 232.318 648.23C230.898 645.04 239.368 635.55 241.508 632.65C261.338 605.76 274.428 580.23 277.518 546.43L306.098 541.53Z" fill="#F9F6F2"/>
<path d="M499.797 280.46C513.347 284.56 529.987 294.54 541.347 303.01C550.647 309.94 561.347 320.5 562.697 332.6C564.477 348.5 553.517 362.54 544.477 374.38C543.207 376.04 542.467 377.05 540.517 377.89C534.537 369.43 528.357 364.68 519.347 359.84C522.307 356.4 525.427 352.95 528.087 349.27C530.987 345.24 533.187 339.72 532.257 334.7C530.227 323.78 512.067 315.58 503.417 310.06C499.657 300.57 499.027 290.54 499.797 280.46Z" fill="#F9F6F2"/>
<path d="M229.607 702.49C240.687 690.75 251.037 683.86 267.757 683.54C278.057 683.35 288.477 686.33 295.837 693.85C300.967 699.09 303.717 705.44 305.087 712.55C289.197 717.1 238.887 722.17 224.737 715.48L223.777 714.35L229.607 702.49Z" fill="#F9F6F2"/>
<path d="M207.888 664.3C212.878 658.47 212.598 656.63 213.798 649.15C214.358 645.62 215.268 642.28 218.458 640.26C221.128 638.55 224.448 637.62 227.558 638.39L227.698 639.71C226.678 640.85 225.528 642.03 224.688 643.32C223.388 645.3 223.528 646.25 224.148 648.43C227.158 651.92 232.008 653.42 236.028 655.57C233.188 662.8 228.498 677.29 229.628 684.88C229.678 685.22 229.798 685.54 229.878 685.87C232.548 687.94 233.688 688.5 235.008 691.68C234.198 696.27 230.028 697.92 229.038 701.97L229.608 702.49L223.778 714.35C223.438 714.55 223.098 714.76 222.748 714.94C219.988 716.37 217.588 717.21 214.548 716.19L213.728 714.46C211.948 713.13 207.118 710.12 206.988 707.88C206.888 706.03 208.528 702.09 209.008 700.16C212.318 686.91 212.118 677.27 207.888 664.3Z" fill="#207FD5"/>
<path d="M229.878 685.87C232.548 687.94 233.688 688.5 235.008 691.68C234.198 696.27 230.028 697.92 229.038 701.97L229.608 702.49L223.778 714.35C223.438 714.55 223.098 714.76 222.748 714.94C219.988 716.37 217.588 717.21 214.548 716.19L213.728 714.46C215.448 714.42 216.968 714.23 218.648 713.89C221.868 705.47 227.448 699.4 231.388 691.71C231.998 690.51 230.348 687.23 229.878 685.87Z" fill="#000513"/>
<path d="M189.187 695.03C193.457 700.56 196.878 707.09 201.698 712.12C214.708 725.7 258.607 724.69 277.137 722.7C285.907 721.77 295.217 718.8 303.977 719.07C306.427 719.14 306.807 719.21 308.417 720.91C308.317 723.82 307.717 725.25 306.217 727.72C304.817 728.11 303.407 728.47 301.997 728.82C279.357 734.46 223.337 737.8 203.367 725.14C196.607 720.86 188.487 711.36 186.937 703.17C186.287 699.72 187.397 697.78 189.187 695.03Z" fill="#F9F6F2"/>
<path d="M286.797 642.48C288.377 642.82 289.847 643.2 291.357 643.8C298.547 646.63 304.417 651.99 307.347 659.21C310.447 666.86 309.467 675.29 306.397 682.76C305.167 685.73 303.777 689.04 300.647 690.35L299.267 689.43C290.997 681.8 282.207 682.61 275.927 677.36C273.767 665.45 286.437 655.82 286.777 643.79L286.797 642.48Z" fill="#F9F6F2"/>
<path d="M256.838 634.16C264.328 634.39 271.938 636.33 277.698 641.35C280.448 643.74 281.278 645.52 281.438 649.11C280.218 653.28 275.988 656.8 272.448 659.15C263.348 654.2 252.198 655.05 247.388 652.46C246.658 652.07 246.278 651.24 245.718 650.63C245.708 649.49 245.668 648.43 246.008 647.33C247.698 641.89 252.198 637.18 256.838 634.16Z" fill="#207FD5"/>
<path d="M248.287 570.01C250.537 569.96 252.377 570.19 254.567 570.6L254.737 571.96C248.017 586.17 247.087 599.71 246.827 615.15L240.087 624.59C239.557 625.42 238.857 626 238.147 626.67C237.707 626.03 237.517 625.86 237.297 625C236.467 621.82 237.077 617.24 237.257 613.91C238.067 598.3 239.647 583.46 248.287 570.01Z" fill="#F9F6F2"/>
<path d="M299.488 606.81C303.638 604.92 307.028 604.08 311.598 603.77C313.188 605.91 314.508 607.86 315.548 610.33C317.538 615.05 324.128 620.74 323.118 626.04C320.248 627.38 318.318 626.77 315.308 625.71C308.288 623.22 302.278 618.93 295.298 616.41C296.728 613.24 298.288 610.08 299.488 606.81Z" fill="#207FD5"/>
<path d="M203.338 670.82C203.538 671.01 203.768 671.18 203.938 671.4C206.678 674.94 206.368 684.45 206.058 688.88C205.748 693.17 205.358 699.78 202.018 702.71L200.198 701.49L192.928 690.63C195.898 683.69 199.348 677.23 203.338 670.82Z" fill="#F9F6F2"/>
<path d="M260.978 571.68L265.258 572.16L266.338 573.56C266.428 582.87 259.238 593.55 255.088 601.73L253.778 603.38L252.878 602.13C253.058 591.9 256.038 580.64 260.978 571.68Z" fill="#2479CC"/>
<path d="M248.387 658.54C254.047 658.75 259.397 659.43 264.507 662.02C266.967 663.27 269.717 664.36 270.617 667.02C268.107 667.88 266.487 666.7 264.057 665.84C255.447 663.26 247.827 664.45 239.137 663.44L239.117 662.35C242.177 659.8 244.507 659.27 248.387 658.54Z" fill="#F7F2EA"/>
<path d="M285.228 630.58C290.448 631.68 296.428 634.24 300.878 637.18C304.608 639.64 306.658 641.48 307.498 645.92C304.058 645.38 287.098 636.94 284.978 634.66L285.228 630.58Z" fill="#F7F2EA"/>
<path d="M306.757 587.97L307.147 586.34L308.577 586.77C309.747 591.97 308.527 599.52 311.597 603.77C307.027 604.08 303.637 604.92 299.487 606.81C300.937 604.38 301.827 602.07 302.487 599.33L306.757 587.97Z" fill="#000513"/>
<path d="M306.757 587.97C307.227 591.57 308.137 595 306.517 598.39C304.837 599.31 304.417 599.33 302.487 599.33L306.757 587.97Z" fill="#2669B2"/>
<path d="M289.958 622C296.128 621.96 304.908 625.86 309.238 630.17C311.398 632.32 311.498 633.26 311.438 636.23C306.078 635.98 295.208 628.17 290.498 625.09L289.958 622Z" fill="#F9F6F2"/>
<path d="M244.148 669.49C247.528 669.41 251.018 669.25 254.398 669.59C258.208 669.98 265.268 671.83 267.758 674.87L266.828 675.83L261.898 674.31C255.648 673.14 240.468 675.12 237.018 673.38C238.658 670.94 241.498 670.41 244.148 669.49Z" fill="#F7F2EA"/>
<path d="M313.148 568.95C315.758 569.13 318.678 569.45 320.998 570.75C323.318 572.05 324.788 573.86 325.558 576.38L324.638 577.89L322.908 577.46C318.738 577.2 314.978 578.18 310.818 577.88L309.728 576.29C310.508 573.4 311.498 571.43 313.148 568.95Z" fill="#207FD5"/>
<path d="M243.357 679.34C246.427 679.09 249.247 679.15 252.317 679.46C251.287 681.45 245.957 682.71 243.717 683.57C241.177 685.04 239.227 686.28 236.307 685.54L236.037 683.79C237.887 680.92 240.227 680.42 243.357 679.34Z" fill="#F7F2EA"/>
<path d="M379.918 204.39C388.558 204.17 396.108 205.83 403.548 210.36C416.638 218.33 424.468 232.41 427.738 247.06C431.478 263.8 429.828 282.64 420.278 297.23C412.368 309.32 402.328 314.87 388.368 317.65C385.558 321.28 382.808 325.03 378.798 327.42C374.448 330.02 370.778 330.92 365.898 329.57L365.198 328.08C369.498 323.28 378.838 323.32 382.078 317.82C383.438 315.53 383.498 313.43 382.918 310.9C382.108 307.4 380.828 305.52 377.818 303.59C369.798 302.86 364.938 311.45 357.768 313.57C355.038 310.92 358.258 306.45 356.718 303.06C356.018 301.52 353.708 299.26 352.608 297.87C347.368 309.73 342.118 317.02 331.688 324.75C325.868 328.09 320.698 328.51 314.388 330.09C311.378 330.85 311.578 331.32 310.048 333.89L307.908 333.93C304.408 330.41 303.548 324.74 300.618 320.7C298.828 318.22 295.988 316.73 293.308 315.39C280.478 308.99 272.538 316.45 260.138 314.85L259.728 313.72C263.318 309.79 268.608 308.16 273.558 306.77C267.958 293.22 264.088 280.52 265.158 265.68C266.228 250.84 272.338 235.69 283.838 225.89C291.858 219.07 302.208 215.18 312.798 216.29C326.508 217.74 336.258 226.26 344.398 236.61C346.208 232.76 348.108 228.84 350.328 225.21C357.328 213.77 366.928 207.38 379.918 204.39Z" fill="#F9F6F2"/>
<path d="M302.598 222.39C309.788 221.69 316.288 221.99 323.008 224.97C337.548 231.4 343.818 246.02 349.328 259.82L310.378 265.15L270.308 270.69C271.058 260.84 272.328 251.82 277.028 242.99C282.738 232.29 291.228 225.97 302.598 222.39Z" fill="#F9F6F2"/>
<path d="M376.398 210.48C384.668 209.32 391.918 209.95 399.388 214.01C412.578 221.18 418.228 234.26 422.368 247.85L391.948 253.11C379.478 255.36 366.848 256.94 354.308 258.76C352.448 253.52 350.348 248.34 348.348 243.15C349.088 240.53 349.838 237.88 350.858 235.36C355.838 222.99 364.308 215.73 376.398 210.48Z" fill="#F9F6F2"/>
<path d="M345.968 265.63L348.218 265.29L349.698 266.38C350.128 267.92 350.458 269.45 350.638 271.05C352.188 284.77 346.898 302.05 337.838 312.44C329.848 321.6 321.148 324.22 309.508 324.96C309.008 324.1 308.498 323.24 307.968 322.4C301.178 311.36 292.138 308.62 280.258 305.8C276.548 299.89 274.278 293.71 272.418 287.02C272.208 286.05 272.018 285.08 271.838 284.1C271.038 279.64 271.298 277.47 273.878 273.8C283.468 271.95 282.638 295.57 293.308 301.76C296.868 303.83 302.188 305.17 306.218 303.95C312.678 302.01 318.888 296.32 321.988 290.4C323.448 287.61 323.348 285.81 322.308 282.92C319.388 280.12 313.168 279.75 309.238 278.98L320.188 268.96L345.968 265.63Z" fill="#F9F6F2"/>
<path d="M383.498 268.35C397.638 253.97 403.218 256.52 423.458 252.91C425.788 280.33 418.878 304.83 388.878 312.09C384.988 297.28 376.628 294.99 363.668 302.75C360.738 299.68 357.078 295.61 354.018 292.8C355.538 284.42 356.618 278.15 355.678 269.61L357.558 267.87C359.778 276.33 362.208 285.67 370.588 290.22C374.778 292.52 379.728 293.01 384.278 291.57C390.448 289.61 406.548 275.98 395.348 269.48C394.508 269 385.258 268.47 383.498 268.35Z" fill="#F9F6F2"/>
<path d="M355.677 269.61C355.187 266.74 355.087 266.9 355.797 264.11L356.847 264.65L357.557 267.87L355.677 269.61Z" fill="#A1A09C"/>
<path d="M285.928 189.37C307.298 187.44 315.418 201.7 335.558 196.15C336.638 197.74 336.938 198.84 336.678 200.75C336.258 203.83 333.658 207.9 331.268 209.8C327.448 212.84 322.348 212.21 317.858 211.72C308.098 207.71 296.828 202.03 286.218 201.08C280.398 200.56 270.508 205.22 265.798 202.7C265.458 200.84 265.208 201.46 266.058 200.09C269.448 194.66 280.018 190.93 285.928 189.37Z" fill="#F9F6F2"/>
<path d="M289.768 335.76C291.368 335.78 292.628 336.1 294.178 336.49L294.928 337.8C293.478 340.92 289.938 342.86 287.208 344.84C314.328 357.37 341.168 362.11 370.418 353.47C378.228 351.16 385.508 347.19 393.268 344.64L394.608 345.68L394.378 347.58C390.858 351.17 386.048 352.84 381.528 354.88C380.408 355.3 379.278 355.7 378.138 356.09C344.218 367.79 315.678 364.03 284.048 348.62C283.328 352.71 283.178 357.46 279.938 360.3L278.408 359.21C277.868 356.75 277.798 354.91 278.208 352.41C279.478 344.62 283.748 340.28 289.768 335.76Z" fill="#F9F6F2"/>
<path d="M386.768 164.42C389.508 164.25 392.438 164.07 395.178 164.35C401.458 165 409.618 168.29 413.728 173.22C414.868 174.58 415.018 174.35 414.838 176.18C409.588 176.89 403.238 174.49 397.798 174.26C390.198 173.93 385.058 178.98 379.928 183.86C377.018 187.08 373.808 191.38 370.178 193.74C368.638 194.75 366.228 195.53 364.438 195.06C360.088 193.93 358.318 189.59 356.348 185.97C364.648 175.55 373.938 168.17 386.768 164.42Z" fill="#F9F6F2"/>
<path d="M363.298 372.01L366.068 373.66L366.158 375.54C365.378 376.28 364.658 376.91 363.758 377.49C355.678 382.71 345.378 382.79 336.338 380.94C334.918 379.71 334.888 379.6 334.468 377.76C337.748 374.74 349.188 377.17 354.108 376.08C357.278 375.37 360.438 373.52 363.298 372.01Z" fill="#F9F6F2"/>
</svg>
