<svg width="595" height="842" viewBox="0 0 595 842" fill="none" xmlns="http://www.w3.org/2000/svg">
<g clip-path="url(#clip0_217_2)">
<rect width="595" height="842" fill="white"/>
<path opacity="0.15" d="M-49.7975 596.698L65.1687 544.883C73.56 541.085 83.3508 544.341 87.8265 552.208C108.387 588.288 140.134 623.556 195.661 623.556C237.199 623.556 274.682 603.887 274.682 556.819C274.682 523.453 258.459 506.768 194.681 482.217L150.064 465.534C56.9169 429.182 -37.2114 379.13 -37.2114 260.309C-37.2114 141.487 70.0631 62 196.64 62C315.661 62 392.307 127.786 430.909 196.422C435.524 204.559 432.448 214.732 424.196 219.345L321.397 276.043C313.425 280.382 303.494 278.077 298.319 270.752C269.227 229.654 237.759 214.19 203.772 214.19C166.289 214.19 137.897 229.924 137.897 263.293C137.897 288.792 153.143 309.41 226.011 336.946L274.682 355.664C407.272 407.75 460 465.668 460 558.991C460 709.28 321.257 779 198.738 779C76.2175 779 -25.6024 712.399 -59.0299 617.994C-61.9666 609.719 -58.0493 600.767 -49.7975 597.104V596.698Z" fill="#025468"/>
<path d="M91.8608 75.9091V105H86.5483L73.892 86.6903H73.679V105H67.5284V75.9091H72.9261L85.483 94.2045H85.7386V75.9091H91.8608ZM106.687 105.426C104.48 105.426 102.572 104.957 100.962 104.02C99.362 103.073 98.1262 101.757 97.255 100.071C96.3838 98.3759 95.9482 96.411 95.9482 94.1761C95.9482 91.9223 96.3838 89.9527 97.255 88.267C98.1262 86.572 99.362 85.2557 100.962 84.3182C102.572 83.3712 104.48 82.8977 106.687 82.8977C108.893 82.8977 110.797 83.3712 112.397 84.3182C114.007 85.2557 115.247 86.572 116.119 88.267C116.99 89.9527 117.425 91.9223 117.425 94.1761C117.425 96.411 116.99 98.3759 116.119 100.071C115.247 101.757 114.007 103.073 112.397 104.02C110.797 104.957 108.893 105.426 106.687 105.426ZM106.715 100.739C107.719 100.739 108.557 100.455 109.229 99.8864C109.902 99.3087 110.408 98.5227 110.749 97.5284C111.1 96.5341 111.275 95.4025 111.275 94.1335C111.275 92.8646 111.1 91.733 110.749 90.7386C110.408 89.7443 109.902 88.9583 109.229 88.3807C108.557 87.803 107.719 87.5142 106.715 87.5142C105.702 87.5142 104.85 87.803 104.158 88.3807C103.477 88.9583 102.96 89.7443 102.61 90.7386C102.269 91.733 102.099 92.8646 102.099 94.1335C102.099 95.4025 102.269 96.5341 102.61 97.5284C102.96 98.5227 103.477 99.3087 104.158 99.8864C104.85 100.455 105.702 100.739 106.715 100.739ZM121.36 105V83.1818H127.127V87.0312H127.383C127.837 85.7528 128.595 84.7443 129.656 84.0057C130.716 83.267 131.985 82.8977 133.462 82.8977C134.959 82.8977 136.232 83.2718 137.283 84.0199C138.335 84.7585 139.035 85.7623 139.386 87.0312H139.613C140.058 85.7812 140.863 84.7822 142.028 84.0341C143.202 83.2765 144.589 82.8977 146.19 82.8977C148.226 82.8977 149.878 83.5464 151.147 84.8438C152.425 86.1316 153.065 87.9593 153.065 90.3267V105H147.028V91.5199C147.028 90.3078 146.706 89.3987 146.062 88.7926C145.418 88.1866 144.613 87.8835 143.647 87.8835C142.549 87.8835 141.692 88.2339 141.076 88.9347C140.46 89.6259 140.153 90.5398 140.153 91.6761V105H134.286V91.392C134.286 90.322 133.978 89.4697 133.363 88.8352C132.757 88.2008 131.957 87.8835 130.962 87.8835C130.29 87.8835 129.684 88.054 129.144 88.3949C128.614 88.7263 128.192 89.1951 127.88 89.8011C127.567 90.3977 127.411 91.0985 127.411 91.9034V105H121.36ZM167.788 105.426C165.543 105.426 163.612 104.972 161.992 104.062C160.382 103.144 159.142 101.847 158.271 100.17C157.399 98.4848 156.964 96.4915 156.964 94.1903C156.964 91.946 157.399 89.9763 158.271 88.2812C159.142 86.5862 160.368 85.2652 161.95 84.3182C163.54 83.3712 165.406 82.8977 167.546 82.8977C168.986 82.8977 170.326 83.1297 171.566 83.5938C172.816 84.0483 173.905 84.7348 174.833 85.6534C175.771 86.572 176.5 87.7273 177.021 89.1193C177.541 90.5019 177.802 92.1212 177.802 93.9773V95.6392H159.379V91.8892H172.106C172.106 91.018 171.916 90.2462 171.538 89.5739C171.159 88.9015 170.633 88.3759 169.961 87.9972C169.298 87.6089 168.526 87.4148 167.646 87.4148C166.727 87.4148 165.913 87.6278 165.202 88.054C164.502 88.4706 163.952 89.0341 163.555 89.7443C163.157 90.4451 162.953 91.2263 162.944 92.0881V95.6534C162.944 96.733 163.143 97.6657 163.54 98.4517C163.948 99.2377 164.521 99.8438 165.259 100.27C165.998 100.696 166.874 100.909 167.887 100.909C168.559 100.909 169.175 100.814 169.734 100.625C170.292 100.436 170.771 100.152 171.168 99.7727C171.566 99.3939 171.869 98.9299 172.077 98.3807L177.674 98.75C177.39 100.095 176.808 101.269 175.927 102.273C175.056 103.267 173.929 104.044 172.546 104.602C171.173 105.152 169.587 105.426 167.788 105.426ZM199.048 105.355C197.391 105.355 195.89 104.929 194.545 104.077C193.21 103.215 192.15 101.951 191.364 100.284C190.587 98.608 190.199 96.553 190.199 94.1193C190.199 91.6193 190.601 89.5407 191.406 87.8835C192.211 86.2169 193.281 84.9716 194.616 84.1477C195.961 83.3144 197.434 82.8977 199.034 82.8977C200.256 82.8977 201.274 83.1061 202.088 83.5227C202.912 83.9299 203.575 84.4413 204.077 85.0568C204.588 85.6629 204.976 86.2595 205.241 86.8466H205.426V75.9091H211.463V105H205.497V101.506H205.241C204.957 102.112 204.555 102.713 204.034 103.31C203.523 103.897 202.855 104.384 202.031 104.773C201.217 105.161 200.223 105.355 199.048 105.355ZM200.966 100.54C201.941 100.54 202.765 100.275 203.438 99.7443C204.119 99.2045 204.64 98.4517 205 97.4858C205.369 96.5199 205.554 95.3883 205.554 94.0909C205.554 92.7936 205.374 91.6667 205.014 90.7102C204.654 89.7538 204.134 89.0152 203.452 88.4943C202.77 87.9735 201.941 87.7131 200.966 87.7131C199.972 87.7131 199.134 87.983 198.452 88.5227C197.77 89.0625 197.254 89.8106 196.903 90.767C196.553 91.7235 196.378 92.8314 196.378 94.0909C196.378 95.3598 196.553 96.482 196.903 97.4574C197.263 98.4233 197.779 99.1809 198.452 99.7301C199.134 100.27 199.972 100.54 200.966 100.54ZM222.66 105.412C221.268 105.412 220.027 105.17 218.938 104.688C217.849 104.195 216.987 103.471 216.353 102.514C215.728 101.548 215.415 100.346 215.415 98.9062C215.415 97.6941 215.638 96.6761 216.083 95.8523C216.528 95.0284 217.134 94.3655 217.901 93.8636C218.668 93.3617 219.54 92.983 220.515 92.7273C221.5 92.4716 222.532 92.2917 223.612 92.1875C224.88 92.0549 225.903 91.9318 226.68 91.8182C227.456 91.6951 228.02 91.5152 228.37 91.2784C228.72 91.0417 228.896 90.6913 228.896 90.2273V90.142C228.896 89.2424 228.612 88.5464 228.043 88.054C227.485 87.5616 226.689 87.3153 225.657 87.3153C224.568 87.3153 223.701 87.5568 223.058 88.0398C222.414 88.5133 221.987 89.1098 221.779 89.8295L216.183 89.375C216.467 88.0492 217.025 86.9034 217.859 85.9375C218.692 84.9621 219.767 84.214 221.083 83.6932C222.409 83.1629 223.943 82.8977 225.685 82.8977C226.897 82.8977 228.058 83.0398 229.165 83.3239C230.283 83.608 231.272 84.0483 232.134 84.6449C233.005 85.2415 233.692 86.0085 234.194 86.946C234.696 87.8741 234.947 88.9867 234.947 90.2841V105H229.208V101.974H229.038C228.687 102.656 228.219 103.258 227.631 103.778C227.044 104.29 226.339 104.692 225.515 104.986C224.691 105.27 223.739 105.412 222.66 105.412ZM224.393 101.236C225.283 101.236 226.069 101.061 226.751 100.71C227.433 100.35 227.968 99.8674 228.356 99.2614C228.744 98.6553 228.938 97.9687 228.938 97.2017V94.8864C228.749 95.0095 228.488 95.1231 228.157 95.2273C227.835 95.322 227.47 95.4119 227.063 95.4972C226.656 95.5729 226.249 95.6439 225.842 95.7102C225.434 95.767 225.065 95.8191 224.734 95.8665C224.023 95.9706 223.403 96.1364 222.873 96.3636C222.343 96.5909 221.931 96.8987 221.637 97.2869C221.344 97.6657 221.197 98.1392 221.197 98.7074C221.197 99.5312 221.495 100.161 222.092 100.597C222.698 101.023 223.465 101.236 224.393 101.236ZM255.121 105.412C253.729 105.412 252.488 105.17 251.399 104.688C250.31 104.195 249.448 103.471 248.814 102.514C248.189 101.548 247.876 100.346 247.876 98.9062C247.876 97.6941 248.099 96.6761 248.544 95.8523C248.989 95.0284 249.595 94.3655 250.362 93.8636C251.129 93.3617 252 92.983 252.976 92.7273C253.961 92.4716 254.993 92.2917 256.072 92.1875C257.341 92.0549 258.364 91.9318 259.141 91.8182C259.917 91.6951 260.481 91.5152 260.831 91.2784C261.181 91.0417 261.357 90.6913 261.357 90.2273V90.142C261.357 89.2424 261.072 88.5464 260.504 88.054C259.946 87.5616 259.15 87.3153 258.118 87.3153C257.029 87.3153 256.162 87.5568 255.518 88.0398C254.875 88.5133 254.448 89.1098 254.24 89.8295L248.643 89.375C248.928 88.0492 249.486 86.9034 250.32 85.9375C251.153 84.9621 252.228 84.214 253.544 83.6932C254.87 83.1629 256.404 82.8977 258.146 82.8977C259.358 82.8977 260.518 83.0398 261.626 83.3239C262.744 83.608 263.733 84.0483 264.595 84.6449C265.466 85.2415 266.153 86.0085 266.655 86.946C267.157 87.8741 267.408 88.9867 267.408 90.2841V105H261.669V101.974H261.499C261.148 102.656 260.679 103.258 260.092 103.778C259.505 104.29 258.8 104.692 257.976 104.986C257.152 105.27 256.2 105.412 255.121 105.412ZM256.854 101.236C257.744 101.236 258.53 101.061 259.212 100.71C259.893 100.35 260.429 99.8674 260.817 99.2614C261.205 98.6553 261.399 97.9687 261.399 97.2017V94.8864C261.21 95.0095 260.949 95.1231 260.618 95.2273C260.296 95.322 259.931 95.4119 259.524 95.4972C259.117 95.5729 258.71 95.6439 258.303 95.7102C257.895 95.767 257.526 95.8191 257.195 95.8665C256.484 95.9706 255.864 96.1364 255.334 96.3636C254.804 96.5909 254.392 96.8987 254.098 97.2869C253.804 97.6657 253.658 98.1392 253.658 98.7074C253.658 99.5312 253.956 100.161 254.553 100.597C255.159 101.023 255.926 101.236 256.854 101.236ZM286.094 95.7102V83.1818H292.145V105H286.335V101.037H286.108C285.616 102.315 284.796 103.343 283.651 104.119C282.514 104.896 281.127 105.284 279.489 105.284C278.03 105.284 276.747 104.953 275.639 104.29C274.531 103.627 273.665 102.685 273.04 101.463C272.424 100.241 272.112 98.7784 272.102 97.0739V83.1818H278.153V95.9943C278.163 97.2822 278.509 98.3002 279.19 99.0483C279.872 99.7964 280.786 100.17 281.932 100.17C282.661 100.17 283.343 100.005 283.977 99.6733C284.612 99.3324 285.123 98.8305 285.511 98.1676C285.909 97.5047 286.103 96.6856 286.094 95.7102ZM303.036 75.9091V105H296.985V75.9091H303.036ZM314.105 105.412C312.713 105.412 311.473 105.17 310.384 104.688C309.295 104.195 308.433 103.471 307.798 102.514C307.173 101.548 306.861 100.346 306.861 98.9062C306.861 97.6941 307.083 96.6761 307.528 95.8523C307.973 95.0284 308.58 94.3655 309.347 93.8636C310.114 93.3617 310.985 92.983 311.96 92.7273C312.945 92.4716 313.977 92.2917 315.057 92.1875C316.326 92.0549 317.348 91.9318 318.125 91.8182C318.902 91.6951 319.465 91.5152 319.815 91.2784C320.166 91.0417 320.341 90.6913 320.341 90.2273V90.142C320.341 89.2424 320.057 88.5464 319.489 88.054C318.93 87.5616 318.134 87.3153 317.102 87.3153C316.013 87.3153 315.147 87.5568 314.503 88.0398C313.859 88.5133 313.433 89.1098 313.224 89.8295L307.628 89.375C307.912 88.0492 308.471 86.9034 309.304 85.9375C310.137 84.9621 311.212 84.214 312.528 83.6932C313.854 83.1629 315.388 82.8977 317.131 82.8977C318.343 82.8977 319.503 83.0398 320.611 83.3239C321.728 83.608 322.718 84.0483 323.58 84.6449C324.451 85.2415 325.137 86.0085 325.639 86.946C326.141 87.8741 326.392 88.9867 326.392 90.2841V105H320.653V101.974H320.483C320.133 102.656 319.664 103.258 319.077 103.778C318.49 104.29 317.784 104.692 316.96 104.986C316.136 105.27 315.185 105.412 314.105 105.412ZM315.838 101.236C316.728 101.236 317.514 101.061 318.196 100.71C318.878 100.35 319.413 99.8674 319.801 99.2614C320.189 98.6553 320.384 97.9687 320.384 97.2017V94.8864C320.194 95.0095 319.934 95.1231 319.602 95.2273C319.28 95.322 318.916 95.4119 318.509 95.4972C318.101 95.5729 317.694 95.6439 317.287 95.7102C316.88 95.767 316.51 95.8191 316.179 95.8665C315.469 95.9706 314.848 96.1364 314.318 96.3636C313.788 96.5909 313.376 96.8987 313.082 97.2869C312.789 97.6657 312.642 98.1392 312.642 98.7074C312.642 99.5312 312.94 100.161 313.537 100.597C314.143 101.023 314.91 101.236 315.838 101.236Z" fill="black"/>
<path d="M74.7159 127.091C74.6307 126.371 74.285 125.812 73.679 125.415C73.0729 125.017 72.3295 124.818 71.4489 124.818C70.8049 124.818 70.2415 124.922 69.7585 125.131C69.2803 125.339 68.9063 125.625 68.6364 125.99C68.3712 126.355 68.2386 126.769 68.2386 127.233C68.2386 127.621 68.331 127.955 68.5156 128.234C68.705 128.509 68.9465 128.739 69.2401 128.923C69.5336 129.103 69.8414 129.252 70.1634 129.371C70.4853 129.484 70.7812 129.577 71.0511 129.648L72.5284 130.045C72.9072 130.145 73.3286 130.282 73.7926 130.457C74.2614 130.633 74.7088 130.872 75.1349 131.175C75.5658 131.473 75.9209 131.857 76.2003 132.325C76.4796 132.794 76.6193 133.369 76.6193 134.051C76.6193 134.837 76.4134 135.547 76.0014 136.182C75.5942 136.816 74.9976 137.321 74.2116 137.695C73.4304 138.069 72.4811 138.256 71.3636 138.256C70.322 138.256 69.42 138.088 68.6577 137.751C67.9001 137.415 67.3035 136.946 66.8679 136.345C66.437 135.744 66.1932 135.045 66.1364 134.25H67.9545C68.0019 134.799 68.1866 135.254 68.5085 135.614C68.8352 135.969 69.2472 136.234 69.7443 136.409C70.2462 136.58 70.786 136.665 71.3636 136.665C72.036 136.665 72.6397 136.556 73.1747 136.338C73.7098 136.116 74.1335 135.808 74.446 135.415C74.7585 135.017 74.9148 134.553 74.9148 134.023C74.9148 133.54 74.7798 133.147 74.5099 132.844C74.2401 132.541 73.8849 132.295 73.4446 132.105C73.0043 131.916 72.5284 131.75 72.017 131.608L70.2273 131.097C69.0909 130.77 68.1913 130.304 67.5284 129.697C66.8655 129.091 66.5341 128.298 66.5341 127.318C66.5341 126.504 66.7543 125.794 67.1946 125.188C67.6397 124.577 68.2363 124.103 68.9844 123.767C69.7372 123.426 70.5777 123.256 71.5057 123.256C72.4432 123.256 73.2765 123.424 74.0057 123.76C74.7348 124.091 75.3125 124.546 75.7386 125.124C76.1695 125.701 76.3968 126.357 76.4205 127.091H74.7159ZM86.163 133.54V127.091H87.8391V138H86.163V136.153H86.0494C85.7937 136.707 85.396 137.179 84.8562 137.567C84.3164 137.95 83.6346 138.142 82.8107 138.142C82.1289 138.142 81.5228 137.993 80.9925 137.695C80.4622 137.392 80.0456 136.937 79.7425 136.331C79.4395 135.72 79.288 134.951 79.288 134.023V127.091H80.9641V133.909C80.9641 134.705 81.1867 135.339 81.6317 135.812C82.0816 136.286 82.6545 136.523 83.3505 136.523C83.7672 136.523 84.1909 136.416 84.6218 136.203C85.0574 135.99 85.422 135.663 85.7156 135.223C86.0138 134.783 86.163 134.222 86.163 133.54ZM91.1364 138V123.455H92.8125V128.824H92.9545C93.0777 128.634 93.2481 128.393 93.4659 128.099C93.6884 127.801 94.0057 127.536 94.4176 127.304C94.8343 127.067 95.3977 126.949 96.108 126.949C97.0265 126.949 97.8362 127.179 98.5369 127.638C99.2377 128.097 99.7846 128.748 100.178 129.591C100.571 130.434 100.767 131.428 100.767 132.574C100.767 133.729 100.571 134.731 100.178 135.578C99.7846 136.421 99.2401 137.074 98.544 137.538C97.848 137.998 97.0455 138.227 96.1364 138.227C95.4356 138.227 94.8745 138.111 94.4531 137.879C94.0317 137.643 93.7074 137.375 93.4801 137.077C93.2528 136.774 93.0777 136.523 92.9545 136.324H92.7557V138H91.1364ZM92.7841 132.545C92.7841 133.369 92.9048 134.096 93.1463 134.726C93.3878 135.351 93.7405 135.841 94.2045 136.196C94.6686 136.546 95.2367 136.722 95.9091 136.722C96.6098 136.722 97.1946 136.537 97.6634 136.168C98.1368 135.794 98.492 135.292 98.7287 134.662C98.9702 134.027 99.0909 133.322 99.0909 132.545C99.0909 131.778 98.9725 131.087 98.7358 130.472C98.5038 129.851 98.151 129.361 97.6776 129.001C97.2088 128.637 96.6193 128.455 95.9091 128.455C95.2273 128.455 94.6544 128.627 94.1903 128.973C93.7263 129.314 93.3759 129.792 93.1392 130.408C92.9025 131.018 92.7841 131.731 92.7841 132.545ZM108.075 127.091V128.511H102.422V127.091H108.075ZM104.07 124.477H105.746V134.875C105.746 135.348 105.814 135.704 105.952 135.94C106.094 136.172 106.274 136.329 106.491 136.409C106.714 136.485 106.948 136.523 107.195 136.523C107.379 136.523 107.531 136.513 107.649 136.494C107.768 136.471 107.862 136.452 107.933 136.438L108.274 137.943C108.161 137.986 108.002 138.028 107.798 138.071C107.595 138.118 107.337 138.142 107.024 138.142C106.551 138.142 106.087 138.04 105.632 137.837C105.182 137.633 104.808 137.323 104.51 136.906C104.216 136.49 104.07 135.964 104.07 135.33V124.477ZM110.597 138V127.091H112.273V138H110.597ZM110.682 125.614L112.415 122.318H114.375L112.159 125.614H110.682ZM120.087 127.091V128.511H114.434V127.091H120.087ZM116.081 124.477H117.757V134.875C117.757 135.348 117.826 135.704 117.963 135.94C118.105 136.172 118.285 136.329 118.503 136.409C118.726 136.485 118.96 136.523 119.206 136.523C119.391 136.523 119.542 136.513 119.661 136.494C119.779 136.471 119.874 136.452 119.945 136.438L120.286 137.943C120.172 137.986 120.014 138.028 119.81 138.071C119.606 138.118 119.348 138.142 119.036 138.142C118.562 138.142 118.098 138.04 117.644 137.837C117.194 137.633 116.82 137.323 116.522 136.906C116.228 136.49 116.081 135.964 116.081 135.33V124.477ZM129.483 133.54V127.091H131.159V138H129.483V136.153H129.37C129.114 136.707 128.716 137.179 128.176 137.567C127.637 137.95 126.955 138.142 126.131 138.142C125.449 138.142 124.843 137.993 124.313 137.695C123.783 137.392 123.366 136.937 123.063 136.331C122.76 135.72 122.608 134.951 122.608 134.023V127.091H124.284V133.909C124.284 134.705 124.507 135.339 124.952 135.812C125.402 136.286 125.975 136.523 126.671 136.523C127.087 136.523 127.511 136.416 127.942 136.203C128.378 135.99 128.742 135.663 129.036 135.223C129.334 134.783 129.483 134.222 129.483 133.54ZM135.906 123.455V138H134.229V123.455H135.906ZM143.407 138.227C142.422 138.227 141.558 137.993 140.815 137.524C140.076 137.055 139.499 136.4 139.082 135.557C138.67 134.714 138.464 133.729 138.464 132.602C138.464 131.466 138.67 130.474 139.082 129.626C139.499 128.779 140.076 128.121 140.815 127.652C141.558 127.183 142.422 126.949 143.407 126.949C144.392 126.949 145.254 127.183 145.993 127.652C146.736 128.121 147.314 128.779 147.725 129.626C148.142 130.474 148.35 131.466 148.35 132.602C148.35 133.729 148.142 134.714 147.725 135.557C147.314 136.4 146.736 137.055 145.993 137.524C145.254 137.993 144.392 138.227 143.407 138.227ZM143.407 136.722C144.155 136.722 144.771 136.53 145.254 136.146C145.737 135.763 146.094 135.259 146.326 134.634C146.558 134.009 146.674 133.331 146.674 132.602C146.674 131.873 146.558 131.194 146.326 130.564C146.094 129.934 145.737 129.425 145.254 129.037C144.771 128.649 144.155 128.455 143.407 128.455C142.659 128.455 142.044 128.649 141.561 129.037C141.078 129.425 140.72 129.934 140.488 130.564C140.256 131.194 140.14 131.873 140.14 132.602C140.14 133.331 140.256 134.009 140.488 134.634C140.72 135.259 141.078 135.763 141.561 136.146C142.044 136.53 142.659 136.722 143.407 136.722Z" fill="black"/>
<g clip-path="url(#clip1_217_2)">
<path d="M221.68 577.382H224.364C224.461 577.382 224.534 577.431 224.572 577.516L230.501 590.716C230.587 590.899 230.844 590.899 230.93 590.716L236.884 577.516C236.921 577.431 237.006 577.382 237.092 577.382H239.774C239.909 577.382 240.008 577.492 240.008 577.614V594.515C240.008 594.649 239.898 594.747 239.774 594.747H237.459C237.324 594.747 237.227 594.637 237.227 594.515V582.764H237.105L231.8 594.612C231.763 594.698 231.678 594.747 231.592 594.747H229.827C229.729 594.747 229.656 594.698 229.607 594.612L224.326 582.764H224.204V594.515C224.204 594.649 224.094 594.747 223.972 594.747H221.656C221.521 594.747 221.423 594.637 221.423 594.515V577.614C221.423 577.48 221.533 577.382 221.656 577.382H221.68Z" fill="black"/>
<path d="M252.785 577.382H261.962C262.097 577.382 262.195 577.492 262.195 577.614V579.72C262.195 579.854 262.084 579.952 261.962 579.952H255.568C255.433 579.952 255.334 580.061 255.334 580.183V584.53C255.334 584.664 255.444 584.761 255.568 584.761H260.908C261.043 584.761 261.142 584.871 261.142 584.993V587.026C261.142 587.16 261.031 587.258 260.908 587.258H255.568C255.433 587.258 255.334 587.367 255.334 587.489V591.934C255.334 592.067 255.444 592.165 255.568 592.165H262.183C262.318 592.165 262.415 592.275 262.415 592.396V594.503C262.415 594.637 262.305 594.734 262.183 594.734H252.785C252.65 594.734 252.553 594.625 252.553 594.503V577.614C252.553 577.48 252.663 577.382 252.785 577.382ZM259.059 572H260.761C260.944 572 261.056 572.207 260.957 572.353L258.814 575.702C258.764 575.775 258.69 575.811 258.618 575.811H256.975C256.792 575.811 256.682 575.617 256.779 575.458L258.85 572.11C258.886 572.037 258.972 572 259.046 572H259.059Z" fill="black"/>
<path d="M278.122 579.952H274.189C274.054 579.952 273.955 579.842 273.955 579.72V577.614C273.955 577.48 274.067 577.382 274.189 577.382H285.312C285.447 577.382 285.546 577.492 285.546 577.614V579.72C285.546 579.854 285.435 579.952 285.312 579.952H281.381C281.246 579.952 281.147 580.061 281.147 580.183V594.515C281.147 594.649 281.037 594.747 280.915 594.747H278.598C278.464 594.747 278.366 594.637 278.366 594.515V580.183C278.366 580.049 278.257 579.952 278.133 579.952H278.122Z" fill="black"/>
<path d="M295.972 586.064C295.972 580.731 300.076 577.139 304.902 577.139C309.729 577.139 313.833 580.731 313.833 586.064C313.833 591.398 309.705 594.99 304.902 594.99C300.099 594.99 295.972 591.398 295.972 586.064ZM304.902 592.348C308.149 592.348 310.978 589.876 310.978 586.064C310.978 582.253 308.149 579.781 304.902 579.781C301.656 579.781 298.826 582.253 298.826 586.064C298.826 589.876 301.656 592.348 304.902 592.348Z" fill="black"/>
<path d="M326.146 577.614C326.146 577.48 326.255 577.382 326.378 577.382H331.952C336.926 577.382 340.467 580.926 340.467 586.064C340.467 591.203 336.926 594.747 331.952 594.747H326.378C326.243 594.747 326.146 594.637 326.146 594.515V577.614ZM331.855 592.128C335.567 592.128 337.587 589.681 337.587 586.064C337.587 582.448 335.567 580 331.855 580H329.159C329.025 580 328.927 580.11 328.927 580.232V591.897C328.927 592.031 329.036 592.128 329.159 592.128H331.855Z" fill="black"/>
<path d="M352.252 586.064C352.252 580.731 356.358 577.139 361.184 577.139C366.011 577.139 370.115 580.731 370.115 586.064C370.115 591.398 365.987 594.99 361.184 594.99C356.381 594.99 352.252 591.398 352.252 586.064ZM361.184 592.348C364.431 592.348 367.26 589.876 367.26 586.064C367.26 582.253 364.431 579.781 361.184 579.781C357.938 579.781 355.107 582.253 355.107 586.064C355.107 589.876 357.938 592.348 361.184 592.348Z" fill="black"/>
<path d="M114.899 618.528H102.44C101.84 618.528 101.313 618.893 101.092 619.453L92.0509 643.953C91.5855 645.183 89.8336 645.183 89.368 643.953L80.2531 619.453C80.0448 618.905 79.5058 618.528 78.9177 618.528H66.4338C65.417 618.528 64.7187 619.563 65.1107 620.501L83.1567 665.251C83.3771 665.787 83.9039 666.128 84.4797 666.128H96.8412C97.4292 666.128 97.9437 665.787 98.1642 665.251L116.21 620.501C116.602 619.563 115.916 618.528 114.887 618.528H114.899Z" fill="black"/>
<path d="M140.566 618.528C128.584 618.528 116.884 626.906 116.884 642.419C116.884 651.552 121.123 658.322 127.334 662.243C130.434 660.928 133.999 660.197 137.883 660.197C143.775 660.197 148.37 661.89 151.861 664.143C154.924 662.876 157.46 661.062 159.396 658.955C159.898 658.407 159.898 657.555 159.396 657.007L154.348 651.661C153.895 651.187 153.16 651.065 152.596 651.393C149.533 653.22 146.446 653.792 143.077 653.792C139.071 653.792 135.824 652.745 133.668 650.651C132.774 649.774 133.46 648.24 134.709 648.24H161.956C162.679 648.24 163.291 647.716 163.377 646.998C165.864 626.248 152.082 618.528 140.602 618.528H140.566ZM147.585 637.487H133.693C132.541 637.487 131.855 636.172 132.504 635.235C134.452 632.495 137.588 631.228 140.737 631.228C143.886 631.228 147.169 632.519 148.835 635.356C149.386 636.306 148.676 637.5 147.585 637.5V637.487Z" fill="black"/>
<path d="M197.68 618.528C193.062 618.528 189.447 619.989 186.814 622.291C185.944 623.07 184.559 622.473 184.559 621.316V619.478C184.559 618.954 184.13 618.528 183.604 618.528H170.164C169.637 618.528 169.209 618.954 169.209 619.478V664.715C169.209 665.494 169.846 666.14 170.642 666.14H183.114C183.91 666.14 184.559 665.506 184.559 664.715V640.921C184.559 636.16 186.777 632.02 191.922 632.02C197.068 632.02 199.457 636.16 199.457 640.921V664.715C199.457 665.494 200.094 666.14 200.902 666.14H213.374C214.158 666.14 214.807 665.506 214.807 664.715V638.279C214.807 624.263 207.003 618.528 197.693 618.528H197.68Z" fill="black"/>
<path d="M269.166 607.691H256.695C255.909 607.691 255.26 608.324 255.26 609.127V623.74H254.991C254.636 622.948 250.286 618.54 242.214 618.54C231.922 618.54 220.394 626.297 220.394 642.346C220.394 658.395 231.935 666.14 242.214 666.14C250.274 666.14 254.624 661.732 254.991 660.94H255.26V664.715C255.26 665.494 255.898 666.14 256.695 666.14H269.166C269.963 666.14 270.612 665.506 270.612 664.715V609.115C270.612 608.324 269.974 607.678 269.166 607.678V607.691ZM245.509 652.648C240.179 652.648 235.475 648.775 235.475 642.334C235.475 635.892 240.179 632.02 245.509 632.02C250.838 632.02 255.616 635.807 255.616 642.334C255.616 648.861 251.009 652.648 245.509 652.648Z" fill="black"/>
<path d="M324.958 618.528H312.486C311.69 618.528 311.041 619.161 311.041 619.965V623.728H310.771C310.415 622.936 306.078 618.528 297.992 618.528C287.701 618.528 276.173 626.285 276.173 642.334C276.173 658.383 287.701 666.128 297.992 666.128C306.067 666.128 310.415 661.719 310.771 660.928H311.041V664.703C311.041 665.482 311.677 666.128 312.486 666.128H324.958C325.754 666.128 326.403 665.494 326.403 664.703V619.953C326.403 619.161 325.766 618.516 324.958 618.516V618.528ZM301.289 652.648C295.959 652.648 291.267 648.775 291.267 642.334C291.267 635.892 295.959 632.02 301.289 632.02C306.617 632.02 311.408 635.807 311.408 642.334C311.408 648.861 306.8 652.648 301.289 652.648Z" fill="black"/>
<path d="M366.329 652.416C365.374 652.587 364.492 652.66 363.843 652.66C359.493 652.66 358.256 650.005 358.256 647.874V634.005C358.256 633.128 358.966 632.41 359.848 632.41H366.415C367.298 632.41 368.008 631.691 368.008 630.815V620.135C368.008 619.247 367.298 618.528 366.415 618.528H359.848C358.966 618.528 358.256 617.907 358.256 617.03V609.286C358.256 608.397 357.546 607.678 356.663 607.678H344.51C343.627 607.678 342.917 608.397 342.917 609.286V617.03C342.917 617.907 342.207 618.528 341.325 618.528H337.76C336.877 618.528 336.155 619.247 336.155 620.135V630.815C336.155 631.691 336.877 632.41 337.76 632.41H341.325C342.207 632.41 342.917 633.128 342.917 634.005V650.188C342.917 661.719 349.57 666.152 358.795 666.152C361.907 666.152 365.583 665.653 367.591 664.131C367.972 663.838 368.204 663.363 368.204 662.864V653.999C368.204 653.013 367.31 652.246 366.341 652.429L366.329 652.416Z" fill="black"/>
<path d="M396.039 618.528C383.898 618.528 371.389 626.723 371.389 642.334C371.389 657.945 383.898 666.128 396.039 666.128C408.18 666.128 420.603 657.932 420.603 642.334C420.603 626.735 408.093 618.528 396.039 618.528ZM396.039 652.477C390.709 652.477 386.458 648.422 386.458 642.334C386.458 636.245 390.709 632.191 396.039 632.191C401.367 632.191 405.534 636.245 405.534 642.334C405.534 648.422 401.282 652.477 396.039 652.477Z" fill="black"/>
<path d="M472.596 607.691H460.442C459.56 607.691 458.85 608.409 458.85 609.286V623.74H458.58C458.226 622.948 453.888 618.54 445.803 618.54C435.512 618.54 423.984 626.297 423.984 642.346C423.984 658.395 435.512 666.14 445.803 666.14C453.876 666.14 458.226 661.732 458.58 660.94H458.85V664.557C458.85 665.434 459.56 666.14 460.442 666.14H472.596C473.478 666.14 474.188 665.434 474.188 664.557V609.286C474.188 608.409 473.478 607.691 472.596 607.691ZM449.085 652.648C443.757 652.648 439.064 648.775 439.064 642.334C439.064 635.892 443.757 632.02 449.085 632.02C454.415 632.02 459.206 635.807 459.206 642.334C459.206 648.861 454.599 652.648 449.085 652.648Z" fill="black"/>
<path d="M504.436 618.528C492.283 618.528 479.775 626.723 479.775 642.334C479.775 657.945 492.283 666.128 504.436 666.128C516.59 666.128 529 657.932 529 642.334C529 626.735 516.491 618.528 504.436 618.528ZM504.436 652.477C499.107 652.477 494.857 648.422 494.857 642.334C494.857 636.245 499.119 632.191 504.436 632.191C509.753 632.191 513.931 636.245 513.931 642.334C513.931 648.422 509.667 652.477 504.436 652.477Z" fill="black"/>
<path d="M395.769 668.502H383.309C382.512 668.502 381.863 669.147 381.863 669.939V684.564H381.594C381.239 683.772 376.902 679.364 368.817 679.364C363.316 679.364 357.472 681.58 353.208 686.098C357.215 690.676 359.309 696.497 359.309 703.17C359.309 709.843 357.215 715.663 353.208 720.242C357.459 724.759 363.316 726.976 368.817 726.976C376.889 726.976 381.239 722.568 381.594 721.776H381.863V724.662C381.863 725.453 382.512 726.099 383.309 726.099H395.769C396.566 726.099 397.215 725.453 397.215 724.662V669.951C397.215 669.16 396.578 668.514 395.769 668.514V668.502ZM372.112 713.484C366.783 713.484 362.09 709.611 362.09 703.17C362.09 696.728 366.783 692.856 372.112 692.856C377.441 692.856 382.232 696.643 382.232 703.17C382.232 709.697 377.625 713.484 372.112 713.484Z" fill="black"/>
<path d="M418.924 679.364H406.465C405.668 679.364 405.018 679.997 405.018 680.801V724.65C405.018 725.441 405.668 726.087 406.465 726.087H418.924C419.72 726.087 420.369 725.441 420.369 724.65V680.801C420.369 680.009 419.733 679.364 418.924 679.364ZM418.924 668.502H406.465C405.668 668.502 405.018 669.147 405.018 669.939V675.199C405.018 675.991 405.668 676.636 406.465 676.636H418.924C419.72 676.636 420.369 676.003 420.369 675.199V669.939C420.369 669.147 419.733 668.502 418.924 668.502Z" fill="black"/>
<path d="M474.715 679.364H462.256C461.46 679.364 460.811 679.997 460.811 680.801V684.563H460.541C460.185 683.772 455.837 679.364 447.762 679.364C437.471 679.364 425.943 687.121 425.943 703.17C425.943 719.219 437.471 726.964 447.762 726.964C455.824 726.964 460.173 722.555 460.541 721.764H460.811V724.65C460.811 725.441 461.447 726.087 462.256 726.087H474.715C475.511 726.087 476.16 725.441 476.16 724.65V680.801C476.16 680.009 475.511 679.364 474.715 679.364ZM451.059 713.484C445.729 713.484 441.025 709.611 441.025 703.17C441.025 696.728 445.729 692.856 451.059 692.856C456.387 692.856 461.165 696.643 461.165 703.17C461.165 709.697 456.56 713.484 451.059 713.484Z" fill="black"/>
<path d="M116.284 710.634L126.354 705.983C127.089 705.642 127.947 705.934 128.339 706.64C130.14 709.879 132.921 713.045 137.785 713.045C141.423 713.045 144.706 711.28 144.706 707.054C144.706 704.059 143.285 702.561 137.699 700.357L133.791 698.859C125.631 695.596 117.386 691.102 117.386 680.436C117.386 669.769 126.783 662.633 137.87 662.633C148.296 662.633 155.01 668.539 158.391 674.7C158.795 675.431 158.526 676.344 157.803 676.758L148.798 681.848C148.1 682.238 147.23 682.031 146.777 681.373C144.229 677.684 141.472 676.295 138.495 676.295C135.212 676.295 132.725 677.708 132.725 680.703C132.725 682.993 134.06 684.843 140.443 687.315L144.706 688.996C156.32 693.672 160.939 698.871 160.939 707.249C160.939 720.741 148.786 727 138.054 727C127.322 727 118.403 721.021 115.475 712.546C115.218 711.803 115.561 710.999 116.284 710.671V710.634Z" fill="#08E2E2"/>
<path d="M164.308 703.158C164.308 687.108 175.836 679.352 186.127 679.352C194.201 679.352 198.55 683.76 198.905 684.551H199.175V680.862C199.175 680.021 199.861 679.34 200.706 679.34H212.994C213.839 679.34 214.526 680.021 214.526 680.862V724.552C214.526 725.393 213.839 726.075 212.994 726.075H200.706C199.861 726.075 199.175 725.393 199.175 724.552V721.752H198.905C198.55 722.543 194.201 726.951 186.127 726.951C175.836 726.951 164.308 719.195 164.308 703.145V703.158ZM189.411 713.471C194.912 713.471 199.518 709.684 199.518 703.158C199.518 696.631 194.912 692.844 189.411 692.844C183.91 692.844 179.389 696.728 179.389 703.158C179.389 709.587 184.094 713.471 189.411 713.471Z" fill="#08E2E2"/>
<path d="M223.848 679.364H236.136C236.983 679.364 237.668 680.046 237.668 680.886V682.189C237.668 683.346 239.041 683.93 239.909 683.163C242.544 680.849 246.17 679.376 250.801 679.376C260.112 679.376 267.915 685.111 267.915 699.127V724.589C267.915 725.429 267.23 726.111 266.384 726.111H254.097C253.251 726.111 252.566 725.429 252.566 724.589V701.769C252.566 697.008 250.261 692.868 245.03 692.868C239.8 692.868 237.668 697.008 237.668 701.769V724.589C237.668 725.429 236.983 726.111 236.136 726.111H223.848C223.003 726.111 222.318 725.429 222.318 724.589V680.898C222.318 680.058 223.003 679.376 223.848 679.376V679.364Z" fill="#08E2E2"/>
<path d="M279.175 710.744V693.745C279.175 692.905 278.489 692.223 277.644 692.223H273.686C272.841 692.223 272.156 691.541 272.156 690.701V680.898C272.156 680.058 272.841 679.376 273.686 679.376H277.644C278.489 679.376 279.175 678.694 279.175 677.854V670.012C279.175 669.172 279.86 668.49 280.707 668.49H292.995C293.84 668.49 294.525 669.172 294.525 670.012V677.854C294.525 678.694 295.211 679.376 296.056 679.376H302.758C303.604 679.376 304.289 680.058 304.289 680.898V690.701C304.289 691.541 303.604 692.223 302.758 692.223H296.056C295.211 692.223 294.525 692.905 294.525 693.745V708.455C294.525 710.573 295.763 713.216 300.112 713.216C300.773 713.216 301.681 713.143 302.66 712.96C303.64 712.777 304.462 713.52 304.462 714.47V723.384C304.462 723.846 304.253 724.297 303.874 724.589C301.877 726.111 298.176 726.623 295.052 726.623C285.828 726.623 279.175 722.214 279.175 710.756V710.744Z" fill="#08E2E2"/>
<path d="M307.659 703.158C307.659 687.547 320.167 679.352 332.32 679.352C344.474 679.352 356.884 687.547 356.884 703.158C356.884 718.768 344.375 726.964 332.32 726.964C320.266 726.964 307.659 718.768 307.659 703.158ZM332.32 713.301C337.551 713.301 341.815 709.246 341.815 703.158C341.815 697.069 337.551 693.014 332.32 693.014C327.089 693.014 322.739 697.069 322.739 703.158C322.739 709.246 327.003 713.301 332.32 713.301Z" fill="#08E2E2"/>
</g>
</g>
<defs>
<clipPath id="clip0_217_2">
<rect width="595" height="842" fill="white"/>
</clipPath>
<clipPath id="clip1_217_2">
<rect width="464" height="155" fill="white" transform="translate(65 572)"/>
</clipPath>
</defs>
</svg>
