<svg width="595" height="842" viewBox="0 0 595 842" fill="none" xmlns="http://www.w3.org/2000/svg">
<g clip-path="url(#clip0_264_74)">
<rect width="595" height="842" fill="white"/>
<path opacity="0.15" d="M-49.7975 596.698L65.1687 544.883C73.56 541.085 83.3508 544.341 87.8265 552.208C108.387 588.288 140.134 623.556 195.661 623.556C237.199 623.556 274.682 603.887 274.682 556.819C274.682 523.453 258.459 506.768 194.681 482.217L150.064 465.534C56.9169 429.182 -37.2114 379.13 -37.2114 260.309C-37.2114 141.487 70.0631 62 196.64 62C315.661 62 392.307 127.786 430.909 196.422C435.524 204.559 432.448 214.732 424.196 219.345L321.397 276.043C313.425 280.382 303.494 278.077 298.319 270.752C269.227 229.654 237.759 214.19 203.772 214.19C166.289 214.19 137.897 229.924 137.897 263.293C137.897 288.792 153.143 309.41 226.011 336.946L274.682 355.664C407.272 407.75 460 465.668 460 558.991C460 709.28 321.257 779 198.738 779C76.2175 779 -25.6024 712.399 -59.0299 617.994C-61.9666 609.719 -58.0493 600.767 -49.7975 597.104V596.698Z" fill="#025468"/>
<g clip-path="url(#clip1_264_74)">
<path d="M221.68 577.382H224.364C224.461 577.382 224.534 577.431 224.572 577.516L230.501 590.716C230.587 590.899 230.844 590.899 230.93 590.716L236.884 577.516C236.921 577.431 237.006 577.382 237.092 577.382H239.774C239.909 577.382 240.008 577.492 240.008 577.614V594.515C240.008 594.649 239.898 594.747 239.774 594.747H237.459C237.324 594.747 237.227 594.637 237.227 594.515V582.764H237.105L231.8 594.612C231.763 594.698 231.678 594.747 231.592 594.747H229.827C229.729 594.747 229.656 594.698 229.607 594.612L224.326 582.764H224.204V594.515C224.204 594.649 224.094 594.747 223.972 594.747H221.656C221.521 594.747 221.423 594.637 221.423 594.515V577.614C221.423 577.48 221.533 577.382 221.656 577.382H221.68Z" fill="black"/>
<path d="M252.785 577.382H261.962C262.097 577.382 262.195 577.492 262.195 577.614V579.72C262.195 579.854 262.084 579.952 261.962 579.952H255.568C255.433 579.952 255.334 580.061 255.334 580.183V584.53C255.334 584.664 255.444 584.761 255.568 584.761H260.908C261.043 584.761 261.142 584.871 261.142 584.993V587.026C261.142 587.16 261.031 587.258 260.908 587.258H255.568C255.433 587.258 255.334 587.367 255.334 587.489V591.934C255.334 592.067 255.444 592.165 255.568 592.165H262.183C262.318 592.165 262.415 592.275 262.415 592.396V594.503C262.415 594.637 262.305 594.734 262.183 594.734H252.785C252.65 594.734 252.553 594.625 252.553 594.503V577.614C252.553 577.48 252.663 577.382 252.785 577.382ZM259.059 572H260.761C260.944 572 261.056 572.207 260.957 572.353L258.814 575.702C258.764 575.775 258.69 575.811 258.618 575.811H256.975C256.792 575.811 256.682 575.617 256.779 575.458L258.85 572.11C258.886 572.037 258.972 572 259.046 572H259.059Z" fill="black"/>
<path d="M278.122 579.952H274.189C274.054 579.952 273.955 579.842 273.955 579.72V577.614C273.955 577.48 274.067 577.382 274.189 577.382H285.312C285.447 577.382 285.546 577.492 285.546 577.614V579.72C285.546 579.854 285.435 579.952 285.312 579.952H281.381C281.246 579.952 281.147 580.061 281.147 580.183V594.515C281.147 594.649 281.037 594.747 280.915 594.747H278.598C278.464 594.747 278.366 594.637 278.366 594.515V580.183C278.366 580.049 278.257 579.952 278.133 579.952H278.122Z" fill="black"/>
<path d="M295.972 586.064C295.972 580.731 300.076 577.139 304.902 577.139C309.729 577.139 313.833 580.731 313.833 586.064C313.833 591.398 309.705 594.99 304.902 594.99C300.099 594.99 295.972 591.398 295.972 586.064ZM304.902 592.348C308.149 592.348 310.978 589.876 310.978 586.064C310.978 582.253 308.149 579.781 304.902 579.781C301.656 579.781 298.826 582.253 298.826 586.064C298.826 589.876 301.656 592.348 304.902 592.348Z" fill="black"/>
<path d="M326.146 577.614C326.146 577.48 326.255 577.382 326.378 577.382H331.952C336.926 577.382 340.467 580.926 340.467 586.064C340.467 591.203 336.926 594.747 331.952 594.747H326.378C326.243 594.747 326.146 594.637 326.146 594.515V577.614ZM331.855 592.128C335.567 592.128 337.587 589.681 337.587 586.064C337.587 582.448 335.567 580 331.855 580H329.159C329.025 580 328.927 580.11 328.927 580.232V591.897C328.927 592.031 329.036 592.128 329.159 592.128H331.855Z" fill="black"/>
<path d="M352.252 586.064C352.252 580.731 356.358 577.139 361.184 577.139C366.011 577.139 370.115 580.731 370.115 586.064C370.115 591.398 365.987 594.99 361.184 594.99C356.381 594.99 352.252 591.398 352.252 586.064ZM361.184 592.348C364.431 592.348 367.26 589.876 367.26 586.064C367.26 582.253 364.431 579.781 361.184 579.781C357.938 579.781 355.107 582.253 355.107 586.064C355.107 589.876 357.938 592.348 361.184 592.348Z" fill="black"/>
<path d="M114.899 618.528H102.44C101.84 618.528 101.313 618.893 101.092 619.454L92.0509 643.953C91.5855 645.183 89.8336 645.183 89.368 643.953L80.2531 619.454C80.0448 618.906 79.5058 618.528 78.9177 618.528H66.4338C65.417 618.528 64.7187 619.563 65.1107 620.501L83.1567 665.251C83.3771 665.787 83.9039 666.128 84.4797 666.128H96.8412C97.4292 666.128 97.9437 665.787 98.1642 665.251L116.21 620.501C116.602 619.563 115.916 618.528 114.887 618.528H114.899Z" fill="black"/>
<path d="M140.566 618.528C128.584 618.528 116.884 626.906 116.884 642.419C116.884 651.552 121.123 658.322 127.334 662.243C130.434 660.928 133.999 660.198 137.883 660.198C143.775 660.198 148.37 661.89 151.861 664.143C154.924 662.876 157.46 661.062 159.396 658.955C159.898 658.408 159.898 657.555 159.396 657.007L154.348 651.661C153.895 651.187 153.16 651.065 152.596 651.394C149.533 653.22 146.446 653.792 143.077 653.792C139.071 653.792 135.824 652.745 133.668 650.651C132.774 649.774 133.46 648.24 134.709 648.24H161.956C162.679 648.24 163.291 647.716 163.377 646.998C165.864 626.248 152.082 618.528 140.602 618.528H140.566ZM147.585 637.488H133.693C132.541 637.488 131.855 636.172 132.504 635.235C134.452 632.495 137.588 631.229 140.737 631.229C143.886 631.229 147.169 632.519 148.835 635.357C149.386 636.306 148.676 637.5 147.585 637.5V637.488Z" fill="black"/>
<path d="M197.68 618.528C193.062 618.528 189.447 619.989 186.814 622.291C185.944 623.07 184.559 622.473 184.559 621.317V619.478C184.559 618.954 184.13 618.528 183.604 618.528H170.164C169.637 618.528 169.209 618.954 169.209 619.478V664.715C169.209 665.494 169.846 666.14 170.642 666.14H183.114C183.91 666.14 184.559 665.507 184.559 664.715V640.921C184.559 636.16 186.777 632.02 191.922 632.02C197.068 632.02 199.457 636.16 199.457 640.921V664.715C199.457 665.494 200.094 666.14 200.902 666.14H213.374C214.158 666.14 214.807 665.507 214.807 664.715V638.279C214.807 624.263 207.003 618.528 197.693 618.528H197.68Z" fill="black"/>
<path d="M269.166 607.691H256.695C255.909 607.691 255.26 608.324 255.26 609.127V623.74H254.991C254.636 622.948 250.286 618.54 242.214 618.54C231.922 618.54 220.394 626.297 220.394 642.346C220.394 658.395 231.935 666.14 242.214 666.14C250.274 666.14 254.624 661.732 254.991 660.94H255.26V664.715C255.26 665.494 255.898 666.14 256.695 666.14H269.166C269.963 666.14 270.612 665.506 270.612 664.715V609.115C270.612 608.324 269.974 607.678 269.166 607.678V607.691ZM245.509 652.648C240.179 652.648 235.475 648.775 235.475 642.334C235.475 635.892 240.179 632.02 245.509 632.02C250.838 632.02 255.616 635.807 255.616 642.334C255.616 648.861 251.009 652.648 245.509 652.648Z" fill="black"/>
<path d="M324.958 618.528H312.486C311.69 618.528 311.041 619.161 311.041 619.965V623.728H310.771C310.415 622.936 306.078 618.528 297.992 618.528C287.701 618.528 276.173 626.285 276.173 642.334C276.173 658.383 287.701 666.128 297.992 666.128C306.067 666.128 310.415 661.72 310.771 660.928H311.041V664.703C311.041 665.482 311.677 666.128 312.486 666.128H324.958C325.754 666.128 326.403 665.494 326.403 664.703V619.953C326.403 619.161 325.766 618.516 324.958 618.516V618.528ZM301.289 652.648C295.959 652.648 291.267 648.775 291.267 642.334C291.267 635.892 295.959 632.02 301.289 632.02C306.617 632.02 311.408 635.807 311.408 642.334C311.408 648.861 306.8 652.648 301.289 652.648Z" fill="black"/>
<path d="M366.329 652.416C365.374 652.587 364.492 652.66 363.843 652.66C359.493 652.66 358.256 650.005 358.256 647.874V634.005C358.256 633.128 358.966 632.41 359.848 632.41H366.415C367.298 632.41 368.008 631.691 368.008 630.815V620.135C368.008 619.247 367.298 618.528 366.415 618.528H359.848C358.966 618.528 358.256 617.907 358.256 617.03V609.286C358.256 608.397 357.546 607.678 356.663 607.678H344.51C343.627 607.678 342.917 608.397 342.917 609.286V617.03C342.917 617.907 342.207 618.528 341.325 618.528H337.76C336.877 618.528 336.155 619.247 336.155 620.135V630.815C336.155 631.691 336.877 632.41 337.76 632.41H341.325C342.207 632.41 342.917 633.128 342.917 634.005V650.188C342.917 661.719 349.57 666.152 358.795 666.152C361.907 666.152 365.583 665.653 367.591 664.131C367.972 663.838 368.204 663.363 368.204 662.864V653.999C368.204 653.013 367.31 652.246 366.341 652.429L366.329 652.416Z" fill="black"/>
<path d="M396.039 618.528C383.898 618.528 371.389 626.723 371.389 642.334C371.389 657.945 383.898 666.128 396.039 666.128C408.18 666.128 420.603 657.933 420.603 642.334C420.603 626.735 408.093 618.528 396.039 618.528ZM396.039 652.477C390.709 652.477 386.458 648.422 386.458 642.334C386.458 636.246 390.709 632.191 396.039 632.191C401.367 632.191 405.534 636.246 405.534 642.334C405.534 648.422 401.282 652.477 396.039 652.477Z" fill="black"/>
<path d="M472.596 607.691H460.442C459.56 607.691 458.85 608.409 458.85 609.286V623.74H458.58C458.226 622.948 453.888 618.54 445.803 618.54C435.512 618.54 423.984 626.297 423.984 642.346C423.984 658.395 435.512 666.14 445.803 666.14C453.876 666.14 458.226 661.732 458.58 660.94H458.85V664.557C458.85 665.434 459.56 666.14 460.442 666.14H472.596C473.478 666.14 474.188 665.434 474.188 664.557V609.286C474.188 608.409 473.478 607.691 472.596 607.691ZM449.085 652.648C443.757 652.648 439.064 648.775 439.064 642.334C439.064 635.892 443.757 632.02 449.085 632.02C454.415 632.02 459.206 635.807 459.206 642.334C459.206 648.861 454.599 652.648 449.085 652.648Z" fill="black"/>
<path d="M504.436 618.528C492.283 618.528 479.775 626.723 479.775 642.334C479.775 657.945 492.283 666.128 504.436 666.128C516.59 666.128 529 657.933 529 642.334C529 626.735 516.491 618.528 504.436 618.528ZM504.436 652.477C499.107 652.477 494.857 648.422 494.857 642.334C494.857 636.246 499.119 632.191 504.436 632.191C509.753 632.191 513.931 636.246 513.931 642.334C513.931 648.422 509.667 652.477 504.436 652.477Z" fill="black"/>
<path d="M395.769 668.502H383.309C382.512 668.502 381.863 669.147 381.863 669.939V684.564H381.594C381.239 683.772 376.902 679.364 368.817 679.364C363.316 679.364 357.472 681.58 353.208 686.098C357.215 690.676 359.309 696.497 359.309 703.17C359.309 709.843 357.215 715.663 353.208 720.242C357.459 724.759 363.316 726.976 368.817 726.976C376.889 726.976 381.239 722.568 381.594 721.776H381.863V724.662C381.863 725.453 382.512 726.099 383.309 726.099H395.769C396.566 726.099 397.215 725.453 397.215 724.662V669.951C397.215 669.16 396.578 668.514 395.769 668.514V668.502ZM372.112 713.484C366.783 713.484 362.09 709.611 362.09 703.17C362.09 696.728 366.783 692.856 372.112 692.856C377.441 692.856 382.232 696.643 382.232 703.17C382.232 709.697 377.625 713.484 372.112 713.484Z" fill="black"/>
<path d="M418.924 679.364H406.465C405.668 679.364 405.018 679.997 405.018 680.801V724.65C405.018 725.441 405.668 726.087 406.465 726.087H418.924C419.72 726.087 420.369 725.441 420.369 724.65V680.801C420.369 680.009 419.733 679.364 418.924 679.364ZM418.924 668.502H406.465C405.668 668.502 405.018 669.147 405.018 669.939V675.199C405.018 675.991 405.668 676.636 406.465 676.636H418.924C419.72 676.636 420.369 676.003 420.369 675.199V669.939C420.369 669.147 419.733 668.502 418.924 668.502Z" fill="black"/>
<path d="M474.715 679.364H462.256C461.46 679.364 460.811 679.997 460.811 680.801V684.564H460.541C460.185 683.772 455.837 679.364 447.762 679.364C437.471 679.364 425.943 687.121 425.943 703.17C425.943 719.219 437.471 726.964 447.762 726.964C455.824 726.964 460.173 722.555 460.541 721.764H460.811V724.65C460.811 725.441 461.447 726.087 462.256 726.087H474.715C475.511 726.087 476.16 725.441 476.16 724.65V680.801C476.16 680.009 475.511 679.364 474.715 679.364ZM451.059 713.484C445.729 713.484 441.025 709.611 441.025 703.17C441.025 696.728 445.729 692.856 451.059 692.856C456.387 692.856 461.165 696.643 461.165 703.17C461.165 709.697 456.56 713.484 451.059 713.484Z" fill="black"/>
<path d="M116.284 710.634L126.354 705.983C127.089 705.642 127.947 705.934 128.339 706.64C130.14 709.879 132.921 713.045 137.785 713.045C141.423 713.045 144.706 711.28 144.706 707.054C144.706 704.059 143.285 702.561 137.699 700.357L133.791 698.859C125.631 695.596 117.386 691.102 117.386 680.435C117.386 669.768 126.783 662.633 137.87 662.633C148.296 662.633 155.01 668.538 158.391 674.7C158.795 675.431 158.526 676.344 157.803 676.758L148.798 681.848C148.1 682.238 147.23 682.031 146.777 681.373C144.229 677.683 141.472 676.295 138.495 676.295C135.212 676.295 132.725 677.708 132.725 680.703C132.725 682.992 134.06 684.843 140.443 687.315L144.706 688.996C156.32 693.672 160.939 698.871 160.939 707.249C160.939 720.741 148.786 727 138.054 727C127.322 727 118.403 721.021 115.475 712.546C115.218 711.803 115.561 710.999 116.284 710.671V710.634Z" fill="#08E2E2"/>
<path d="M164.308 703.158C164.308 687.109 175.836 679.352 186.127 679.352C194.201 679.352 198.55 683.76 198.905 684.551H199.175V680.862C199.175 680.021 199.861 679.34 200.706 679.34H212.994C213.839 679.34 214.526 680.021 214.526 680.862V724.552C214.526 725.393 213.839 726.075 212.994 726.075H200.706C199.861 726.075 199.175 725.393 199.175 724.552V721.752H198.905C198.55 722.543 194.201 726.951 186.127 726.951C175.836 726.951 164.308 719.195 164.308 703.145V703.158ZM189.411 713.472C194.912 713.472 199.518 709.685 199.518 703.158C199.518 696.631 194.912 692.844 189.411 692.844C183.91 692.844 179.389 696.728 179.389 703.158C179.389 709.587 184.094 713.472 189.411 713.472Z" fill="#08E2E2"/>
<path d="M223.848 679.364H236.136C236.983 679.364 237.668 680.046 237.668 680.886V682.189C237.668 683.346 239.041 683.93 239.909 683.163C242.544 680.85 246.17 679.376 250.801 679.376C260.112 679.376 267.915 685.111 267.915 699.127V724.589C267.915 725.429 267.23 726.111 266.384 726.111H254.097C253.251 726.111 252.566 725.429 252.566 724.589V701.77C252.566 697.008 250.261 692.868 245.03 692.868C239.8 692.868 237.668 697.008 237.668 701.77V724.589C237.668 725.429 236.983 726.111 236.136 726.111H223.848C223.003 726.111 222.318 725.429 222.318 724.589V680.898C222.318 680.058 223.003 679.376 223.848 679.376V679.364Z" fill="#08E2E2"/>
<path d="M279.175 710.744V693.745C279.175 692.905 278.489 692.223 277.644 692.223H273.686C272.841 692.223 272.156 691.541 272.156 690.701V680.898C272.156 680.058 272.841 679.376 273.686 679.376H277.644C278.489 679.376 279.175 678.694 279.175 677.854V670.012C279.175 669.172 279.86 668.49 280.707 668.49H292.995C293.84 668.49 294.525 669.172 294.525 670.012V677.854C294.525 678.694 295.211 679.376 296.056 679.376H302.758C303.604 679.376 304.289 680.058 304.289 680.898V690.701C304.289 691.541 303.604 692.223 302.758 692.223H296.056C295.211 692.223 294.525 692.905 294.525 693.745V708.455C294.525 710.573 295.763 713.216 300.112 713.216C300.773 713.216 301.681 713.143 302.66 712.96C303.64 712.777 304.462 713.52 304.462 714.47V723.384C304.462 723.846 304.253 724.297 303.874 724.589C301.877 726.111 298.176 726.623 295.052 726.623C285.828 726.623 279.175 722.214 279.175 710.756V710.744Z" fill="#08E2E2"/>
<path d="M307.659 703.158C307.659 687.547 320.167 679.352 332.32 679.352C344.474 679.352 356.884 687.547 356.884 703.158C356.884 718.768 344.375 726.964 332.32 726.964C320.266 726.964 307.659 718.768 307.659 703.158ZM332.32 713.301C337.551 713.301 341.815 709.246 341.815 703.158C341.815 697.069 337.551 693.014 332.32 693.014C327.089 693.014 322.739 697.069 322.739 703.158C322.739 709.246 327.003 713.301 332.32 713.301Z" fill="#08E2E2"/>
</g>
</g>
<defs>
<clipPath id="clip0_264_74">
<rect width="595" height="842" fill="white"/>
</clipPath>
<clipPath id="clip1_264_74">
<rect width="464" height="155" fill="white" transform="translate(65 572)"/>
</clipPath>
</defs>
</svg>
