<svg width="595" height="842" viewBox="0 0 595 842" fill="none" xmlns="http://www.w3.org/2000/svg">
<g clip-path="url(#clip0_276_163)">
<rect width="595" height="842" fill="#025468"/>
<path opacity="0.15" d="M-132.798 617.698L-17.8313 565.883C-9.43997 562.085 0.350784 565.341 4.82652 573.208C25.387 609.288 57.1341 644.556 112.661 644.556C154.199 644.556 191.682 624.887 191.682 577.819C191.682 544.453 175.459 527.768 111.681 503.217L67.0645 486.534C-26.0831 450.182 -120.211 400.13 -120.211 281.309C-120.211 162.487 -12.9369 83 113.64 83C232.661 83 309.307 148.786 347.909 217.422C352.524 225.559 349.448 235.732 341.196 240.345L238.397 297.043C230.424 301.382 220.494 299.077 215.319 291.752C186.227 250.654 154.759 235.19 120.772 235.19C83.2888 235.19 54.8972 250.924 54.8972 284.293C54.8972 309.792 70.1426 330.41 143.011 357.946L191.682 376.664C324.272 428.75 377 486.668 377 579.991C377 730.28 238.257 800 115.738 800C-6.78247 800 -108.602 733.399 -142.03 638.994C-144.967 630.719 -141.049 621.767 -132.798 618.104V617.698Z" fill="white" fill-opacity="0.46"/>
<path d="M145.605 674.899H135.144C134.64 674.899 134.198 675.198 134.013 675.658L126.421 695.752C126.031 696.76 124.56 696.76 124.169 695.752L116.516 675.658C116.341 675.208 115.888 674.899 115.395 674.899H104.913C104.059 674.899 103.473 675.747 103.802 676.517L118.954 713.219C119.139 713.659 119.581 713.938 120.064 713.938H130.443C130.937 713.938 131.369 713.659 131.554 713.219L146.706 676.517C147.035 675.747 146.459 674.899 145.595 674.899H145.605Z" fill="white"/>
<path d="M167.155 674.899C157.095 674.899 147.272 681.77 147.272 694.493C147.272 701.984 150.831 707.537 156.046 710.753C158.648 709.674 161.642 709.075 164.902 709.075C169.85 709.075 173.707 710.463 176.639 712.311C179.211 711.272 181.34 709.784 182.965 708.056C183.387 707.607 183.387 706.907 182.965 706.458L178.727 702.074C178.347 701.684 177.729 701.584 177.256 701.854C174.685 703.352 172.092 703.821 169.264 703.821C165.9 703.821 163.174 702.962 161.364 701.245C160.613 700.526 161.189 699.267 162.238 699.267H185.115C185.722 699.267 186.236 698.838 186.308 698.249C188.396 681.23 176.824 674.899 167.186 674.899H167.155ZM173.049 690.449H161.384C160.418 690.449 159.842 689.37 160.387 688.601C162.022 686.354 164.656 685.315 167.299 685.315C169.943 685.315 172.699 686.374 174.098 688.701C174.561 689.48 173.965 690.459 173.049 690.459V690.449Z" fill="white"/>
<path d="M215.11 674.899C211.232 674.899 208.198 676.097 205.986 677.985C205.256 678.624 204.094 678.134 204.094 677.186V675.677C204.094 675.248 203.733 674.899 203.291 674.899H192.007C191.565 674.899 191.205 675.248 191.205 675.677V712.78C191.205 713.419 191.74 713.948 192.408 713.948H202.88C203.548 713.948 204.094 713.429 204.094 712.78V693.265C204.094 689.36 205.955 685.964 210.276 685.964C214.596 685.964 216.602 689.36 216.602 693.265V712.78C216.602 713.419 217.137 713.948 217.815 713.948H228.287C228.945 713.948 229.49 713.429 229.49 712.78V691.098C229.49 679.603 222.938 674.899 215.12 674.899H215.11Z" fill="white"/>
<path d="M275.13 666.01H264.658C263.999 666.01 263.454 666.529 263.454 667.188V679.173H263.228C262.93 678.524 259.278 674.909 252.5 674.909C243.859 674.909 234.18 681.27 234.18 694.433C234.18 707.597 243.87 713.948 252.5 713.948C259.267 713.948 262.92 710.333 263.228 709.684H263.454V712.78C263.454 713.419 263.99 713.948 264.658 713.948H275.13C275.798 713.948 276.343 713.429 276.343 712.78V667.179C276.343 666.529 275.808 666 275.13 666V666.01ZM255.266 702.883C250.791 702.883 246.842 699.707 246.842 694.423C246.842 689.14 250.791 685.964 255.266 685.964C259.741 685.964 263.753 689.07 263.753 694.423C263.753 699.777 259.885 702.883 255.266 702.883Z" fill="white"/>
<path d="M321.973 674.899H311.502C310.833 674.899 310.288 675.418 310.288 676.077V679.163H310.062C309.763 678.514 306.121 674.899 299.333 674.899C290.692 674.899 281.013 681.26 281.013 694.423C281.013 707.587 290.692 713.938 299.333 713.938C306.112 713.938 309.763 710.323 310.062 709.674H310.288V712.77C310.288 713.409 310.823 713.938 311.502 713.938H321.973C322.642 713.938 323.187 713.419 323.187 712.77V676.067C323.187 675.418 322.652 674.889 321.973 674.889V674.899ZM302.101 702.883C297.626 702.883 293.686 699.707 293.686 694.423C293.686 689.14 297.626 685.964 302.101 685.964C306.574 685.964 310.596 689.07 310.596 694.423C310.596 699.777 306.728 702.883 302.101 702.883Z" fill="white"/>
<path d="M356.71 702.693C355.908 702.833 355.167 702.893 354.622 702.893C350.97 702.893 349.931 700.715 349.931 698.968V687.592C349.931 686.873 350.528 686.284 351.269 686.284H356.782C357.523 686.284 358.119 685.695 358.119 684.976V676.217C358.119 675.488 357.523 674.899 356.782 674.899H351.269C350.528 674.899 349.931 674.389 349.931 673.67V667.318C349.931 666.589 349.335 666 348.594 666H338.39C337.649 666 337.053 666.589 337.053 667.318V673.67C337.053 674.389 336.457 674.899 335.716 674.899H332.723C331.982 674.899 331.375 675.488 331.375 676.217V684.976C331.375 685.695 331.982 686.284 332.723 686.284H335.716C336.457 686.284 337.053 686.873 337.053 687.592V700.865C337.053 710.323 342.639 713.958 350.384 713.958C352.997 713.958 356.083 713.549 357.769 712.301C358.089 712.061 358.284 711.671 358.284 711.262V703.991C358.284 703.182 357.534 702.553 356.72 702.703L356.71 702.693Z" fill="white"/>
<path d="M381.655 674.899C371.461 674.899 360.958 681.62 360.958 694.423C360.958 707.227 371.461 713.938 381.655 713.938C391.848 713.938 402.279 707.217 402.279 694.423C402.279 681.63 391.776 674.899 381.655 674.899ZM381.655 702.743C377.18 702.743 373.61 699.417 373.61 694.423C373.61 689.43 377.18 686.104 381.655 686.104C386.128 686.104 389.626 689.43 389.626 694.423C389.626 699.417 386.057 702.743 381.655 702.743Z" fill="white"/>
<path d="M445.934 666.01H435.73C434.989 666.01 434.393 666.599 434.393 667.318V679.173H434.166C433.869 678.524 430.227 674.909 423.438 674.909C414.798 674.909 405.119 681.27 405.119 694.433C405.119 707.597 414.798 713.948 423.438 713.948C430.216 713.948 433.869 710.333 434.166 709.684H434.393V712.65C434.393 713.369 434.989 713.948 435.73 713.948H445.934C446.675 713.948 447.271 713.369 447.271 712.65V667.318C447.271 666.599 446.675 666.01 445.934 666.01ZM426.194 702.883C421.721 702.883 417.78 699.707 417.78 694.423C417.78 689.14 421.721 685.964 426.194 685.964C430.669 685.964 434.691 689.07 434.691 694.423C434.691 699.777 430.823 702.883 426.194 702.883Z" fill="white"/>
<path d="M472.668 674.899C462.464 674.899 451.962 681.62 451.962 694.423C451.962 707.227 462.464 713.938 472.668 713.938C482.872 713.938 493.292 707.217 493.292 694.423C493.292 681.63 482.789 674.899 472.668 674.899ZM472.668 702.743C468.193 702.743 464.625 699.417 464.625 694.423C464.625 689.43 468.203 686.104 472.668 686.104C477.132 686.104 480.64 689.43 480.64 694.423C480.64 699.417 477.06 702.743 472.668 702.743Z" fill="white"/>
<path d="M381.429 715.886H370.967C370.298 715.886 369.753 716.415 369.753 717.064V729.059H369.527C369.229 728.41 365.588 724.794 358.799 724.794C354.18 724.794 349.274 726.612 345.694 730.317C349.058 734.073 350.816 738.846 350.816 744.319C350.816 749.792 349.058 754.566 345.694 758.321C349.263 762.027 354.18 763.844 358.799 763.844C365.577 763.844 369.229 760.229 369.527 759.58H369.753V761.947C369.753 762.596 370.298 763.125 370.967 763.125H381.429C382.097 763.125 382.642 762.596 382.642 761.947V717.074C382.642 716.425 382.108 715.896 381.429 715.896V715.886ZM361.565 752.779C357.092 752.779 353.151 749.603 353.151 744.319C353.151 739.036 357.092 735.86 361.565 735.86C366.04 735.86 370.062 738.966 370.062 744.319C370.062 749.672 366.194 752.779 361.565 752.779Z" fill="white"/>
<path d="M400.869 724.794H390.408C389.74 724.794 389.193 725.314 389.193 725.973V761.937C389.193 762.586 389.74 763.115 390.408 763.115H400.869C401.538 763.115 402.082 762.586 402.082 761.937V725.973C402.082 725.324 401.548 724.794 400.869 724.794ZM400.869 715.886H390.408C389.74 715.886 389.193 716.415 389.193 717.064V721.379C389.193 722.028 389.74 722.557 390.408 722.557H400.869C401.538 722.557 402.082 722.038 402.082 721.379V717.064C402.082 716.415 401.548 715.886 400.869 715.886Z" fill="white"/>
<path d="M447.712 724.795H437.251C436.582 724.795 436.037 725.314 436.037 725.973V729.059H435.811C435.512 728.41 431.861 724.795 425.082 724.795C416.441 724.795 406.762 731.156 406.762 744.32C406.762 757.483 416.441 763.835 425.082 763.835C431.851 763.835 435.502 760.219 435.811 759.57H436.037V761.937C436.037 762.586 436.572 763.115 437.251 763.115H447.712C448.38 763.115 448.925 762.586 448.925 761.937V725.973C448.925 725.324 448.38 724.795 447.712 724.795ZM427.85 752.779C423.375 752.779 419.425 749.603 419.425 744.32C419.425 739.036 423.375 735.86 427.85 735.86C432.323 735.86 436.335 738.966 436.335 744.32C436.335 749.673 432.468 752.779 427.85 752.779Z" fill="white"/>
<path d="M146.768 750.442L155.223 746.627C155.84 746.347 156.56 746.587 156.889 747.166C158.401 749.822 160.736 752.419 164.82 752.419C167.875 752.419 170.632 750.971 170.632 747.505C170.632 745.049 169.439 743.82 164.748 742.013L161.467 740.784C154.616 738.108 147.693 734.422 147.693 725.674C147.693 716.925 155.583 711.072 164.892 711.072C173.646 711.072 179.283 715.916 182.121 720.97C182.461 721.569 182.235 722.318 181.628 722.657L174.067 726.832C173.481 727.152 172.751 726.982 172.37 726.442C170.231 723.416 167.916 722.278 165.417 722.278C162.66 722.278 160.572 723.436 160.572 725.893C160.572 727.771 161.693 729.289 167.052 731.316L170.632 732.695C180.383 736.53 184.261 740.794 184.261 747.665C184.261 758.731 174.057 763.864 165.046 763.864C156.036 763.864 148.547 758.961 146.089 752.01C145.873 751.4 146.161 750.741 146.768 750.472V750.442Z" fill="white"/>
<path d="M187.09 744.309C187.09 731.146 196.769 724.784 205.41 724.784C212.188 724.784 215.84 728.4 216.138 729.049H216.365V726.023C216.365 725.334 216.941 724.774 217.65 724.774H227.968C228.677 724.774 229.253 725.334 229.253 726.023V761.857C229.253 762.546 228.677 763.105 227.968 763.105H217.65C216.941 763.105 216.365 762.546 216.365 761.857V759.56H216.138C215.84 760.209 212.188 763.824 205.41 763.824C196.769 763.824 187.09 757.462 187.09 744.299V744.309ZM208.166 752.768C212.785 752.768 216.653 749.662 216.653 744.309C216.653 738.956 212.785 735.85 208.166 735.85C203.548 735.85 199.752 739.036 199.752 744.309C199.752 749.583 203.702 752.768 208.166 752.768Z" fill="white"/>
<path d="M237.08 724.795H247.398C248.108 724.795 248.683 725.354 248.683 726.043V727.112C248.683 728.06 249.836 728.54 250.566 727.911C252.778 726.013 255.822 724.805 259.71 724.805C267.528 724.805 274.08 729.509 274.08 741.004V761.887C274.08 762.576 273.505 763.135 272.794 763.135H262.478C261.767 763.135 261.192 762.576 261.192 761.887V743.171C261.192 739.266 259.257 735.87 254.865 735.87C250.473 735.87 248.683 739.266 248.683 743.171V761.887C248.683 762.576 248.108 763.135 247.398 763.135H237.08C236.371 763.135 235.796 762.576 235.796 761.887V726.053C235.796 725.364 236.371 724.805 237.08 724.805V724.795Z" fill="white"/>
<path d="M283.533 750.531V736.589C283.533 735.9 282.957 735.341 282.247 735.341H278.924C278.215 735.341 277.639 734.782 277.639 734.092V726.053C277.639 725.364 278.215 724.804 278.924 724.804H282.247C282.957 724.804 283.533 724.245 283.533 723.556V717.124C283.533 716.435 284.108 715.876 284.819 715.876H295.136C295.846 715.876 296.421 716.435 296.421 717.124V723.556C296.421 724.245 296.997 724.804 297.707 724.804H303.333C304.044 724.804 304.619 725.364 304.619 726.053V734.092C304.619 734.782 304.044 735.341 303.333 735.341H297.707C296.997 735.341 296.421 735.9 296.421 736.589V748.654C296.421 750.392 297.461 752.559 301.112 752.559C301.667 752.559 302.429 752.499 303.252 752.349C304.074 752.199 304.764 752.808 304.764 753.587V760.898C304.764 761.278 304.589 761.647 304.27 761.887C302.594 763.135 299.486 763.555 296.863 763.555C289.119 763.555 283.533 759.939 283.533 750.541V750.531Z" fill="white"/>
<path d="M307.451 744.309C307.451 731.506 317.952 724.784 328.156 724.784C338.361 724.784 348.781 731.506 348.781 744.309C348.781 757.113 338.278 763.834 328.156 763.834C318.035 763.834 307.451 757.113 307.451 744.309ZM328.156 752.629C332.548 752.629 336.128 749.303 336.128 744.309C336.128 739.316 332.548 735.99 328.156 735.99C323.764 735.99 320.112 739.316 320.112 744.309C320.112 749.303 323.692 752.629 328.156 752.629Z" fill="white"/>

</g>
<defs>
<clipPath id="clip0_276_163">
<rect width="595" height="842" fill="white"/>
</clipPath>
</defs>
</svg>
