<svg width="595" height="842" viewBox="0 0 595 842" fill="none" xmlns="http://www.w3.org/2000/svg">
<g clip-path="url(#clip0_263_48)">
<rect width="595" height="842" fill="#025468"/>
<path opacity="0.15" d="M-132.798 617.698L-17.8313 565.883C-9.43998 562.085 0.350777 565.341 4.82652 573.208C25.387 609.288 57.1341 644.556 112.661 644.556C154.199 644.556 191.682 624.887 191.682 577.819C191.682 544.453 175.459 527.768 111.681 503.217L67.0645 486.534C-26.0831 450.182 -120.211 400.13 -120.211 281.309C-120.211 162.487 -12.9369 83 113.64 83C232.661 83 309.307 148.786 347.909 217.422C352.524 225.559 349.448 235.732 341.196 240.345L238.397 297.043C230.425 301.382 220.494 299.077 215.319 291.752C186.227 250.654 154.759 235.19 120.772 235.19C83.2888 235.19 54.8972 250.924 54.8972 284.293C54.8972 309.792 70.1426 330.41 143.011 357.946L191.682 376.664C324.272 428.75 377 486.668 377 579.991C377 730.28 238.257 800 115.738 800C-6.78246 800 -108.602 733.399 -142.03 638.994C-144.967 630.719 -141.049 621.767 -132.798 618.104V617.698Z" fill="white" fill-opacity="0.46"/>
<path d="M261.216 778.17H258.666C258.543 778.17 258.435 778.243 258.39 778.355L256.538 783.255C256.443 783.501 256.084 783.501 255.989 783.255L254.123 778.355C254.08 778.245 253.97 778.17 253.85 778.17H251.294C251.085 778.17 250.942 778.377 251.023 778.564L254.717 787.514C254.763 787.622 254.87 787.69 254.988 787.69H257.519C257.64 787.69 257.745 787.622 257.79 787.514L261.485 778.564C261.565 778.377 261.425 778.17 261.214 778.17H261.216Z" fill="white"/>
<path d="M266.471 778.17C264.018 778.17 261.623 779.845 261.623 782.948C261.623 784.775 262.491 786.129 263.762 786.913C264.397 786.65 265.127 786.504 265.922 786.504C267.129 786.504 268.069 786.842 268.784 787.293C269.411 787.04 269.93 786.677 270.327 786.255C270.429 786.146 270.429 785.975 270.327 785.866L269.293 784.797C269.2 784.702 269.05 784.677 268.935 784.743C268.307 785.108 267.675 785.223 266.986 785.223C266.165 785.223 265.501 785.013 265.059 784.594C264.876 784.419 265.017 784.112 265.272 784.112H270.851C270.999 784.112 271.124 784.008 271.142 783.864C271.651 779.714 268.829 778.17 266.479 778.17H266.471ZM267.909 781.962H265.064C264.828 781.962 264.688 781.699 264.821 781.511C265.22 780.963 265.862 780.71 266.507 780.71C267.151 780.71 267.823 780.968 268.164 781.536C268.277 781.726 268.132 781.964 267.909 781.964V781.962Z" fill="white"/>
<path d="M278.165 778.17C277.22 778.17 276.48 778.462 275.94 778.922C275.762 779.078 275.479 778.959 275.479 778.728V778.36C275.479 778.255 275.391 778.17 275.283 778.17H272.531C272.424 778.17 272.336 778.255 272.336 778.36V787.407C272.336 787.563 272.466 787.692 272.629 787.692H275.183C275.346 787.692 275.479 787.566 275.479 787.407V782.649C275.479 781.696 275.933 780.868 276.986 780.868C278.04 780.868 278.529 781.696 278.529 782.649V787.407C278.529 787.563 278.659 787.692 278.825 787.692H281.378C281.539 787.692 281.672 787.566 281.672 787.407V782.12C281.672 779.317 280.074 778.17 278.168 778.17H278.165Z" fill="white"/>
<path d="M292.801 776.002H290.248C290.087 776.002 289.954 776.129 289.954 776.29V779.212H289.899C289.826 779.054 288.936 778.172 287.283 778.172C285.176 778.172 282.816 779.724 282.816 782.934C282.816 786.143 285.178 787.692 287.283 787.692C288.933 787.692 289.824 786.811 289.899 786.652H289.954V787.407C289.954 787.563 290.085 787.692 290.248 787.692H292.801C292.964 787.692 293.097 787.566 293.097 787.407V776.287C293.097 776.129 292.967 776 292.801 776V776.002ZM287.958 784.994C286.866 784.994 285.903 784.219 285.903 782.931C285.903 781.643 286.866 780.868 287.958 780.868C289.049 780.868 290.027 781.626 290.027 782.931C290.027 784.236 289.084 784.994 287.958 784.994Z" fill="white"/>
<path d="M304.224 778.17H301.671C301.508 778.17 301.375 778.297 301.375 778.457V779.21H301.319C301.247 779.052 300.359 778.17 298.703 778.17C296.596 778.17 294.236 779.721 294.236 782.931C294.236 786.141 296.596 787.69 298.703 787.69C300.356 787.69 301.247 786.808 301.319 786.65H301.375V787.405C301.375 787.561 301.505 787.69 301.671 787.69H304.224C304.387 787.69 304.52 787.563 304.52 787.405V778.455C304.52 778.297 304.39 778.167 304.224 778.167V778.17ZM299.378 784.994C298.287 784.994 297.326 784.219 297.326 782.931C297.326 781.643 298.287 780.868 299.378 780.868C300.469 780.868 301.45 781.626 301.45 782.931C301.45 784.236 300.507 784.994 299.378 784.994Z" fill="white"/>
<path d="M312.694 784.948C312.499 784.982 312.318 784.996 312.185 784.996C311.295 784.996 311.042 784.465 311.042 784.039V781.265C311.042 781.09 311.187 780.946 311.368 780.946H312.712C312.893 780.946 313.038 780.803 313.038 780.627V778.491C313.038 778.314 312.893 778.17 312.712 778.17H311.368C311.187 778.17 311.042 778.046 311.042 777.87V776.321C311.042 776.144 310.896 776 310.716 776H308.227C308.047 776 307.901 776.144 307.901 776.321V777.87C307.901 778.046 307.756 778.17 307.575 778.17H306.845C306.665 778.17 306.517 778.314 306.517 778.491V780.627C306.517 780.803 306.665 780.946 306.845 780.946H307.575C307.756 780.946 307.901 781.09 307.901 781.265V784.502C307.901 786.808 309.263 787.695 311.152 787.695C311.789 787.695 312.542 787.595 312.953 787.29C313.031 787.232 313.078 787.137 313.078 787.037V785.264C313.078 785.067 312.895 784.914 312.697 784.95L312.694 784.948Z" fill="white"/>
<path d="M318.777 778.17C316.292 778.17 313.73 779.809 313.73 782.931C313.73 786.053 316.292 787.69 318.777 787.69C321.263 787.69 323.807 786.051 323.807 782.931C323.807 779.811 321.245 778.17 318.777 778.17ZM318.777 784.96C317.686 784.96 316.816 784.149 316.816 782.931C316.816 781.713 317.686 780.902 318.777 780.902C319.868 780.902 320.721 781.713 320.721 782.931C320.721 784.149 319.851 784.96 318.777 784.96Z" fill="white"/>
<path d="M334.452 776.002H331.963C331.783 776.002 331.637 776.146 331.637 776.321V779.212H331.582C331.51 779.054 330.622 778.172 328.966 778.172C326.859 778.172 324.499 779.724 324.499 782.934C324.499 786.143 326.859 787.692 328.966 787.692C330.619 787.692 331.51 786.811 331.582 786.652H331.637V787.376C331.637 787.551 331.783 787.692 331.963 787.692H334.452C334.632 787.692 334.778 787.551 334.778 787.376V776.321C334.778 776.146 334.632 776.002 334.452 776.002ZM329.638 784.994C328.547 784.994 327.586 784.219 327.586 782.931C327.586 781.643 328.547 780.868 329.638 780.868C330.729 780.868 331.71 781.626 331.71 782.931C331.71 784.236 330.767 784.994 329.638 784.994Z" fill="white"/>
<path d="M340.971 778.17C338.482 778.17 335.922 779.809 335.922 782.931C335.922 786.053 338.482 787.69 340.971 787.69C343.459 787.69 346 786.051 346 782.931C346 779.811 343.439 778.17 340.971 778.17ZM340.971 784.96C339.88 784.96 339.009 784.149 339.009 782.931C339.009 781.713 339.882 780.902 340.971 780.902C342.059 780.902 342.915 781.713 342.915 782.931C342.915 784.149 342.042 784.96 340.971 784.96Z" fill="white"/>
<path d="M318.722 788.165H316.171C316.008 788.165 315.875 788.294 315.875 788.452V791.377H315.82C315.747 791.219 314.859 790.337 313.204 790.337C312.078 790.337 310.881 790.78 310.008 791.684C310.829 792.6 311.257 793.764 311.257 795.098C311.257 796.433 310.829 797.597 310.008 798.513C310.879 799.416 312.078 799.859 313.204 799.859C314.857 799.859 315.747 798.978 315.82 798.82H315.875V799.397C315.875 799.555 316.008 799.684 316.171 799.684H318.722C318.885 799.684 319.018 799.555 319.018 799.397V788.455C319.018 788.296 318.888 788.167 318.722 788.167V788.165ZM313.878 797.161C312.788 797.161 311.827 796.387 311.827 795.098C311.827 793.81 312.788 793.036 313.878 793.036C314.97 793.036 315.95 793.793 315.95 795.098C315.95 796.404 315.007 797.161 313.878 797.161Z" fill="white"/>
<path d="M323.463 790.337H320.912C320.749 790.337 320.616 790.464 320.616 790.625V799.394C320.616 799.553 320.749 799.682 320.912 799.682H323.463C323.626 799.682 323.759 799.553 323.759 799.394V790.625C323.759 790.466 323.628 790.337 323.463 790.337ZM323.463 788.165H320.912C320.749 788.165 320.616 788.294 320.616 788.452V789.504C320.616 789.663 320.749 789.792 320.912 789.792H323.463C323.626 789.792 323.759 789.665 323.759 789.504V788.452C323.759 788.294 323.628 788.165 323.463 788.165Z" fill="white"/>
<path d="M334.886 790.337H332.335C332.172 790.337 332.039 790.464 332.039 790.625V791.377H331.984C331.911 791.219 331.02 790.337 329.367 790.337C327.26 790.337 324.9 791.888 324.9 795.098C324.9 798.308 327.26 799.857 329.367 799.857C331.018 799.857 331.908 798.975 331.984 798.817H332.039V799.394C332.039 799.553 332.169 799.682 332.335 799.682H334.886C335.049 799.682 335.182 799.553 335.182 799.394V790.625C335.182 790.466 335.049 790.337 334.886 790.337ZM330.042 797.161C328.951 797.161 327.988 796.387 327.988 795.098C327.988 793.81 328.951 793.036 330.042 793.036C331.133 793.036 332.111 793.793 332.111 795.098C332.111 796.404 331.168 797.161 330.042 797.161Z" fill="white"/>
<path d="M261.5 796.591L263.562 795.661C263.712 795.593 263.888 795.651 263.968 795.792C264.337 796.44 264.906 797.073 265.902 797.073C266.647 797.073 267.319 796.72 267.319 795.875C267.319 795.276 267.028 794.976 265.884 794.536L265.084 794.236C263.414 793.583 261.726 792.685 261.726 790.551C261.726 788.418 263.65 786.991 265.92 786.991C268.054 786.991 269.429 788.172 270.121 789.404C270.204 789.55 270.149 789.733 270.001 789.816L268.157 790.834C268.014 790.912 267.836 790.87 267.743 790.739C267.221 790.001 266.657 789.723 266.047 789.723C265.375 789.723 264.866 790.006 264.866 790.605C264.866 791.063 265.139 791.433 266.446 791.927L267.319 792.263C269.697 793.199 270.643 794.239 270.643 795.914C270.643 798.612 268.154 799.864 265.957 799.864C263.76 799.864 261.934 798.669 261.334 796.974C261.282 796.825 261.352 796.664 261.5 796.598V796.591Z" fill="white"/>
<path d="M271.332 795.096C271.332 791.886 273.693 790.335 275.8 790.335C277.453 790.335 278.343 791.216 278.416 791.375H278.471V790.637C278.471 790.469 278.612 790.332 278.785 790.332H281.301C281.474 790.332 281.614 790.469 281.614 790.637V799.375C281.614 799.543 281.474 799.679 281.301 799.679H278.785C278.612 799.679 278.471 799.543 278.471 799.375V798.815H278.416C278.343 798.973 277.453 799.855 275.8 799.855C273.693 799.855 271.332 798.303 271.332 795.093V795.096ZM276.472 797.159C277.598 797.159 278.541 796.401 278.541 795.096C278.541 793.791 277.598 793.033 276.472 793.033C275.346 793.033 274.42 793.81 274.42 795.096C274.42 796.382 275.383 797.159 276.472 797.159Z" fill="white"/>
<path d="M283.523 790.337H286.039C286.212 790.337 286.352 790.474 286.352 790.642V790.902C286.352 791.134 286.633 791.25 286.811 791.097C287.351 790.634 288.093 790.34 289.041 790.34C290.947 790.34 292.545 791.487 292.545 794.29V799.382C292.545 799.55 292.405 799.687 292.232 799.687H289.716C289.543 799.687 289.402 799.55 289.402 799.382V794.818C289.402 793.866 288.931 793.038 287.86 793.038C286.789 793.038 286.352 793.866 286.352 794.818V799.382C286.352 799.55 286.212 799.687 286.039 799.687H283.523C283.35 799.687 283.209 799.55 283.209 799.382V790.644C283.209 790.476 283.35 790.34 283.523 790.34V790.337Z" fill="white"/>
<path d="M294.851 796.613V793.213C294.851 793.045 294.71 792.909 294.537 792.909H293.727C293.554 792.909 293.413 792.773 293.413 792.604V790.644C293.413 790.476 293.554 790.34 293.727 790.34H294.537C294.71 790.34 294.851 790.203 294.851 790.035V788.467C294.851 788.299 294.991 788.162 295.164 788.162H297.68C297.853 788.162 297.993 788.299 297.993 788.467V790.035C297.993 790.203 298.134 790.34 298.307 790.34H299.679C299.852 790.34 299.992 790.476 299.992 790.644V792.604C299.992 792.773 299.852 792.909 299.679 792.909H298.307C298.134 792.909 297.993 793.045 297.993 793.213V796.155C297.993 796.579 298.247 797.108 299.137 797.108C299.273 797.108 299.458 797.093 299.659 797.056C299.86 797.02 300.028 797.168 300.028 797.358V799.141C300.028 799.234 299.985 799.324 299.907 799.382C299.498 799.687 298.741 799.789 298.101 799.789C296.213 799.789 294.851 798.907 294.851 796.616V796.613Z" fill="white"/>
<path d="M300.682 795.096C300.682 791.974 303.243 790.335 305.732 790.335C308.22 790.335 310.761 791.974 310.761 795.096C310.761 798.218 308.2 799.857 305.732 799.857C303.263 799.857 300.682 798.218 300.682 795.096ZM305.732 797.125C306.803 797.125 307.676 796.314 307.676 795.096C307.676 793.878 306.803 793.067 305.732 793.067C304.661 793.067 303.77 793.878 303.77 795.096C303.77 796.314 304.643 797.125 305.732 797.125Z" fill="white"/>
</g>
<defs>
<clipPath id="clip0_263_48">
<rect width="595" height="842" fill="white"/>
</clipPath>
</defs>
</svg>
