<svg width="242" height="256" viewBox="0 0 242 256" fill="none" xmlns="http://www.w3.org/2000/svg">
<path d="M118.33 91.7097C124.41 76.6087 133.55 63.4377 151.86 62.9057C178.26 62.1397 193.85 92.6257 193.79 115.683C193.74 132.373 187.8 145.96 176.13 157.786L174.1 159.24C168.19 162.973 164.01 163.996 157.32 165.927C153.24 172.862 146.56 178.644 137.89 176.5C141.67 170.93 154.14 169.589 153.41 158.775C151.64 155.202 151.55 155.115 148.26 152.736C138.26 151.211 135.86 161.281 129.15 161.948L128.35 160.237L130.42 155.242C128.48 152.094 126.48 149.715 124.19 146.837C117.77 162.774 109.88 174.298 91.7696 177.453C89.7396 177.807 89.4196 178.277 88.0096 179.653C86.6296 178.782 86.2397 178.63 85.0397 177.536C78.4897 172.114 69.3797 175.231 62.9297 164.189C50.5597 154.295 45.2896 132.777 46.8696 117.784C51.1696 77.0357 88.2397 52.5977 118.33 91.7097Z" fill="#0E0504"/>
<path d="M93.8197 109.549C100.35 106.09 111.91 104.44 119.29 103.228C123.2 118.232 124.65 124.04 121.94 139.071L121.78 139.967L120.79 140.303L121.88 139.413C115.97 142.279 98.2196 140.035 94.8696 144.127L86.7596 145.821C82.4396 144.405 84.2096 145.589 81.2596 142.149C72.1096 145.166 66.5796 146.54 58.1396 151.364C54.5396 143.697 53.2497 138.569 51.9697 130.332C59.9797 123.613 75.0597 113.858 85.4697 112.367L85.0497 109.9L87.7797 108.046C92.0997 108.014 90.9797 107.38 93.8197 109.549Z" fill="#010201"/>
<path d="M51.9697 130.332C59.9797 123.613 75.0597 113.858 85.4697 112.367C77.3397 121.798 76.1696 130.638 81.2596 142.149C72.1096 145.166 66.5796 146.54 58.1396 151.364C54.5396 143.697 53.2497 138.569 51.9697 130.332Z" fill="#F9EFDD"/>
<path d="M93.8193 109.549C100.349 106.09 111.909 104.44 119.289 103.228C123.199 118.232 124.649 124.04 121.939 139.071C116.529 138.35 114.439 139.279 108.269 137.516C105.169 133.048 104.359 132.247 98.9193 131.608L98.1993 130.638C111.979 122.311 105.809 114.264 93.8193 109.549Z" fill="#F9EFDD"/>
<path d="M59.0688 113.082C56.4888 112.389 56.0388 112.633 53.5388 113.521C49.7688 100.841 67.3188 81.1506 79.4488 77.7776C86.4288 75.8036 93.9088 76.7197 100.209 80.3187C107.849 84.6337 112.729 91.3586 116.989 98.7956C98.2187 101.948 80.7887 106.497 64.1587 116.264C61.1387 115.267 61.3488 115.332 59.0688 113.082Z" fill="#CA8E73"/>
<path d="M120.789 98.6897C128.739 73.7267 147.029 55.5877 173.719 76.4357C178.849 80.4447 183.639 86.6187 184.039 93.3757C180.519 96.3827 183.889 92.3467 176.609 94.2447C174.349 96.2527 173.219 97.1657 170.769 98.9237C152.099 94.3917 139.359 94.9927 120.789 98.6897Z" fill="#CA8E73"/>
<path d="M94.8687 144.127C100.599 143.752 115.219 141.516 119.199 145.337L118.619 148.702C112.759 160.357 107.589 168.097 94.1587 172.474C92.5787 172.993 90.9887 173.472 89.3787 173.912C80.3787 166.261 77.9387 168.114 68.0487 164.335C65.5687 161.606 62.2886 158.68 61.3486 155.26C62.8086 153.741 61.9386 154.073 63.7286 153.736C69.6886 149.56 79.7087 147.485 86.7587 145.821L94.8687 144.127Z" fill="#CA8E73"/>
<path d="M163.56 133.51C171.18 132.545 178.83 133.105 186.45 133.701C182.9 142.152 178.34 149.54 171.02 155.283C167.25 158.233 164.26 159.381 159.54 158.733C156.67 156.84 156.58 155.478 155.33 152.346C153.91 150.862 152.65 149.624 150.8 148.68C147.45 146.971 145.63 147.403 142.17 148.505C139.47 149.367 136.99 150.006 134.18 150.422C131.05 149.198 130.08 147.355 127.97 144.779C139.34 138.999 151 135.527 163.56 133.51Z" fill="#CA8E73"/>
<path d="M127.129 101.759C134.409 101.013 144.189 99.7847 151.289 101.416C152.409 101.673 151.909 101.462 152.709 102.778C150.619 104.66 148.609 106.508 147.159 108.951C143.399 115.282 144.209 123.219 145.999 130.082L146.339 131.333L145.489 132.504C138.939 134.658 132.669 137.636 126.369 140.435C129.039 125.624 124.999 117.156 124.249 102.889L127.129 101.759Z" fill="#F9EFDD"/>
<path d="M162.2 102.296C171.37 103.909 180.04 106.962 188.75 110.162C188.91 115.666 189.97 122.088 187.52 127.099C184.95 129.1 184.3 128.548 181.16 128.272C173.5 128.855 167.16 125.07 159.72 123.714C161.93 122.817 164.33 121.959 166.42 120.789C168.92 119.384 169.57 117.686 170.32 115.068C169.99 109.445 166.1 105.915 162.2 102.296Z" fill="#F9EFDD"/>
<path d="M170.77 98.9237C173.22 97.1657 174.349 96.2527 176.609 94.2447C178.949 97.9927 183.52 98.6927 187.74 103.083L187.7 104.127C180.6 103.071 176.12 100.072 170.77 98.9237Z" fill="#C3A090"/>
<path d="M59.0692 113.082C61.3492 115.332 61.1392 115.267 64.1592 116.264C58.1192 120.634 54.5891 123.423 47.8691 126.525C51.4691 122.771 58.2092 117.331 59.0692 113.082Z" fill="#C3A090"/>
<path d="M62.9288 164.189C69.3788 175.231 78.4888 172.114 85.0388 177.536C81.1788 176.73 78.7487 176.005 74.7487 176.227C70.7987 179.106 72.1288 182.655 70.6688 187.27C64.8488 205.652 20.6888 202.4 31.7788 178.973C35.9688 170.108 53.3387 171.63 61.8487 169.527L62.9288 164.189Z" fill="#F3A2A3"/>
<path d="M49.5896 173.281C53.7696 172.526 58.3795 172.048 62.3795 173.819C65.2295 175.08 67.4696 177.379 68.3296 180.421C69.0596 182.999 68.5895 185.842 67.2495 188.137C64.7295 192.465 59.3895 194.528 54.7495 195.604C54.3995 195.731 54.0496 195.882 53.6996 195.987C49.4496 197.233 43.6595 197.085 39.7295 194.906C37.0395 193.417 34.9595 190.717 34.3995 187.676C33.9095 185.059 34.5795 182.292 36.0995 180.12C39.2295 175.646 44.4696 174.078 49.5896 173.281Z" fill="#F67C79"/>
<path d="M182.529 157.685C188.839 156.088 199.769 154.159 205.439 158.099C218.979 167.495 205.909 183.75 192.819 184.811C179.649 185.881 164.299 177.468 174.589 163.142L174.099 159.24L176.129 157.786L182.529 157.685Z" fill="#F3A2A3"/>
<path d="M176.129 157.786L182.529 157.685C179.999 159.367 176.939 161.289 174.589 163.142L174.099 159.24L176.129 157.786Z" fill="#FDDDD6"/>
<path d="M183.369 159.85C186.139 159.498 188.959 159.246 191.759 159.224C197.869 159.175 203.389 161.237 207.759 165.514C208.389 167.257 209.049 168.13 208.669 170.006C207.859 174.062 203.689 176.879 200.529 179.07C196.899 180.334 192.679 181.669 188.819 181.43C184.449 181.159 178.619 179.132 175.909 175.498C174.629 173.793 174.139 171.72 174.609 169.624C175.599 165.177 179.869 162.284 183.369 159.85Z" fill="#F67C79"/>
<path d="M80.649 35.4907C83.199 35.4657 85.7491 35.5217 88.1991 36.3327C91.3091 37.3637 92.7091 39.4867 94.0891 42.2847C93.1691 51.7247 74.429 52.1887 66.869 55.3707C61.709 57.5467 57.9391 60.7307 53.9591 64.5257C50.5591 68.3147 46.9691 71.5437 43.0791 74.8127C44.7691 68.6907 46.8491 63.1537 50.1891 57.7527C57.4791 45.9917 67.069 38.6387 80.649 35.4907Z" fill="#010201"/>
<path d="M140.429 26.4207C149.779 25.2037 158.779 26.5677 166.989 31.2927C173.039 34.7777 182.129 43.0897 183.629 50.3937C183.999 52.1747 184.019 51.4617 182.969 53.1337L180.459 52.7227C174.319 48.4477 167.729 43.7637 160.329 42.1217C152.289 40.3417 142.449 43.8067 135.309 38.8357C134.449 36.8967 134.169 36.3307 134.609 34.1627C135.359 30.5137 137.499 28.4907 140.429 26.4207Z" fill="#010201"/>
<path d="M165.509 188.941L167.109 191.288C166.999 192.462 167.069 192.578 166.549 193.83C165.429 196.549 161.539 199.618 159.269 201.516C143.019 215.102 120.099 216.681 100.429 210.536C96.9194 209.437 79.7994 201.368 78.4994 201.769C77.4194 202.105 76.3794 204.432 74.4994 205.123L72.6895 203.727C74.6495 200.411 77.5094 195.428 81.2894 193.974C82.9494 193.335 82.2594 193.48 84.1694 194.205L84.0194 197.985C84.6894 198.986 84.6594 199.07 85.7594 199.956C93.3794 206.096 113.359 209.36 123.109 209.065C140.809 208.53 153.539 201.605 165.509 188.941Z" fill="#010201"/>
<path d="M138.589 222.274C140.129 221.858 139.259 221.861 141.139 222.81C141.029 224.839 141.049 225.135 139.379 226.528C134.029 231.011 126.549 230.371 120.089 229.981C118.609 229.207 117.899 228.409 116.869 227.118C118.299 225.653 132.279 225.122 138.589 222.274Z" fill="#010201"/>
</svg>
