<svg width="242" height="256" viewBox="0 0 242 256" fill="none" xmlns="http://www.w3.org/2000/svg">
<path d="M144.606 43.0415C150.815 42.5356 156.397 43.5647 161.911 46.5317C171.961 51.9427 178.23 62.2415 181.317 72.9434C185.57 87.7272 184.961 105.435 177.218 119.01C171.241 129.472 162.391 134.197 151.055 137.292C149.769 139.316 148.345 141.4 146.553 143.003C143.226 145.979 139.084 146.553 134.813 146.168L134.71 145.327C137.978 142.935 141.879 140.825 144.821 138.073C146.63 136.375 148.405 133.948 148.131 131.315C147.916 129.291 146.296 127.01 144.589 125.956C138.766 122.346 133.321 132.078 128.09 133.373L126.718 132.361C126.813 132.164 126.924 131.958 127.018 131.753C127.173 131.427 127.319 131.092 127.464 130.766C127.893 129.84 128.485 128.777 128.63 127.765C129.051 124.892 126.487 122.294 124.943 120.065C121.513 128.734 117.388 134.848 110.485 141.117C106.386 143.929 96.5248 148.766 91.6455 149.315C88.6527 144.727 85.2911 138.313 81.0035 134.84C76.673 131.332 68.5695 130.432 63.3472 132.336C61.2891 133.082 58.7078 134.848 56.5554 134.968C55.1319 135.037 54.9433 134.823 54 133.785C56.281 130.14 61.6236 128.503 65.5253 127.251C60.1143 116.291 57.533 105.932 58.5363 93.6269C59.6082 80.5497 64.8563 67.0437 75.2066 58.5371C80.9263 53.8378 87.9409 51.1709 95.3928 52.1742C105.889 53.5805 113.075 60.9982 119.189 68.9303C120.433 65.7832 121.65 62.576 123.331 59.6347C128.245 51.008 134.985 45.6484 144.606 43.0415Z" fill="#010201"/>
<path d="M87.6915 56.6847C93.6856 56.3417 98.2905 56.5818 103.71 59.6517C114.618 65.8173 118.725 77.574 122.121 88.8248C113.186 90.5998 104.019 91.7146 95.0148 93.0952C84.1243 94.1243 73.3108 96.1395 62.3945 97.2114C62.6432 90.5484 63.638 83.774 66.142 77.574C70.3782 67.0951 77.3669 60.9895 87.6915 56.6847Z" fill="#F9EFDD"/>
<path d="M144.306 47.2176C149.948 46.7289 154.639 47.1576 159.707 49.9017C170.658 55.8272 175.348 67.3953 178.555 78.6975C170.246 80.6612 161.722 81.9388 153.327 83.4481C144.392 84.7086 135.465 86.5524 126.581 88.1302L122.027 74.0496C122.688 71.8287 123.391 69.6248 124.266 67.481C128.33 57.4822 134.307 51.3766 144.306 47.2176Z" fill="#F9EFDD"/>
<path d="M120.553 93.7813C121.933 93.5155 121.187 93.4555 122.714 94.3387C122.962 95.2048 123.125 95.6593 123.254 96.5083C124.78 106.713 120.861 121.599 114.919 130.029C109.139 138.21 102.322 141.262 92.7774 143.055C91.6369 141.082 90.505 139.007 89.1587 137.155C84.2022 130.346 77.9081 128.417 69.9931 127.251C67.5577 122.337 65.654 117.466 63.9132 112.278C63.2443 108.762 61.9152 104.809 63.716 101.576C65.8255 101.01 67.0603 100.822 69.2813 101.13C72.0254 105.504 72.5142 111.146 74.5123 115.923C76.0387 119.584 78.354 122.628 82.1871 124C85.4285 125.167 89.3474 125.493 92.4946 123.906C96.6278 121.822 101.07 117.569 102.339 112.998C103.042 110.46 102.305 108.934 101.07 106.747C98.5315 104.518 95.127 104.826 91.9027 104.629L99.7664 97.0742C106.601 95.6335 113.641 94.8275 120.553 93.7813Z" fill="#F9EFDD"/>
<path d="M149.279 94.9991C160.873 85.6778 165.872 86.5181 179.241 82.342C180.656 96.8685 178.718 111.412 169.165 123.049C166.129 126.736 161.773 130.784 156.774 131.272C155.65 131.384 152.966 131.598 152.092 130.792C148.404 127.371 150.831 121.557 143.413 121.231C139.692 121.068 136.279 122.714 133.046 124.378L126.469 115.262C127 109.697 127.824 103.986 127.558 98.4034L129.17 97.2972C130.731 103.506 132.3 109.766 138.097 113.436C141.278 115.468 145.18 116.051 148.816 115.048C153.112 113.89 156.902 110.726 159.038 106.85C160.109 104.903 160.898 102.502 160.212 100.307C159.758 98.8493 159.261 97.8032 157.786 97.1429C155.367 96.0624 151.894 95.6336 149.279 94.9991Z" fill="#F9EFDD"/>
<path d="M127.559 98.4034C127.139 96.4825 126.822 95.5907 127.645 93.7213L128.58 94.1758L129.171 97.2972L127.559 98.4034Z" fill="#B9B6B1"/>
<path d="M124.575 155.377C132.79 154.614 141.365 155.052 149.263 157.555C160.711 161.131 170.187 169.235 175.478 179.997C179.637 188.281 180.957 199.326 177.767 208.184C170.976 227.049 146.45 213.449 132.902 213.072C125.896 212.883 120.365 214.469 114.087 217.479C105.967 222.402 98.9607 229.416 89.8452 232.529C85.0945 234.15 79.2376 234.904 74.6584 232.375C71.1855 230.454 69.3417 226.895 68.5528 223.139C65.9802 210.868 71.3571 196.247 77.96 186.077C88.9106 169.226 105.203 159.451 124.575 155.377Z" fill="#010201"/>
<path d="M105.203 199.197C113.95 197.774 122.294 197.019 129.934 202.567C132.353 204.325 134.359 206.512 136.323 208.741C129.12 209.033 122.036 209.462 115.305 212.291C105.812 216.279 86.5692 236.371 76.296 228.542C73.1746 226.166 72.0856 219.855 72.0513 216.219C71.9999 211.966 73.2605 208.518 75.5158 204.968C82.7618 195.407 99.0891 202.558 102.914 201.161C103.197 201.058 104.268 199.6 105.203 199.197Z" fill="#F67C79"/>
<path d="M75.5146 204.968C82.7607 195.407 99.088 202.558 102.913 201.161C103.196 201.058 104.267 199.6 105.202 199.197C105.314 199.489 105.399 199.797 105.528 200.08C106.171 201.589 107.072 202.541 108.126 203.768L108.075 205.388C102.381 205.054 97.1414 200.132 91.3875 200.466C85.5992 200.801 81.0114 204.342 75.5146 204.968Z" fill="#220000"/>
<path d="M123.546 159.665C130.466 158.928 137.455 159.168 144.315 160.36C147.796 160.968 151.998 161.586 154.151 164.647L153.722 166.508C146.862 172.228 134.093 172.648 125.441 173.78C114.67 174.989 104.071 175.015 93.2578 174.818C102.442 166.988 111.909 162.538 123.546 159.665Z" fill="#F9EFDD"/>
<path d="M74.8553 29.3211C87.1093 28.4035 93.7294 35.2037 104.886 37.1331C107.295 36.4042 109.396 35.4524 111.909 36.2928C113.495 38.1107 113.684 38.2222 113.89 40.6062C113.281 42.0639 112.784 42.7243 111.626 43.8648C107.733 47.6979 105.718 48.9242 100.127 48.7956C92.1944 46.9004 85.7459 41.4122 77.8995 39.5171C72.7887 38.2822 65.5082 41.781 60.9033 39.6543L61.1606 38.1107C65.191 33.4801 69.2899 31.5164 74.8553 29.3211Z" fill="#010201"/>
<path d="M148.362 10.4642C154.519 9.60666 160.685 9.65814 166.122 13.0625C167.94 14.1944 171.773 16.887 172.176 18.928C161.285 17.9847 155.943 17.4102 147.007 24.6305L145.696 26.1054C142.694 29.4584 138.552 35.0151 133.356 34.4835C131.238 34.2691 130.989 33.7803 129.823 32.2024C129.497 29.9643 129.446 28.3351 130.252 26.1827C133.227 18.2677 140.996 13.6027 148.362 10.4642Z" fill="#010201"/>
<path d="M59.0164 221.39L61.1688 222.547C61.7434 225.454 62.3865 228.224 63.6813 230.908C72.1194 248.316 78.6109 237.434 88.2238 240.744L88.6783 242.914C84.4078 245.015 79.8887 245.992 75.1465 245.126C69.7356 244.14 64.5904 241.079 61.5976 236.388C58.5534 231.62 57.9788 226.843 59.0164 221.39Z" fill="#010201"/>
<path d="M185.252 203.759C186.924 205.105 187.37 206.4 187.705 208.415C188.288 211.914 186.976 215.559 184.926 218.371C180.433 224.563 175.879 226.929 168.616 228.147C167.69 227.59 167.15 227.006 166.412 226.235C167.75 223.722 174.884 223.002 177.56 221.227C182.868 217.702 184.137 209.504 185.252 203.759Z" fill="#010201"/>
<path d="M127.198 223.088C133.021 222.573 137.034 223.139 142.35 225.763L142.222 226.818C138.08 228.353 132.515 226.698 127.893 227.247C127.55 227.281 127.207 227.332 126.872 227.375C123.168 229.056 119.995 231.611 115.836 231.629L115.278 230.677C118.717 226.543 122.319 224.948 127.198 223.088Z" fill="#010201"/>
</svg>
