<svg width="242" height="256" viewBox="0 0 242 256" fill="none" xmlns="http://www.w3.org/2000/svg">
<path d="M129.99 66.2543C133.69 63.3223 138.65 59.5083 141.93 56.0973C150.23 47.4533 158.92 32.9193 171.81 31.1003C176.1 30.4953 181.32 32.7113 184.37 35.4843C186.57 37.4753 190.58 40.7363 190.96 43.6773L188.94 44.8713C175.72 42.9483 169.41 49.3473 161.13 58.1353C201.86 73.0943 209.25 129.165 173.33 153.998C169.32 156.769 162.57 157.906 157.72 158.911C154.32 164.842 143.19 174.49 137.12 168.523C141.54 162.59 152.33 164.26 154.61 154.595C154.19 151.444 152.16 147.488 149.61 146.129C142.97 142.597 137.3 152.203 131.22 153.829C128.53 148.557 132.81 149.377 126.18 141.077L125.27 139.956C117.98 159.352 100.19 177.026 78.73 168.104C37.42 150.931 37.83 86.0143 78.21 67.4653C58.95 57.1743 63.28 59.8293 45.33 59.9233L45 58.8413C47.58 54.4093 51.8999 47.9463 56.8199 45.8923C71.2499 39.8593 87.5 55.6853 99.7 62.0423C104.19 64.3773 108.68 66.0113 113.28 67.7453C113.31 63.5283 112.83 60.3113 114.87 56.7553L116.18 57.0283C119.06 65.7693 117.1 70.8173 113.06 78.4033C116.96 82.7003 118.3 84.8233 121.43 89.6623C124.21 82.2903 125.28 79.5853 129.31 72.9173C125.42 67.3353 124.82 61.9163 126.04 55.3993L127.27 54.8543C129.53 58.3043 129.49 62.0333 129.99 66.2543Z" fill="#010201"/>
<path d="M55.7201 102.223C62.3001 105.639 81.7201 111.648 89.5901 114.191C89.2001 115.196 88.8402 116.214 88.5002 117.242C85.5602 126.539 87.3002 147.265 102.81 140.858C109.78 137.978 108.54 128.069 109.59 122.272C112.43 121.876 120.28 124.8 123.57 125.835C122.31 132.094 121.23 137.838 118.61 143.658C103.43 177.438 66.0802 167.931 55.5102 136.938C52.1302 127.047 51.1401 111.711 55.7201 102.223Z" fill="#F9EFDD"/>
<path d="M55.6602 98.1303C56.8402 95.7613 58.0801 93.4203 59.3701 91.1103C66.3901 78.4973 71.3801 74.8943 84.8501 71.0093C89.2801 74.3613 90.8701 75.6983 96.0901 78.0243C101.7 78.6593 107.4 78.4523 113.06 78.4033C116.96 82.7003 118.3 84.8233 121.43 89.6623C119.51 92.1813 119.51 91.9553 119.12 95.0743C123.27 105.942 123.56 109.57 124.08 121.339C122.16 120.722 116.34 118.687 114.69 118.353C104.97 119.051 95.0301 112.357 89.5901 114.191C81.7201 111.648 62.3001 105.639 55.7201 102.223C56.4201 100.641 55.9602 100.431 55.6602 98.1303Z" fill="#CA8E73"/>
<path d="M55.7201 102.223C56.4201 100.641 55.9602 100.431 55.6602 98.1303C75.4502 104.547 95.1302 111.289 114.69 118.353C104.97 119.051 95.0301 112.357 89.5901 114.191C81.7201 111.648 62.3001 105.639 55.7201 102.223Z" fill="#0E0504"/>
<path d="M96.0898 78.0243C101.7 78.6593 107.4 78.4523 113.06 78.4033C116.96 82.7003 118.3 84.8233 121.43 89.6623C119.51 92.1813 119.51 91.9553 119.12 95.0743C115.81 88.8793 113.87 85.8923 109.79 80.1503C103.52 79.9353 102.13 80.4153 96.0898 78.0243Z" fill="#0E0504"/>
<path d="M184.87 87.0183C186.34 87.3873 186.28 87.0543 187.02 88.1343C192.64 96.3343 191.95 113.828 189.68 123.079C187.22 133.077 181.55 144.17 172.28 149.333C154.44 159.265 159.17 142.783 148.99 140.569C143.79 139.44 139.239 142.519 134.959 144.988C132.189 141.727 129.77 138.158 127.27 134.688C127.34 131.464 128.02 128.076 128.43 124.865C132.88 122.808 137.12 120.245 141.39 117.842C142.95 123.701 144.54 130.135 150.43 133.135C153.28 134.59 156.44 134.671 159.38 133.44C163.04 131.91 165.9 128.457 167.4 124.857C168.68 121.777 168.6 119.554 167.26 116.567C164.64 114.352 158.57 114.653 155.17 114.363C156.59 113.28 157.98 112.153 159.39 111.055C163.76 107.654 163.699 103.392 167.069 99.7003C171.549 94.8133 179.3 90.7193 184.87 87.0183Z" fill="#F9EFDD"/>
<path d="M128.46 83.9993C130.04 80.4273 130.39 78.2823 133.59 76.6193L134.98 76.5673C155.87 75.7023 151.12 52.7713 172.32 68.4343C177.88 72.5423 180.46 75.8613 184.45 81.6063C171.48 90.2573 144.35 111.007 132.55 117.079L130.1 118.585L128.8 117.261C126.19 104.961 124.43 95.8893 128.46 83.9993Z" fill="#CA8E73"/>
<path d="M128.85 182.44C132.9 181.911 137.37 181.838 141.44 182.082C151.33 182.677 168.95 186.604 175.55 194.212C176.1 196.71 176.33 196.783 175.12 198.996C171.92 199.013 168.68 195.495 166 193.792C151.31 184.46 131.45 186.461 115.48 190.439C96.7897 195.834 87.4198 206.478 71.2998 213.66C71.5298 213.356 71.7497 213.055 71.9697 212.749C72.4297 212.107 72.8697 211.454 73.3297 210.815C85.5797 193.819 109.05 185.736 128.85 182.44Z" fill="#010201"/>
<path d="M131.849 199.341C136.179 199.166 140.71 199.169 144.68 201.173C146.62 202.153 146.89 202.371 147.5 204.334C142.72 206.567 133.96 203.909 128.12 205.394C127.76 205.487 127.39 205.588 127.03 205.684C125.16 206.932 123.28 208.275 121.31 209.365C119.44 210.406 118.569 210.794 116.479 210.093L116.87 208.23C121.32 202.865 125.439 201.304 131.849 199.341Z" fill="#010201"/>
<path d="M65.1202 199.331C70.8402 201.548 66.9501 210.405 70.4501 215.261C73.0501 218.881 78.2702 217.953 80.8802 220.932C81.7302 221.909 81.0702 223.203 80.8602 224.368C79.3302 224.204 77.7802 224.034 76.2802 223.684C72.0402 222.739 68.3802 220.074 66.1802 216.327C63.0502 211.052 63.6802 205.006 65.1202 199.331Z" fill="#010201"/>
</svg>
