<svg width="242" height="256" viewBox="0 0 242 256" fill="none" xmlns="http://www.w3.org/2000/svg">
<path d="M147.232 71.81C154.377 71.32 160.468 71.68 167.144 74.7C178.501 79.85 186.173 90.4201 190.225 101.92C195.305 116.46 194.402 132.42 187.715 146.29C181.997 158 173.236 163.83 161.196 167.89C154.499 170.15 151.992 176.27 145.979 179.39C142.545 181.18 138.707 182.05 134.957 180.82C137.146 177.08 144.267 174.81 147.661 171.46C149.792 169.35 151.606 166.53 151.456 163.41C151.307 160.31 149.867 157.89 147.569 155.94C139.859 155.02 136.792 161.58 130.425 164.36C128.558 165.18 128.188 164.99 126.43 164.27L125.7 162.38C127.28 161.03 128.822 159.64 130.326 158.2C130.405 153.57 127.494 151.01 124.443 147.74C122.023 148.74 121.737 150.9 120.665 153.21C117.999 158.49 115.187 162.95 110.787 167.03C104.075 173.26 95.6823 176.96 86.4363 176.33C76.5103 175.66 67.7773 171.31 61.2113 163.86C52.0283 153.44 47.9933 137.16 49.2123 123.54C50.4093 110.17 56.2453 96.48 66.8593 87.88C73.7383 82.31 81.8253 79.17 90.7593 80.21C103.388 81.68 111.769 90.58 119.167 100.01C120.191 97.47 121.336 94.9801 122.598 92.5501C128.255 81.6101 135.43 75.52 147.232 71.81Z" fill="#010201"/>
<path d="M119.717 119.13C122.179 122.44 121.761 129.79 121.365 133.88C120.215 145.79 114.132 158.43 104.594 165.85C98.726 170.41 91.487 172.78 84.059 171.64C73.761 170.06 66.426 162.77 60.743 154.62C56.597 146.18 54.938 139.22 53.833 129.86C61.476 128.12 69.337 125.92 77.122 125.01C84.568 124.14 83.067 132.31 88.449 136C90.913 137.7 93.63 137.87 96.506 137.38C108.027 135.43 103.299 127.27 109.445 121.41C112.02 118.96 116.326 119.4 119.717 119.13Z" fill="#F9EFDD"/>
<path d="M176.734 112.15L188.602 111.63C189.211 123.52 188.569 135.41 182.381 145.95C176.444 156.06 168.406 161.17 157.332 164.21C155.779 159.95 153.931 154.94 149.668 152.7C145.178 150.35 140.39 152.36 136.04 153.98C132.03 149.31 128.777 144.54 125.579 139.29C126.015 132.18 125.943 125.26 125.607 118.15C132.769 117.23 141.213 115.13 148.355 116.11L148.917 116.99L149.87 118.44C152.735 122.87 155.868 127.97 161.368 129.35C163.902 129.99 166.525 129.25 168.58 127.71C172.419 124.82 174.985 122.14 175.506 117.33C175.679 115.74 175.719 114.59 176.305 113.06C176.424 112.74 176.591 112.45 176.734 112.15Z" fill="#F9EFDD"/>
<path d="M85.4773 84.87C91.3173 84.95 96.1733 85.89 101.271 88.84C110.945 94.42 116.849 103.81 119.775 114.32C107.469 115.58 95.2293 117.6 82.9983 119.43C73.1483 121.24 63.3373 123.24 53.5703 125.45C54.7383 116.23 56.6723 107.44 61.9653 99.62C67.7623 91.04 75.5363 86.72 85.4773 84.87Z" fill="#F9EFDD"/>
<path d="M149.944 75.89C155.51 75.98 160.351 76.55 165.476 78.96C177.591 84.66 182.574 95.3899 186.91 107.19C177.135 107.45 167.488 108.34 157.764 109.3C147.618 110.07 135.703 114.1 125.792 112.84C123.496 111.35 122.629 111.06 121.947 108.23C120.948 104.09 125.192 96.91 127.394 93.38C132.869 84.59 139.677 78.34 149.944 75.89Z" fill="#F9EFDD"/>
<path d="M78.6361 56.82C83.0331 56.55 87.4701 56.2101 91.8481 56.8901C97.0891 57.6901 103.86 61.0801 106.782 65.6401C108.228 67.9001 108.139 68.9001 107.416 71.3801C100.04 77.5201 87.8511 70.76 79.1781 70.45C78.8001 70.44 78.4221 70.4401 78.0441 70.4301C69.5441 71.2201 60.5541 76.3401 52.4291 75.6701L51.6641 74.22C52.1221 73.33 52.3251 72.84 52.8691 72.06C58.7991 63.46 68.8371 59.08 78.6361 56.82Z" fill="#010201"/>
<path d="M154.012 35C163.56 35.68 172.389 38.19 179.552 44.88L179.401 46.25C169.756 50.23 159.971 44.9 147.748 50.91L146.615 51.48C143.805 53.58 140.952 55.91 137.945 57.7C134.891 59.52 132.444 59.3899 129.118 58.5599C127.448 57.0799 126.744 56.75 126.427 54.42C125.99 51.2 128.04 47.5599 130.052 45.1899C136.23 37.9399 145.028 35.95 154.012 35Z" fill="#010201"/>
<path d="M136.94 196.02C138.098 195.93 139.258 195.88 140.42 195.86C146.245 195.79 155.881 195.6 160.242 199.92L159.715 201.59C157.913 202.26 157.413 202.25 155.567 202.04C136.048 199.83 119.857 201.62 101.376 208.77C96.0001 211.08 89.7541 216.34 84.2821 217.65C82.6931 218.04 82.5301 217.94 81.1611 217.01C81.6611 215.94 81.7021 215.7 82.5971 214.67C94.0401 201.58 120.88 197.56 136.94 196.02Z" fill="#010201"/>
<path d="M130.888 213.86C133.671 213.66 135.851 213.91 138.574 214.5L139.171 215.65C134.95 218.75 129.896 219.16 124.861 219.91C122.312 220.73 120.543 221.21 117.806 220.92L117.233 219.8C121.293 215.47 125.297 214.89 130.888 213.86Z" fill="#010201"/>
</svg>
