<svg width="242" height="256" viewBox="0 0 242 256" fill="none" xmlns="http://www.w3.org/2000/svg">
<path d="M106.572 60.5836C108.471 60.9546 108.952 61.2766 110.472 62.3636C111.457 64.0316 112.092 65.0736 112.228 67.0626C112.541 71.6466 109.22 76.1136 106.567 79.4716C112.482 83.7146 116.607 88.5075 120.984 94.2315C122.086 90.7385 123.463 87.2585 125.255 84.0555C130.042 75.4965 137.667 69.1546 147.261 66.7516C156.79 64.3666 166.769 65.7906 175.068 71.1176C186.921 78.7256 193.907 92.9305 196.412 106.432C199.217 121.56 196.717 138.808 187.786 151.576C180.67 161.749 172.203 165.551 160.397 167.704C157.971 170.293 155.242 173.076 152.007 174.619C149.168 175.972 143.149 177.174 140.199 176.072C143.962 170.921 153.69 169.84 155.724 162.493C156.377 160.137 155.793 157.762 154.332 155.821C153.093 154.174 151.403 153.229 149.393 152.917C145.972 152.387 143.091 154.85 140.52 156.733C138.524 158.468 136.717 159.819 134.378 161.063L133.021 160.101C132.288 155.5 131.61 153.104 128.611 149.444C128.367 149.146 128.111 148.858 127.861 148.565C125.318 154.735 122.956 160.579 118.626 165.764C109.864 176.258 98.25 177.478 85.544 178.522C85.097 177.157 84.643 175.791 84.084 174.467C73.92 150.372 51.963 169.002 44 165.617L44.637 164.196C49.454 160.919 53.698 158.737 59.236 156.917C53.185 146.899 50.148 136.586 50.053 124.825C49.91 107.083 56.375 93.4926 68.682 81.0586C64.107 79.1546 52.288 75.3915 50.194 70.5815C55.516 66.4005 73.407 69.7185 80.225 69.9305C91.16 70.2715 98.635 68.0256 106.572 60.5836Z" fill="#010201"/>
<path d="M98.6521 82.2105C100.825 81.6765 103.078 82.8036 104.958 83.8466C116.886 90.4686 122.357 107.403 126.084 119.523C109.845 121.537 93.6401 124.238 77.4501 126.629C69.9591 127.743 62.4931 129.018 55.0571 130.453C55.0281 128.645 55.0361 126.837 55.0811 125.03C55.4451 106.726 60.8621 95.1345 73.9981 82.5035C82.9331 83.9125 89.7991 84.2325 98.6521 82.2105Z" fill="#F9EFDD"/>
<path d="M151.503 70.1555C158.225 69.9445 163.866 70.5295 169.966 73.7165C183.516 80.7955 188.434 94.9065 192.407 108.605C181.613 110.069 170.915 112.037 160.196 113.963L130.188 118.773C128.545 112.128 126.214 105.605 124.1 99.0926C125.57 94.5716 127.022 90.1075 129.403 85.9685C134.659 76.8275 141.661 72.7855 151.503 70.1555Z" fill="#F9EFDD"/>
<path d="M124.974 124.303C126.788 127.108 126.318 130.874 125.968 134.141C124.525 147.614 119.463 159.839 108.438 168.276C90.246 182.198 89.033 166.63 77.332 159.952C73.109 157.542 68.236 156.938 63.51 156.233C59.751 149.538 57.687 142.096 55.749 134.719C85.593 130.335 69.448 139.045 87.225 144.926C89.519 145.685 91.598 145.52 93.729 144.353C99.315 141.296 101.883 133.476 103.49 127.772C110.673 126.802 117.824 125.495 124.974 124.303Z" fill="#F9EFDD"/>
<path d="M191.747 113.308C193.694 116.538 192.509 123.846 191.927 127.599C190.156 139.014 183.682 152.709 173.889 159.364C171.026 161.309 166.839 162.834 163.369 161.597C160.453 160.558 160.078 158.198 158.872 155.599C157.997 153.713 157.181 151.54 155.759 149.988C149.345 142.986 142.394 152.001 136.109 151.816C133.665 148.873 131.715 145.645 129.681 142.415C130.539 136.16 130.814 129.799 131.242 123.501L146.082 121.266C147.577 124.447 149.039 127.256 151.687 129.638C154.325 132.012 158.158 135.319 162.019 134.667C168.85 133.512 173.384 122.483 176.446 116.988C180.909 114.353 186.682 114.091 191.747 113.308Z" fill="#F9EFDD"/>
<path d="M66.9936 178.52C69.2956 179.17 69.5586 179.024 70.8806 180.972C69.6056 183.844 66.4166 185.558 63.9036 187.325C91.2336 204.123 127.661 206.829 157.104 193.586C162.023 191.373 171.709 184.298 176.596 184.655L177.248 186.583C175.021 190.087 171.013 191.888 167.515 193.964C158.749 198.651 149.346 202.032 139.602 203.999C112.494 209.73 84.8996 206.482 61.5166 191.117C60.7596 194.668 60.4456 198.518 57.9086 201.262L56.4686 200.881C55.5366 198.248 55.8486 196.061 56.3576 193.33C57.6556 186.379 61.3746 182.463 66.9936 178.52Z" fill="#010201"/>
<path d="M153.652 33.1045C162.207 32.6615 169.875 33.4966 177.341 38.1396C179.764 39.6466 182.617 41.4095 183.257 44.2415C176.009 47.6225 163.649 42.8916 152.059 48.1966L150.947 48.7185C146.23 51.4475 142.969 55.0576 139.029 58.7266C136.862 60.7456 135.545 60.7306 132.668 60.5886C131.358 59.4536 130.778 59.3055 130.285 57.5645C129.234 53.8475 130.7 49.4946 132.599 46.2906C137.331 38.3026 145.126 35.2375 153.652 33.1045Z" fill="#010201"/>
<path d="M143.609 213.907C144.686 213.909 145.659 214.405 146.666 214.764C146.494 216.663 146.425 217.076 144.844 218.369C139.28 222.918 131.634 223.163 124.854 222.876C122.51 221.923 121.013 221.958 119.914 219.564C125.157 216.432 135.355 217.666 142.437 214.45L143.609 213.907Z" fill="#010201"/>
</svg>
