<svg width="242" height="256" viewBox="0 0 242 256" fill="none" xmlns="http://www.w3.org/2000/svg">
<path d="M178.94 127.65C183.136 127.019 187.083 127.17 190.684 129.686C192.871 131.215 195.165 134.318 195.405 137.038C195.53 138.523 195.218 138.416 194.329 139.466C191.68 138.532 190.835 136.363 189.306 134.096C188.746 139.821 188.106 145.547 187.395 151.264C184.656 172.655 176.886 196.029 159.078 209.543C146.168 219.34 128.938 222.905 113.032 220.567C93.4549 217.678 79.4608 207.08 68.0006 191.485C58.4697 177.216 55.1001 162.973 54.6111 146.018C52.8508 148.872 51.4193 151.699 48.5921 153.611L47.2939 153.193C47.3117 151.913 47.4185 150.828 47.9253 149.628C50.2724 144.107 54.7089 139.875 60.3812 137.981C63.0662 137.083 65.0488 136.914 67.636 138.168C67.2359 139.706 66.4091 140.444 65.4044 141.679L66.2847 143.129C82.6882 150.321 104.23 153.62 121.959 153.22C141.616 152.784 168.048 146.027 182.105 131.242C180.166 129.917 179.793 129.801 178.94 127.65Z" fill="#010201"/>
<path d="M170.947 144.489L171.338 145.609C169.427 150.73 167.275 155.638 164.901 160.563C153.183 168.601 136.797 171.712 122.83 172.281C106.284 172.957 80.7056 170.583 67.974 158.75C66.3203 156.812 64.7023 154.58 63.6176 152.277C62.6307 150.179 62.3374 149.005 63.0664 146.827L64.4533 146.596C69.9211 148.89 75.5223 150.846 81.2302 152.446C110.828 160.875 143.732 159.523 170.947 144.489Z" fill="#F9EFDD"/>
<path d="M86.5024 195.575C87.9249 193.868 89.7386 193.93 91.9168 193.762C98.496 193.255 105.964 196.02 111.974 198.527L114.988 197.7C118.225 197.318 121.399 196.98 124.644 197.38C134.61 198.607 141.332 204.164 147.102 211.863C130.423 218.06 115.353 219.136 98.7183 211.961C92.4858 209.267 84.084 205.737 81.4346 199.069C82.6259 196.624 84.0485 196.607 86.5024 195.575Z" fill="#F67C79"/>
<path d="M86.502 195.575C87.9245 193.868 89.7382 193.93 91.9164 193.762C98.4956 193.255 105.964 196.02 111.974 198.527L114.988 197.7C115.397 198.9 115.13 198.571 115.939 199.363C117.317 200.723 118.322 201.603 119.22 203.39L118.571 204.848C111.752 204.404 108.08 194.002 86.502 195.575Z" fill="#220000"/>
<path d="M87.7294 27.9221C91.2413 27.5576 95.4644 27.1397 98.8518 28.3399C102.106 29.4957 103.964 31.9763 105.449 34.9458C104.275 42.6008 86.3691 42.3696 79.95 45.1702C75.4335 47.1439 72.3572 50.4246 69.0232 53.9187C67.0406 56.8348 65.0135 61.0224 61.4483 62.0271L60.3369 60.729C60.4614 57.4572 61.2972 54.7544 62.5952 51.776C67.6007 40.2802 76.1714 32.4742 87.7294 27.9221Z" fill="#010201"/>
<path d="M85.9686 84.0673C92.3877 83.4805 98.3445 83.7206 104.328 86.3789C111.112 89.3929 116.855 94.8874 119.282 101.982C120.109 104.409 120.465 105.547 119.38 107.823C118.722 107.823 118.011 108.046 117.398 107.806C113.735 106.374 108.507 96.5588 97.3577 92.8869L96.2464 92.5314C94.6282 92.4958 93.0101 92.5046 91.3831 92.5668C77.3091 93.2425 77.3891 98.4526 68.9517 106.934C67.307 108.579 65.6621 110.215 63.3327 110.322C62.3014 107.432 63.8217 103.52 65.1109 100.88C69.5207 91.8022 76.7933 87.2058 85.9686 84.0673Z" fill="#010201"/>
<path d="M143.404 19.0669C147.814 18.8536 151.779 19.1025 156.002 20.5161C164.902 23.4768 174.673 30.9272 178.371 39.738C179.242 41.8273 179.465 42.9831 178.62 45.0546C175.882 44.7612 174.557 42.7786 172.61 40.9293C158.918 27.602 153.993 36.3594 139.421 34.1011C136.682 33.6744 135.375 32.8831 133.775 30.6782C133.731 29.2468 133.757 28.251 134.344 26.9174C136.344 22.3565 138.932 20.8629 143.404 19.0669Z" fill="#010201"/>
<path d="M156.366 75.9145C160.5 75.6478 164.323 75.4432 168.368 76.6524C175.561 78.8039 181.118 83.0271 184.647 89.7041C185.865 92.0157 186.817 93.9449 186.088 96.4699C181.144 96.6744 175.41 83.9607 159.051 84.752C142.807 89.7486 143.617 99.8484 135.944 103.734L134.495 102.631C133.339 98.4793 134.984 95.1542 136.788 91.4289C140.914 82.9116 147.831 78.9018 156.366 75.9145Z" fill="#010201"/>
<path d="M143.128 116.954C143.342 116.892 143.537 116.803 143.751 116.759C146.249 116.19 149.707 116.536 151.806 118.101C153.788 119.568 154.82 122.173 155.06 124.556C155.478 128.654 154.1 133.091 151.503 136.283C148.267 140.275 143.795 142.097 138.798 142.515L137.998 140.132L137.34 141.946L137.385 140.399C139.376 137.599 142.71 137.11 145.858 136.158C146.32 135.803 146.782 135.438 147.227 135.065C149.645 133.046 150.739 131.117 150.926 127.961C151.103 125.063 150.472 123.462 148.667 121.32C142.381 119.355 136.149 125.276 130.272 127.099L130.121 125.943C132.166 123.969 132.939 122.058 134.015 119.435L134.433 118.377C137.243 118.35 139.572 117.986 142.284 117.212L143.128 116.954Z" fill="#010201"/>
<path d="M151.556 224.159C153.299 224.203 153.005 223.883 154.374 225.261C153.165 228.844 148.426 231.076 145.19 232.748C134.237 238.429 120.954 237.877 109.52 234.259C108.738 233.548 108.178 232.605 107.564 231.743L108.107 230.507C111.361 229.92 114.419 231.272 117.584 231.992C130.245 234.864 140.994 230.694 151.556 224.159Z" fill="#010201"/>
<path d="M58.0783 116.03C60.3454 116.154 62.6038 116.43 64.8353 116.874C69.4052 117.772 73.7172 120.395 76.2778 124.307L75.5487 125.498C72.268 125.596 69.1385 123.133 66.3823 121.506C58.7096 119.39 52.9928 122.733 45.5245 122.271L45 121.409C49.1431 117.39 52.566 116.856 58.0783 116.03Z" fill="#010201"/>
<path d="M184.558 101.813L185.981 101.653C190.062 101.173 192.631 101.404 196.534 102.747L197.014 103.796C194.009 105.236 191.342 105.743 188.052 106.179C184.754 106.614 182.46 107.29 179.437 108.784L178.512 109.255C177.472 110.224 176.441 111.246 175.321 112.127C173.836 113.291 173.142 113.94 171.195 113.62L171.32 111.833C175.072 106.188 178.512 104.32 184.558 101.813Z" fill="#010201"/>
</svg>
