<svg width="242" height="256" viewBox="0 0 242 256" fill="none" xmlns="http://www.w3.org/2000/svg">
<path d="M149.989 48.874C160.129 48.492 168.449 50.895 176.319 57.599C188.099 67.631 194.109 83.41 195.169 98.57C196.419 116.555 189.509 139.523 172.849 148.854C161.339 155.299 162.789 148.805 152.029 160.996C148.069 165.488 143.149 165.721 137.489 166.068L136.099 164.464L136.389 165.841L136.079 164.509C139.669 160.85 145.279 160.123 149.489 157.218C151.559 155.79 152.739 153.795 152.959 151.293C153.199 148.542 151.709 144.397 149.789 142.4C143.029 135.348 134.889 150.175 128.739 150.582L127.949 148.642L130.229 144.579C130.149 141.337 126.339 137.438 124.419 134.732C122.469 140.126 120.269 144.909 117.389 149.873C115.839 151.912 114.199 153.782 112.329 155.529C105.359 162.018 97.289 165.773 87.619 165.178C77.269 164.552 67.5891 159.826 60.7391 152.047C49.7891 139.706 45.9991 120.838 47.2191 104.783C48.2991 90.682 53.9491 76 65.0291 66.759C71.9491 60.994 80.6991 57.727 89.7491 58.764C102.419 60.215 110.899 68.585 118.349 78.078C119.829 74.481 121.289 70.726 123.329 67.403C129.569 57.248 138.499 51.61 149.989 48.874Z" fill="#010201"/>
<path d="M81.7289 63.851C88.1489 63.422 93.2888 63.816 99.1688 66.69C109.529 71.754 116.499 82.093 120.079 92.784C125.269 108.276 124.229 126.671 116.719 141.254C111.589 151.225 104.369 157.124 93.8089 160.535C87.1589 160.874 81.5589 160.427 75.5189 157.224C65.0289 151.659 58.1789 141.316 54.7389 130.191C50.1189 115.255 50.7288 96.783 58.1988 82.84C63.4088 73.095 71.1689 66.996 81.7289 63.851Z" fill="#F9EFDD"/>
<path d="M100.979 102.196C103.459 102.559 105.999 103.152 107.799 105.017C109.779 107.079 110.809 109.866 110.659 112.718C110.419 117.723 108.269 120.49 104.589 123.626C102.479 122.987 100.239 122.185 98.6386 120.612C96.2886 118.302 95.0287 115.399 95.2987 112.085C95.6587 107.707 97.8887 105.072 100.979 102.196Z" fill="#010201"/>
<path d="M149.618 53.859C157.968 53.595 164.618 54.903 171.568 59.986C182.088 67.686 187.868 80.801 189.798 93.394C191.988 107.723 189.078 123.966 180.198 135.675C174.328 143.42 167.378 147.34 157.958 148.824C157.548 146.85 156.938 144.923 156.148 143.07C154.848 140.078 152.428 137.381 149.238 136.409C143.518 134.668 138.938 137.401 134.198 140.164C131.528 136.445 129.038 132.579 126.498 128.774C129.318 112.31 127.648 99.818 121.908 84.196C123.278 79.616 124.538 75.162 126.918 70.975C132.188 61.675 139.528 56.674 149.618 53.859Z" fill="#F9EFDD"/>
<path d="M168.318 92.43C170.298 92.567 172.558 92.574 174.288 93.708C176.508 95.175 177.848 97.589 178.148 100.214C178.698 105.199 176.748 108.963 173.878 112.847C171.738 112.778 169.718 112.436 167.938 111.155C165.438 109.357 164.018 106.638 163.838 103.595C163.538 98.731 165.158 95.952 168.318 92.43Z" fill="#010201"/>
<path d="M127.598 182.783C130.948 182.527 134.328 182.443 137.448 183.887C141.158 185.609 143.778 188.718 145.138 192.552C148.198 201.176 145.558 212.843 141.388 220.808C137.328 228.571 133.108 232.188 124.818 234.69C122.688 234.622 120.538 234.541 118.478 233.971C114.028 232.737 109.938 230.063 107.708 225.918C104.528 219.978 105.358 212.043 107.318 205.86C110.798 194.92 117.538 187.854 127.598 182.783Z" fill="#010201"/>
<path d="M112.219 211.526C116.559 211.619 119.699 212.117 123.499 214.38C126.679 216.268 130.379 219.042 131.079 222.954C131.619 226 130.729 226.999 128.969 229.365C124.569 229.755 121.179 229.993 117.179 227.88C114.219 226.316 111.649 224.174 110.729 220.827C109.739 217.21 110.449 214.694 112.219 211.526Z" fill="#F67C79"/>
<path d="M81.2688 17.885C84.9588 17.617 89.3688 17.654 92.6988 19.496C95.5888 21.097 97.0889 23.516 98.0989 26.547C95.8389 36.082 78.0188 35.192 69.9788 38.344C65.2688 40.189 61.4889 43.141 57.5689 46.233C55.4089 48.782 53.6189 51.516 50.2989 52.509C48.9989 51.865 48.2987 51.977 47.9087 50.432C46.9187 46.477 49.2187 41.581 51.1387 38.223C57.8487 26.477 68.7088 21.01 81.2688 17.885Z" fill="#010201"/>
<path d="M148.139 8C158.039 8.206 167.179 12.134 174.259 19.049C177.289 22.006 181.629 27.25 181.389 31.773C181.309 33.253 180.529 33.366 179.469 34.19C175.699 34.077 172.849 31.35 169.889 29.223C156.839 23.168 148.709 27.909 136.169 25.441C132.939 24.804 131.489 23.656 129.599 21.041C129.469 18.222 129.989 16.342 131.749 14.068C135.389 9.36299 142.669 8.787 148.139 8Z" fill="#010201"/>
<path d="M106.679 237.335C109.619 238.424 112.209 240.602 114.869 242.216C121.309 246.112 129.519 240.675 136.129 238.992L137.369 240.114L137.169 242.782C133.169 245.425 128.879 247.448 124.059 247.951C119.579 248.418 113.959 248.294 110.349 245.149C107.769 242.9 106.939 240.588 106.679 237.335Z" fill="#010201"/>
</svg>
