<svg width="242" height="256" viewBox="0 0 242 256" fill="none" xmlns="http://www.w3.org/2000/svg">
<path d="M139.372 55.3175C136.538 52.7659 133.657 50.3649 131.472 47.2201C129.401 44.2353 128.308 41.9379 129.005 38.2658C130.069 36.6557 130.474 35.9212 132.282 35.0267C135.163 33.5956 138.901 36.0248 141.217 37.7102C146 41.2128 150.407 45.8454 155.52 48.8207C162.139 52.6811 172.27 52.0314 179.605 54.9126C180.622 57.0971 180.81 57.1725 180.236 59.4793C177.863 61.7767 175.537 62.3417 172.411 63.2362C180.876 73.7911 185.414 81.6719 187.448 95.2776C187.975 98.8367 187.787 102.707 188.983 106.124C189.162 106.614 189.36 107.094 189.538 107.574C191.177 109.175 191.45 110.682 191.958 112.819C191.572 115.54 190.461 117.687 188.314 119.504C187.429 120.257 186.356 120.559 185.32 121.03C184.586 121.359 183.889 121.736 183.173 122.093C171.639 147.497 162.421 137.61 147.733 151.668C145.285 154.013 141.716 156.969 138.091 156.753C136.415 156.658 135.558 156.291 134.137 155.481C138.534 151.357 149.334 146.791 149.258 139.983C149.239 138.646 148.458 137.592 147.563 136.65C146.189 135.191 143.336 133.929 141.377 134.127C138.091 134.456 135.069 137.187 132.536 139.079L131.34 139.964L130.625 140.51C129.805 141.33 128.77 141.631 127.725 142.092L126.416 141.339L126.689 139.315L129.834 136.923L123.337 127.62C119.232 135.746 114.938 143.279 107.462 148.796C100.824 153.692 92.6607 155.839 84.5067 154.323C73.6599 152.29 66.7581 145.115 60.7603 136.49C58.4723 136.942 56.2597 137.309 53.9622 136.716C51.147 135.991 49.7252 134.55 48.3223 132.178C48.4541 126.877 49.6029 123.459 53.0866 119.419C51.7496 102.273 53.6045 89.9672 64.2536 76.1544C63.4909 76.0132 62.7377 75.8532 61.975 75.7213C59.0844 75.2035 56.9 75.2693 54.7061 73.0378C54.2636 70.8157 54.3671 70.4391 55.1204 68.2924C61.7678 63.8199 70.5809 63.5562 77.4356 59.2909C85.1752 54.4795 90.2031 39.8664 99.261 37.4184C101.238 36.8817 101.643 37.3148 103.347 38.2187C104.534 40.4125 105.306 42.145 105.344 44.6778C105.428 51.3441 99.4964 56.777 95.3065 61.3342C105.843 65.5712 112.782 70.6934 118.752 80.4292C123.233 68.9044 128.355 61.5225 139.372 55.3175Z" fill="#010201"/>
<path d="M144.606 58.5283C151.752 61.4283 158.541 62.7088 166.168 63.6598C177.674 74.6855 182.259 85.7677 184.171 101.398C182.56 101.605 181.421 101.558 179.849 101.294C174.143 100.343 166.827 102.104 160.914 102.377C160.358 100.513 159.699 98.8367 158.908 97.0665C157.166 96.4074 155.585 95.9178 154.135 94.7315L156.263 91.5301C155.82 89.2139 155.575 89.1291 153.824 87.5002C151.574 86.9446 149.973 86.6434 147.713 87.359C140.134 89.7789 141.489 96.9818 138.721 102.942C134.606 103.394 130.501 103.912 126.405 104.486C125.163 97.9516 123.581 91.7937 121.472 85.4946C122.545 82.3404 123.769 79.2426 125.116 76.2014C129.221 67.0588 135.482 62.0497 144.606 58.5283Z" fill="#F9EFDD"/>
<path d="M184.171 101.398C184.896 103.987 184.651 105.117 187.156 106.454C187.928 106.859 188.738 107.207 189.538 107.574C191.176 109.175 191.45 110.682 191.958 112.819C191.572 115.54 190.461 117.687 188.314 119.504C187.429 120.257 186.356 120.559 185.32 121.03C184.586 121.359 183.889 121.736 183.173 122.093C181.667 120.578 181.431 120.625 179.303 120.286C174.257 119.871 169.219 117.16 164.276 115.907C154.634 113.459 143.288 116.905 133.741 118.676C131.283 118.054 128.769 117.847 126.255 117.546C124.241 115.446 124.711 114.241 124.589 111.407C130.841 104.778 137.206 110.183 143.514 106.096C144.183 104.571 144.974 103.064 146.386 102.076C150.473 99.2416 156.536 101.332 160.914 102.377C166.828 102.104 174.144 100.343 179.849 101.294C181.422 101.558 182.561 101.605 184.171 101.398Z" fill="#000618"/>
<path d="M143.514 106.096C143.891 105.974 144.268 105.851 144.644 105.738C146.631 105.117 148.749 104.401 150.849 104.439C154.248 104.505 181.648 105.955 183.032 106.633C185.122 107.65 186.252 108.921 186.987 111.162C187.438 112.555 187.156 113.638 186.902 115.05C185.565 116.482 185.339 116.905 183.239 116.915C174.821 116.943 166.253 111.67 157.167 111.538C147.488 111.397 133.976 116.576 126.5 115.663L124.589 111.407C130.841 104.778 137.206 110.183 143.514 106.096Z" fill="#1C83DA"/>
<path d="M133.741 118.676C143.288 116.905 154.634 113.459 164.276 115.907C169.219 117.16 174.257 119.871 179.303 120.286C178.06 123.28 176.441 126.293 174.445 128.844C170.208 134.268 163.494 140.84 156.517 141.838C149.145 139.108 152.553 133.355 147.554 129.588C142.074 128.261 137.422 130.05 132.498 132.281C130.144 128.939 127.046 125.69 126.877 121.557C129.137 119.372 130.728 119.372 133.741 118.676Z" fill="#CA8E73"/>
<path d="M91.0027 64.9968C94.1946 66.0325 97.4995 67.0305 100.418 68.6971C109.815 74.064 118.12 85.2405 120.558 95.6919C121.462 99.5335 122.536 105.258 120.361 108.742C121.67 111.548 123.063 114.015 123.101 117.16C122.169 119.4 120.078 120.898 119.485 122.536C118.882 129.343 113.92 138.411 108.874 142.827C103.074 147.892 95.1551 150.717 87.4436 149.86C77.0299 148.712 70.5331 142.309 64.5729 134.428C69.2902 131.81 73.9698 129.475 78.9318 127.357C76.7474 126.114 73.6967 126.039 71.2298 125.718C67.2752 127.865 60.6372 132.46 56.033 132.243C54.4888 132.168 54.517 131.773 53.5001 130.756C52.8504 127.564 54.0274 125.709 55.4115 122.865C56.2966 120.832 57.0498 119.156 58.8011 117.743C60.3547 116.51 59.8369 117.395 60.2512 115.408C59.2814 115.003 58.5563 114.438 57.6995 113.826C57.3322 112.414 56.9933 110.964 56.8991 109.495C56.0988 97.1984 61.8424 84.9298 69.4973 75.7024C77.2276 72.9531 84.0633 69.3751 91.0027 64.9968Z" fill="#F9EFDD"/>
<path d="M78.9321 127.357C93.1875 123.091 104.675 121.689 119.485 122.536C118.883 129.343 113.921 138.411 108.874 142.827C103.074 147.892 95.1554 150.717 87.4439 149.86C77.0302 148.712 70.5334 142.309 64.5732 134.428C69.2905 131.81 73.9701 129.475 78.9321 127.357Z" fill="#CA8E73"/>
<path d="M83.0088 110.39C86.1159 110.531 89.2985 107.546 92.3209 106.661C96.3696 105.484 101.755 108.337 106.444 107.537C111.115 108.601 115.738 107.64 120.361 108.742C121.67 111.548 123.063 114.015 123.101 117.16C122.169 119.4 120.078 120.898 119.485 122.536C104.674 121.689 93.1871 123.091 78.9318 127.357C76.7474 126.114 73.6967 126.039 71.2298 125.718C67.2752 127.865 60.6372 132.46 56.033 132.243C54.4888 132.168 54.517 131.773 53.5001 130.756C52.8504 127.564 54.0274 125.709 55.4115 122.865C56.2966 120.832 57.0498 119.156 58.8011 117.743C60.3547 116.51 59.8369 117.395 60.2512 115.408C64.4129 113.412 70.4859 114.382 75.109 113.233C77.7642 112.584 80.41 111.284 83.0088 110.39Z" fill="#1C83DA"/>
<path d="M83.0084 110.39C86.1156 110.531 89.2981 107.546 92.3205 106.661C96.3692 105.484 101.755 108.337 106.444 107.537C111.114 108.601 115.737 107.64 120.36 108.742C121.669 111.548 123.063 114.015 123.1 117.16C122.168 119.4 120.078 120.898 119.485 122.536C104.674 121.689 93.1868 123.091 78.9315 127.357C76.747 126.114 73.6963 126.039 71.2294 125.718C81.0499 122.084 92.3582 117.932 102.904 117.404C108.129 117.15 116.057 120.05 120.586 118.073C121.01 115.54 120.982 115.211 119.993 112.847C119.108 112.414 119.005 112.31 117.893 112.094C115.464 111.614 112.47 112.207 109.947 112.009C89.8536 110.361 89.9477 113.478 71.5872 118.092C65.4105 119.636 61.2018 119.542 55.4111 122.865C56.2962 120.832 57.0494 119.156 58.8008 117.743C60.3543 116.51 59.8365 117.395 60.2508 115.408C64.4125 113.412 70.4855 114.382 75.1086 113.233C77.7639 112.584 80.4097 111.284 83.0084 110.39Z" fill="#000618"/>
<path d="M83.0088 110.39C83.2442 107.735 83.3572 104.599 84.2611 102.085C85.5134 98.6108 90.2212 92.2269 93.7144 90.8522C95.0891 90.3155 96.2567 90.1555 97.5561 91.0123C99.4957 92.3023 100.249 94.4301 101.049 96.4828C100.334 97.9045 99.6087 99.3074 98.8366 100.701C102.612 102.904 104.288 103.592 106.444 107.537C101.755 108.337 96.3696 105.484 92.3209 106.661C89.2985 107.546 86.116 110.531 83.0088 110.39Z" fill="#010201"/>
<path d="M131.189 168.579C139.757 168.88 147.195 169.803 155.02 173.559C165.65 178.616 173.653 187.947 177.043 199.227C177.749 201.562 178.05 202.616 176.949 204.81C176.45 204.923 175.96 205.196 175.461 205.14C174.058 204.98 172.853 200.535 172.467 199.481C169.002 190.084 162.157 182.316 153.259 177.721C139.258 170.603 123.374 172.411 108.987 177.213C98.0173 182.034 88.112 190.272 81.135 199.999C78.5362 203.614 74.7323 213.105 71.1638 215.007C70.8531 214.188 70.7119 213.99 70.693 212.983C70.6177 205.45 77.1522 197.259 81.8883 191.873C95.3809 176.535 111.049 169.812 131.189 168.579Z" fill="#010201"/>
<path d="M58.6985 143.213C58.7927 143.26 58.8869 143.288 58.9716 143.345C61.4291 144.992 61.7774 146.932 62.5401 149.681C64.9881 158.466 68.2178 172.175 63.0674 180.527C60.93 184.001 58.4443 184.576 54.6874 185.357C52.616 184.482 50.441 183.38 48.8592 181.732C46.477 179.237 45.7048 175.48 45.6954 172.147C45.6672 162.279 51.7497 150.086 58.6985 143.213Z" fill="#000618"/>
<path d="M52.9739 160.312C54.6687 157.063 56.2881 153.73 58.1242 150.557C59.1882 155.5 60.5157 160.556 61.1183 165.584C61.4479 168.776 62.1729 173.437 60.5817 176.365C59.3953 178.55 58.2089 178.917 55.9585 179.661C53.6235 178.785 52.5218 178.164 51.2507 175.932C48.5578 171.196 51.3732 164.972 52.9739 160.312Z" fill="#1C83DA"/>
<path d="M52.9727 160.312C54.6675 157.063 56.2869 153.73 58.123 150.557C59.187 155.5 60.5145 160.556 61.1171 165.584C59.4317 162.891 59.2152 160.095 56.3528 158.541L52.9727 160.312Z" fill="#1B80D6"/>
<path d="M184.219 129.956C184.558 130.276 184.934 130.568 185.245 130.916C191.017 137.234 197.335 148.608 196.986 157.233C196.789 162.129 194.444 165.161 191.008 168.39C189.2 168.4 187.091 168.541 185.358 167.957C182.844 167.1 180.641 164.662 179.549 162.298C175.151 152.807 180.886 138.919 184.219 129.956Z" fill="#000618"/>
<path d="M184.868 139.512C187.495 141.217 188.917 144.54 190.056 147.365C192.457 153.278 192.57 158.466 190.047 164.247C187.316 163.739 185.377 163.39 183.823 160.867C180.198 154.963 183.051 145.651 184.868 139.512Z" fill="#1C83DA"/>
<path d="M59.9405 208.219C62.1437 210.544 61.9554 213.312 62.4451 216.41C62.9535 219.64 63.3396 221.768 66.2396 223.66C70.1377 226.221 75.6176 223.161 79.8358 222.267L81.1728 223.585L80.9846 225.816C78.706 227.219 76.465 228.406 73.8286 228.999C70.0152 229.865 66.0889 228.603 62.8687 226.513C60.2982 224.847 58.3963 222.22 57.8219 219.188C57.0875 215.309 57.8408 211.495 59.9405 208.219Z" fill="#010201"/>
<path d="M127.329 184.472C131.585 184.576 134.965 184.962 138.449 187.542L138.261 188.7C133.223 190.329 128.224 188.916 123.017 190.065C122.706 190.131 122.395 190.206 122.085 190.282C120.314 191.364 118.497 192.617 116.548 193.351C114.769 194.02 114.561 193.973 112.904 193.257C113.036 192.457 113.008 192.24 113.488 191.44C116.247 186.845 122.537 185.461 127.329 184.472Z" fill="#010201"/>
<path d="M183.973 197.711L185.951 199.481C186.751 201.646 187.504 203.661 187.09 206.006C186.478 209.452 184.03 211.872 181.252 213.793C176.761 216.909 173.833 216.184 168.645 215.177L167.703 213.331C168.513 210.243 175.151 212.898 179.859 209.32C183.418 206.618 183.408 201.797 183.973 197.711Z" fill="#010201"/>
<path d="M107.208 28.577C107.971 28.6617 108.376 28.6711 109.157 28.9065C111.285 29.5373 112.669 31.5806 113.573 33.5108C115.513 37.6725 115.145 42.6534 113.413 46.7963C112.754 46.382 111.859 46.2125 111.426 45.5629C110.89 44.7531 110.692 40.8079 110.532 39.7816C109.929 35.8553 108.489 32.315 107.208 28.577Z" fill="#010201"/>
<path d="M122.358 26.2983C123.986 27.061 123.76 27.0328 124.617 28.4169C124.278 34.0192 124.363 39.8098 122.979 45.2615C121.472 43.8868 120.606 42.7946 119.956 40.8268C118.403 36.0624 120.248 30.5825 122.358 26.2983Z" fill="#010201"/>
</svg>
